<?xml version="1.0" encoding="UTF-8"?>
<svg width="42px" height="42px" viewBox="0 0 42 42" version="1.1" xmlns="http://www.w3.org/2000/svg" xmlns:xlink="http://www.w3.org/1999/xlink">
    <!-- Generator: Sketch 52.4 (67378) - http://www.bohemiancoding.com/sketch -->
    <title>农业银行</title>
    <desc>Created with Sketch.</desc>
    <defs>
        <polygon id="path-1" points="1.63374023e-16 0 42 0 42 42 1.63374023e-16 42"></polygon>
    </defs>
    <g id="页面-1" stroke="none" stroke-width="1" fill="none" fill-rule="evenodd">
        <g id="弹窗/银行icon" transform="translate(-309.000000, -511.000000)">
            <g id="农业银行" transform="translate(309.000000, 511.000000)">
                <mask id="mask-2" fill="white">
                    <use xlink:href="#path-1"></use>
                </mask>
                <g id="Clip-2"></g>
                <path d="M19.3290234,13.0178664 L21.6248662,13.0178664 C22.0553715,13.0178664 22.7727877,13.167462 22.9164517,12.5689344 C23.0598375,12.4193388 23.0598375,12.1200025 23.0598375,12.1200025 C23.203293,11.8208837 23.0598375,11.2223561 23.0598375,10.9229473 L23.0598375,2.99256545 C23.0598375,2.69322914 23.0598375,0 22.9164517,0 L18.6116768,0 C18.4682214,0 18.4682214,1.34657832 18.4682214,1.49617396 L18.4682214,7.7807862 C18.4682214,9.27688765 18.3248356,10.7733517 18.4682214,12.2695256 C18.6116768,12.5689344 18.8987963,12.8680532 19.3290234,13.0178664 Z" id="Fill-1" fill="#009882" mask="url(#mask-2)"></path>
                <path d="M25.8255846,0.300627196 L25.8255846,6.91755931 C25.8255846,9.02304287 26.1217289,11.1283078 25.8255846,13.2338642 C25.6772971,14.5872332 22.567136,13.6850601 21.6786313,13.9856873 C20.7898395,14.286606 21.0861991,16.0912437 21.0861991,16.6927896 L21.0861991,20.9035381 C21.5303438,20.1514235 22.567136,20.4523423 23.3075685,20.4523423 C24.4924328,20.4523423 25.8255846,20.6026194 27.0104489,20.4523423 C27.4545936,20.3019922 27.7509532,20.0010735 27.7509532,19.5498776 C27.6028811,19.3995276 27.7509532,18.0461586 27.7509532,17.8958815 L27.7509532,5.71446749 C33.5271308,8.42156984 37.3777963,14.5872332 37.3777963,21.0538882 C37.3777963,29.325108 31.157474,36.6938631 23.011496,37.7466049 L23.011496,28.2722933 C23.1595681,27.8210974 23.011496,28.1220161 23.3075685,27.9714475 C23.7520003,27.8210974 28.3433854,28.5729205 27.7509532,27.0692744 C27.4545936,26.6180056 27.7509532,25.4149138 27.7509532,24.9637179 L27.7509532,20.4523423 C27.7509532,21.6554341 26.4180168,21.3545154 25.6772971,21.3545154 C24.4924328,21.3545154 23.3075685,21.2041653 22.122776,21.3545154 C20.9379117,21.3545154 21.2342713,22.858453 21.2342713,23.610349 L21.2342713,27.8210974 L20.493767,27.8210974 C20.1974074,27.6708203 20.3454795,27.8210974 20.3454795,27.3699016 L20.3454795,23.9112677 C20.3454795,23.3097218 20.493767,22.5575343 20.3454795,21.8057112 C20.1974074,20.7529694 18.568183,21.0538882 17.8277505,21.0538882 C16.7909584,21.0538882 15.4580219,21.3545154 14.4212297,21.0538882 C13.9770851,20.9035381 13.8287976,20.6026194 13.8287976,20.1514235 L13.8287976,25.1142866 C13.8287976,25.7158325 13.6807254,26.3173784 13.8287976,26.7683557 C13.9770851,27.6708203 15.3100215,27.5204702 16.0504541,27.5204702 L18.2721105,27.5204702 C18.7165423,27.5204702 18.568183,27.9714475 18.568183,28.4226433 L18.568183,37.2954091 C10.4225639,36.2426673 4.20195451,28.8738392 4.20195451,20.6026194 C4.20195451,14.1360373 8.05283529,7.97030109 13.8287976,5.26356314 L13.8287976,19.2492504 C13.8287976,19.8507963 14.1251572,20.1514235 14.7175894,20.1514235 L17.531678,20.1514235 C18.2721105,20.1514235 20.049407,19.7004463 20.493767,20.6026194 L20.493767,15.790325 C20.493767,14.7375832 20.7898395,13.6850601 19.4569748,13.5344914 L17.2353184,13.5344914 C15.7543815,13.5344914 15.9024537,12.9329455 15.9024537,11.5795765 L15.9024537,0 C6.12725135,2.40618363 -0.685503104,11.8804953 0.055001202,22.1066299 C0.943721209,34.2877524 11.9035007,43.4611453 23.9000007,41.8067847 C34.5637077,40.3031386 42.5615418,30.3775582 41.9691096,19.3995276 C41.0803896,10.6774034 34.5637077,2.55646079 25.8255846,0.300627196 Z" id="Fill-3" fill="#009882" mask="url(#mask-2)"></path>
            </g>
        </g>
    </g>
</svg>