<?xml version="1.0" encoding="UTF-8"?>
<svg width="28px" height="28px" viewBox="0 0 28 28" version="1.1" xmlns="http://www.w3.org/2000/svg" xmlns:xlink="http://www.w3.org/1999/xlink">
    <!-- Generator: Sketch 52.4 (67378) - http://www.bohemiancoding.com/sketch -->
    <title>个人中心--活动</title>
    <desc>Created with Sketch.</desc>
    <g id="蓝色" stroke="none" stroke-width="1" fill="none" fill-rule="evenodd">
        <g id="个人中心" transform="translate(-44.000000, -421.000000)" fill="#6B89FE">
            <path d="M69.3002236,426.21411 L68.3170877,426.21411 C68.8155262,425.369547 69.0343775,424.563971 68.9643891,423.816828 C68.9064471,423.191585 68.6097749,422.297146 67.522664,421.584322 C66.6212422,420.991934 65.4621733,420.846789 64.1762732,421.167646 C62.0909568,421.690665 59.6230858,423.488832 58.0002519,425.661989 C56.3765477,423.489015 53.9104631,421.690665 51.8251467,421.167646 C50.5381473,420.844684 49.3782081,420.990882 48.4769696,421.584322 C47.390729,422.297146 47.0941026,423.191585 47.0361148,423.816828 C46.9661721,424.563971 47.183008,425.369547 47.683462,426.21411 L46.7002802,426.21411 C45.2116519,426.21411 44,427.425288 44,428.913671 L44,432.390988 C44,433.568351 44.7774304,434.608805 45.9019174,434.958262 C45.7951026,435.253724 45.7391302,435.559207 45.7391302,435.868625 L45.7391302,446.300804 C45.7391302,447.788135 46.9520187,449 48.4410135,449 L67.5625592,449 C69.0513708,449 70.2622898,447.788318 70.2622898,446.300804 L70.2622898,435.868625 C70.2622898,435.557239 70.2084701,435.250704 70.1016095,434.95721 C71.2245391,434.605785 72,433.565331 72,432.390805 L72,428.914586 C72,427.426341 70.7890352,426.21411 69.3002236,426.21411 Z M59,447.65625 L59,436 L68.172113,436 C68.6292606,436 69,436.349853 69,436.778454 L69,446.582031 C69,447.01077 68.6292606,447.65625 68.172113,447.65625 L59,447.65625 Z M60,426 C61.1670679,424.084584 63.7016441,422.578209 64.9430114,422.135473 C66.6763686,421.517268 67.5755665,423.107065 67.6363525,423.361328 C67.8892822,424.419312 67.3341403,425.506759 67,426 L60,426 Z M70.7832031,433 C70.7832031,433.510853 70.3088379,434 69.5567033,434 L59,434 L59,427.516846 L69.8758545,427.516846 C70.6225173,427.516846 70.7832031,428.416204 70.7832031,428.926894 L70.7832031,433 Z M58,436 L58,447.628906 L48.2216797,447.628906 C47.7173751,447.628906 47,446.97598 47,446.547241 L47,436.778454 C47,436.349853 47.4079369,436 47.9122415,436 L58,436 Z M50.2548828,422.136757 C50.9847157,422.190772 51.5664214,422.295576 52,422.451172 C53.2382613,422.892612 54.8291422,424.08283 56,426 L49.1032715,426 C48.8036133,425.568787 48.3577405,424.478575 48.4234619,423.517822 C48.6768961,422.597112 49.2873698,422.136757 50.2548828,422.136757 Z M45.2716064,429 C45.2716064,428.489311 45.9108781,427.540649 46.4133301,427.540649 L58,427.540649 L58,434 L46.2559814,434 C45.7535295,434 45.2716064,433.345204 45.2716064,432.834351 L45.2716064,429 Z" id="个人中心--活动"></path>
        </g>
    </g>
</svg>