<?xml version="1.0" encoding="UTF-8"?>
<svg width="17px" height="17px" viewBox="0 0 17 17" version="1.1" xmlns="http://www.w3.org/2000/svg" xmlns:xlink="http://www.w3.org/1999/xlink">
    <!-- Generator: Sketch 52.4 (67378) - http://www.bohemiancoding.com/sketch -->
    <title>支付宝</title>
    <desc>Created with Sketch.</desc>
    <defs>
        <polygon id="path-1" points="4.72340743e-17 0 17 0 17 17 4.72340743e-17 17"></polygon>
    </defs>
    <g id="页面-1" stroke="none" stroke-width="1" fill="none" fill-rule="evenodd">
        <g id="充值/银行卡支付" transform="translate(-25.000000, -367.000000)">
            <g id="支付宝" transform="translate(25.000000, 367.000000)">
                <mask id="mask-2" fill="white">
                    <use xlink:href="#path-1"></use>
                </mask>
                <g id="Clip-2"></g>
                <path d="M8.50005188,17 C3.80547706,17 0,13.1945229 0,8.50005188 C0,3.80547706 3.80547706,0 8.50005188,0 C13.1945229,0 17,3.80547706 17,8.50005188 C17,13.1945229 13.1945229,17 8.50005188,17 Z M10.1766665,9.54169744 C10.9042723,8.21907009 11.1690261,6.96195674 11.1690261,6.96195674 L8.72101895,6.96195674 L8.72101895,6.03581669 L11.6314009,6.03581669 L11.6314009,5.63893511 L8.72101895,5.63893511 L8.72101895,4.25002594 L7.39799731,4.25002594 L7.39799731,5.63893511 L4.75195404,5.63893511 L4.75195404,6.03581669 L7.39799731,6.03581669 L7.39799731,6.96237178 L5.14883563,6.96237178 L5.14883563,7.35883833 L9.71337856,7.35883833 C9.71337856,7.42516165 9.71337856,7.42516165 9.64707599,7.49104918 C9.64707599,7.9543371 9.31641396,8.6156404 9.05207526,9.14512713 C5.67801108,7.82212625 4.68604576,8.6156404 4.42131277,8.74818329 C2.17215109,10.3356266 4.28910192,12.3199516 4.61974319,12.2540433 C7.00103272,12.7831357 8.52250552,11.7907761 9.58077341,10.534057 C9.64707599,10.6003596 9.71337856,10.6003596 9.77928684,10.6003596 C10.5068305,10.9969299 14.0126904,12.6510079 14.0126904,12.6510079 L14.0126904,10.6662679 C13.483598,10.6662679 11.5654926,10.0049646 10.1762514,9.54169744 L10.1766665,9.54169744 Z M8.45668024,10.1370925 C6.80341163,12.2536282 4.81867165,11.5923249 4.48803038,11.4601141 C3.69410119,11.2616837 3.42974174,9.80645118 4.42170706,9.34366131 C6.07539072,8.81407082 7.53062321,9.40948658 8.58928539,9.93866203 C8.55500312,10.0108789 8.51034486,10.0777625 8.45668024,10.1370925 Z" id="Fill-1" fill="#479CFF" mask="url(#mask-2)"></path>
            </g>
        </g>
    </g>
</svg>