<?xml version="1.0" encoding="UTF-8"?>
<svg width="29px" height="27px" viewBox="0 0 29 27" version="1.1" xmlns="http://www.w3.org/2000/svg" xmlns:xlink="http://www.w3.org/1999/xlink">
    <!-- Generator: Sketch 52.4 (67378) - http://www.bohemiancoding.com/sketch -->
    <title>个人中心--交易分析</title>
    <desc>Created with Sketch.</desc>
    <g id="蓝色" stroke="none" stroke-width="1" fill="none" fill-rule="evenodd">
        <g id="个人中心" transform="translate(-303.000000, -250.000000)" fill="#6B89FE">
            <path d="M326.811602,270.198389 L331.663299,275.074755 C332.109831,275.500425 332.109831,276.221749 331.677545,276.65464 C331.245435,277.105407 330.525119,277.119849 330.092833,276.668906 L325.208864,271.785319 C324.265108,272.571674 323.206113,273.220922 322.053687,273.693351 C320.594898,274.302886 319.010187,274.638253 317.335299,274.638253 C313.740625,274.638253 310.311708,273.040492 307.974234,270.274075 C306.796395,268.896281 308.197258,267.897228 309.544238,269.37959 C311.449603,271.471662 314.176116,273 317,273 C318.368656,273 320.203216,272.704625 321.381055,272.217578 C322.60563,271.712612 323.717466,270.934071 324.639591,270.014265 L324.657617,270 C325.579566,269.069363 326.488529,267.922747 327,266.685449 C327.479155,265.52419 327.954541,263.880338 327.954541,262.509766 C327.954541,261.171554 327.664198,259.726145 327.192253,258.554011 L327.177832,258.507076 C326.680782,257.298882 325.954396,256.076349 325.057508,255.167594 L324.999999,255.113395 C324.063453,254.190023 322.605806,253.019816 321.381055,252.52207 C320.214208,252.017104 318.703955,251.79541 317.335299,251.79541 C313.243576,251.79541 309.530234,254.060746 307.974234,257.563105 C307.783416,257.981379 307.392383,258.521971 306.5,258.347949 C306.077932,258 306.077932,257.367905 306.240039,257 C308.177675,252.646476 312.46197,250 317.338904,250 C318.995766,250 320.591293,250.335411 322.057293,250.945078 C323.562863,251.561834 324.924264,252.485074 326.044418,253.606928 L326.109357,253.664561 C327.215046,254.79346 328.097468,256.124494 328.713361,257.603246 L328.738598,257.6681 C329.33286,259.11088 329.653513,260.665493 329.653513,262.31741 C329.653513,263.983812 329.314833,265.574352 328.716967,267.017132 C328.234382,268.171347 327.596857,269.24609 326.811602,270.198389 Z M303.604841,264.268154 C303.268507,264.268154 303,263.992845 303,263.641311 C303,263.303095 303.265269,263.01467 303.604841,263.01467 L308.077703,263.01467 L310.752505,258.398458 C310.833321,258.255966 310.969213,258.149705 311.124332,258.110034 C311.279648,258.066841 311.447914,258.093436 311.586846,258.17962 C311.674295,258.23273 311.738925,258.305636 311.787486,258.385181 L314.391026,262.669775 L315.684643,261.267039 C315.914262,261.024965 316.302473,261.008327 316.548278,261.253762 C316.599958,261.31339 316.648519,261.373139 316.677656,261.446045 L318.187942,264.563218 L320.050947,256.475141 C320.128526,256.136925 320.461623,255.937841 320.791522,256.017507 C320.898237,256.04726 320.992162,256.097052 321.072978,256.179916 L323.828557,259.038538 C324.058215,259.274014 324.058215,259.671858 323.822083,259.923891 C323.585989,260.152728 323.19458,260.152728 322.958447,259.907294 L320.982449,257.85796 L318.977117,266.519891 C318.941625,266.695577 318.818722,266.858107 318.653693,266.924373 C318.352971,267.093583 317.993935,266.967526 317.848371,266.659023 L315.979049,262.772596 L314.750061,264.092306 C314.707975,264.145457 314.662612,264.188609 314.604497,264.211683 C314.316566,264.39417 313.951213,264.307987 313.769998,264.0194 L311.282886,259.92721 L308.954288,263.936536 C308.853889,264.142138 308.653407,264.268154 308.423788,264.268154 L303.604841,264.268154 Z" id="个人中心--交易分析"></path>
        </g>
    </g>
</svg>