<?xml version="1.0" encoding="UTF-8"?>
<svg width="17px" height="20px" viewBox="0 0 17 20" version="1.1" xmlns="http://www.w3.org/2000/svg" xmlns:xlink="http://www.w3.org/1999/xlink">
    <!-- Generator: Sketch 52.4 (67378) - http://www.bohemiancoding.com/sketch -->
    <title>安卓</title>
    <desc>Created with Sketch.</desc>
    <g id="页面-1" stroke="none" stroke-width="1" fill="none" fill-rule="evenodd">
        <g id="下载页面" transform="translate(-68.000000, -537.000000)" fill="#FFFFFF">
            <g id="安卓" transform="translate(68.000000, 537.000000)">
                <path d="M1.52053679,6.26326925 C0.681462141,6.26326925 0,6.94746991 0,7.79002059 L0,12.4944287 C0,13.3369512 0.681462141,14.0211519 1.52053679,14.0211519 C2.35949914,14.0211519 3.04096128,13.3369512 3.04096128,12.4944287 L3.04096128,7.79002059 C3.04096128,6.94746991 2.35949914,6.26326925 1.52053679,6.26326925 Z M2.26584126,12.4944287 C2.26584126,12.9070353 1.93146916,13.2428208 1.52053679,13.2428208 C1.1095202,13.2428208 0.77512002,12.9070353 0.77512002,12.4944287 L0.77512002,7.79002059 C0.77512002,7.37727309 1.1095202,7.04162855 1.52053679,7.04162855 C1.93146916,7.04162855 2.26584126,7.37727309 2.26584126,7.79002059 L2.26584126,12.4944287 Z M3.30076644,6.70587124 L3.30076644,15.2998769 C3.30932929,15.7212228 3.59249277,16.3456017 4.33998709,16.3456017 L5.24079845,16.2343874 L5.24287599,18.9628736 L5.25778377,19.0591184 C5.35363149,19.3841912 5.75821893,20 6.60156096,20 C7.19573823,20 7.61093798,19.7370324 7.87293299,19.2003 L7.96021786,19.0720018 L7.85372975,16.3456017 L9.12720739,16.2343874 L9.13147477,19.0163805 C9.19528903,19.3563383 9.55731492,20 10.4836744,20 C11.4185968,20 11.7763272,19.3392826 11.8423313,18.9437036 L11.7315758,16.3434028 L12.6920464,16.3413166 C12.7090598,16.3434028 12.7537831,16.3476878 12.8198153,16.3476878 C12.9901176,16.3476878 13.2372049,16.3092632 13.4501811,16.1274581 C13.6716078,15.9371674 13.7823633,15.654917 13.7823633,15.2891925 L13.6716078,6.59254258 L3.30076644,6.70587124 Z M13.0093209,15.2935057 C13.0093209,15.4090051 12.9858502,15.503051 12.9475842,15.5373033 C12.922036,15.5586723 12.8772846,15.5714429 12.8218928,15.5714429 L12.7474382,15.5672706 L11.0672113,15.6783721 L11.0756619,18.8688277 C11.0672113,18.9051662 10.9840815,19.2216689 10.4858643,19.2216689 C10.2025885,19.2216689 9.98753474,19.1169385 9.90232741,18.9457897 L9.79157191,15.5672706 L7.18509784,15.5672706 L7.18925293,18.8410876 C7.12543867,18.9736708 7.00612033,19.2216689 6.60156096,19.2216689 C6.22670485,19.2216689 6.06704287,18.9864414 6.01799601,18.8966806 L5.90735282,15.5650717 L4.3357197,15.5650717 C4.17176226,15.5650717 4.08444931,15.4710258 4.07591454,15.2891925 L3.96513097,7.37090188 L13.0093209,7.25965937 L13.0093209,15.2935057 Z M10.8947191,1.99506372 L12.0340549,0.327158989 L11.4419551,0.0170556819 L10.2260591,1.79188967 C9.73618013,1.67647486 9.17830371,1.61019732 8.54364244,1.61019732 C8.02195457,1.61019732 7.56618659,1.66359148 7.14461383,1.74278058 L5.68581375,0 L5.22796822,0.489709504 L6.33319296,1.95012693 C3.35189084,2.9659126 3.30076644,5.9574792 3.30076644,6.00018888 L3.40936017,6.37659791 L13.7866307,6.37659791 L13.7844409,5.98521935 C13.7844409,5.95107979 13.7247817,3.05564522 10.8947191,1.99506372 Z M4.09719532,5.72225174 C4.19304304,4.93960738 4.79356523,2.39061458 8.54364244,2.39061458 C11.6847469,2.39061458 12.7409529,4.15479229 13.0987956,5.5982668 L4.09719532,5.72225174 Z M15.4795755,6.26326925 C14.6405009,6.26326925 13.9590387,6.94746991 13.9590387,7.79002059 L13.9590387,12.4944287 C13.9590387,13.3369512 14.6405009,14.0211519 15.4795755,14.0211519 C16.3186502,14.0211519 17,13.3369512 17,12.4944287 L17,7.79002059 C17,6.94746991 16.3164603,6.26326925 15.4795755,6.26326925 Z M16.2228024,12.4944287 C16.2228024,12.9070353 15.8884303,13.2428208 15.477498,13.2428208 C15.0664533,13.2428208 14.7320812,12.9070353 14.7320812,12.4944287 L14.7320812,7.79002059 C14.7320812,7.37727309 15.0664533,7.04162855 15.477498,7.04162855 C15.8884303,7.04162855 16.2228024,7.37727309 16.2228024,7.79002059 L16.2228024,12.4944287 Z" id="Fill-1"></path>
                <path d="M6.59993041,5 C6.2680251,5 6,4.77496885 6,4.50003398 C6,4.22512176 6.27003664,4 6.59993041,4 C6.93197164,4 7.19999674,4.22512176 7.19999674,4.50003398 C7.19999674,4.77496885 6.92985136,5 6.59993041,5 Z M10.4000424,5 C10.0680012,5 9.80000326,4.77496885 9.80000326,4.50003398 C9.80000326,4.22512176 10.0701486,4 10.4000424,4 C10.7319749,4 11,4.22512176 11,4.50003398 C11,4.77496885 10.7319749,5 10.4000424,5 Z" id="Fill-2"></path>
            </g>
        </g>
    </g>
</svg>