<?xml version="1.0" encoding="UTF-8"?>
<svg width="21px" height="19px" viewBox="0 0 21 19" version="1.1" xmlns="http://www.w3.org/2000/svg" xmlns:xlink="http://www.w3.org/1999/xlink">
    <!-- Generator: Sketch 52.4 (67378) - http://www.bohemiancoding.com/sketch -->
    <title>地区</title>
    <desc>Created with Sketch.</desc>
    <g id="页面-1" stroke="none" stroke-width="1" fill-rule="evenodd">
        <g id="设置--编辑资料" transform="translate(-31.000000, -301.000000)">
            <g id="地区" transform="translate(31.000000, 301.000000)">
                <path d="M9.99560534,15.5554895 L10.4250855,16 L10.859488,15.5602436 C10.9203977,15.4984995 12.3940126,14.0032982 13.892906,12.1064032 C15.9532612,9.49641955 17,7.46869707 17,6.08055267 C17,4.45699005 16.3241499,2.92850988 15.0970637,1.78047838 C13.8699458,0.632328034 12.2364667,0 10.5012385,0 C8.76601036,0 7.1299272,0.632328034 5.90280926,1.78047838 C4.67572308,2.92850988 4,4.45699005 4,6.08055267 C4,7.46637944 5.02130154,9.49163572 7.03341802,12.1016491 C8.4942349,13.998544 9.93469562,15.4937156 9.99560534,15.5554895 Z M5.1660812,6.08055267 C5.1660812,3.33020354 7.55677155,1.09347794 10.4961574,1.09347794 C13.4355115,1.09347794 15.8262336,3.33020354 15.8262336,6.08055267 C15.8262336,6.68664389 15.5340703,7.51386124 14.9598422,8.53362056 C14.4771692,9.38939236 13.803955,10.371089 12.9528386,11.4479572 C11.9696135,12.6934779 10.9788304,13.7798841 10.4301666,14.3646115 C9.89401505,13.7822018 8.93114618,12.7006685 7.97593072,11.4622493 C7.14517051,10.3830337 6.48462722,9.40121824 6.01211647,8.54315852 C5.45313172,7.51861536 5.1660812,6.68908037 5.1660812,6.08055267 Z" id="Fill-1"></path>
                <path d="M19.2636746,14.754649 C18.3467278,14.4166501 17.0509078,14.137294 15.5182195,13.9434234 L15.3506793,14.9687713 C16.7856063,15.1489811 17.9782875,15.4035788 18.8052012,15.707806 C19.642419,16.0165398 19.8149825,16.2734472 19.8149825,16.3252737 C19.8149825,16.4220822 19.3796614,16.908857 17.3625782,17.3482838 C15.5361874,17.7448128 13.0992717,17.9656388 10.4999356,17.9656388 C7.90072835,17.9656388 5.46381256,17.7471225 3.6374218,17.3482838 C1.62285022,16.908857 1.18501748,16.4220822 1.18501748,16.3252737 C1.18501748,16.2734472 1.35494051,16.0165398 2.18713506,15.7101156 C3.00886439,15.4058884 4.19639352,15.1512907 5.62356017,14.9709683 L5.45347614,13.9457331 C3.92597215,14.137294 2.63794468,14.4189597 1.72602122,14.754649 C0.579612365,15.1782461 0,15.705609 0,16.3252737 C0,16.8119076 0.360615493,17.2468559 1.07167106,17.6118947 C1.62033857,17.8935605 2.38800294,18.1436516 3.3513831,18.3532672 C5.26809679,18.7701607 7.80538211,19 10.4999356,19 C13.1946179,19 15.7319354,18.7701607 17.6484881,18.3532672 C18.6145087,18.1436516 19.3796614,17.8935605 19.9283289,17.6118947 C20.6393845,17.2468559 21,16.8142173 21,16.3252737 C21,15.707806 20.4152355,15.1782461 19.2636746,14.754649 Z M10.4846081,8.92087204 C11.72105,8.92087204 12.7256793,8.04199033 12.7256793,6.96042194 C12.7256793,5.87888171 11.72105,5 10.4846081,5 C9.24800509,5 8.24337586,5.87888171 8.24337586,6.96042194 C8.24337586,8.04199033 9.25064555,8.92087204 10.4846081,8.92087204 Z M10.4846081,6.03655821 C11.0667321,6.03655821 11.5406618,6.45111389 11.5406618,6.96042194 C11.5406618,7.46961732 11.0667321,7.88431383 10.4846081,7.88431383 C9.90235525,7.88431383 9.42839334,7.46961732 9.42839334,6.96042194 C9.42839334,6.45111389 9.90235525,6.03655821 10.4846081,6.03655821 Z" id="Fill-2"></path>
            </g>
        </g>
    </g>
</svg>