<?xml version="1.0" encoding="UTF-8"?>
<svg width="30px" height="30px" viewBox="0 0 30 30" version="1.1" xmlns="http://www.w3.org/2000/svg" xmlns:xlink="http://www.w3.org/1999/xlink">
    <!-- Generator: Sketch 52.4 (67378) - http://www.bohemiancoding.com/sketch -->
    <title>钱包</title>
    <desc>Created with Sketch.</desc>
    <g id="页面-1" stroke="none" stroke-width="1" fill-rule="evenodd">
        <g id="资金账户" transform="translate(-154.000000, -217.000000)">
            <g id="钱包" transform="translate(154.000000, 217.000000)">
                <circle id="椭圆形"  cx="15" cy="15" r="15"></circle>
                <path d="M8.66479492,10 L22.5115967,10 C23.6161662,10 24.5115967,10.8954305 24.5115967,12 L24.5115967,20 C24.5115967,21.1045695 23.6161662,22 22.5115967,22 L8.66479492,22 C7.56022542,22 6.66479492,21.1045695 6.66479492,20 L6.66479492,12 C6.66479492,10.8954305 7.56022542,10 8.66479492,10 Z" id="矩形" fill="#FFFFFF"></path>
                <path d="M19.6425171,14.0643311 L24.5075684,14.0643311 L24.5075684,17.3493652 L19.6425171,17.3493652 C18.7353799,17.3493652 18,16.6139853 18,15.7068481 L18,15.7068481 C18,14.799711 18.7353799,14.0643311 19.6425171,14.0643311 Z" id="矩形"></path>
                <path d="M20.5,16 C20.7761424,16 21,15.7761424 21,15.5 C21,15.2238576 20.7761424,15 20.5,15 C20.2238576,15 20,15.2238576 20,15.5 C20,15.7761424 20.2238576,16 20.5,16 Z" id="椭圆形" fill="#FFFFFF"></path>
                <path d="M13.4139404,9 L21.1691895,9 C21.1118978,7.19856771 20.2065023,6.39546712 18.4530029,6.59069824 C15.0936279,8.2927653 13.4139404,9.09586589 13.4139404,9 Z" id="路径-46" fill="#FFFFFF"></path>
            </g>
        </g>
    </g>
</svg>