<?xml version="1.0" encoding="UTF-8"?>
<svg width="17px" height="17px" viewBox="0 0 17 17" version="1.1" xmlns="http://www.w3.org/2000/svg" xmlns:xlink="http://www.w3.org/1999/xlink">
    <!-- Generator: Sketch 52.4 (67378) - http://www.bohemiancoding.com/sketch -->
    <title>银行卡</title>
    <desc>Created with Sketch.</desc>
    <defs>
        <polygon id="path-1" points="3 5 14 5 14 13 3 13"></polygon>
    </defs>
    <g id="页面-1" stroke="none" stroke-width="1" fill="none" fill-rule="evenodd">
        <g id="充值/银行卡支付" transform="translate(-25.000000, -316.000000)">
            <g id="银行卡" transform="translate(25.000000, 316.000000)">
                <circle id="椭圆形" fill="#F5A623" cx="8.5" cy="8.5" r="8.5"></circle>
                <mask id="mask-2" fill="white">
                    <use xlink:href="#path-1"></use>
                </mask>
                <g id="Clip-2"></g>
                <path d="M3.01321423,6.62301942 L14,6.62301942 L14,5.8772886 C14,5.3932389 13.5973957,5 13.1023053,5 L3.89770814,5 C3.4015568,5 3,5.3932389 3,5.8772886 L3,12.1227824 C3,12.6067753 3.40265798,13 3.89770814,13 L13.1023053,13 C13.5984969,13 14,12.6079399 14,12.1227824 L14,7.81558938 L3.01321423,7.81558938 L3.01321423,6.62301942 Z M10.0737221,9.61432216 C10.3498645,9.61432216 10.5995517,9.71900881 10.7865653,9.88888494 C10.9736326,9.71790101 11.2233332,9.61432216 11.4994622,9.61432216 C12.0759196,9.61432216 12.5423657,10.0704071 12.5423657,10.6323434 C12.5423657,11.1942938 12.0759196,11.6503788 11.4994622,11.6503788 C11.2233332,11.6503788 10.9736326,11.5456921 10.7865653,11.375816 C10.5995517,11.5456921 10.3498645,11.6503788 10.0737221,11.6503788 C9.49726474,11.6503788 9.03081855,11.1942938 9.03081855,10.6323434 C9.03081855,10.0704071 9.49726474,9.61432216 10.0737221,9.61432216 Z" id="Fill-1" fill="#FFFFFF" mask="url(#mask-2)"></path>
            </g>
        </g>
    </g>
</svg>