<?xml version="1.0" encoding="UTF-8"?>
<svg width="28px" height="25px" viewBox="0 0 28 25" version="1.1" xmlns="http://www.w3.org/2000/svg" xmlns:xlink="http://www.w3.org/1999/xlink">
    <!-- Generator: Sketch 52.4 (67378) - http://www.bohemiancoding.com/sketch -->
    <title>个人中心--我的银行卡</title>
    <desc>Created with Sketch.</desc>
    <defs>
        <polygon id="path-1" points="9.44681486e-17 0 34 0 34 28 9.44681486e-17 28"></polygon>
    </defs>
    <g id="蓝色" stroke="none" stroke-width="1" fill-rule="evenodd">
        <g id="个人中心" transform="translate(-131.000000, -338.000000)">
            <g id="个人中心--我的银行卡" transform="translate(145.000000, 350.000000) scale(1, -1) translate(-145.000000, -350.000000) translate(128.000000, 336.000000)">
                <!-- <mask id="mask-2">
                    <use xlink:href="#path-1"></use>
                </mask> -->
                <g id="Clip-2"></g>
                <path d="M28.0845716,26 L5.91556508,26 C4.30549476,26 3,24.3542834 3,22.3208702 L3,4.67705461 C3,2.64587938 4.30549476,1 5.91556508,1 L28.0845716,1 C29.6945052,1 31,2.64587938 31,4.67705461 L31,22.3208702 C31,24.3542834 29.6945052,26 28.0845716,26 Z M29.5684814,7.26226704 C29.5684814,3.92385012 29,2.50915527 27.1906319,2.50915527 L6.58886719,2.50915527 C4.70532227,2.71520996 4.46386719,4.59033291 4.46386719,7.26226704 L4.46386719,9 L29.5684814,9 L29.5684814,7.26226704 Z M4.46386719,11 L4.46386719,21.3536069 C4.46386719,23.2101844 5.11765937,24.5115967 6.54406738,24.5115967 L27.1906319,24.5115967 C28.6170055,24.5115967 29.3953857,23.2122926 29.3953857,21.3536069 L29.3953857,11 L4.46386719,11 Z M20.3793103,22.9396645 L22.0457889,20 L27.6018784,20 L25.9353999,22.9396645 L20.3793103,22.9396645 Z" id="Fill-1"></path>
            </g>
        </g>
    </g>
</svg>