<?xml version="1.0" encoding="UTF-8"?>
<svg width="22px" height="22px" viewBox="0 0 22 22" version="1.1" xmlns="http://www.w3.org/2000/svg" xmlns:xlink="http://www.w3.org/1999/xlink">
    <!-- Generator: Sketch 52.4 (67378) - http://www.bohemiancoding.com/sketch -->
    <title>提款银行卡</title>
    <desc>Created with Sketch.</desc>
    <g id="页面-1" stroke="none" stroke-width="1" fill-rule="evenodd">
        <g id="安全中心" transform="translate(-20.000000, -339.000000)">
            <g id="提款银行卡" transform="translate(20.000000, 339.000000)">
                <path d="M21.6207349,6.99927039 C21.3678215,6.74278005 20.9885565,6.61457483 20.6724147,6.61457483 L3.25580057,6.61457483 C2.81322835,6.61457483 2.49708658,6.42228032 2.24425197,6.16578998 C1.99141735,5.84531689 1.99141735,5.2875836 2.24425197,4.96700397 C2.49708658,4.71062017 2.87643044,4.58241495 3.19249341,4.58241495 L5.94254595,4.58241495 C6.19538056,4.58241495 6.60901896,4.71511271 6.60901896,3.98856038 C6.60901896,3.26200806 6.19538056,3.0690918 5.94254595,3.0690918 L2.27582674,3.0690918 C1.643622,3.0690918 1.07475069,3.2613863 0.632178473,3.77426045 C0.252834613,4.2230453 0,5.02459432 0,5.72973633 L0,19.4357358 C0,20.0768152 0.252834613,20.7819572 0.695406828,21.2307421 C1.13795277,21.6795269 1.70692916,22 2.3391339,22 L20.6724147,22 C21.0517586,22 21.3678215,21.7436162 21.6207349,21.4871259 C21.8735696,21.2307421 22,20.7819572 22,20.3333055 L22,7.9607962 C22,7.57612728 21.8735696,7.31974348 21.6207349,6.99927039 Z M19.9198581,20.4709473 L2.00025254,20.4709473 C1.61950239,20.4709473 1.52107259,20.4009985 1.52107259,19.9488445 L1.55773926,8.34253222 C1.52107259,7.93428285 2.00025254,8.01965332 2.00025254,8.01965332 L19.98329,8.01965332 C20.1102859,8.01965332 20.2371498,8.01965332 20.3005818,8.08422373 C20.3640138,8.14879415 20.4274722,8.2133914 20.4274722,8.34253222 L20.4274722,19.8250821 C20.4274722,20.155212 20.2582675,20.3705004 19.9198581,20.4709473 Z M17.7835137,3.75533799 L17.8438636,3.75533799 C17.9645632,3.75533799 18.0852879,3.75533799 18.1456378,3.82132016 C18.2059876,3.88732976 18.2663625,3.95331194 18.2663625,4.08527629 L18.2663625,4.87725435 C18.2663625,5.14132016 18.6959763,5.28 18.9374007,5.28 C19.1788251,5.28 19.36,5.08202605 19.36,4.75197806 L19.36,4.0260096 C19.36,3.6300617 19.2392753,3.30001371 18.9977756,3.03605759 C18.7563513,2.77199177 18.3941018,2.64 18.0923276,2.64 L18.0319778,2.64 C17.7904531,2.64 17.3609145,2.96325023 17.3609145,3.29329823 C17.3005646,3.55725435 17.541989,3.75533799 17.7835137,3.75533799 Z M6.64842413,6.50241373 L13.0507562,1.69857503 C13.1729066,1.62887559 13.2949809,1.62887559 13.4170299,1.69857503 C13.5391042,1.76824551 13.6001287,1.83791599 13.6611532,1.97740173 L15.6754683,6.02535753 L16.72,5.46309251 L14.6446603,1.0030525 C14.5225099,0.584855882 14.2173368,0.236474528 13.912189,0.097133569 C13.5459153,-0.0422363469 13.1796162,-0.0422363469 12.8744685,0.166804048 L6.16,5.18438163 L6.64842413,6.50241373 Z M17.9399856,17.4662933 L13.7400144,17.4662933 C13.4399649,17.4662933 13.2,17.795603 13.2,18.04 C13.2,18.2844783 13.4399649,18.5583598 13.7400144,18.5583598 L17.9399856,18.5583598 C18.2400351,18.5583598 18.48,18.2844783 18.48,18.04 C18.48,17.795603 18.2400351,17.4662933 17.9399856,17.4662933 Z" id="Fill-1"></path>
            </g>
        </g>
    </g>
</svg>
