<?xml version="1.0" encoding="UTF-8"?>
<svg width="19px" height="17px" viewBox="0 0 19 17" version="1.1" xmlns="http://www.w3.org/2000/svg" xmlns:xlink="http://www.w3.org/1999/xlink">
    <!-- Generator: Sketch 52.4 (67378) - http://www.bohemiancoding.com/sketch -->
    <title>生日</title>
    <desc>Created with Sketch.</desc>
    <defs>
        <polygon id="path-1" points="7.62380037e-17 0 19 0 19 17 7.62380037e-17 17"></polygon>
    </defs>
    <g id="页面-1" stroke="none" stroke-width="1" fill-rule="evenodd">
        <g id="设置--编辑资料" transform="translate(-32.000000, -367.000000)">
            <g id="生日" transform="translate(32.000000, 367.000000)">
                <mask id="mask-2" fill="white">
                    <use xlink:href="#path-1"></use>
                </mask>
                <g id="Clip-2"></g>
                <path d="M18.7564012,16.5404492 L16.8058025,16.5404492 L16.8058025,12.806405 C16.8162525,12.7683909 16.8162525,12.728544 16.8058025,12.6906246 L16.8058025,10.1269926 C16.8043623,9.20924972 16.016091,8.46568299 15.0434711,8.46457701 L11.0437356,8.46457701 L11.0437356,4.16705144 C11.0429317,3.41792321 10.3994867,2.81086612 9.60545452,2.81013933 L9.39481343,2.81013933 C8.60078128,2.81086612 7.95733624,3.41792321 7.95643191,4.16705144 L7.95643191,8.46457701 L3.95683031,8.46457701 C2.98407645,8.46568299 2.19580519,9.20924972 2.19449894,10.1269926 L2.19449894,16.5404492 L0.243598761,16.5404492 C0.108988089,16.5404492 0,16.6432738 0,16.7701772 C0,16.8970806 0.108988089,17 0.243598761,17 L18.7564012,17 C18.8909114,17 19,16.8970806 19,16.7701772 C19,16.6432738 18.8909114,16.5404492 18.7564012,16.5404492 Z M8.44366293,4.16803102 C8.44429931,3.6728044 8.86976817,3.27152294 9.39481343,3.27092256 L9.60545452,3.27092256 C10.1303658,3.27152294 10.5558347,3.6728044 10.5566385,4.16803102 L10.5566385,8.4655566 L8.44366293,8.4655566 L8.44366293,4.16803102 Z M16.3185715,16.5404492 L2.68183044,16.5404492 L2.68183044,12.4385874 C3.10287816,12.6952065 3.7515482,13.0500684 4.1288533,13.0500684 L4.13960474,13.0500684 C4.43568793,13.0447597 4.7271825,12.8301046 5.03555784,12.6026202 C5.23809348,12.4535023 5.51518581,12.2487379 5.6517726,12.2487379 L5.65451908,12.2487379 C5.79060347,12.251961 6.06287273,12.4714192 6.26172407,12.6316284 C6.57468802,12.8844241 6.87077122,13.1219256 7.18266337,13.1253699 L7.18932859,13.1253699 C7.50688117,13.1253699 7.8136823,12.8879948 8.13893839,12.6362104 C8.34984743,12.4731572 8.63755723,12.2504759 8.78067527,12.2504759 L8.78422558,12.2504759 C8.94486076,12.2545522 9.23963771,12.5032715 9.47539897,12.70298 C9.82383262,12.9979925 10.1539118,13.2765733 10.5031158,13.2765733 L10.5239153,13.2765733 C10.851382,13.2659559 11.1311203,12.9881019 11.4274714,12.6952065 C11.604351,12.5181864 11.8722996,12.2533198 11.9998431,12.2533198 C12.1272862,12.2533198 12.3900097,12.5181864 12.5649467,12.6933422 C12.8658529,12.9939162 13.1498785,13.2775845 13.4848142,13.2775845 C13.8510329,13.2775845 14.2012752,12.9575136 14.5399957,12.6479338 C14.7318134,12.4723988 14.9306648,12.290702 15.0587777,12.2381205 C15.2071207,12.2108501 15.7803298,12.4924013 16.3200117,12.8561742 L16.3185715,16.5404492 Z M16.3185715,12.2955051 C15.8215268,11.9845981 15.2045082,11.6761242 14.8716826,11.8133922 C14.6543428,11.9013967 14.4336536,12.1033172 14.1994331,12.3174983 C13.965246,12.5315214 13.652818,12.817528 13.4828716,12.817528 C13.3577731,12.817528 13.0924705,12.5527562 12.9167297,12.3770949 C12.6171297,12.0772792 12.3336066,11.7941166 11.9996087,11.793137 L11.9970966,11.793137 C11.6608547,11.793137 11.374987,12.0772792 11.0721046,12.378106 C10.8972012,12.551271 10.6335398,12.8134517 10.5051924,12.817528 L10.5003693,12.817528 C10.3382604,12.817528 10.0266027,12.554115 9.79857846,12.3624327 C9.4569775,12.0734557 9.13483631,11.8010368 8.79494353,11.7924102 L8.77859866,11.7924102 C8.46131404,11.7924102 8.15347461,12.0302593 7.82754864,12.2820753 C7.61781188,12.4451285 7.3300016,12.6673042 7.18778789,12.6673042 L7.18634767,12.6673042 C7.05079917,12.6658191 6.77615187,12.4446229 6.57599427,12.2835605 C6.26631269,12.03383 5.97310995,11.7979401 5.66500256,11.7906722 C5.37230222,11.7906722 5.0545152,12.0058013 4.73438362,12.2413436 C4.52464686,12.3961177 4.26309555,12.5891588 4.1293892,12.5915287 L4.12456613,12.5915287 C3.86733548,12.5915287 3.15807557,12.1978944 2.68209839,11.8869557 L2.68209839,10.1269926 C2.68290224,9.46305652 3.25333129,8.92485464 3.95709826,8.92412786 L15.0434711,8.92412786 C15.7473386,8.92485464 16.3177676,9.46293012 16.3185715,10.1269926 L16.3185715,12.2955051 Z M9.4298812,2.25244059 C9.98932436,2.29762781 10.3730602,1.99607423 10.3730602,1.43840709 C10.3730602,0.880708348 9.944309,0 9.38329164,0 C9.14217141,0 9.67401586,0.404504595 9.3699612,0.883299503 C9.12897494,1.26198735 7.79171052,2.12000729 9.4298812,2.25244059 Z" id="Fill-1" stroke-width="0.5"  mask="url(#mask-2)"></path>
            </g>
        </g>
    </g>
</svg>