<?xml version="1.0" encoding="UTF-8"?>
<svg width="42px" height="42px" viewBox="0 0 42 42" version="1.1" xmlns="http://www.w3.org/2000/svg" xmlns:xlink="http://www.w3.org/1999/xlink">
    <!-- Generator: Sketch 52.4 (67378) - http://www.bohemiancoding.com/sketch -->
    <title>中国银行</title>
    <desc>Created with Sketch.</desc>
    <defs>
        <polygon id="path-1" points="1.32311734e-16 0 42 0 42 42 1.32311734e-16 42"></polygon>
    </defs>
    <g id="页面-1" stroke="none" stroke-width="1" fill="none" fill-rule="evenodd">
        <g id="弹窗/银行icon" transform="translate(-195.000000, -564.000000)">
            <g id="中国银行" transform="translate(195.000000, 564.000000)">
                <mask id="mask-2" fill="white">
                    <use xlink:href="#path-1"></use>
                </mask>
                <g id="Clip-2"></g>
                <path d="M41.9791884,20.0843229 C41.7094087,12.6431654 37.1010636,7.57776208 37.1010636,7.57776208 C29.9765762,-0.761640621 20.8340595,0.0194420976 20.8340595,0.0194420976 C11.0728108,-0.293926418 5.06912138,7.11004788 5.06458726,7.10525381 C0.958249953,12.0162529 0.493212673,16.5344306 0.493212673,16.5344306 C-1.32514122,24.1347864 2.46962111,30.678225 2.46962111,30.678225 C5.2971059,35.8230813 8.28258711,38.198894 13.1237415,40.4579536 C17.9693718,42.7170717 25.3262034,42.4037616 29.8975199,40.107168 C34.4688945,37.8108666 37.2543515,35.2804743 39.8120565,30.4864037 C42.3652275,25.6923332 41.9791884,20.0843229 41.9791884,20.0843229 Z M18.8576511,37.3477126 C18.8576511,37.3477126 11.1890701,36.917474 6.96653161,29.5180599 C6.96653161,29.5180599 3.32523158,24.2985448 4.83660274,17.7925818 C6.3479739,11.277206 9.87301461,8.66759464 10.5705705,8.00320661 C11.2681264,7.34390498 15.7790462,4.64519403 18.8576511,4.69202391 L18.8576511,12.4464915 L15.6023902,12.4464915 C15.6023902,12.4464915 11.184536,12.7178242 11.0310737,17.6288234 L11.0310737,24.7989406 C11.0310737,24.7989406 11.147333,29.2001897 15.7186495,29.7099397 L18.8576511,29.7099397 L18.8576511,37.3477126 Z M16.225482,25.1451075 C16.225482,25.1451075 15.4489279,25.3415475 15.3326685,24.4435362 L15.3326685,17.5867876 C15.3326685,17.5867876 15.4489279,16.8477991 16.0302244,16.8477991 L25.595925,16.8477991 C25.595925,16.8477991 26.4097403,16.693395 26.4887966,17.5867876 L26.4887966,24.2471547 C26.4887966,24.2471547 26.6840541,25.2995117 25.9075,25.1451075 L16.225482,25.1451075 Z M34.8548754,30.1730352 C31.757669,34.9248946 25.8702389,37.1092953 23.1172763,37.3431524 L23.1172763,29.705321 L26.7585182,29.705321 C26.7585182,29.705321 30.6323369,28.9242968 30.8648555,24.8738333 L30.8648555,16.7308706 C30.8648555,16.7308706 30.2462978,12.6383713 25.944703,12.4464915 L23.1172763,12.4464915 L23.122043,4.69202391 C23.122043,4.69202391 27.9629067,5.07999284 31.8739283,8.70477792 C35.78495,12.329563 36.7940809,15.9497879 37.2173229,17.9001561 C37.6450991,19.8459056 37.9519074,25.4210005 34.8548754,30.1730352 Z" id="Fill-1" fill="#B81C22" mask="url(#mask-2)"></path>
            </g>
        </g>
    </g>
</svg>