<?xml version="1.0" encoding="UTF-8"?>
<svg width="35px" height="35px" viewBox="0 0 35 35" version="1.1" xmlns="http://www.w3.org/2000/svg" xmlns:xlink="http://www.w3.org/1999/xlink">
    <!-- Generator: Sketch 52.4 (67378) - http://www.bohemiancoding.com/sketch -->
    <title>现金钱包</title>
    <desc>Created with Sketch.</desc>
    <g id="页面-1" stroke="none" stroke-width="1" fill="none" fill-rule="evenodd">
        <g id="我的钱包" transform="translate(-44.000000, -86.000000)">
            <g id="现金钱包" transform="translate(44.000000, 86.000000)">
                <circle id="Fill-2" fill="#FFFFFF" cx="17.5" cy="17.5" r="17.5"></circle>
                <path d="M19.4176059,16.6483998 L25.5727471,16.6483998 C26.3541116,16.6483998 26.9952692,16.0577913 26.9952692,15.3242686 C26.9952692,14.5975665 26.3588424,14 25.5703817,14 L10.4247484,14 C9.64120403,14 9,14.5906085 9,15.3242686 C9,16.0507875 9.63647326,16.6507344 10.4247484,16.6507344 L16.5798896,16.6507344 L16.5798896,21.0570894 L10.4247484,21.0570894 C9.64120403,21.0570894 9,21.6476979 9,22.3836926 C9,23.1148807 9.63647326,23.7078238 10.4247484,23.7078238 L16.5798896,23.7078238 L16.5798896,27.6759145 C16.5798896,28.4024335 17.2139975,29 17.9999072,29 C18.7883679,29 19.4224758,28.4093915 19.4224758,27.6759145 L19.4224758,23.7031546 L25.577617,23.7031546 C26.3612077,23.7031546 27,23.1125461 27,22.378886 C27,21.6453633 26.3635267,21.0547548 25.577617,21.0547548 L19.4176059,21.0547548 L19.4176059,16.6483998 Z M14.0009198,6.00005314 C13.4529568,5.99487976 13.0050497,6.55387946 13,7.24940145 L13,9.75061608 C13,10.4373479 13.4450576,10.9999644 13.9990802,10.9999644 C14.5471514,11.0051378 14.9949142,10.4460923 15,9.75061608 L15,7.24940145 C14.9981605,6.91514618 14.8915039,6.59558697 14.7036917,6.36127408 C14.5160237,6.12682383 14.2624213,5.99698574 13.9990802,6.00005314 L14.0009198,6.00005314 Z M20.9990983,6.00003562 C20.4517223,5.99609834 20.0050857,6.55477953 20,7.2493883 L20,9.7506117 C20,10.4373459 20.4449414,10.9999644 20.9990983,10.9999644 C21.5470153,11.0051378 21.9949143,10.4460903 22,9.7506117 L22,7.2493883 C21.9949143,6.55386388 21.5470153,5.99486222 20.9990983,6.00003562 Z" id="Fill-1" fill="#FFAD0C"></path>
            </g>
        </g>
    </g>
</svg>