<?xml version="1.0" encoding="UTF-8"?>
<svg width="42px" height="42px" viewBox="0 0 42 42" version="1.1" xmlns="http://www.w3.org/2000/svg" xmlns:xlink="http://www.w3.org/1999/xlink">
    <!-- Generator: Sketch 52.4 (67378) - http://www.bohemiancoding.com/sketch -->
    <title>建设银行</title>
    <desc>Created with Sketch.</desc>
    <g id="页面-1" stroke="none" stroke-width="1" fill="none" fill-rule="evenodd">
        <g id="弹窗/银行icon" transform="translate(-253.000000, -566.000000)" fill="#003B90">
            <path d="M272.463415,567.466235 C272.463415,567.466235 276.194559,564.720515 282.761491,566.743791 C282.761491,566.743791 284.851065,567.466235 287.388281,569.633915 L295,577.581705 L290.821069,581.627907 L279.030347,569.922795 C279.030347,569.633915 277.090204,567.466235 272.463415,567.466235 Z M289.401575,582.896746 L284.53847,587.349338 C284.53847,587.349338 283.801644,588.498385 283.212155,587.349338 L274.222627,578.875152 C274.222627,578.875152 273.485587,577.726105 272.896098,578.588029 L263.90657,587.492864 C263.90657,587.492864 263.169745,588.354789 264.201457,588.785507 L272.896098,597.259693 C272.896098,597.259693 273.633138,598.40874 274.222627,597.547094 L283.212155,588.641911 C283.212155,588.641911 283.506757,587.923861 284.833285,587.923861 L293.97015,587.923861 C293.97015,587.923861 294.412303,597.116097 287.338578,602.717736 C287.338578,602.717736 278.201427,611.62264 265.232813,606.308403 C265.232813,606.308403 252.853688,601.999407 253.00131,586.631288 C253.00131,586.631288 253.295912,576.289935 263.169745,570.688366 C263.169745,570.688366 270.243541,565.517725 275.843472,569.395723 L289.401575,582.896746 Z" id="建设银行"></path>
        </g>
    </g>
</svg>