<?xml version="1.0" encoding="UTF-8"?>
<svg width="59px" height="27px" viewBox="0 0 59 27" version="1.1" xmlns="http://www.w3.org/2000/svg" xmlns:xlink="http://www.w3.org/1999/xlink">
    <!-- Generator: Sketch 52.4 (67378) - http://www.bohemiancoding.com/sketch -->
    <title>光大银行</title>
    <desc>Created with Sketch.</desc>
    <g id="页面-1" stroke="none" stroke-width="1" fill="none" fill-rule="evenodd">
        <g id="弹窗/银行icon" transform="translate(-297.000000, -457.000000)">
            <g id="光大银行" transform="translate(297.000000, 457.000000)">
                <path d="M0,0 L13.1901877,0 C13.1901877,0 15.6401815,0 16.2051713,0.754553704 L13.7556341,0.754553704 L13.7556341,1.50910741 L17.5242722,1.50910741 C17.5242722,1.50910741 18.0897186,1.88620143 18.0897186,2.26366111 L13.5672433,2.26366111 L13.5672433,3.01821482 L18.4664089,3.01821482 C18.4664089,3.01821482 19.031764,3.39530883 18.8434645,3.96126982 L4.14541973,3.96126982 L4.14541973,4.71582353 L19.4088196,4.71582353 C19.4088196,4.71582353 19.5972104,5.28178451 19.5972104,5.47037723 L4.14541973,5.47037723 L4.14541973,6.22493093 L19.5972104,6.22493093 C19.5972104,6.22493093 19.7855099,6.79089192 19.4088196,6.97948464 L4.14541973,7.16798594 L4.14541973,7.92253964 L19.2201548,7.73403834 C19.2201548,7.73403834 19.2201548,8.29999933 18.8434645,8.48859205 L4.14541973,8.67709335 L4.14541973,9.80910674 L18.4664089,9.62051402 C18.4664089,9.62051402 18.4664089,10.3750677 17.9013278,10.5636604 L4.14541973,10.5636604 L4.14541973,11.3182141 L16.5822268,11.1296214 C16.5822268,11.1296214 16.2051713,12.0727678 14.50938,12.0727678 L12.2481423,12.0727678 L12.2481423,12.8272301 L16.0168718,12.8272301 C16.0168718,12.8272301 17.712663,12.8272301 17.712663,13.5817838 L12.0597515,13.7703766 L12.0597515,14.5249303 L18.6550737,14.5249303 C18.6550737,14.5249303 19.2201548,15.0908912 19.2201548,15.279484 L3.95702892,15.4679853 L3.95702892,16.4114059 L19.4088196,16.222539 C19.4088196,16.222539 19.9739007,16.5999987 19.9739007,17.1659596 L4.3340845,17.3545524 L4.3340845,18.1091061 L20.7275552,18.1091061 C20.7275552,18.1091061 20.9163113,18.2976074 20.9163113,18.8636598 L4.3340845,19.0521611 L4.3340845,19.8067148 L20.9163113,19.8067148 C20.9163113,19.8067148 21.1046108,20.1841745 20.9163113,20.5612685 L4.3340845,20.7498612 L4.3340845,21.5043235 L20.7275552,21.5043235 C20.7275552,21.5043235 20.9163113,22.0703759 20.5392558,22.4478356 L4.3340845,22.4478356 L4.3340845,23.0134309 L20.1625655,23.0134309 C20.1625655,23.0134309 20.1625655,23.7679846 19.7855099,23.7679846 L14.3209892,23.7679846 L14.3209892,24.5225383 L19.2201548,24.5225383 C19.2201548,24.5225383 18.8434645,25.277092 18.4664089,25.465959 L14.1326897,25.465959 L14.1326897,26.2205127 L16.9589171,26.2205127 C16.9589171,26.2205127 16.5822268,27.1636591 12.8134974,26.9750664 L0.376690305,26.9750664 L0.376690305,0 L0,0 Z" id="Fill-1" fill="#FCEA00"></path>
                <path d="M33.9225431,13.1884746 L37.5318946,13.1884746 L37.5318946,14.7257866 C37.5318946,14.7257866 39.431907,12.8039603 41.1416143,12.9960778 C41.1416143,12.9960778 44.9412709,12.2274218 45.8910469,16.8392646 L46.0813519,26.6395821 L42.4716322,26.6395821 L42.4716322,17.8003175 C42.4716322,17.8003175 41.3315511,15.3019526 38.8619125,16.8392646 C38.8619125,16.8392646 37.7221997,17.2237789 37.9120444,20.2984029 L37.9120444,26.6395821 L34.3023246,26.6395821 L33.9225431,13.1884746 Z M46.8412833,8 L50.0708532,8 L50.2606979,17.9924349 L54.2501992,12.8039603 L58.4300055,12.8039603 L54.630349,17.9924349 L59,26.4475578 L55.0101305,26.4475578 L51.9704973,21.0670589 L50.2606979,23.3729338 L50.2606979,26.4475578 L46.6509782,26.4475578 L46.8412833,8 Z M32.782462,25.1023632 L32.5926173,16.4551229 C32.4026805,11.84328 24.9933963,13.3804989 24.9933963,13.3804989 C21.0038951,13.9571306 21.3836766,17.6079206 21.3836766,17.6079206 L25.183241,17.8003175 C25.3731778,15.6864669 28.4129031,16.2630986 28.4129031,16.2630986 C30.5027602,17.9924349 28.0331215,18.3765766 28.0331215,18.3765766 C26.8930405,18.3765766 23.0933839,19.5297469 23.0933839,19.5297469 C20.81359,20.4904272 21.0038951,22.7963952 21.0038951,22.7963952 C21.0038951,26.6395821 24.233465,26.8316995 24.233465,26.8316995 C27.2731902,27.6003555 29.1727423,25.4867843 29.1727423,25.4867843 L29.3630474,26.8316995 L33.1626118,26.6395821 L32.782462,25.1023632 Z M29.1727423,21.8356218 C29.1727423,21.8356218 28.7929608,23.3729338 27.463035,23.5650512 C27.463035,23.5650512 25.183241,25.1023632 24.4234018,23.1809095 C24.4234018,23.1809095 24.0435282,22.0277392 25.183241,21.6435975 C25.3731778,21.6435975 28.9828976,20.6825446 29.1727423,20.1062855 L29.1727423,21.8356218 Z" id="Fill-3" fill="#6B1685"></path>
            </g>
        </g>
    </g>
</svg>