<?xml version="1.0" standalone="no"?><!DOCTYPE svg PUBLIC "-//W3C//DTD SVG 1.1//EN" "http://www.w3.org/Graphics/SVG/1.1/DTD/svg11.dtd"><svg t="1552470183374" class="icon" style="" viewBox="0 0 1024 1024" version="1.1" xmlns="http://www.w3.org/2000/svg" p-id="4804" xmlns:xlink="http://www.w3.org/1999/xlink" width="200" height="200"><defs><style type="text/css"></style></defs><path d="M653.425428 772.8128c0 20.1728 16.384 36.5568 36.5568 36.5568h292.7616c20.1728 0 36.5568-16.384 36.5568-36.5568 0-20.1728-16.384-36.5568-36.5568-36.5568h-292.7616c-20.1728 0.1024-36.5568 16.384-36.5568 36.5568zM987.454228 950.8864h-585.1136c-20.1728 0-36.5568 16.384-36.5568 36.5568s16.384 36.5568 36.5568 36.5568h585.1136c20.1728 0 36.5568-16.384 36.5568-36.5568s-16.384-36.5568-36.5568-36.5568zM806.615828 223.6416C823.819028 200.2944 818.801428 167.424 795.454228 150.2208L605.399828 10.24c-23.3472-17.2032-56.2176-12.1856-73.4208 11.1616l-15.5648 21.0944 274.6368 202.3424 15.5648-21.1968zM0.113428 1001.6768c-1.536 14.7456 12.8 25.4976 26.5216 19.5584 16.384-7.168 170.1888-74.24 241.8688-105.5744l-239.2064-176.2304c-9.0112 79.5648-27.8528 249.344-29.184 262.2464zM494.603028 71.9872l-442.1632 599.8592 274.6368 202.3424 442.1632-599.8592L494.603028 71.9872z m-144.7936 664.8832c-10.24 14.2336-30.1056 17.5104-44.3392 7.2704-14.2336-10.24-17.408-30.1056-7.168-44.3392l297.5744-412.672c10.24-14.2336 30.1056-17.5104 44.3392-7.168 14.2336 10.24 17.408 30.1056 7.168 44.3392l-297.5744 412.5696z" p-id="4805"></path></svg>