<?xml version="1.0" encoding="UTF-8"?>
<svg width="29px" height="29px" viewBox="0 0 29 29" version="1.1" xmlns="http://www.w3.org/2000/svg" xmlns:xlink="http://www.w3.org/1999/xlink">
    <!-- Generator: Sketch 52.4 (67378) - http://www.bohemiancoding.com/sketch -->
    <title>chongzhi</title>
    <desc>Created with Sketch.</desc>
    <defs>
        <polygon id="path-1" points="0.00212195122 0.0282926829 28.971672 0.0282926829 28.971672 28.9999646 0.00212195122 28.9999646"></polygon>
    </defs>
    <g id="页面-1" stroke="none" stroke-width="1" fill="none" fill-rule="evenodd">
        <g id="个人中心" transform="translate(-60.000000, -149.000000)">
            <g id="chongzhi" transform="translate(60.000000, 149.000000)">
                <g id="分组">
                    <mask id="mask-2" fill="white">
                        <use xlink:href="#path-1"></use>
                    </mask>
                    <g id="Clip-2"></g>
                    <path d="M0,14.5142171 C0,22.5144683 6.48549634,28.9999646 14.4859244,28.9999646 C22.4861756,28.9999646 28.971672,22.5144683 28.971672,14.5142171 C28.971672,6.51378902 22.4861756,0.0282926829 14.4859244,0.0282926829 C6.48549634,0.0282926829 0,6.51378902 0,14.5142171 Z" id="Fill-1" fill="#FFBB4C" mask="url(#mask-2)"></path>
                </g>
                <path d="M23,15.6875158 C23,13.1065091 21.2619653,10.8714206 18.7298034,9.76277254 C18.7861042,9.66215563 18.8425082,9.56140079 18.8918273,9.45202558 C19.2373707,8.69139895 19.2665013,7.82398322 18.9728221,7.04184015 C18.6790054,6.25966261 18.0865569,5.62699669 17.326272,5.28380267 C15.743933,4.56320902 13.8782671,5.2619759 13.1546792,6.84626129 C12.8080697,7.60523281 12.779455,8.47213131 13.0755416,9.25255031 C12.1785114,9.45378414 11.3199323,9.79887464 10.5327867,10.2747189 C10.0115311,9.5950547 9.24546829,9.30899647 8.763042,9.63212227 C8.24526002,9.97638522 8.24526002,10.8820754 8.763042,11.6605979 C8.77363494,11.6799765 8.78763277,11.697631 8.79997975,11.7152855 C8.20832227,12.389674 7.7610797,13.1611968 7.50220591,13.9998205 L7.25041701,13.9998205 C6.00894401,13.9998205 5,15.2567733 5,16.8104391 C5,18.3640015 6.00894401,19.6209544 7.25041701,19.6209544 L8.77191531,19.6209544 C9.29127935,20.2212767 9.93050192,20.7473949 10.6542273,21.1692411 C10.8039043,22.2090986 11.4854299,23 12.3112672,23 L13.4364242,23 C13.903133,23 14.3257848,22.7493542 14.6320861,22.3327492 C14.7958641,22.3416109 14.9596421,22.3521278 15.1233857,22.3521278 C15.6463954,22.3521278 16.1622857,22.3061984 16.660739,22.2249946 C16.9706516,22.6946666 17.4248759,22.9982414 17.9355385,22.9982414 L19.060833,22.9982414 C19.9923935,22.9982414 20.7459374,21.9919689 20.7459374,20.7456363 C20.7459374,20.6167446 20.7372016,20.4948526 20.7213466,20.3678229 C22.1283516,19.1655577 23,17.5095164 23,15.6875158 Z M6.11642117,17.8572964 C5.80472021,17.8572964 5.5529657,17.3930035 5.5529657,16.8227145 C5.5529657,16.2525635 5.80647423,15.7900291 6.11642117,15.7900291 C6.42461409,15.7900291 6.67636859,16.2542876 6.67636859,16.8227145 C6.67636859,17.394762 6.42286006,17.8572964 6.11642117,17.8572964 Z M7.98999746,18.1786637 C7.68180455,18.1786637 7.43005004,17.7161293 7.43005004,17.1475989 C7.43005004,16.5774479 7.68355857,16.1112585 7.98999746,16.1112585 C8.30169843,16.1112585 8.55345293,16.5755514 8.55345293,17.1475989 C8.55345293,17.7161293 8.2999444,18.1786637 7.98999746,18.1786637 Z M14.6286124,8.51630207 C14.8333521,8.78474027 15.0981415,9.00135284 15.4016226,9.14827836 C15.6939605,9.27720456 15.9422413,9.25255031 16.0461072,9.06707451 C16.0518852,9.06141955 16.0565626,9.05493703 16.0602082,9.04766144 C16.1500763,8.84642762 16.0356175,8.64171116 15.7026962,8.33448131 C15.2220239,7.88956697 14.9596421,7.45168684 15.1885598,6.94336109 C15.4033766,6.4719305 15.8912025,6.25831783 16.5021887,6.40662261 L16.5197978,6.36417593 L16.5321447,6.32890139 L16.5797098,6.22828447 C16.6444713,6.08549673 16.8122732,6.02232668 16.9547965,6.08711736 C17.0237195,6.11701279 17.0774753,6.17387272 17.1037857,6.24455972 C17.1299929,6.31514328 17.1263817,6.39341621 17.0938462,6.46131021 L17.0762715,6.50196386 L17.0797452,6.50372241 L17.0358257,6.60258077 C17.3809564,6.77202269 17.5799181,6.95563649 17.726087,7.12521634 L17.2999616,7.64943805 C17.121945,7.42165349 16.8909981,7.24103958 16.6272749,7.12331986 C16.2821443,6.96625678 16.1025112,7.07039081 16.0356175,7.21517848 C15.9580963,7.3846204 16.0919183,7.58599215 16.4704787,7.95315079 C16.9459576,8.41396108 17.0886185,8.7863609 16.9476773,9.206621 C16.9329228,9.25268823 16.915864,9.29806584 16.8966385,9.34251245 C16.6870494,9.80680537 16.1800324,10.0628647 15.5284628,9.88976778 L15.473916,10.0134183 L15.4650427,10.0081771 L15.44396,10.0611062 C15.4125251,10.129414 15.3552956,10.1822051 15.2848938,10.2080662 C15.2144919,10.2339273 15.1366957,10.2305481 15.0688389,10.1987562 C15.0010165,10.1680677 14.9483613,10.1113457 14.9224292,10.0413138 C14.8966347,9.97128196 14.8998332,9.89380211 14.9315433,9.82632188 L14.9526604,9.77690994 L14.9509063,9.77690994 L14.9860901,9.69567161 C14.6811301,9.54309113 14.4116289,9.3277199 14.1954709,9.0635574 L14.6286124,8.51630207 Z M19.6225345,13.1840924 C19.2705253,12.9221368 18.8943724,12.6946281 18.4991316,12.5044283 C17.4447892,12.0033781 16.2919462,11.7458361 15.1251397,11.75056 C13.8942597,11.75056 12.7426548,12.0242739 11.7495658,12.5044283 C11.3444887,12.6986624 10.969402,12.9246884 10.6225173,13.1840924 L10.6225173,12.025998 C10.9757302,11.7643181 11.3530868,11.5373611 11.7495658,11.3480924 C12.4957152,10.9904851 13.2950702,10.7573214 14.1161957,10.6578079 C15.0851066,11.3969871 16.3924416,11.5090518 17.4724409,10.9456247 C17.829953,11.0549999 18.1715756,11.1909259 18.4991316,11.3480924 C18.9022827,11.5405679 19.2791234,11.770111 19.6225345,12.025998 L19.6225345,13.1840924 Z" id="Fill-3" fill="#FFFFFF"></path>
            </g>
        </g>
    </g>
</svg>