<?xml version="1.0" encoding="UTF-8"?>
<svg width="42px" height="30px" viewBox="0 0 42 30" version="1.1" xmlns="http://www.w3.org/2000/svg" xmlns:xlink="http://www.w3.org/1999/xlink">
    <!-- Generator: Sketch 52.4 (67378) - http://www.bohemiancoding.com/sketch -->
    <title>兴业银行</title>
    <desc>Created with Sketch.</desc>
    <defs>
        <polygon id="path-1" points="1.0441046e-16 0 42 0 42 30 1.0441046e-16 30"></polygon>
    </defs>
    <g id="页面-1" stroke="none" stroke-width="1" fill="none" fill-rule="evenodd">
        <g id="弹窗/银行icon" transform="translate(-311.000000, -568.000000)">
            <g id="兴业银行" transform="translate(311.000000, 568.000000)">
                <mask id="mask-2" fill="white">
                    <use xlink:href="#path-1"></use>
                </mask>
                <g id="Clip-2"></g>
                <path d="M41.9997595,14.7501461 C41.9997595,8.7500735 34.704993,3.81255426 25.6971676,3.81255426 C18.4577231,3.81255426 12.3788963,6.99995504 10.2236275,11.3124764 C10.0578905,11.750032 9.89197004,12.1251241 9.89197004,12.6250912 C9.89197004,13.6875927 10.4999628,14.687527 11.4394296,15.312473 L19.7287097,20.6875478 C20.1709655,20.9376092 20.6682223,21.1251033 21.2208012,21.1251033 C21.773426,21.1251033 22.2708663,21.0000208 22.7129386,20.6875478 L30.504962,15.6249978 C31.0024023,15.2500614 31.3892442,14.7501461 31.3892442,14.1875599 C31.3892442,13.6249736 31.0575868,13.1250065 30.56033,12.7501219 L27.6313314,10.8749209 L21.1656167,15.0626191 L16.2472698,11.8750627 C18.1262492,9.93745007 21.663057,8.68745439 25.6971676,8.68745439 C31.7207641,8.68745439 36.6391568,11.5625378 36.6391568,15.1250307 C36.473374,20.6251362 29.3445279,24.8126269 20.6129919,24.5625136 C11.8815019,24.3124522 4.97357727,19.5625828 5.13949774,14.1249408 C5.19468223,6.87513186 13.6498829,1.06255339 23.9841087,1.24999568 C24.9235754,1.24999568 25.8077201,1.31240726 26.6918188,1.37502637 C24.5367335,0.499967143 21.9393924,0 19.0103479,0 C16.6892963,0 14.5340275,0.312524859 12.6552316,0.937470818 C5.24986673,3.1876083 0,8.6250428 0,14.8749693 C0,23.1874872 9.39471323,30 20.9998798,30 C32.6050463,29.8749693 42.054944,23.1250757 41.9997595,14.7501461 Z" id="Fill-1" fill="#004187" mask="url(#mask-2)"></path>
            </g>
        </g>
    </g>
</svg>