<?xml version="1.0" encoding="UTF-8"?>
<svg width="42px" height="42px" viewBox="0 0 42 42" version="1.1" xmlns="http://www.w3.org/2000/svg" xmlns:xlink="http://www.w3.org/1999/xlink">
    <!-- Generator: Sketch 52.4 (67378) - http://www.bohemiancoding.com/sketch -->
    <title>中信银行</title>
    <desc>Created with Sketch.</desc>
    <g id="页面-1" stroke="none" stroke-width="1" fill="none" fill-rule="evenodd">
        <g id="弹窗/银行icon" transform="translate(-194.000000, -509.000000)" fill="#D7000F">
            <g id="中信银行" transform="translate(194.000000, 509.000000)">
                <path d="M12.1325112,3.71017441 C15.5520819,4.89746475 18.8227251,8.31096042 18.8227251,12.1694382 L18.8227251,41.8514089 C19.5662823,41.8514089 20.4581907,42 21.2015318,42 C21.945089,42 22.8369975,42 23.5802665,41.8514089 L23.5802665,12.1694382 C23.5802665,8.31096042 26.8512699,4.89746475 29.9733457,3.71017441 C30.4194079,3.561871 30.5680473,3.26490457 30.5680473,2.96822584 C30.5680473,2.52288408 30.4194079,2.22620534 29.9733457,1.92923891 C27.2973322,0.742020498 24.3238958,0 21.2015318,0 C17.9308166,0 14.9573802,0.742020498 12.4300062,1.92923891 C11.9838718,2.07761424 11.8353045,2.37458067 11.8353045,2.96822584 C11.5378095,3.41349567 11.6863769,3.561871 12.1325112,3.71017441 Z" id="Fill-1"></path>
                <path d="M15.4894569,41.2544379 L15.4894569,13.9652281 C15.4894569,10.9990503 13.8510254,8.62605049 11.468082,7.58811466 L11.468082,39.6231802 C12.6595898,40.3647067 13.9999278,40.8096801 15.4894569,41.2544379 Z M30.5319901,39.6231802 L30.5319901,7.58811466 C28.1489746,8.62605049 26.5106153,11.1475424 26.5106153,13.9652281 L26.5106153,41.2544379 C27.851242,40.8096801 29.3404824,40.3647067 30.5319901,39.6231802 Z M4.31910747,17.2282465 C4.46793768,17.2282465 4.76595898,17.3764512 4.76595898,17.6732199 C5.21288267,18.8597198 6.10636916,19.8976556 7.44670715,19.8976556 C7.89355866,19.8976556 8.19157997,19.7494509 8.48931256,19.4529697 L8.48931256,4.47337278 C3.27650207,8.32956927 0,14.2619968 0,21.0841555 C0,27.9066017 3.27650207,33.8390292 8.19157997,37.6949382 L8.19157997,22.7156288 C8.04246105,22.5674241 7.59582607,22.2706554 7.14897456,22.2706554 C5.95746677,22.2706554 4.91486137,23.3088787 4.46793768,24.4953786 C4.46793768,24.6435833 4.31910747,24.940352 4.02137488,24.940352 C3.72335358,24.940352 3.87218378,24.7921473 3.57445119,24.7921473 C2.82986709,23.753924 2.38301558,22.5674241 2.38301558,21.2326477 C2.38301558,19.8976556 2.82986709,18.5629511 3.57445119,17.6732199 C4.02137488,17.3764512 4.17020509,17.2282465 4.31910747,17.2282465 Z M40.5108318,22.1223788 C39.319324,22.1223788 38.2766464,23.160674 37.8297949,24.3471021 C37.8297949,24.4953786 37.6809647,24.7921473 37.3832321,24.7921473 C37.0852108,24.7921473 37.234041,24.6435833 36.9363084,24.6435833 C36.3405545,23.6056474 35.893703,22.4191476 35.893703,21.0841555 C35.893703,19.7494509 36.3405545,18.4146745 37.0852108,17.5247277 C37.0852108,17.5247277 37.234041,17.3764512 37.5320623,17.3764512 C37.6809647,17.3764512 37.978986,17.5247277 37.978986,17.8214246 C38.4255488,19.0079245 39.319324,20.0462197 40.659662,20.0462197 C41.2554159,20.0462197 41.8511698,19.6011744 42,19.0079245 C41.4043183,13.2237735 38.4255488,8.18129272 33.9576111,4.7701415 L33.9576111,37.8435023 C38.1278162,34.5804838 40.9576833,29.8345562 41.8511698,24.4953786 L41.8511698,23.753924 C41.5534372,22.5674241 41.1065857,22.1223788 40.5108318,22.1223788 Z" id="Fill-2"></path>
            </g>
        </g>
    </g>
</svg>