<?xml version="1.0" encoding="UTF-8"?>
<svg width="15px" height="15px" viewBox="0 0 15 15" version="1.1" xmlns="http://www.w3.org/2000/svg" xmlns:xlink="http://www.w3.org/1999/xlink">
    <!-- Generator: Sketch 52.4 (67378) - http://www.bohemiancoding.com/sketch -->
    <title>cha</title>
    <desc>Created with Sketch.</desc>
    <defs>
        <polygon id="path-1" points="0 0 15 0 15 15 0 15"></polygon>
    </defs>
    <g id="页面-1" stroke="none" stroke-width="1" fill="none" fill-rule="evenodd">
        <g id="团队管理--直级下属" transform="translate(-341.000000, -418.000000)">
            <g id="cha" transform="translate(341.000000, 418.000000)">
                <mask id="mask-2" fill="white">
                    <use xlink:href="#path-1"></use>
                </mask>
                <g id="Clip-2"></g>
                <path d="M14.6749721,1.88457707 C15.1012883,1.45817714 15.1080243,0.753148365 14.6766089,0.323390957 C14.2434938,-0.109744915 13.5468163,-0.106387435 13.1154219,0.325027729 L7.49999213,5.94045458 L1.88458331,0.325027729 C1.45816217,-0.101288263 0.753154008,-0.108024206 0.323375389,0.323390957 C-0.109739726,0.756526829 -0.106382245,1.45318289 0.325012162,1.88457707 L5.94044197,7.50000392 L0.325012162,13.1154098 C-0.101304054,13.5418307 -0.108019017,14.2468385 0.323375389,14.6766169 C0.756511489,15.1097528 1.45316792,15.1063743 1.88458331,14.6749801 L7.49999213,9.05955327 L13.1154219,14.6749801 C13.5418221,15.1012961 14.2468512,15.1080111 14.6766089,14.6766169 C15.109745,14.243481 15.1063875,13.546825 14.6749721,13.1154098 L9.0595423,7.50000392 L14.6749721,1.88457707 Z" id="Fill-1" fill="#9B9B9B" mask="url(#mask-2)"></path>
            </g>
        </g>
    </g>
</svg>