<?xml version="1.0" encoding="UTF-8"?>
<svg width="42px" height="42px" viewBox="0 0 42 42" version="1.1" xmlns="http://www.w3.org/2000/svg" xmlns:xlink="http://www.w3.org/1999/xlink">
    <!-- Generator: Sketch 52.4 (67378) - http://www.bohemiancoding.com/sketch -->
    <title>招商银行</title>
    <desc>Created with Sketch.</desc>
    <defs>
        <polygon id="path-1" points="1.41703916e-16 0 42 0 42 42 1.41703916e-16 42"></polygon>
    </defs>
    <g id="页面-1" stroke="none" stroke-width="1" fill="none" fill-rule="evenodd">
        <g id="弹窗" transform="translate(-79.000000, -450.000000)">
            <g id="招商银行" transform="translate(79.000000, 450.000000)">
                <mask id="mask-2" fill="white">
                    <use xlink:href="#path-1"></use>
                </mask>
                <g id="Clip-2"></g>
                <path d="M37.7999191,29.7750165 L37.3499971,28.1249889 L41.0999693,28.1249889 C38.0999916,36.0750538 30.2248943,42 21.1499429,42 C9.52487338,42 0,32.6998559 0,21.0750182 C0,9.44999377 9.52487338,0.150036464 21.4500153,0 C30.9748887,0 38.9997732,6.2999751 41.6998653,14.9999733 L32.3248414,14.9999733 L27.2249788,2.32506715 L20.9998444,16.8000374 L15.0749069,2.32506715 L3.90000845,29.4749435 L8.39991284,35.9249551 L33.4498019,35.9249551 L37.7999191,29.7750165 Z M32.9249863,17.24996 L32.6249138,16.1998915 L41.6998653,16.1998915 C41.6998653,16.6500009 41.8499638,16.8000374 41.8499638,17.24996 L32.9249863,17.24996 Z M19.0499958,29.3249071 L24.7500656,14.9999733 L30.6750653,29.6998737 L7.12485381,29.4000498 L12.9749599,14.9999733 L19.0499958,29.3249071 Z M33.5249445,19.2749542 L33.0747735,18.2248857 L41.8499638,18.2248857 C42,18.7498888 42,18.8999875 42,19.2749542 L33.5249445,19.2749542 Z M35.1749697,23.2498621 L34.7247987,22.1999804 L42,22.1999804 L42,23.2498621 L35.1749697,23.2498621 Z M42,20.3250227 L42,21.3749044 L34.274939,21.3749044 L33.825017,20.3250227 L42,20.3250227 Z M36.7498521,27.1500631 L36.2999302,26.0999947 L41.3997928,26.0999947 C41.3997928,26.5499173 41.2500056,26.6999538 41.2500056,27.1500631 L36.7498521,27.1500631 Z M35.9249641,25.0499262 L35.4747931,24.0000445 L41.6998653,24.0000445 C41.6998653,24.4499671 41.549829,24.6000036 41.549829,25.0499262 L35.9249641,25.0499262 Z" id="Fill-1" fill="#E50012" mask="url(#mask-2)"></path>
            </g>
        </g>
    </g>
</svg>