<?xml version="1.0" encoding="UTF-8"?>
<svg width="41px" height="32px" viewBox="0 0 41 32" version="1.1" xmlns="http://www.w3.org/2000/svg" xmlns:xlink="http://www.w3.org/1999/xlink">
    <!-- Generator: Sketch 52.4 (67378) - http://www.bohemiancoding.com/sketch -->
    <title>中国民生银行</title>
    <desc>Created with Sketch.</desc>
    <g id="页面-1" stroke="none" stroke-width="1" fill="none" fill-rule="evenodd">
        <g id="弹窗/银行icon" transform="translate(-245.000000, -457.000000)">
            <g id="中国民生银行" transform="translate(245.000000, 457.000000)">
                <path d="M39.7971665,17.912302 C36.1123223,12.8673037 25.9418817,11.7971209 25.9418817,11.7971209 L30.0689878,9.19810549 L20.9303238,4 L11.7917317,8.73938106 L19.1614201,13.0201123 C31.1007644,12.7141965 34.4906713,19.4411346 34.4906713,19.4411346 C37.4386762,29.2255886 20.3408092,29.8373456 20.3408092,29.8373456 C10.465018,31.060337 5.8960098,22.0402247 5.8960098,22.0402247 L0,22.3460659 C7.075111,37.0227095 32.4271902,30.6016126 32.4271902,30.6016126 C45.3982391,26.1681474 39.7971665,17.912302 39.7971665,17.912302 Z M20.7830711,11.7971209 L16.655965,9.65675527 L20.4881338,6.75182403 L24.6152399,9.04499828 L20.7830711,11.7971209 Z" id="Fill-1" fill="#1D2088"></path>
                <path d="M21.2210066,0.103791277 C14.6280088,-0.356037573 1.73510692,0.410493527 0.123556781,8.68726314 C-1.19518585,15.278293 8.32810471,19.1102001 15.067542,19.8764318 C13.7488709,20.7961644 12.2836888,21.5623961 10.9652323,22.4821286 C14.1884041,24.3215937 17.1186969,26.3139609 20.0489897,28 L28.2535376,22.9420323 L20.0489897,18.497095 C18.4374395,18.1903927 16.8255317,18.8034978 15.9466799,18.8034978 C11.404837,18.8034978 4.81183923,13.5920294 6.56982889,8.84046458 C9.93965486,-1.42897156 32.5022869,0.103791277 34.7001674,10.220026 L41,10.220026 C38.2161467,2.0964578 27.5208392,0.563694969 21.2210066,0.103791277 Z M20.3418687,20.1830592 L24.4441069,22.4821286 L20.1954292,24.7811981 L16.3862847,22.4821286 L20.3418687,20.1830592 Z" id="Fill-3" fill="#5AA572"></path>
            </g>
        </g>
    </g>
</svg>