<?xml version="1.0" encoding="UTF-8"?>
<svg width="16px" height="13px" viewBox="0 0 16 13" version="1.1" xmlns="http://www.w3.org/2000/svg" xmlns:xlink="http://www.w3.org/1999/xlink">
    <!-- Generator: Sketch 52.4 (67378) - http://www.bohemiancoding.com/sketch -->
    <title>输入图形码</title>
    <desc>Created with Sketch.</desc>
    <defs>
        <polygon id="path-1" points="5.71582857e-17 0 16 0 16 13 5.71582857e-17 13"></polygon>
    </defs>
    <g id="蓝色" stroke="none" stroke-width="1"  fill-rule="evenodd">
        <g id="注册" transform="translate(-38.000000, -248.000000)">
            <g id="输入图形码" transform="translate(38.000000, 248.000000)">
                <mask id="mask-2" fill="white">
                    <use xlink:href="#path-1"></use>
                </mask>
                <g id="Clip-2"></g>
                <path d="M6.28573222,5.68750595 L3.46853832,8.5854244 L2.62288042,7.85422023 L5.87425371,4.51209964 C5.98263534,4.39736547 6.13752362,4.33171468 6.29997049,4.33171468 C6.46251781,4.33171468 6.61730565,4.39736547 6.72568727,4.51209964 L8.96004118,6.98212154 L10.1027943,5.73085261 C10.2113015,5.61423795 10.3674453,5.54746838 10.5314742,5.54746838 C10.6953776,5.54746838 10.8515466,5.61423795 10.9600286,5.73085261 L12.9828927,7.85422023 L12.1314592,8.58004475 L10.5428498,6.90623512 L9.39997112,8.16831096 C9.29148905,8.28678232 9.13403939,8.35483729 8.96855401,8.35483729 C8.80309375,8.35483729 8.64564408,8.28678232 8.53716201,8.16831096 L6.28573222,5.68750595 Z M1.14287867,11.9166667 L14.8571464,11.9166667 L14.8571464,1.08333333 L1.14287867,1.08333333 L1.14287867,11.9166667 Z M1.14287867,0 L14.8571464,0 C15.4883514,0 16,0.485001794 16,1.08333333 L16,11.9166667 C16,12.5149982 15.4883514,13 14.8571464,13 L1.14287867,13 C0.511648639,13 0,12.5149982 0,11.9166667 L0,1.08333333 C0,0.796021841 0.120359849,0.520421803 0.334687267,0.317256634 C0.549014684,0.114091465 0.839756669,0 1.14287867,0 Z" id="Fill-1"  mask="url(#mask-2)"></path>
            </g>
        </g>
    </g>
</svg>