<?xml version="1.0" encoding="UTF-8"?>
<svg width="39px" height="41px" viewBox="0 0 39 41" version="1.1" xmlns="http://www.w3.org/2000/svg" xmlns:xlink="http://www.w3.org/1999/xlink">
    <!-- Generator: Sketch 52.4 (67378) - http://www.bohemiancoding.com/sketch -->
    <title>交通银行</title>
    <desc>Created with Sketch.</desc>
    <defs>
        <polygon id="path-1" points="1.35104131e-16 0 39 0 39 41 1.35104131e-16 41"></polygon>
    </defs>
    <g id="页面-1" stroke="none" stroke-width="1" fill="none" fill-rule="evenodd">
        <g id="弹窗/银行icon" transform="translate(-256.000000, -510.000000)">
            <g id="交通银行" transform="translate(256.000000, 510.000000)">
                <mask id="mask-2" fill="white">
                    <use xlink:href="#path-1"></use>
                </mask>
                <g id="Clip-2"></g>
                <path d="M31.7640849,30.7498132 C29.2783136,30.8288407 26.9808195,30.905167 24.4950482,30.9828151 C22.9209262,37.4660038 9.90527563,35.7150411 11.3551061,27.4885338 C12.0833453,22.6150928 18.8838255,20.4872119 23.105286,24.1665038 C24.0329615,25.1817346 24.4873913,26.1233404 24.7850618,28.187482 C26.8701799,28.1095465 29.6812817,28.0318984 31.7654501,27.9541928 C31.8714006,17.4709466 19.5747297,12.1509282 10.3537105,17.2388068 C1.5138163,22.1153515 2.53420588,36.9722973 11.7972492,40.7669981 L11.7972492,41 C6.74616942,40.90396 1.20801401,37.1157538 0,32.6138859 L0.0683781514,8.4447382 C4.07704728,5.80493132 8.50833136,2.64026668 12.5159914,0 L12.9971314,0.233059371 C12.7202949,3.8766021 12.894861,9.88470602 13.1172087,14.268981 C15.6296309,11.9082131 17.3215153,9.44111731 21.6582452,8.61940341 C24.4537364,8.09069487 27.1280225,8.4092764 28.815752,8.96873384 C41.484051,13.1713317 42.2728333,29.0219553 31.5222091,34.4773263 C31.2815797,34.4773263 30.7591873,34.9371228 30.3598992,35.0121271 C30.3598992,34.9344215 30.6100849,34.5983677 30.8004397,34.2442669 L31.7626604,30.7498132 L31.7640849,30.7498132 Z" id="Fill-1" fill="#1D2088" mask="url(#mask-2)"></path>
            </g>
        </g>
    </g>
</svg>