<?xml version="1.0" encoding="UTF-8"?>
<svg width="31px" height="31px" viewBox="0 0 31 31" version="1.1" xmlns="http://www.w3.org/2000/svg" xmlns:xlink="http://www.w3.org/1999/xlink">
    <!-- Generator: Sketch 52.4 (67378) - http://www.bohemiancoding.com/sketch -->
    <title>个人中心--代理中心--佣金设置</title>
    <desc>Created with Sketch.</desc>
    <g id="蓝色" stroke="none" stroke-width="1" fill-rule="evenodd">
        <g id="个人中心" transform="translate(-303.000000, -543.000000)">
            <g id="个人中心--代理中心--佣金设置" transform="translate(296.000000, 537.000000)">
                <path d="M22.4998713,8.31823741 C29.7705645,8.31823741 35.6818123,14.2294196 35.6818123,21.5000322 C35.6818123,28.7706447 29.7705645,34.6817626 22.4998713,34.6817626 C15.229178,34.6817626 9.31793021,28.7706447 9.31793021,21.5000322 C9.31793021,14.2294196 15.229178,8.31823741 22.4998713,8.31823741 Z M22.4998713,7 C14.4930397,7 8,13.4932251 8,21.5000322 C8,29.5067749 14.4930397,36 22.4998713,36 C30.5070246,36 37,29.5067749 37,21.5000322 C37,13.4932251 30.5070246,7 22.4998713,7 Z" id="Fill-4" stroke-width="0.3"></path>
                <path d="M25.7064136,23.0761108 C26.4189883,23.0761108 26.9038696,23.3190134 26.9038696,23.8449097 C26.9038696,24.3709458 26.4138091,24.6125766 25.7012345,24.6125766 L22.3438809,24.6125766 L22.3438809,25.8064049 C22.3438809,26.4666896 22.3917605,27 21.4974104,27 C20.6030604,27 20.6148682,26.5339304 20.6148682,25.8736457 L20.6148682,24.6798175 L17.2932706,24.6125766 C16.5810117,24.6125766 16.182251,24.3709458 16.182251,23.8449097 C16.182251,23.3151898 16.5861909,23.0761108 17.2984497,23.0761108 L20.6200473,23.1433517 L20.6148682,21.8149933 L17.2932706,21.7477525 C16.5810117,21.7477525 16,21.4528371 16,20.9269409 C16,20.3972676 16.5810117,20.1011353 17.2932706,20.1011353 L19.8803801,20.1011353 L20.6148682,20.1011353 L17.130188,17.6442884 C16.619979,17.2674225 16.4951768,16.7800031 17.0053859,16.4031372 C17.5158475,16.0264579 17.8171225,16.0264579 18.3273315,16.4031372 L21.4974104,18.7623901 L24.3139648,16.5629883 C24.8244265,16.1862623 25.4485932,15.9058185 25.9590549,16.2825445 C26.4693271,16.6594104 26.4693271,17.2674225 25.9590549,17.6442884 L22.3438809,20.1011353 L25.7064136,20.1011353 C26.4187356,20.1011353 27,20.4009048 27,20.9269409 C27,21.4528371 26.4187356,21.7477525 25.7064136,21.7477525 L22.3490601,21.7477525 L22.3542392,23.0761108 L25.7064136,23.0761108 Z" id="Fill-5"></path>
                <path d="M25,29.5000635 C25,33.0898017 27.910156,36 31.4999365,36 C35.089844,36 38,33.0898017 38,29.5000635 C38,25.910156 35.089844,23 31.4999365,23 C27.910156,23 25,25.910156 25,29.5000635 Z" id="Fill-6"></path>
                <path d="M37,30.3093409 L37,28.6943294 C37,28.5296593 36.8710887,28.4007967 36.706483,28.4007967 L35.8083978,28.4007967 C35.6796207,28.4007967 35.568646,28.3184393 35.5328622,28.2002295 C35.461205,27.981848 35.3754132,27.7704937 35.275129,27.5664353 C35.221498,27.4554318 35.2393004,27.319363 35.32876,27.2261737 L35.969291,26.585218 C36.0802656,26.4743935 36.0802656,26.284479 35.969291,26.1734755 L34.8349877,25.0384199 C34.7240577,24.9273716 34.5344481,24.9273716 34.4235181,25.0384199 L33.7829872,25.6793756 C33.6899939,25.7725649 33.5538811,25.7903792 33.4431301,25.7330423 C33.2426958,25.6328705 33.0314817,25.5396813 32.809756,25.4753172 C32.6916245,25.4394648 32.6093217,25.3178086 32.6093217,25.1995988 L32.6093217,24.2935774 C32.5984971,24.1288625 32.4732089,24 32.3086479,24 L30.694841,24 C30.53028,24 30.4015029,24.1288625 30.4015029,24.2935774 L30.4015029,25.1924373 C30.4015029,25.3212998 30.3190211,25.4323033 30.2010686,25.4681557 C29.9826977,25.5396813 29.7716177,25.625709 29.5676945,25.7258807 C29.4567646,25.7795474 29.3208307,25.7617331 29.2277032,25.6722141 L28.5871276,25.0312136 C28.4761976,24.9202101 28.2866327,24.9202101 28.175658,25.0312136 L27.0485115,26.1877986 C26.9375369,26.2988468 26.9375369,26.4887165 27.0485115,26.599541 L27.6890424,27.2405415 C27.781991,27.3337307 27.8000171,27.4697548 27.7426735,27.5807583 C27.6423892,27.7813255 27.5494407,27.9925455 27.484985,28.2145525 C27.4493354,28.3327623 27.3275361,28.4151198 27.2094494,28.4151198 L26.2933381,28.4151198 C26.1287324,28.404288 26,28.5333295 26,28.6979997 L26,30.3128321 C26,30.477547 26.1287324,30.6065886 26.2933381,30.6065886 L27.1916022,30.6065886 C27.3203793,30.6065886 27.431354,30.688946 27.4671378,30.806932 C27.538795,31.0254926 27.6245868,31.2367125 27.7246921,31.440771 C27.778502,31.5517745 27.7605207,31.6877986 27.671061,31.7809878 L27.0305301,32.4219435 C26.9195555,32.5329918 26.9195555,32.7226825 27.0305301,32.8337307 L28.1650123,33.9687864 C28.2757634,34.0798346 28.4655519,34.0798346 28.5764819,33.9687864 L29.2170128,33.3278306 C29.3100061,33.2348204 29.44594,33.2167824 29.5568699,33.274164 C29.7573042,33.3745148 29.9683394,33.467525 30.190244,33.5320234 C30.3083755,33.5676967 30.3906783,33.6895767 30.3906783,33.8077418 L30.3906783,34.7064673 C30.3906783,34.8711375 30.5194554,35 30.6840164,35 L32.2979575,35 C32.4625632,35 32.5913403,34.8711375 32.5913403,34.7064673 L32.5913403,33.8184393 C32.5913403,33.6895767 32.6736432,33.5785285 32.7917299,33.5427209 C33.0099666,33.4711952 33.2212255,33.3851675 33.4251487,33.2849958 C33.5360787,33.2311502 33.6720126,33.2491435 33.76514,33.3386624 L34.4056709,33.9796182 C34.5166456,34.0906664 34.7062105,34.0906664 34.8171852,33.9796182 L35.9514885,32.8445625 C36.0624184,32.7335143 36.0624184,32.5436446 35.9514885,32.4326411 L35.3109576,31.7916406 C35.218009,31.6986304 35.1999829,31.5626063 35.2572818,31.4516028 C35.3574319,31.2510356 35.4505593,31.0398604 35.5148361,30.8178086 C35.5506646,30.6995988 35.6724639,30.6172414 35.7903717,30.6172414 L36.6886358,30.6172414 C36.8710887,30.6029183 37,30.4740558 37,30.3093409 Z M31.4999286,32.25 C29.9878916,32.25 28.75,31.0197368 28.75,29.4999048 C28.75,27.9878809 29.9802738,26.75 31.4999286,26.75 C33.0197262,26.75 34.25,27.9878809 34.25,29.4999048 C34.25,31.0121191 33.0121084,32.25 31.4999286,32.25 Z" id="Fill-7" fill="#FFFFFF"></path>
            </g>
        </g>
    </g>
</svg>
