<?xml version="1.0" standalone="no"?><!DOCTYPE svg PUBLIC "-//W3C//DTD SVG 1.1//EN" "http://www.w3.org/Graphics/SVG/1.1/DTD/svg11.dtd"><svg t="1553600088320" class="icon" style="" viewBox="0 0 1024 1024" version="1.1" xmlns="http://www.w3.org/2000/svg" p-id="8705" xmlns:xlink="http://www.w3.org/1999/xlink" width="200" height="200"><defs><style type="text/css"></style></defs><path d="M824 904H376a80 80 0 0 1-80-80v-32a40 40 0 0 1 80 0v32h448V376h-40a40 40 0 0 1 0-80h40a80 80 0 0 1 80 80v448a80 80 0 0 1-80 80zM648 728H200a80 80 0 0 1-80-80V200a80 80 0 0 1 80-80h448a80 80 0 0 1 80 80v448a80 80 0 0 1-80 80z m0-528H200v448h448V200zM296 384h88V296a40 40 0 0 1 80 0v88h88a40 40 0 0 1 0 80H464v88a40 40 0 0 1-80 0V464H296a40 40 0 0 1 0-80z" fill="" p-id="8706"></path></svg>