<?xml version="1.0" encoding="UTF-8"?>
<svg width="28px" height="25px" viewBox="0 0 28 25" version="1.1" xmlns="http://www.w3.org/2000/svg" xmlns:xlink="http://www.w3.org/1999/xlink">
    <!-- Generator: Sketch 52.4 (67378) - http://www.bohemiancoding.com/sketch -->
    <title>个人中心--我的优惠卷</title>
    <desc>Created with Sketch.</desc>
    <g id="蓝色" stroke="none" stroke-width="1" fill="none" fill-rule="evenodd">
        <g id="个人中心" transform="translate(-45.000000, -338.000000)" fill="#6B89FE">
            <g id="个人中心--我的优惠卷" transform="translate(45.000000, 338.000000)">
                <path d="M17.5127935,12.4196959 C17.6433827,12.4196959 17.768919,12.3430539 17.8593679,12.2175407 C17.9497227,12.0918967 18,11.9175122 18,11.7361087 L17.9949785,11.7361087 L17.9949785,11.3733889 C17.9949785,10.9968492 17.7789619,10.6898017 17.507772,10.6898017 L15.5796281,10.6898017 L17.322041,8.39507602 C17.4073744,8.28333915 17.4576517,8.122949 17.4576517,7.96251526 C17.4576517,7.77418 17.3973315,7.59979549 17.2969338,7.46726327 L17.1011285,7.20913061 C17.0006053,7.07664199 16.8601301,7 16.719498,7 C16.5939617,7 16.4734468,7.06264763 16.3829665,7.1743845 L14.6455751,9.46213478 L14.3443506,9.46213478 L12.6118551,7.18135988 C12.5265532,7.06962301 12.4060383,7.00697538 12.2754805,7.00697538 C12.129827,7.00697538 11.9942477,7.08361737 11.8938187,7.21610599 L11.6980448,7.47428225 C11.5976471,7.60677087 11.5373269,7.78813076 11.5373269,7.96949064 C11.5373269,8.12992438 11.5876042,8.29031453 11.6729061,8.4020514 L13.4153504,10.6968207 L11.4870496,10.6968207 C11.2210381,10.6968207 11,11.0038682 11,11.3803643 L11,11.7431277 C11,11.9244875 11.0502459,12.0918967 11.1406007,12.2245597 C11.2309555,12.3500293 11.3564918,12.4266713 11.4921024,12.4266713 L13.8422053,12.4266713 L13.8422053,13.8496924 L11.4921024,13.8496924 C11.225934,13.8496924 11.0050215,14.15674 11.0050215,14.5332797 L11.0050215,14.8959995 C11.0050215,15.070384 11.0552988,15.2447685 11.1456535,15.3704561 C11.2359769,15.4959693 11.3615133,15.5725677 11.4921024,15.5725677 L13.8422053,15.5725677 L13.8422053,17.3653276 C13.8422053,17.721072 14.0782136,18 14.3643423,18 L14.6405536,18 C14.9268078,18 15.1628161,17.721072 15.1628161,17.3653276 L15.1628161,15.5725677 L17.5127935,15.5725677 C17.6433827,15.5725677 17.768919,15.4959693 17.8593679,15.3704561 C17.9497227,15.2447685 18,15.070384 18,14.8959995 L18,14.5332797 C18,14.15674 17.7839834,13.8496924 17.5127935,13.8496924 L15.1628161,13.8496924 L15.1628161,12.4266713 L17.5127935,12.4266713 L17.5127935,12.4196959 Z" id="Fill-1"></path>
                <path d="M26.2336258,15.6846477 C27.3054679,15.1409815 28,13.9127517 28,12.557005 C28,11.2013003 27.3054679,9.97323826 26.2336258,9.42957215 L26.1242506,9.36908557 L26.1242506,6.6375 L26.2336258,6.58393456 C27.2945304,6.06040268 27.9890625,4.82546141 28,3.45629195 C28,1.66442953 27.1523085,0.0067114094 25.0743177,0.0067114094 L25.063346,0.0067114094 L22.0226831,0 C15.5039935,0 0.891338979,0.0201342282 0.803907231,0.0201342282 C0.716441304,0.0201342282 0.628838658,0.0403104027 0.546875668,0.073909396 C0.213213151,0.201384228 0,0.530243289 0,0.899370805 L0,24.0067114 C0,24.1610738 0.0383154765,24.3154362 0.109340954,24.4496225 L0.120312647,24.4765101 C0.240591114,24.7919044 0.508560191,24.9865772 0.792935538,24.9865772 C0.792935538,24.9865772 10.9922693,25 18.2601102,25 C23.9422167,25 25.2765934,24.9932886 25.3859343,24.9865772 C26.8516636,24.785193 27.9671533,23.3154362 27.9890625,21.5504195 C27.978125,20.18125 27.2890275,18.9530201 26.2281228,18.4294883 L26.1187819,18.3692114 L26.1187819,15.7449245 L26.2336258,15.6846477 Z M1.27160645,23.4908447 L4.07160645,23.4908447 L4.07160645,1.48840332 L1.27160645,1.48840332 L1.27160645,23.4908447 Z M25.3655492,19.8438693 C25.548035,20.0658075 25.7912687,20.1874463 26.0511235,20.1804674 C26.7422266,20.1804674 26.781302,21.9067666 26.6225173,22.3020898 C26.1450444,23.4908447 25.6136305,23.7435303 25,23.7435303 C24.6977345,23.7435303 18.2310679,23.7435303 5.6,23.7435303 L5.6,1.48840332 C10.8963396,1.48840332 15.4888243,1.48840332 19.3774543,1.48840332 C24.4584098,1.48840332 25.3433993,1.49560591 25.5314139,1.48840332 C26.1003462,1.52555395 26.4640473,1.64436906 26.6225173,1.84484863 C27.7685547,4.71630306 25.4177527,5.48316351 25.4177527,5 C25,5 25.0724869,5.28867979 25.0724869,5.66809082 L25.0780157,9.87306738 C25.0891079,10.5386584 25.5258851,11.0683396 26.0511235,11.0611818 C26.6316501,11.0611818 26.8915049,11.8342748 26.8915049,12.5500602 C26.8915049,13.2658457 26.6316501,14.0389835 26.0511235,14.0389835 C25.5148275,14.0389835 25.0780157,14.5758226 25.0780157,15.2270978 L25.0724869,18.9993319 C25.0780157,19.3213907 25.1830289,19.62211 25.3655492,19.8438693 Z" id="Fill-3"></path>
            </g>
        </g>
    </g>
</svg>