<?xml version="1.0" encoding="UTF-8"?>
<svg width="27px" height="27px" viewBox="0 0 27 27" version="1.1" xmlns="http://www.w3.org/2000/svg" xmlns:xlink="http://www.w3.org/1999/xlink">
    <!-- Generator: Sketch 52.4 (67378) - http://www.bohemiancoding.com/sketch -->
    <title>充值记录</title>
    <desc>Created with Sketch.</desc>
    <g id="页面-1" stroke="none" stroke-width="1" fill-rule="evenodd">
        <g id="个人中心" transform="translate(-218.000000, -457.000000)">
            <g id="充值记录" transform="translate(218.000000, 457.000000)">
                <path d="M19.5342384,26.1904297 L5.4710083,26.1904297 C2.99700388,26.1852246 0.782226563,23.9467931 0.782226563,21.5028156 L0.782226563,5.6479378 C0.787473249,3.54711493 2.60859333,1.65112305 4.726207,1.65112305 L6,1.65112305 C6.34065069,1.6667383 6.71332119,2.20482935 6.71332119,2.54277898 C6.71332119,2.88076035 6.44599613,3.35273191 6.10534544,3.36834717 L4.83155245,3.36834717 C3.42688022,3.36834717 2.42236328,4.2491983 2.42236328,5.6479378 L2.42236328,21.4976105 C2.42236328,23.2448367 3.70469865,24.5557524 5.4710083,24.5557524 L19.5342384,24.5557524 L19.5342384,26.1904297 Z M22.513916,14.9760119 L22.513916,5.71477016 C22.513916,4.32123574 21.5783345,3.31506348 20.1684476,3.31506348 L18.8895358,3.31506348 C18.5382318,3.31506348 18.2551667,2.88596544 18.2551667,2.5375739 C18.2551667,2.1892141 18.5434785,1.65161133 18.8947825,1.65161133 L20.1684476,1.65161133 C22.2860292,1.65681641 24.1065674,3.60366407 24.1065674,5.70445521 L24.1065674,14.9760119 L22.513916,14.9760119 Z M16.3367991,1.26880282 L8.66844755,1.26880282 C8.31717552,1.26880282 8.0289917,0.982777079 8.0289917,0.63438554 C8.0289917,0.28602574 8.31717552,0 8.66844755,0 L16.3367991,0 C16.6775778,0.0156152534 16.9448708,0.296435909 16.9448708,0.63438554 C16.9448708,0.97236691 16.6775778,1.25315583 16.3367991,1.26880282 Z M15.6973113,3.80637672 L9.30265673,3.80637672 C8.96187807,3.79072973 8.69458501,3.51006776 8.69458501,3.17195944 C8.69458501,2.83400981 8.96187807,2.55839424 9.30265673,2.5375739 L15.6920646,2.5375739 C16.0328752,2.55318915 16.3001683,2.83400981 16.3001683,3.17195944 C16.305415,3.51006776 16.0381219,3.78565159 15.6973113,3.80637672 Z" id="Fill-1"></path>
                <path d="M12.3511044,3.47627458 C12.1756982,3.47627458 12.0057797,3.4095135 11.8796291,3.29132539 C11.7534785,3.17323135 11.682272,3.01387025 11.682272,2.84949188 L11.682272,1.59592648 C11.6987351,1.26199567 11.9947708,1 12.3511044,1 C12.7074046,1 12.9979859,1.26199567 13.0199368,1.59592648 L13.0199368,2.84434917 C13.0199368,3.19885079 12.7238677,3.47627458 12.3511044,3.47627458 Z M16.6054247,9.88812863 L14.2424599,13.6540302 C13.9793506,14.0702443 14.3028583,14.594267 14.8181015,14.594267 L15.7775153,14.594267 C16.1449582,14.594267 16.4409939,14.8717222 16.4409939,15.215907 C16.4409939,15.5601232 16.1449582,15.8375784 15.7775153,15.8375784 L13.8587212,15.8375784 C13.4914121,15.8375784 13.195343,16.1150021 13.195343,16.4592184 L13.195343,16.9319081 C13.195343,17.2761243 13.4914121,17.5535481 13.8587212,17.5535481 L15.7775153,17.5535481 C16.1449582,17.5535481 16.4409939,17.8310032 16.4409939,18.1751881 L16.4409939,18.1906476 C16.4409939,18.5348324 16.1449582,18.8122875 15.7775153,18.8122875 L13.8587212,18.8122875 C13.4914121,18.8122875 13.195343,19.0897427 13.195343,19.4339275 L13.195343,20.6875243 C13.195343,21.0318346 12.8993074,21.3092897 12.5319983,21.3092897 L12.1921613,21.3092897 C11.8247184,21.3092897 11.5288166,21.0318346 11.5288166,20.6875243 L11.5288166,19.4339275 C11.5288166,19.0897427 11.2327475,18.8122875 10.8653046,18.8122875 L8.82049371,18.8122875 C8.45321812,18.8122875 8.15714901,18.5348324 8.15714901,18.1906476 L8.15714901,18.1751881 C8.15714901,17.8310032 8.45321812,17.5535481 8.82049371,17.5535481 L10.8653046,17.5535481 C11.2327475,17.5535481 11.5288166,17.2761243 11.5288166,16.9319081 L11.5288166,16.4592184 C11.5288166,16.1150021 11.2327475,15.8375784 10.8653046,15.8375784 L8.82049371,15.8375784 C8.45321812,15.8375784 8.15714901,15.5601232 8.15714901,15.215907 C8.15714901,14.8717222 8.45321812,14.594267 8.82049371,14.594267 L9.87309835,14.594267 C10.388375,14.594267 10.7063616,14.075387 10.4487399,13.659173 L8.09126293,9.88812863 C7.83364132,9.47204 8.15166129,8.95316 8.66690452,8.95316 L9.00138765,8.95316 C9.24254611,8.95316 9.46737526,9.07636539 9.58255042,9.27677404 C11.1065969,11.897013 12.0769862,13.5615557 12.4168566,14.2859557 C12.5374861,13.9777697 12.8609937,13.3561297 13.3982213,12.4107189 L15.2128492,9.27163134 C15.3280244,9.07122268 15.55282,8.9480173 15.7994997,8.9480173 L16.0242954,8.9480173 C16.5450598,8.9480173 16.8630797,9.47204 16.6054247,9.88812863 Z M13.4366353,25.3782346 C13.4366353,25.0340184 13.7327044,24.5557524 14.0944923,24.5557524 L20.7884046,24.5557524 C21.1503598,24.5557524 21.4463954,25.0391611 21.4463954,25.3782346 L21.4463954,25.3833773 C21.4463954,25.7225449 21.1503598,26.1904297 20.7884046,26.1904297 L14.0890046,26.1904297 C13.7272167,26.185287 13.4366353,25.7174022 13.4366353,25.3782346 Z M23.3882776,17.2928659 C23.0210021,17.2928659 22.5053711,17.0154108 22.5053711,16.6763686 L22.5053711,10.4031794 C22.5053711,10.0641373 23.0264898,9.78668213 23.3882776,9.78668213 C23.7555867,9.78668213 24.1065674,10.0641373 24.1065674,10.4031794 L24.1065674,16.6763686 C24.1010797,17.0154108 23.750099,17.2928659 23.3882776,17.2928659 Z M20.4266167,21.8435978 L20.4266167,21.7253784 C20.4266167,21.417067 20.6952138,21.1704994 21.0187215,21.1704994 L26.4078953,21.1704994 C26.7368907,21.1704994 27,21.4222097 27,21.7253784 L27,21.8435978 C27,22.1517838 26.731403,22.3983513 26.4078953,22.3983513 L21.0187215,22.3983513 C20.6897261,22.3983513 20.4266167,22.1466411 20.4266167,21.8435978 Z" id="Fill-2"></path>
                <path d="M23.6452623,25 L23.5747292,25 C23.3175176,25 23,24.6949733 23,24.3850354 L23,18.5050049 C23,18.194945 23.3175176,18 23.5747292,18 L23.6452623,18 C23.9025752,18 24.3258057,18.1899401 24.3258057,18.5 L24.3258057,24.3850354 C24.3258057,24.6899684 23.9025752,25 23.6452623,25 Z" id="Fill-3"></path>
            </g>
        </g>
    </g>
</svg>