<?xml version="1.0" encoding="UTF-8"?>
<svg width="17px" height="17px" viewBox="0 0 17 17" version="1.1" xmlns="http://www.w3.org/2000/svg" xmlns:xlink="http://www.w3.org/1999/xlink">
    <!-- Generator: Sketch 52.4 (67378) - http://www.bohemiancoding.com/sketch -->
    <title>dianshiji</title>
    <desc>Created with Sketch.</desc>
    <g id="页面-1" stroke="none" stroke-width="1" fill="none" fill-rule="evenodd">
        <g id="新手指导-最新资讯-copy" transform="translate(-1268.000000, -1018.000000)" fill="#000">
            <g id="dianshiji" transform="translate(1268.000000, 1018.000000)">
                <g id="分组" transform="translate(3.000000, 0.000000)">
                    <path d="M0.446932292,0.201407035 L0.501875,0.143577889 C0.648570313,-0.0108241206 0.868541667,-0.0108241206 0.996903646,0.143577889 L3.72854167,3.01872362 C3.87523698,3.17300503 3.87523698,3.40468342 3.72854167,3.53963819 L3.67348438,3.59758794 C3.52690365,3.75198995 3.30690365,3.75198995 3.17857031,3.59758794 L0.446932292,0.722442211 C0.318570313,0.568040201 0.318570313,0.336482412 0.446932292,0.201407035 Z" id="Fill-1"></path>
                    <path d="M10.8235417,0.124251256 L10.878599,0.182080402 C11.0251797,0.336482412 11.0251797,0.568040201 10.878599,0.703115578 L8.14681771,3.59758794 C8.00023698,3.75198995 7.78026563,3.75198995 7.65190365,3.59758794 L7.59684635,3.53963819 C7.45015104,3.38535678 7.45015104,3.15382915 7.59684635,3.01872362 L10.328513,0.143577889 C10.4568464,-0.0108241206 10.6768464,-0.0108241206 10.8235417,0.124251256 Z" id="Fill-4"></path>
                </g>
                <path d="M15.840057,15.2036528 L1.15994303,15.2036528 C0.525558036,15.2036528 0,14.6373423 0,13.9539683 L0,4.24956252 C0,3.56621898 0.525558036,3 1.15994303,3 L15.840057,3 C16.4744703,3 17,3.56621898 17,4.24956252 L17,13.9539683 C17,14.6373423 16.4744703,15.2036528 15.840057,15.2036528 Z M1.15994303,3.83961131 C0.960611007,3.83961131 0.779317697,4.01525239 0.779317697,4.24956252 L0.779317697,13.9539683 C0.779317697,14.168722 0.942459022,14.364072 1.15994303,14.364072 L15.840057,14.364072 C16.039389,14.364072 16.2207106,14.1882784 16.2207106,13.9539683 L16.2207106,4.24956252 C16.2207106,4.03480874 16.057541,3.83961131 15.840057,3.83961131 L1.15994303,3.83961131 Z M3.51599147,16.5704924 C3.51599147,16.3360603 3.69719983,16.1408628 3.91465552,16.1408628 L13.1033832,16.1408628 C13.3208389,16.1408628 13.5021605,16.3360603 13.5021605,16.5704924 C13.5021605,16.8048026 13.3208389,17 13.1033832,17 L3.89664512,17 C3.67916111,16.9804436 3.51599147,16.8048026 3.51599147,16.5704924 Z" id="Fill-5"></path>
            </g>
        </g>
    </g>
</svg>
