<?xml version="1.0" encoding="UTF-8"?>
<svg width="27px" height="27px" viewBox="0 0 27 27" version="1.1" xmlns="http://www.w3.org/2000/svg" xmlns:xlink="http://www.w3.org/1999/xlink">
    <!-- Generator: Sketch 52.4 (67378) - http://www.bohemiancoding.com/sketch -->
    <title>xiazai (2)</title>
    <desc>Created with Sketch.</desc>
    <defs>
        <polygon id="path-1" points="0.00197560976 0.0263414634 26.9736256 0.0263414634 26.9736256 26.9999671 0.00197560976 26.9999671"></polygon>
    </defs>
    <g id="页面-1" stroke="none" stroke-width="1" fill="none" fill-rule="evenodd">
        <g id="个人中心" transform="translate(-45.000000, -756.000000)">
            <g id="xiazai-(2)" transform="translate(45.000000, 756.000000)">
                <g id="分组">
                    <mask id="mask-2" fill="white">
                        <use xlink:href="#path-1"></use>
                    </mask>
                    <g id="Clip-2"></g>
                    <path d="M13.479126,25.444519 C19.9116784,25.444519 25.3953857,19.945789 25.3953857,13.5132366 C25.3953857,7.08051951 19.9194476,1.53985596 13.4868951,1.53985596 C7.05417805,1.53985596 1.56286621,7.08051951 1.56286621,13.5132366 C1.56286621,19.945789 7.0464089,25.444519 13.479126,25.444519 Z M13.4868951,26.9999671 C6.03848415,26.9999671 0,20.9616146 0,13.5132366 C0,6.06482561 6.03848415,0.0263414634 13.4868951,0.0263414634 C20.9352732,0.0263414634 26.9736256,6.06482561 26.9736256,13.5132366 C26.9736256,20.9616146 20.9352732,26.9999671 13.4868951,26.9999671 Z" id="Fill-1" fill="#6B89FE" mask="url(#mask-2)"></path>
                </g>
                <path d="M14.9240441,17.0345596 L18.6541016,13.3048406 C19.0237885,12.9479526 19.6112539,12.9533487 19.9744652,13.3168133 C20.3375753,13.6802778 20.342432,14.2678513 19.985258,14.6372517 L14.6477822,19.974518 C14.2800515,20.3418273 13.6842892,20.3418273 13.3164572,19.974518 L7.97894779,14.6372517 C7.62190864,14.2678513 7.62666421,13.6802778 7.9898755,13.3168133 C8.3529856,12.9533487 8.94045094,12.9479526 9.31027282,13.3048406 L13.0401617,17.0352341 L13.0401617,7.69183086 C13.0401617,7.17170927 13.4618901,6.75 13.9821703,6.75 C14.5023156,6.75 14.9240441,7.17170927 14.9240441,7.69183086 L14.9240441,17.0345596 Z" id="Fill-3" fill="#6B89FE"></path>
            </g>
        </g>
    </g>
</svg>