<?xml version="1.0" encoding="UTF-8"?>
<svg width="22px" height="18px" viewBox="0 0 22 18" version="1.1" xmlns="http://www.w3.org/2000/svg" xmlns:xlink="http://www.w3.org/1999/xlink">
    <!-- Generator: Sketch 52.4 (67378) - http://www.bohemiancoding.com/sketch -->
    <title>邮箱</title>
    <desc>Created with Sketch.</desc>
    <g id="蓝色" stroke="none" stroke-width="1" fill-rule="evenodd">
        <g id="安全中心" transform="translate(-20.000000, -451.000000)">
            <path d="M40.1666393,451 L21.8333607,451 C20.7944732,451 20,451.799374 20,452.844669 L20,467.155331 C20,468.200626 20.7944732,469 21.8333607,469 L40.1666393,469 C41.2055268,469 42,468.200626 42,467.155331 L42,452.844669 C42,451.799374 41.2055268,451 40.1666393,451 Z M40.8421053,466.882353 L34.7884586,459.564812 L40.8421053,454.176471 L40.8421053,466.882353 Z M21.1578947,466.882353 L21.1578947,454.176471 L26.9473684,460.277841 L21.1578947,466.882353 Z M21.3696289,452.412842 L40.8421053,452.412842 L31.8769017,460.604119 C31.2292657,461.29313 29.6791014,461.29313 29.0314941,460.604119 L21.3696289,452.412842 Z M22.201299,467.626011 L22.079386,467.626011 L27.8587582,461.179733 L28.2270646,461.44768 C28.8365107,462.103585 29.5678698,462.365915 30.3601408,462.365915 C31.1522927,462.365915 31.8836518,462.038027 32.4930681,461.44768 L33.8947368,460.34205 L40.1010526,467.626011 L22.201299,467.626011 Z" id="邮箱"></path>
        </g>
    </g>
</svg>