<?xml version="1.0" encoding="UTF-8"?>
<svg width="46px" height="45px" viewBox="0 0 46 45" version="1.1" xmlns="http://www.w3.org/2000/svg" xmlns:xlink="http://www.w3.org/1999/xlink">
    <!-- Generator: Sketch 52.4 (67378) - http://www.bohemiancoding.com/sketch -->
    <title>已过期</title>
    <desc>Created with Sketch.</desc>
    <defs>
        <polygon id="path-1" points="0.00339066339 0.0514355112 45.9472553 0.0514355112 45.9472553 44.9999531 0.00339066339 44.9999531"></polygon>
    </defs>
    <g id="页面-1" stroke="none" stroke-width="1" fill="none" fill-rule="evenodd">
        <g id="领红包" transform="translate(-301.000000, -453.000000)">
            <g id="已过期" transform="translate(301.000000, 453.000000)">
                <path d="M15.7005225,13.2990342 L16.5803545,13.5197206 C19.1469928,11.6277117 22.5204376,10.852429 25.8646161,11.6904722 C29.2087387,12.5285153 31.8029645,14.7994134 33.1511672,17.6724906 L34.0309992,17.8930108 C32.6733395,14.5884209 29.8024561,11.9438405 26.0407728,11.0012705 C22.2790895,10.0585342 18.4831038,11.0322352 15.7005225,13.2990342 Z M14.6036284,9.37132664 L15.8253095,9.73354253 L16.0498141,10.9417782 L16.6666422,9.84671076 L17.891401,10.0349367 L17.1023333,9.1042762 L17.5831828,7.9036294 L16.4839384,8.35369885 L15.5512258,7.49377539 L15.632757,8.77302509 L14.6036284,9.37132664 Z M21.2810177,8.51749643 L21.0816943,9.75819249 L22.0664481,8.92818134 L23.2020094,9.54808622 L22.7512655,8.37186781 L23.6402746,7.3916304 L22.405891,7.42907618 L21.7903499,6.26908796 L21.4257258,7.52623578 L20.2093048,7.73157824 L21.2810177,8.51749643 Z M12.308052,31.9076471 L11.1366214,31.4952451 L11.1196101,30.2417532 L10.3396636,31.1981715 L9.08737332,30.940261 L9.70705528,31.9517955 L9.01960784,33.0384986 L10.2563977,32.7221482 L11.0100997,33.6365231 L11.1637612,32.3540606 L12.308052,31.9076471 Z M33.6559109,14.5010105 L34.8445766,14.9166808 L34.8672957,16.1641348 L35.6527261,15.2163578 L36.9220277,15.4790322 L36.2896432,14.4696579 L36.9803922,13.3923163 L35.7294449,13.7008562 L34.9619771,12.7877 L34.8126804,14.0628506 L33.6559109,14.5010105 Z M26.0497261,8.06980889 L25.4481746,9.14150041 L26.6285585,8.70378364 L27.4563493,9.64480269 L27.4423598,8.41878582 L28.5853635,7.81228608 L27.4449898,7.44165043 L27.2749326,6.17647059 L26.5168658,7.20905453 L25.3360342,6.99806198 L26.0497261,8.06980889 Z M29.5862333,11.1802458 L30.8466375,11.1687794 L31.29934,12.3330883 L31.7096261,11.1763682 L32.9926934,10.9935154 L32.0499643,10.2591129 L32.3269018,9.01298827 L31.2579868,9.72639682 L30.2212478,9.12809526 L30.5215759,10.3770449 L29.5862333,11.1802458 Z M16.7602044,34.8413244 L15.4596221,34.8508521 L14.9901322,33.6564647 L14.5688783,34.8413244 L13.2446816,35.0267807 L14.219139,35.7810694 L13.9356544,37.0588235 L15.0375289,36.3291848 L16.1086262,36.9443259 L15.7962671,35.6631374 L16.7602044,34.8413244 Z" id="Fill-1" fill="#6B6B6B"></path>
                <g id="分组">
                    <mask id="mask-2" fill="white">
                        <use xlink:href="#path-1"></use>
                    </mask>
                    <g id="Clip-3"></g>
                    <path d="M41.9579337,27.2275983 C44.612371,16.9707494 38.2645971,6.55059582 27.7798182,3.95408477 C17.2950393,1.35707617 6.64355283,7.56685504 3.98911548,17.8237039 C1.33484767,28.0805528 7.68239558,38.5009275 18.1671744,41.0974386 C28.6517838,43.694226 39.3036658,37.4844472 41.9579337,27.2275983 Z M18.2857346,40.6388145 C8.05988943,38.1061548 1.86904668,27.9434521 4.45776167,17.9396867 C7.04687224,7.93636364 17.4354128,1.87988329 27.661258,4.41232187 C37.8873292,6.94514742 44.078172,17.1078501 41.4892875,27.1113943 C38.9005725,37.1151597 28.5120319,43.17164 18.2857346,40.6388145 Z" id="Fill-2" fill="#6B6B6B" mask="url(#mask-2)"></path>
                    <path d="M45.2393047,28.0401966 C48.3524988,16.010602 40.9076192,3.78972973 28.6107002,0.743992629 C16.3138378,-2.30152334 3.82110811,4.98156634 0.707914005,17.0111057 C-2.40522359,29.0409214 5.03965602,41.2617936 17.3365184,44.3073096 C29.6334373,47.3530467 42.1258845,40.069957 45.2393047,28.0401966 Z M17.7519877,42.7024017 C6.36082801,39.8812224 -0.535329238,28.5608477 2.348543,17.417543 C5.23235872,6.27418305 16.8042973,-0.472223587 28.1955135,2.34890049 C39.5862211,5.17007985 46.4825479,16.4904545 43.5987322,27.6339803 C40.7146904,38.7771192 29.1429214,45.5237469 17.7519877,42.7024017 Z" id="Fill-4" fill="#6B6B6B" mask="url(#mask-2)"></path>
                </g>
                <text transform="translate(23.072166, 22.999546) rotate(15.000000) translate(-23.072166, -22.999546) " font-family="PingFang-SC-Bold, PingFang SC" font-size="11" font-weight="bold" letter-spacing="-0.322143018" fill="#6B6B6B">
                    <tspan x="6.5721661" y="26.9995463">已过期</tspan>
                </text>
                <path d="M31.5686275,36.155346 L30.3178831,35.7956368 L30.0803332,34.6174903 L29.4572349,35.6802502 L28.2043009,35.4890955 L29.0168889,36.4002648 L28.532862,37.5661627 L29.6535743,37.1349127 L30.6121957,37.977739 L30.5207353,36.7320081 L31.5686275,36.155346 Z M20.3689718,36.8059335 L19.1816153,37.2331187 L18.3479729,36.3117602 L18.3629075,37.5115316 L17.2132243,38.1041277 L18.3607178,38.4678475 L18.5333079,39.7058824 L19.2949723,38.696236 L20.4834517,38.9033249 L19.7643453,37.8540601 L20.3689718,36.8059335 Z M30.174657,32.7442601 L29.2890242,32.5279034 C26.7076972,34.3771783 23.3135576,35.1336137 19.9481082,34.3111115 C16.5820411,33.4884467 13.9697782,31.2642331 12.611123,28.4518676 L11.7254902,28.2352941 C13.0942515,31.4701838 15.9852749,34.0600142 19.7711388,34.9854375 C23.5567782,35.9105899 27.3763853,34.9604525 30.174657,32.7442601 Z M24.8748405,37.4512097 L25.0705061,36.266451 L24.1068317,37.0593071 L22.9966185,36.4675782 L23.4365715,37.5904974 L22.5674454,38.5262725 L23.7743404,38.4900685 L24.3763282,39.5974872 L24.7331864,38.3975533 L25.9229572,38.2008703 L24.8748405,37.4512097 Z" id="Fill-5" fill="#6B6B6B"></path>
            </g>
        </g>
    </g>
</svg>