<?xml version="1.0" encoding="UTF-8"?>
<svg width="23px" height="28px" viewBox="0 0 23 28" version="1.1" xmlns="http://www.w3.org/2000/svg" xmlns:xlink="http://www.w3.org/1999/xlink">
    <!-- Generator: Sketch 52.4 (67378) - http://www.bohemiancoding.com/sketch -->
    <title>zhanghuzijinxiaoxi</title>
    <desc>Created with Sketch.</desc>
    <g id="蓝色" stroke="none" stroke-width="1" fill="none" fill-rule="evenodd">
        <g id="个人中心" transform="translate(-47.000000, -249.000000)" fill="#6B89FE">
            <g id="zhanghuzijinxiaoxi" transform="translate(47.000000, 249.000000)">
                <path d="M22.66809,18.9860352 C22.4764873,17.7399226 22.2753864,16.4499379 22.2753864,15.1067663 C22.2753864,11.7440628 21.1802463,9.25813869 19.0220528,7.72398003 C18.412165,7.28874079 17.7193864,6.93193149 16.9435175,6.65018639 C17.4193114,6.23678542 17.8503275,5.7797079 18.1982932,5.31632937 C18.6037676,4.7777301 19.0826744,3.97941969 19.0826744,3.23734871 C19.0826744,2.84598171 18.942235,2.26366675 18.2749981,1.69066632 C17.8598657,1.33690968 17.2883304,1.02381608 16.5732427,0.767157599 C15.2066822,0.272430571 13.4028398,0 11.4999835,0 C9.59716708,0 7.79328481,0.272430571 6.42672427,0.767157599 C5.71163661,1.02686874 5.14014117,1.33690968 4.72500879,1.69066632 C4.0577719,2.26061408 3.91729257,2.84598171 3.91729257,3.23734871 C3.91729257,3.9982053 4.44736258,4.81854968 4.89430235,5.37272535 C5.24222813,5.80780805 5.66689873,6.23052355 6.13303468,6.62189055 C5.32535837,6.90993667 4.61011107,7.27637359 3.9779541,7.72398003 C1.81976063,9.25813869 0.724580604,11.7440628 0.724580604,15.1067663 C0.724580604,16.4467287 0.526592553,17.7367134 0.331877032,18.9860352 C-0.0480157834,21.4406499 -0.405639433,23.7607126 1.0981279,25.4732564 C2.63070947,27.2203578 5.83930518,28 11.4999835,28 C17.1606618,28 20.3692974,27.2203578 21.901879,25.4732564 C23.4056463,23.7637653 23.0480227,21.4438591 22.66809,18.9860352 Z M7.71032715,6.11158712 C6.96654499,5.64194672 6.49794334,5.25126531 6,4.63137912 C5.53701686,4.05227336 5.51676145,3.39084285 5.51676145,3.23734871 C5.51676145,3.05571529 5.91801155,2.42519483 6.98449707,2.03703704 C8.17849153,1.60485046 9.78234437,1.31205565 11.5030964,1.31205565 C13.2240081,1.31205565 15.1834598,1.60485046 16.3774543,2.03703704 C17.4437402,2.42214217 17.7717285,3.05571529 17.7717285,3.23734871 C17.7717285,3.66632608 17.091827,5.00949764 15.5561325,6.04583746 C15.5146672,6.07397675 16.2611084,6.07397675 15.7359619,6.11158712 C14.6824468,5.91437729 12.8090353,5.84236576 11.5030964,5.84236576 C10.2548657,5.84236576 9.12464571,5.93320204 8.10289806,6.11158712 C8.09339974,6.10532525 7.7199851,6.11784899 7.71032715,6.11158712 Z M20.8979492,24.602417 C20.3519955,25.225395 19.3314806,25.6712909 18,26 C16.4388836,26.3851051 14.2459429,26.6719971 11.5001707,26.6719971 C8.75439847,26.6719971 6.56438896,26.3851051 5,26 C3.66851938,25.6743827 2.70916175,25.225395 2.16320801,24.602417 C1.13834747,23.4345779 1.14153393,21.4328613 1.63366699,19.2208554 C1.90700723,17.9922644 1.97460938,16.5658216 1.97460938,15.1067663 C1.97460938,12.2325279 3.01105173,10.0330598 4.75427246,8.79003906 C6.25165437,7.72552081 8.56594865,7.20166016 11.5001707,7.20166016 C14.434273,7.20166016 16.7142058,7.72552081 18.2115479,8.79003906 C19.9578815,10.0330598 20.8979492,12.2325279 20.8979492,15.1067663 C20.8979492,16.5658216 21.052822,17.9747429 21.2443848,19.2208554 C21.6020084,21.490784 21.9227699,23.4345779 20.8979492,24.602417 Z" id="Fill-1"></path>
                <path d="M17.1495778,15.8292599 L13.2795548,15.8292599 L16.538126,12.5279664 C16.872864,12.1888221 16.872864,11.6419951 16.538126,11.3028507 C16.2033881,10.9637496 15.6637086,10.9637496 15.3289707,11.3028507 L11.5273469,15.1579357 L7.67435964,11.2543583 C7.33962171,10.9152139 6.80007028,10.9152139 6.46516157,11.2543583 C6.13046634,11.5935026 6.13046634,12.1403296 6.46516157,12.479474 L9.77513901,15.832807 L5.85392328,15.832807 C5.38242954,15.832807 5,16.2204438 5,16.6979712 C5,17.1754986 5.38242954,17.5631354 5.85392328,17.5631354 L10.6460554,17.5631354 L10.6460554,19.494225 L6.41063857,19.494225 C5.93931561,19.494225 5.55671529,19.8818618 5.55671529,20.3593892 C5.55671529,20.8369166 5.93931561,21.2245534 6.41063857,21.2245534 L10.6460554,21.2245534 L10.6460554,23.1348358 C10.6460554,23.6123632 11.0286557,24 11.4999787,24 C11.9713016,24 12.3539019,23.6123632 12.3539019,23.1348358 L12.3539019,21.2245534 L16.5893187,21.2245534 C17.0606844,21.2245534 17.443242,20.8369166 17.443242,20.3593892 C17.443242,19.8818618 17.0606844,19.494225 16.5893187,19.494225 L12.3539019,19.494225 L12.3539019,17.5631354 L17.1460767,17.5631354 C17.6175705,17.5631354 18,17.1754986 18,16.6979712 C18,16.2204438 17.6209008,15.8292599 17.1495778,15.8292599 Z" id="Fill-3"></path>
            </g>
        </g>
    </g>
</svg>