<?xml version="1.0" encoding="UTF-8"?>
<svg width="42px" height="42px" viewBox="0 0 42 42" version="1.1" xmlns="http://www.w3.org/2000/svg" xmlns:xlink="http://www.w3.org/1999/xlink">
    <!-- Generator: Sketch 52.4 (67378) - http://www.bohemiancoding.com/sketch -->
    <title>广发银行</title>
    <desc>Created with Sketch.</desc>
    <defs>
        <polygon id="path-1" points="0.00432054864 0.0371857708 36.5527776 0.0371857708 36.5527776 41.999917 0.00432054864 41.999917"></polygon>
    </defs>
    <g id="页面-1" stroke="none" stroke-width="1" fill="none" fill-rule="evenodd">
        <g id="弹窗/银行icon" transform="translate(-143.000000, -566.000000)">
            <g id="广发银行" transform="translate(164.000000, 587.000000) scale(-1, 1) translate(-164.000000, -587.000000) translate(143.000000, 566.000000)">
                <g id="分组">
                    <mask id="mask-2" fill="white">
                        <use xlink:href="#path-1"></use>
                    </mask>
                    <g id="Clip-2"></g>
                    <path d="M21.0995433,16.1370474 C20.2081421,14.4244269 19.6137786,12.369166 18.8708603,10.6562134 C17.6822054,7.05948617 16.4934784,3.63391304 15.4533063,0.0371857708 C12.0356803,11.5128142 6.53792621,22.1318419 0,31.038249 C4.90339065,29.6680198 9.9555522,28.811668 14.8589428,28.4690277 C17.2363247,24.5298261 19.16797,20.4192213 21.0995433,16.1370474" id="Fill-1" fill="#BF0017" mask="url(#mask-2)"></path>
                    <path d="M21.0995433,28.2977905 C19.0194152,28.2977905 16.938999,28.2977905 15.0074257,28.4690277 C12.3330061,33.264747 9.06386297,37.7180751 5.64623698,41.999917 C10.6983985,40.8009249 15.8991149,40.4585336 21.0995433,40.4585336 C26.3001877,40.4585336 31.649459,40.9724111 36.5527776,41.999917 C33.1354397,37.7180751 29.8663686,33.0935099 27.1918769,28.4690277 C25.2600156,28.2977905 23.1798875,28.2977905 21.0995433,28.2977905" id="Fill-3" fill="#730000" mask="url(#mask-2)"></path>
                    <path d="M0,31.038249 L5.49775413,41.999917 C8.91538011,37.7180751 12.1841632,33.0935099 14.8589428,28.4690277 C9.80678131,28.811668 4.90339065,29.6680198 0,31.038249" id="Fill-4" fill="#E60020" mask="url(#mask-2)"></path>
                </g>
                <path d="M14.9032258,28.5185185 C17.2824389,24.5433925 19.3641694,20.3953002 20.999964,16.0740741 C22.9330251,20.3953002 24.8664465,24.5433925 27.0967742,28.5185185 C25.0150438,28.3457197 22.9330251,28.3457197 20.999964,28.3457197 C19.0669028,28.3457197 16.9848842,28.3457197 14.9032258,28.5185185" id="Fill-5" fill="#FFFFFF"></path>
                <path d="M26.3730704,0 C25.3416758,3.60949497 24.3102812,7.04722822 22.984284,10.6567232 C22.2477062,12.5475181 21.6583583,14.4383131 20.7741935,16.1570131 C22.6894672,20.4543879 24.605098,24.5795845 26.8149028,28.5327695 C31.8244317,28.8766261 36.833675,29.7360178 41.5483871,31.1111111 C35.0656312,22.0012429 29.909158,11.3442698 26.3730704,0" id="Fill-6" fill="#E60020"></path>
                <path d="M20.9246397,16.0740741 C21.8280144,14.3641967 22.4300939,12.3122278 23.182748,10.6020189 C24.387053,7.01105259 25.591285,3.5909663 26.6451613,0 L15.3548387,0 C16.408642,3.5909663 17.4625183,7.01105259 18.817252,10.6020189 C19.4194044,12.3122278 20.0215569,14.1933167 20.9246397,16.0740741" id="Fill-7" fill="#730000"></path>
                <path d="M36.4855724,42 L42,31.0783584 C37.2309937,29.7131325 32.312701,28.8599077 27.0967742,28.5185185 C30.0774482,33.1261145 33.0580501,37.7337932 36.4855724,42" id="Fill-8" fill="#BF0017"></path>
            </g>
        </g>
    </g>
</svg>