<?xml version="1.0" encoding="UTF-8"?>
<svg width="27px" height="27px" viewBox="0 0 27 27" version="1.1" xmlns="http://www.w3.org/2000/svg" xmlns:xlink="http://www.w3.org/1999/xlink">
    <!-- Generator: Sketch 52.4 (67378) - http://www.bohemiancoding.com/sketch -->
    <title>个人中心--代理中心--推广设置</title>
    <desc>Created with Sketch.</desc>
    <g id="蓝色" stroke="none" stroke-width="1" fill="none" fill-rule="evenodd">
        <g id="个人中心" transform="translate(-218.000000, -546.000000)" fill="#6B89FE">
            <g id="个人中心--代理中心--推广设置" transform="translate(218.000000, 546.000000)">
                <path d="M21.6814079,9.07987572 L17.7012383,5.24021599 C17.3825432,4.919928 17.2233158,4.919928 16.904758,5.24021599 L14.4380212,7.71900551 C12.2105891,9.87764508 10.0625475,12.0392525 7.9116901,14.1978576 C7.67279751,14.3581569 7.59313231,14.5982434 7.51346711,14.83833 C7.11520979,16.1993383 6.79651465,17.5574822 6.39825732,18.9183524 L6,20.5195508 L6,20.5994761 C6,20.7596373 6.07956218,20.8398388 6.15936474,20.9197986 C6.15936474,21 6.23889259,21 6.31872948,21 C6.39825732,21 6.47778517,20.9197986 6.47778517,20.9227665 L12.0512244,19.4014934 C12.2105891,19.3216716 12.3697822,19.2414702 12.5291469,19.081447 L21.6814079,10.0407397 C21.9203005,9.88061294 22,9.72045169 22,9.56032496 C22,9.40016371 21.8406353,9.2401405 21.6814079,9.07987572 Z M20.2002563,9.37155035 C19.0850466,10.4922995 17.5099093,12.1351935 16.3179874,13.2531128 L11.755188,17.8703003 C11.6754884,17.9502256 10.9412708,18.253093 10.7820435,18.3331909 C10.1447562,18.4933177 8.4817354,19.0720549 7.84448248,19.2320781 C7.7649203,19.2320781 7.68525509,19.3121415 7.68525509,19.1521183 C7.7649203,18.5916056 8.21802299,17.1459618 8.37721604,16.5854492 C8.45691558,16.1853394 8.76083271,15.4583192 9,15.2179565 C11.5459899,12.739167 13.9502707,10.3964531 16.4168701,7.91766357 L17.5546255,6.73468018 C17.6341533,6.65447877 17.7138529,6.65447877 17.7935181,6.73468018 C18.3511058,7.13489349 19.8146541,8.6065869 20.292714,9.08703613 C20.4520787,9.24719738 20.2797842,9.29145247 20.2002563,9.37155035 Z" id="Fill-1"></path>
                <g id="分组">
                    <path d="M7.84448248,18.8180175 L8.01335984,19.0711698 L7.84448248,18.8180175 C7.9287938,18.8180175 7.9287938,18.8180175 7.84448248,18.8180175 Z M23.4488814,0.00276549865 C22.438965,0.00276549865 21.5947965,0.340520216 20.919469,1.01566577 L18.5558046,3.37933019 C18.4715296,3.46378706 18.3871092,3.63248248 18.3871092,3.80150539 C18.3871092,4.05465768 18.4715296,4.13907817 18.5558046,4.22349865 C19.0624003,4.72994879 19.568996,5.15197844 20.0753005,5.65842857 C21.000942,6.58407008 22.0138423,7.51265903 22.9424313,8.44128437 C23.0267426,8.5255593 23.1955836,8.60983423 23.2801496,8.60983423 C23.4488814,8.60983423 23.5333019,8.44128437 23.6147749,8.35369811 C24.0367682,8.01612534 24.4587978,7.59395013 24.7965162,7.34068868 L25.9782938,6.15891105 C26.6535849,5.48656739 26.9911941,4.64254447 26.9911941,3.62949865 L26.9911941,3.29192588 C26.8224623,1.43769542 25.3059501,0.00276549865 23.4488814,0.00276549865 Z M25.8053589,3.95966644 C25.721084,4.46626213 25.3912837,5.04326312 25.0537109,5.38098145 C24.7159926,5.71855422 24,6.46139421 23.4675903,6.8215332 C23.3833154,6.90595369 23.1800015,7.08442049 23.0955811,7 L21.2778931,5.21580143 C21.0245952,5.04692407 20.2531523,4.21281873 20,3.95966644 C19.9155795,3.8751004 19.9155795,3.8751004 20,3.79064353 L22,1.79528809 C22.2532978,1.45753337 23.1393107,1.17871094 23.5613403,1.17871094 C24.4053632,1.17871094 25.4049072,2.05400236 25.6934204,2.70678711 C25.8857625,3.14197694 25.9230754,3.55960339 25.8053589,3.95966644 Z" id="Fill-2"></path>
                    <path d="M21.5947965,26.9999272 L5.31492453,26.9999272 C2.36351887,26.9999272 0,24.6396833 0,21.6850027 L0,5.3208558 C0,2.36941375 2.36351887,0.00574932615 5.31492453,0.00574932615 L16.3672763,0.00574932615 C17.0424582,0.00574932615 17.3046875,0.272654771 17.3046875,0.863525391 C17.3046875,1.45439601 16.9087125,1.57383609 16.3179874,1.57383609 L5.31208625,1.57383609 C3.70802426,1.57383609 1.65490723,3.39921294 1.65490723,5 L1.65490723,21.7695687 C1.65490723,23.3733396 3.71115364,25.4238281 5.31208625,25.4238281 L21.6141023,25.2681885 C23.2180188,25.2681885 25.3999023,23.3702102 25.3999023,21.7695687 L25.3999023,11.8177035 C25.3999023,11.142376 25.5503647,10.6856689 26.1412354,10.6856689 C26.7321424,10.6856689 26.9911941,11.142376 26.9911941,11.8177035 L26.9911941,21.6879865 C26.9068827,24.6396833 24.5462022,26.9999272 21.5947965,26.9999272 Z" id="Fill-4"></path>
                </g>
            </g>
        </g>
    </g>
</svg>