<?xml version="1.0" encoding="UTF-8"?>
<svg width="42px" height="42px" viewBox="0 0 42 42" version="1.1" xmlns="http://www.w3.org/2000/svg" xmlns:xlink="http://www.w3.org/1999/xlink">
    <!-- Generator: Sketch 52.4 (67378) - http://www.bohemiancoding.com/sketch -->
    <title>华夏银行</title>
    <desc>Created with Sketch.</desc>
    <defs>
        <polygon id="path-1" points="0.0043003413 0.0539482742 41.9333447 0.0539482742 41.9333447 41.9251425 0.0043003413 41.9251425"></polygon>
    </defs>
    <g id="页面-1" stroke="none" stroke-width="1" fill="none" fill-rule="evenodd">
        <g id="弹窗/银行icon" transform="translate(-188.000000, -395.000000)">
            <g id="华夏银行" transform="translate(188.000000, 395.000000)">
                <g id="分组">
                    <mask id="mask-2" fill="white">
                        <use xlink:href="#path-1"></use>
                    </mask>
                    <g id="Clip-2"></g>
                    <path d="M40.3067406,8.32079144 L38.6798498,6.15782888 C38.6798498,6.15782888 32.9118737,7.23927273 33.0597338,3.68604278 C33.0597338,3.68604278 33.5034573,1.21433155 29.2145836,2.2957754 C29.2145836,2.2957754 28.1792765,1.21433155 28.1792765,0.905508021 C28.1792765,0.905508021 28.3270648,-0.484834225 24.0382628,0.287561497 C24.0382628,0.287561497 17.2352662,1.05988235 9.84039932,9.86543316 C9.84039932,9.86543316 2.44581911,16.3539465 2.44581911,9.71105882 C2.44581911,9.71105882 -1.54740614,14.0366096 0.671068259,17.4354652 C0.671068259,17.4354652 3.03740273,20.9883957 7.91786007,18.0534118 C7.91786007,18.0534118 6.58683276,29.9486203 14.129273,36.2824599 C14.129273,36.2824599 22.1156519,44.0068663 31.1371945,41.3804064 C31.1371945,41.3804064 38.6798498,39.6812406 41.7855563,31.8024599 C41.7855563,31.8024599 40.4546007,33.1927273 39.715157,33.0383529 C39.715157,33.0383529 41.7855563,30.5665668 41.9333447,29.3306738 C41.9333447,29.3306738 41.9333447,27.9404064 40.7501775,30.1030695 C40.7501775,30.1030695 40.8983242,28.7127273 40.1586655,29.3306738 C40.1586655,29.3306738 36.165727,34.1197968 34.3909761,34.5830695 C34.3909761,34.5830695 21.5240683,42.4618503 15.7561638,26.7045134 C15.7561638,26.7045134 13.3898294,19.1345561 19.1578055,13.5731123 C24.9257099,7.85721925 30.8414744,8.47516578 36.0175802,12.491893 C36.0175802,12.491893 38.6798498,9.40223529 39.8630171,10.0201818 C39.715157,9.86543316 40.7501775,9.24748663 40.3067406,8.32079144 Z" id="Fill-1" fill="#E60012" mask="url(#mask-2)"></path>
                </g>
                <polygon id="Fill-3" fill="#E60012" points="22.6434783 27.7431193 35.0608696 27.7431193 35.0608696 17.7247706 22.6434783 17.7247706"></polygon>
            </g>
        </g>
    </g>
</svg>