<?xml version="1.0" encoding="UTF-8"?>
<svg width="42px" height="42px" viewBox="0 0 42 42" version="1.1" xmlns="http://www.w3.org/2000/svg" xmlns:xlink="http://www.w3.org/1999/xlink">
    <!-- Generator: Sketch 52.4 (67378) - http://www.bohemiancoding.com/sketch -->
    <title>工商银行</title>
    <desc>Created with Sketch.</desc>
    <g id="页面-1" stroke="none" stroke-width="1" fill="none" fill-rule="evenodd">
        <g id="弹窗/银行icon" transform="translate(-31.000000, -452.000000)" fill="#E60012">
            <g id="工商银行" transform="translate(31.000000, 452.000000)">
                <path d="M32.2325581,22.1257122 L32.2325581,31.255814 L22.0084471,31.255814 L22.0084471,28.3039593 L28.9674452,28.3039593 L28.9674452,24.9349698 L22.0084471,24.9349698 L22.0084471,15.8140919 L28.9674452,15.8140919 L28.9674452,12.720385 L22.0084471,12.720385 L22.0084471,9.76744186 L32.2325581,9.76744186 L32.2325581,18.888148 L25.2735601,18.888148 L25.2735601,21.9804798 L32.2325581,21.9804798 L32.2325581,22.1257122 Z M8.79069767,22.1257122 L8.79069767,31.255814 L19.0136495,31.255814 L19.0136495,28.3039593 L12.0544197,28.3039593 L12.0544197,24.9349698 L19.0136495,24.9349698 L19.0136495,15.8140919 L12.0544197,15.8140919 L12.0544197,12.720385 L19.0136495,12.720385 L19.0136495,9.76744186 L8.79069767,9.76744186 L8.79069767,18.888148 L15.7499276,18.888148 L15.7499276,21.9804798 L8.79069767,21.9804798 L8.79069767,22.1257122 Z" id="Fill-1"></path>
                <path d="M21,0 C9.4009755,0 0,9.4009755 0,21 C0,32.5993168 9.4009755,42 21,42 C32.5993168,42 42,32.5993168 42,21 C42,9.4009755 32.5993168,0 21,0 Z M21,37.8351833 C11.702037,37.8351833 4.16528442,30.297963 4.16528442,21.0004677 C4.16528442,11.7029724 11.7025047,4.16300435 21,4.16300435 C30.2974953,4.16300435 37.8347156,11.7006924 37.8347156,21.0004677 C37.8347156,30.3004769 30.2974953,37.8347156 21,37.8347156 L21,37.8351833 Z" id="Fill-2"></path>
            </g>
        </g>
    </g>
</svg>