<?xml version="1.0" encoding="UTF-8"?>
<svg width="35px" height="35px" viewBox="0 0 35 35" version="1.1" xmlns="http://www.w3.org/2000/svg" xmlns:xlink="http://www.w3.org/1999/xlink">
    <!-- Generator: Sketch 52.4 (67378) - http://www.bohemiancoding.com/sketch -->
    <title>积分钱包</title>
    <desc>Created with Sketch.</desc>
    <g id="页面-1" stroke="none" stroke-width="1" fill="none" fill-rule="evenodd">
        <g id="我的钱包" transform="translate(-44.000000, -397.000000)">
            <g id="积分钱包" transform="translate(44.000000, 397.000000)">
                <path d="M17.4999168,0 C7.83740715,0 0,7.83723495 0,17.5026348 C0,27.1625432 7.83740715,35 17.4999168,35 C27.1625929,35 35,27.162765 35,17.5026348 C34.9997781,7.83723495 27.1625929,0 17.4999168,0 Z" id="Fill-2" fill="#FFFFFF"></path>
                <path d="M25.4222778,15.9245021 L25.4222778,8.833626 C25.4222778,6.13239325 21.5333833,4.10638625 16.7110933,4.10638625 C11.8888945,4.10638625 8,6.30115847 8,8.833626 L8,24.872686 C8,27.5739187 11.8888945,29.5999257 16.7110933,29.5999257 C17.4889026,29.5999257 18.2667423,29.5999257 19.0444604,29.4310616 C19.9777343,29.9375221 20.9111602,30.1063862 22.0000506,30.1063862 C25.8889452,30.1063862 29,26.7296969 29,22.5089177 C28.8444138,19.6388208 27.4444726,17.2751844 25.4222778,15.9245021 Z M22.173895,14.820672 C19.434782,14.820672 17.1521581,16.5349242 16.0869475,19.1063862 C13.5000372,18.9349242 11.2174133,18.0778483 10,16.8778483 L10,13.1063862 C11.5218186,14.3063862 14.1087289,15.1635961 17.0000743,15.1635961 C19.8912711,15.1635961 22.4783003,14.3063862 24,13.1063862 L24,15.1635961 C23.5435109,14.992134 22.9347894,14.820672 22.173895,14.820672 Z M15,24.1063862 C12.3333984,23.761626 10.1667969,22.8994897 9,21.8650406 L9,19.1063862 C10.5000651,20.1409364 12.6666992,20.6581777 15,21.002938 C14.833431,21.5201457 14.833431,22.2098345 14.833431,22.7270422 C14.833431,23.2443846 14.833431,23.5891785 15,24.1063862 Z M10,9.41076804 C10,7.84548272 13.0435183,6.10638625 17.0000743,6.10638625 C20.9564817,6.10638625 24,7.84548272 24,9.23682103 L24,10.9759515 C24,12.3672898 20.9564817,14.1063862 17.0000743,14.1063862 C13.0435183,14.1063862 10,12.3672898 10,10.9759515 L10,9.41076804 Z M10,25.1037167 L10,24.1063862 C11.4584069,25.1037167 13.500057,25.7686252 15.6875676,25.934755 C15.979175,26.7659556 16.4166429,27.5971238 17,28.0958053 L16.7083927,28.0958053 C12.9166999,28.2620649 10,26.4335663 10,25.1037167 Z M21.5000153,28.1063862 C20.5571863,28.1063862 19.6142344,27.7634641 18.82861,27.2492147 C17.1000031,26.2206825 16,24.3349787 16,22.1063193 C16,18.849295 18.5142313,16.1063862 21.5000153,16.1063862 C24.4857687,16.1063862 27,18.849295 27,22.1063193 C27,25.3634774 24.4857687,28.1063862 21.5000153,28.1063862 Z" fill="#F5A623"></path>
            </g>
        </g>
    </g>
</svg>