<?xml version="1.0" encoding="UTF-8"?>
<svg width="26px" height="28px" viewBox="0 0 26 28" version="1.1" xmlns="http://www.w3.org/2000/svg" xmlns:xlink="http://www.w3.org/1999/xlink">
    <!-- Generator: Sketch 52.4 (67378) - http://www.bohemiancoding.com/sketch -->
    <title>个人中心--邀请好友</title>
    <desc>Created with Sketch.</desc>
    <g id="蓝色" stroke="none" stroke-width="1"  fill-rule="evenodd">
        <g id="个人中心" transform="translate(-219.000000, -249.000000)">
            <path d="M244.560385,273.381211 L241.511012,273.381211 L241.511012,276.545602 C241.511012,276.795526 241.31388,277 241.071443,277 L239.928557,277 C239.687763,277 239.491195,276.795526 239.491195,276.545602 L239.491195,273.381211 L236.439615,273.381211 C236.196991,273.381211 236,273.178933 236,272.925792 L236,271.743275 C236,271.489113 236.196991,271.28566 236.439615,271.28566 L239.491195,271.28566 L239.491195,268.122239 C239.491195,267.871294 239.687763,267.666667 239.928557,267.666667 L241.071443,267.666667 C241.31388,267.666667 241.511012,267.871294 241.511012,268.122239 L241.511012,271.28566 L244.560385,271.28566 C244.803009,271.28566 244.997981,271.491104 245,271.743275 L245,272.925792 C245,273.178933 244.803009,273.381211 244.560385,273.381211 Z M234.70724,264.435427 C235.814555,264.798292 236.854108,265.321934 237.79697,265.97919 C238.009002,266.126803 238.147596,266.374406 238.145783,266.657542 C238.145783,267.105469 237.790971,267.470437 237.3557,267.470437 C237.182178,267.470437 237.021584,267.411167 236.890617,267.311764 L236.888617,267.315973 C235.219575,266.157784 233.20865,265.481733 231.044015,265.481733 C225.267362,265.481733 220.582351,270.299006 220.582351,276.239082 C220.555655,276.663125 220.208843,277 219.790269,277 C219.370438,277 219.030509,276.663125 219.004,276.239082 C219.002,276.239082 219,276.173694 219,276.167576 C219.030509,270.669162 222.543186,266.022799 227.383675,264.435574 C224.834789,263.074173 223.092914,260.336982 223.092914,257.17751 C223.092914,252.659818 226.652611,249 231.046201,249 C235.439233,249 239,252.659818 239,257.17751 C238.999814,260.334486 237.257056,263.074173 234.70724,264.435427 Z M231,250.585327 C227,250.585327 224.668335,253.803674 224.668335,257.250267 C224.668335,260.696859 227.686071,263.886189 231,263.886189 C234.313753,263.886189 237.445923,260.682351 237.445923,257.235758 C237.445923,253.789165 235,250.585327 231,250.585327 Z" id="个人中心--邀请好友"></path>
        </g>
    </g>
</svg>