<?xml version="1.0" encoding="UTF-8"?>
<svg width="16px" height="21px" viewBox="0 0 16 21" version="1.1" xmlns="http://www.w3.org/2000/svg" xmlns:xlink="http://www.w3.org/1999/xlink">
    <!-- Generator: Sketch 52.4 (67378) - http://www.bohemiancoding.com/sketch -->
    <title>ios</title>
    <desc>Created with Sketch.</desc>
    <defs>
        <polygon id="path-1" points="5.54360253e-17 0 16 0 16 21 5.54360253e-17 21"></polygon>
    </defs>
    <g id="页面-1" stroke="none" stroke-width="1" fill="none" fill-rule="evenodd">
        <g id="下载页面" transform="translate(-217.000000, -537.000000)">
            <g id="ios" transform="translate(217.000000, 537.000000)">
                <mask id="mask-2" fill="white">
                    <use xlink:href="#path-1"></use>
                </mask>
                <g id="Clip-2"></g>
                <path d="M5.27598802,21 C3.77966297,21 2.69890799,19.5822889 1.86762171,18.2531766 C-0.127494601,14.9746304 -0.626310211,10.8100959 0.870014843,8.41769381 C1.7844736,6.82281099 3.36401983,5.84812 4.86032053,5.84812 C5.60858047,5.84812 6.27359489,6.11391649 6.85553426,6.29116608 C7.35434986,6.46831182 7.76999301,6.64556141 8.1856605,6.64556141 C8.60130365,6.64556141 8.93379868,6.46831182 9.34946617,6.29116608 C9.93140554,6.02526574 10.5133693,5.84812 11.5108787,5.84812 C12.8409806,5.84812 14.254255,6.64556141 15.1686894,7.88602294 L15.5012087,8.32906902 L15.0855412,8.59494339 C13.9217356,9.30373405 13.2567212,10.5442994 13.3397962,11.9620365 C13.4229443,13.3797476 14.254255,14.6202091 15.5843569,15.15188 L16,15.3291296 L15.8338012,15.7721497 C15.4181581,16.7468407 15.1686894,17.1898608 14.6698981,18.075927 C13.7554394,19.4936641 12.6747818,20.9113752 11.2615318,21 C10.59642,21 10.2639249,20.8227504 9.84825743,20.6456047 C9.43261429,20.4683291 9.01694679,20.2910795 8.26880862,20.2910795 C7.52054867,20.2910795 7.10490553,20.4683291 6.68923803,20.7341256 C6.27359489,20.7341256 5.85792739,21 5.27598802,21 Z M4.86032053,6.7341862 C3.61336674,6.7341862 2.36641296,7.53162761 1.53510232,8.86071393 C0.454347346,10.6329502 0.454347346,14.3544386 2.53270919,17.7215317 C3.1977236,18.7847436 4.11218235,20.025309 5.19293733,20.025309 C5.60858047,20.025309 5.94109986,19.9366842 6.27359489,19.7594346 C6.77238614,19.5822889 7.27120175,19.3163886 8.1856605,19.3163886 C9.10011926,19.3163886 9.68205862,19.5822889 10.0977018,19.7594346 C10.4302212,19.9366842 10.7627162,20.025309 11.1783837,20.025309 C12.2591387,20.025309 13.1735731,18.6962227 13.9217356,17.5442821 C14.3374031,16.8354655 14.5868474,16.4809663 14.8361943,15.7721497 C13.5060924,15.0632552 12.5916337,13.6455181 12.5084856,11.9620365 C12.4253375,10.3670498 13.0904249,8.94933872 14.254255,8.06327252 C13.5060924,7.17720632 12.5084856,6.7341862 11.5108787,6.7341862 C10.7627162,6.7341862 10.1807768,6.91133194 9.68205862,7.17720632 C9.26631806,7.35448186 8.76759987,7.53162761 8.1856605,7.53162761 C7.60369678,7.53162761 7.02183048,7.35448186 6.52303923,7.17720632 C6.10739608,6.99995673 5.52543236,6.7341862 4.86032053,6.7341862 Z M8.01936428,5.05060071 L7.60369678,5.05060071 L7.52054867,4.69617942 C7.35434986,3.72148843 7.68684489,2.4810269 8.43500742,1.5949607 C9.10011926,0.708920455 10.2639249,0.0886247916 11.2615318,0 L11.6771749,0 L11.760323,0.443020121 C11.9266193,1.5063359 11.5940268,2.65817264 10.8458643,3.63286364 C10.1807768,4.43040888 9.10011926,5.05060071 8.01936428,5.05060071 Z M10.9290124,0.886066201 C10.2639249,1.06331578 9.5157624,1.5063359 9.10011926,2.12663157 C8.93379868,2.39240211 8.35195673,3.18984352 8.35195673,4.16453451 C9.01694679,4.07590972 9.76510932,3.63286364 10.1807768,3.01269777 C10.4302212,2.56965169 10.9290124,1.86075719 10.9290124,0.886066201 Z" id="Fill-1" fill="#FFFFFF" mask="url(#mask-2)"></path>
            </g>
        </g>
    </g>
</svg>