<?xml version="1.0" standalone="no"?><!DOCTYPE svg PUBLIC "-//W3C//DTD SVG 1.1//EN" "http://www.w3.org/Graphics/SVG/1.1/DTD/svg11.dtd"><svg t="1552472420738" class="icon" style="" viewBox="0 0 1024 1024" version="1.1" xmlns="http://www.w3.org/2000/svg" p-id="9395" xmlns:xlink="http://www.w3.org/1999/xlink" width="200" height="200"><defs><style type="text/css"></style></defs><path d="M481.736 333.442c-13.207 13.207-35.143 13.207-48.777 0-13.111-13.373-13.111-35.113 0-48.517l145.35-145.646c43.483-42.926 100.499-64.6 157.09-64.6 122.434 0 220.905 99.058 220.905 221.722 0 56.591-21.446 113.672-64.372 156.599l-158.429 158.495c-42.958 41.944-99.092 62.932-155.194 62.932-78.494 0-150.221-41.681-189.748-107.755l0-0.293c-9.741-15.855-17.065-32.922-22.46-49.955-5.328-18.08 4.969-37.368 22.918-42.729 18.634-5.33 37.63 4.87 42.894 23.179 3.497 11.966 8.793 23.702 15.137 34.654 27.363 45.868 77.612 74.67 131.259 74.67 39.07 0 77.581-14.679 107.267-43.48l158.132-158.235c29.719-29.815 44.397-69.079 44.397-108.082 0-84.871-67.903-152.708-152.707-152.708-39.068 0-78.495 14.679-107.852 44.397l-0.458 0-145.352 145.352zM538.785 709.08l0 0-145.351 145.581c-58.977 59.074-157.579 59.305-216.523 0.229l0 0 0-0.229c-59.075-59.011-59.075-157.316 0-216.262l156.5-157.12c29.848-29.229 68.817-44.168 108.343-44.168s78.495 14.94 108.311 44.168l0 0.456c9.253 9.022 16.577 19.093 22.918 29.815 6.766 10.724 11.639 22.428 15.137 34.1 5.328 18.536 24.388 28.802 42.337 23.439 18.079-5.36 28.835-24.387 23.505-42.695-5.427-17.555-12.781-34.392-21.445-49.987-9.841-15.627-20.989-30.273-33.674-43.449-43.48-42.957-100.039-64.599-157.089-64.599-57.017 0-113.607 21.642-157.088 64.599l-156.566 156.861c-85.361 85.59-85.361 227.802 0 313.85l2.387 1.765c85.818 83.628 225.449 82.909 310.809-1.242l0-0.523 0.457-0.458 145.811-145.352c13.206-13.631 13.206-35.111-0.458-48.776-13.208-13.208-35.112-13.208-48.321 0l0 0z" p-id="9396"></path></svg>