<?xml version="1.0" encoding="UTF-8"?>
<svg width="19px" height="19px" viewBox="0 0 19 19" version="1.1" xmlns="http://www.w3.org/2000/svg" xmlns:xlink="http://www.w3.org/1999/xlink">
    <!-- Generator: Sketch 52.4 (67378) - http://www.bohemiancoding.com/sketch -->
    <title>性别</title>
    <desc>Created with Sketch.</desc>
    <g id="页面-1" stroke="none" stroke-width="1" fill="none" fill-rule="evenodd">
        <g id="设置--编辑资料" transform="translate(-32.000000, -236.000000)" fill="#6B89FE">
            <g id="性别" transform="translate(32.000000, 236.000000)">
                <path d="M5.22500835,10.4499332 C2.33930549,10.4499332 0,8.11062771 0,5.22503618 C0,2.33930549 2.33930549,0 5.22500835,0 C8.11062771,0 10.4499332,2.33930549 10.4499332,5.22503618 C10.4499332,8.11062771 8.11062771,10.4499332 5.22500835,10.4499332 Z M5.22500835,9.49994434 C7.58593929,9.49994434 9.49994434,7.58596712 9.49994434,5.22503618 C9.49994434,2.86399392 7.58593929,0.949988867 5.22500835,0.949988867 C2.86396609,0.949988867 0.949988867,2.86399392 0.949988867,5.22503618 C0.949988867,7.58596712 2.86396609,9.49994434 5.22500835,9.49994434 Z M13.7749917,19 C10.889261,19 8.54995547,16.6607223 8.54995547,13.7749917 C8.54995547,10.889261 10.889261,8.5499833 13.7749917,8.5499833 C16.6606945,8.5499833 19,10.889261 19,13.7749917 C19,16.6607223 16.6606945,19 13.7749917,19 Z M13.7749917,18.0500111 C16.1360339,18.0500111 18.0500111,16.1360339 18.0500111,13.7749917 C18.0500111,11.4139494 16.1360339,9.49994434 13.7749917,9.49994434 C11.4139494,9.49994434 9.49994434,11.4139494 9.49994434,13.7749917 C9.49994434,16.1360339 11.4139494,18.0500111 13.7749917,18.0500111 Z" id="Fill-1"></path>
                <polygon id="Fill-2" points="13 9 14 9 14 2 13 2"></polygon>
                <polygon id="路径" points="11 3.92856754 15.9999463 3.92856754 15.9999463 3 11 3"></polygon>
                <polygon id="路径" points="5 16.6639161 5.99999512 16.6639161 5.99999512 10 5 10"></polygon>
                <polygon id="Fill-4" points="5.5000148 16.6658902 7.2858707 15 8 15.6665715 5.5000148 18 3 15.6665715 3.71415889 15"></polygon>
            </g>
        </g>
    </g>
</svg>