<?xml version="1.0" encoding="UTF-8"?>
<svg width="21px" height="18px" viewBox="0 0 21 18" version="1.1" xmlns="http://www.w3.org/2000/svg" xmlns:xlink="http://www.w3.org/1999/xlink">
    <!-- Generator: Sketch 52.4 (67378) - http://www.bohemiancoding.com/sketch -->
    <title>名称</title>
    <desc>Created with Sketch.</desc>
    <defs>
        <polygon id="path-1" points="0.00164705882 0.00838988286 20.9845039 0.00838988286 20.9845039 17.9999723 0.00164705882 17.9999723"></polygon>
    </defs>
    <g id="页面-1" stroke="none" stroke-width="1" fill="none" fill-rule="evenodd">
        <g id="设置--编辑资料" transform="translate(-31.000000, -172.000000)">
            <g id="名称" transform="translate(31.000000, 172.000000)">
                <g id="分组">
                    <mask id="mask-2" fill="white">
                        <use xlink:href="#path-1"></use>
                    </mask>
                    <g id="Clip-2"></g>
                    <path d="M9.7497098,17.9973659 C7.10456078,17.9973659 5.86358431,18.0001033 3.21840784,17.9960488 C0.926031373,17.9934405 0.00269019608,17.1168121 0.00129019608,14.9536614 C0.00129019608,10.9247604 -0.00161960784,6.89727977 0.00129019608,2.86837877 C0.00269019608,0.962987088 0.97805098,0.02158967 3.01318431,0.0176384505 C8.43837647,0.00573314204 12.4595333,0.00444189383 17.8847529,0.0189555237 C19.9732784,0.0241979914 20.9810314,0.99738594 20.9824039,2.94637016 C20.9852039,6.99644763 20.9852039,11.0451047 20.9824039,15.0950789 C20.9810314,17.0758537 20.0126157,17.9895151 17.8861255,17.9960488 C15.1749294,18.0040287 12.4623059,17.9973659 9.7497098,17.9973659 Z M17.9915373,16.93299 C19.3534902,16.9303816 19.8411569,16.4636212 19.8425569,15.1717532 L19.8425569,2.83790531 C19.8425569,1.54616643 19.3548627,1.07545481 17.9943373,1.07545481 C12.5269804,1.07274319 8.46368627,1.07274319 2.99632941,1.07545481 C1.63440392,1.07677188 1.1467098,1.54484935 1.14533725,2.83661406 L1.14533725,15.1704362 C1.14533725,16.4636212 1.63300392,16.9316987 2.99355686,16.93299 C5.70475294,16.9369412 7.01180392,16.934307 9.723,16.934307 C12.4777608,16.934307 15.2354039,16.9369412 17.9915373,16.93299 Z" id="Fill-1" fill="#6B89FE" mask="url(#mask-2)"></path>
                </g>
                <path d="M11.8374741,5.62673385 C11.8506822,5.10089241 11.7816335,4.60713951 12.0383745,4.14281992 C12.6633088,3.00904945 13.8251329,3.00268685 15.0323974,3.00003159 C16.1560585,2.99750158 17.1931938,3.14496864 17.6522677,4.15436779 C18.1056402,5.1496139 18.1305092,6.22439253 17.6391743,7.20553571 C17.0435499,8.39697038 15.7512494,8.36878957 14.507283,8.35340911 C13.4319561,8.33933123 12.5254404,8.08021805 12.0266276,7.15934423 C11.7522949,6.65404347 11.8682453,6.11665415 11.8374741,5.62673385 Z M13.0255998,5.64727453 C13.0168613,7.18116244 13.1665052,7.30946655 14.9355859,7.30946655 C15.0984092,7.30946655 15.2612611,7.31199656 15.424113,7.30808882 C16.1766299,7.28762329 16.6489406,7.01443223 16.7105974,6.42448883 C16.8278943,5.29197084 16.8528493,4.42365111 16.09741,4.13901238 C15.945646,4.08823681 15.7845991,4.06211007 15.622091,4.06200987 C15.1102993,4.04850813 14.5980492,4.04850813 14.0862289,4.06200987 C13.4173155,4.08510561 13.0740486,4.38903255 13.0286082,4.97652109 C13.0109306,5.19961293 13.0255998,5.42408249 13.0255998,5.64727453 Z M5.70863765,13.9991657 C4.3751371,13.9991657 4.51011166,14.0004432 3.17672571,13.9978882 C2.96688625,13.9978882 2.7527778,14.0029732 2.54740789,13.9721622 C2.24668765,13.9273485 2.00897083,13.7797812 2.0002323,13.4951425 C1.99140781,13.1795675 2.23494077,12.9821264 2.57078705,12.9808489 C5.68076029,12.969301 7.32225841,12.969301 10.432117,12.9808489 C10.7372209,12.9821264 10.9617296,13.1564717 10.969007,13.451506 C10.9778314,13.7785287 10.7372209,13.9490665 10.4057009,13.9708847 C9.87030083,14.0042508 9.33186377,13.9965355 8.79354132,13.9978882 C7.76669174,14.0017208 6.73694842,13.9991657 5.70863765,13.9991657 Z M2.91706227,11.8072245 C2.47701253,11.8072245 1.99430155,11.7828763 2.01043203,11.276298 C2.02364011,10.8159112 2.5003917,10.7851001 2.90388284,10.7838226 C5.77456346,10.7773598 7.17992056,10.7773598 10.0507158,10.7812676 C10.4834882,10.7825451 10.9646234,10.8159112 10.9499827,11.3288521 C10.9353135,11.8111322 10.4702801,11.805947 10.0639239,11.805947 C8.61604877,11.8086022 7.16960622,11.8072245 5.72184573,11.8072245 L2.91706227,11.8072245 Z" id="Fill-3" fill="#6B89FE"></path>
            </g>
        </g>
    </g>
</svg>