<?xml version="1.0" standalone="no"?><!DOCTYPE svg PUBLIC "-//W3C//DTD SVG 1.1//EN" "http://www.w3.org/Graphics/SVG/1.1/DTD/svg11.dtd"><svg t="1552573204653" class="icon" style="" viewBox="0 0 1024 1024" version="1.1" xmlns="http://www.w3.org/2000/svg" p-id="5260" xmlns:xlink="http://www.w3.org/1999/xlink" width="200" height="200"><defs><style type="text/css"></style></defs><path d="M873.776702 323.948644l-329.193522-113.349307c-22.667863-7.807376-47.428683 4.270829-55.236058 26.938692l-3.251824 9.450771 165.298575 153.59001c4.380722 4.150946 14.770576 7.732449 20.779707 7.15801l225.304976-20.679805 2.767298-8.032156c7.807376-22.672859-3.796293-47.268839-26.474147-55.076215m-226.463844 122.245619c-9.44078-3.251824-18.711727-8.556644-25.130458-14.465873L470.805229 291.380449l-122.130731 354.698614c-7.807376 22.667863 4.435668 46.959141 26.943687 55.236059l329.188527 113.349307c22.672859 7.807376 47.433678-4.270829 55.241054-26.938692L882.50318 432.078049l-206.173658 18.821619a87.989073 87.989073 0 0 1-29.021659-4.7104" fill="#ECECEC" p-id="5261"></path><path d="M718.503337 819.38482a47.089015 47.089015 0 0 1-14.980371-2.517542L374.329444 703.512976a45.835239 45.835239 0 0 1-28.487181-58.412956l123.429464-358.474927 154.189424 142.900448c5.944195 5.74439 14.740605 10.889366 24.186381 14.136196 9.450771 3.25682 19.545912 4.620488 27.767883 3.751336l209.969951-19.096351-123.759142 359.419005c-6.193951 19.530927-24.006556 31.35438-43.122887 31.644097zM471.86919 295.975961l-120.832 350.917307c-7.317854 21.249249 4.3008 44.271766 25.390205 52.064156l329.193522 113.349308c21.254244 7.317854 44.746302-4.145951 52.064156-25.3952L879.0016 434.57561l-202.377366 18.541892c-9.171044 0.539473-19.735727-0.984039-29.656039-4.395707-10.389854-3.581502-19.655805-8.886322-26.074536-14.795551L471.86919 295.975961zM671.359376 410.099512c-6.793366-0.22478-16.708683-3.641444-21.563942-7.952234l-166.387512-155.028605 3.741346-10.86439c8.127063-23.611941 34.161639-36.314537 58.412956-28.487181l329.188527 113.349308a45.835239 45.835239 0 0 1 28.492176 58.412956l-3.251825 9.44078-227.527804 20.979513c-0.469541-0.159844-0.469541-0.159844-1.098927 0.149853zM489.107356 245.909854l164.039805 152.635941c3.601483 3.351727 13.991337 6.928234 18.896546 6.503649l223.561678-20.230244 2.277776-6.608546c7.317854-21.254244-4.3008-44.271766-25.390205-52.064156l-329.193522-113.349308c-21.254244-7.317854-44.746302 4.140956-52.064156 25.3952l-2.127922 7.717464z" fill="#979797" p-id="5262"></path><path d="M89.352741 118.55922a52.658576 52.658576 0 0 0-41.869112 62.079375l2.287766 11.768507 268.382907 61.310127c6.94322 1.698341 20.67481-0.969054 26.474147-5.144975l225.589697-158.854869-1.998048-10.299941c-5.5296-28.437229-33.057717-47.004098-62.079376-41.869112L89.352741 118.55922z m216.868215 186.328039l-245.490263-56.09522 87.304741 449.151376c5.5296 28.437229 33.052722 47.004098 62.079376 41.869112l416.782985-81.010888a52.658576 52.658576 0 0 0 41.874107-62.079376L581.182439 146.102322 374.863922 291.540293c-8.946263 6.318829-20.824663 10.664585-33.082693 13.047258-12.258029 2.382673-24.895688 2.802263-35.565268 0.299708z" fill="#FFFFFF" p-id="5263"></path><path d="M200.004683 742.794615c-25.954654-0.039961-49.36679-18.387044-54.516761-44.866186L57.518829 245.3504l249.206634 56.894439c10.075161 2.107941 22.318205 2.27278 34.58123-0.109893 12.258029-2.382673 23.547005-7.123044 32.103648-12.852448l209.460449-147.575883 88.25881 454.046595c5.814322 29.91079-14.036293 58.702673-43.84718 65.006517l-416.787981 81.020878c-3.431649 0.664351-6.958205 0.83918-10.489756 1.01401zM63.947551 252.243668l86.545483 445.220215c5.244878 26.973659 31.594146 44.746302 59.152234 39.901034l416.782986-81.020878a50.310868 50.310868 0 0 0 39.896039-59.142244L579.489093 150.503024 376.232585 293.313561c-8.951259 6.318829-21.219278 11.249015-33.966829 13.726595-12.752546 2.47758-25.974634 2.502556-36.639219 0L63.937561 252.238673z m258.797269 4.140956c-2.052995-0.109893-4.110985-0.219785-5.674459-0.424585L47.603512 194.360195l-2.572488-13.237073c-5.814322-29.91079 14.036293-58.702673 43.847181-65.011512l416.782985-81.010888c29.91079-5.814322 59.192195 13.93639 65.006517 43.84718l2.287766 11.768508-227.452878 159.724019c-4.9152 3.496585-15.120234 5.994146-22.757775 5.949191zM51.844371 189.969483l266.819434 61.105327c6.35879 1.303727 19.106341-1.173854 24.516058-4.770342l224.211044-158.075629-1.618419-8.331863c-5.244878-26.973659-31.599141-44.746302-59.152234-39.901035l-416.782986 81.020879a50.310868 50.310868 0 0 0-39.896039 59.142243l1.903142 9.81042z" fill="#979797" p-id="5264"></path><path d="M434.076098 362.645854c8.491707 5.494634 10.489756 16.983415 4.995122 25.475122L397.112195 450.060488l52.448781-9.990244c9.990244-1.998049 19.980488 4.49561 21.479024 14.485854 1.998049 9.990244-4.49561 19.480976-14.485854 21.479024l-59.941463 11.48878 7.992195 41.459513 59.941463-11.488781c9.990244-1.998049 19.980488 4.49561 21.479025 14.485854 1.998049 9.990244-4.49561 19.480976-14.485854 21.479024l-59.941463 11.488781 2.997073 15.484878c1.998049 9.990244-4.49561 19.480976-14.485854 21.479024s-19.980488-4.49561-21.978536-14.485854l-2.997073-15.484878-59.941464 11.488781c-9.990244 1.998049-19.980488-4.49561-21.978536-14.485854-1.998049-9.990244 4.49561-19.480976 14.485853-21.479024l59.941464-11.488781-7.992196-41.459512-59.941463 11.488781c-9.990244 1.998049-19.980488-4.49561-21.978537-14.485854-1.998049-9.990244 4.49561-19.480976 14.485854-21.479024l52.448781-9.990244-61.939513-41.459512c-8.491707-5.494634-10.489756-16.983415-4.995122-25.475122 5.494634-8.491707 17.482927-10.489756 25.974635-4.995122L366.142439 429.580488l41.959024-61.939512c5.994146-8.491707 17.482927-10.989268 25.974635-4.995122" fill="#ECECEC" p-id="5265"></path><path d="M396.612683 603.410732c-8.99122 0-16.983415-6.493659-18.981463-15.484878l-2.997074-14.985366-59.441951 11.48878c-10.489756 1.998049-20.48-4.49561-22.478049-14.985366-0.999024-4.995122 0-9.990244 2.997074-14.485853 2.997073-3.996098 6.993171-6.993171 12.487804-7.992195l59.441952-11.488781-7.992196-39.960975-59.441951 11.48878c-10.489756 1.998049-20.48-4.49561-22.478049-14.985366-0.999024-4.995122 0-9.990244 2.997074-14.485853 2.997073-3.996098 6.993171-6.993171 12.487805-7.992196l50.950243-9.990243-60.940487-40.96c-3.996098-2.997073-6.993171-6.993171-7.992195-11.988293-0.999024-4.995122 0-9.990244 2.997073-14.485854 5.994146-8.491707 17.982439-10.989268 26.474146-4.995122l61.939512 41.459512 41.959025-61.44c5.994146-8.491707 17.982439-10.989268 26.474146-4.995122 3.996098 2.997073 6.993171 6.993171 7.992195 11.988293 0.999024 4.995122 0 9.990244-2.997073 14.485854L398.610732 449.560976l50.950244-9.990244c4.995122-0.999024 9.990244 0 14.485853 2.997073 3.996098 2.997073 6.993171 6.993171 7.992195 11.988293 1.998049 10.489756-4.995122 20.48-14.985365 22.478048l-59.441952 11.488781 7.992195 39.960975 59.441952-11.48878c4.995122-0.999024 9.990244 0 14.485853 2.997073 3.996098 2.997073 6.993171 6.993171 7.992195 11.988293 1.998049 10.489756-4.995122 20.48-14.985365 22.478049l-59.441952 11.48878 2.997074 14.985366c1.998049 10.489756-4.995122 20.48-14.985366 22.478049h-4.49561z m-20.979512-31.469269l2.997073 15.984391c1.998049 9.490732 11.48878 15.98439 20.979512 13.986341 9.490732-1.998049 15.98439-11.48878 13.986342-20.979512l-2.997074-15.98439h0.499513l59.941463-11.488781c9.490732-1.998049 15.98439-11.48878 13.986341-20.979512-0.999024-4.49561-3.496585-8.491707-7.492682-11.48878-3.996098-2.497561-8.491707-3.496585-13.48683-2.497561l-60.440975 11.988292-8.491708-42.458536 60.440976-11.988293c9.490732-1.998049 15.98439-11.48878 13.986341-20.979512-0.999024-4.49561-3.496585-8.491707-7.492683-11.488781-3.996098-2.497561-8.491707-3.496585-13.486829-2.497561l-54.446829 10.489756 2.997073-1.998048 41.959025-61.939513c2.497561-3.996098 3.496585-8.491707 2.997073-13.486829-0.999024-4.49561-3.496585-8.491707-7.492683-11.48878-7.992195-5.494634-19.480976-3.496585-24.97561 4.995122L367.141463 429.580488l-0.499512 0.999024-0.499512-0.999024-61.939512-41.459512c-7.992195-5.494634-19.480976-3.496585-24.97561 4.995122-2.497561 3.996098-3.496585 8.491707-2.997073 13.486829 0.999024 4.49561 3.496585 8.491707 7.492683 11.48878L346.161951 459.55122l1.998049 0.999024-54.446829 10.489756c-4.49561 0.999024-8.99122 3.496585-11.488781 7.492683-2.497561 3.996098-3.496585 8.491707-2.497561 13.486829 1.998049 9.490732 11.48878 15.98439 20.979512 13.986342l60.440976-11.988293 8.491707 42.458537h-0.499512l-59.941463 11.48878c-4.49561 0.999024-8.99122 3.496585-11.488781 7.492683-2.497561 3.996098-3.496585 8.491707-2.497561 13.486829 1.998049 9.490732 11.48878 15.98439 20.979513 13.986342l59.441951-10.989269z" fill="#999999" p-id="5266"></path><path d="M954.268098 932.029815c0 50.950244-213.291707 91.910244-476.035122 91.910244S2.697366 982.980059 2.697366 932.029815 215.989073 840.119571 478.732488 840.119571s475.53561 40.96 475.53561 91.910244" fill="#D8D8D8" p-id="5267"></path><path d="M774.94322 133.50962h-0.999025c-3.996098 0-6.993171-3.496585-6.993171-6.993171v-115.886829c0-3.996098 2.997073-6.993171 6.993171-6.993171h0.999025c3.996098 0 6.993171 3.496585 6.99317 6.993171v115.387317c0 4.49561-2.997073 7.492683-6.99317 7.492683" fill="#9C9C9C" p-id="5268"></path><path d="M710.006634 69.072546v-0.999024c0-3.996098 2.997073-6.993171 6.993171-6.993171h114.388293c3.996098 0 6.993171 3.496585 6.99317 6.993171v0.999024c0 3.996098-2.997073 6.993171-6.99317 6.993171h-114.388293c-3.996098 0.499512-6.993171-2.997073-6.993171-6.993171" fill="#9C9C9C" p-id="5269"></path><path d="M968.369327 783.58478c-3.496585 0-5.994146-2.997073-5.994147-6.493658v-91.910244c0-3.496585 2.997073-6.493659 5.994147-6.493658 3.496585 0 5.994146 2.997073 5.994146 6.493658v91.910244c0.499512 3.496585-2.497561 6.493659-5.994146 6.493658" fill="#9C9C9C" p-id="5270"></path><path d="M916.919571 731.136c0-3.496585 2.997073-6.493659 5.994146-6.493659h90.91122c3.496585 0 5.994146 2.997073 5.994146 6.493659 0 3.496585-2.997073 6.493659-5.994146 6.493659h-90.91122c-3.496585-0.499512-5.994146-2.997073-5.994146-6.493659" fill="#9C9C9C" p-id="5271"></path><path d="M60.276137 908.562732c-2.497561 0-4.995122-2.497561-4.995122-4.995122v-72.928781c0-2.497561 1.998049-4.995122 4.995122-4.995122s4.995122 2.497561 4.995122 4.995122v72.928781c0 2.497561-1.998049 4.995122-4.995122 4.995122" fill="#9C9C9C" p-id="5272"></path><path d="M19.316137 867.10322c0-2.497561 1.998049-4.995122 4.995122-4.995122h71.929756c2.497561 0 4.995122 1.998049 4.995122 4.995122 0 2.497561-1.998049 4.995122-4.995122 4.995121h-71.929756c-2.497561 0-4.995122-2.497561-4.995122-4.995121" fill="#9C9C9C" p-id="5273"></path></svg>