<?xml version="1.0" standalone="no"?><!DOCTYPE svg PUBLIC "-//W3C//DTD SVG 1.1//EN" "http://www.w3.org/Graphics/SVG/1.1/DTD/svg11.dtd"><svg t="1552385560635" class="icon" style="" viewBox="0 0 1563 1024" version="1.1" xmlns="http://www.w3.org/2000/svg" p-id="2569" xmlns:xlink="http://www.w3.org/1999/xlink" width="305.2734375" height="200"><defs><style type="text/css"></style></defs><path d="M156.292821 699.741602h21.050091a10.435155 10.435155 0 0 1 10.208473 10.442971c0 5.760831-4.478909 10.442971-10.208473 10.442971h-21.050091v21.104807a10.427338 10.427338 0 0 1-10.419521 10.224107 10.23974 10.23974 0 0 1-10.419522-10.231923v-21.096991h-21.042274a10.435155 10.435155 0 0 1-10.21629-10.442971c0-5.768647 4.478909-10.442971 10.21629-10.442971h21.042274v-21.104807a10.427338 10.427338 0 0 1 10.419522-10.224107c5.753014 0 10.419521 4.486726 10.419521 10.231924v21.09699z m1375.392458-83.559403v-21.089174a10.286639 10.286639 0 0 0-10.419522-10.239739c-5.674848 0-10.310089 4.557075-10.419521 10.239739v21.096991h-21.050091a10.23974 10.23974 0 0 0-10.208473 10.442971c0 5.596682 4.580525 10.442971 10.208473 10.442971h21.050091v21.096991c0 5.745197 4.666507 10.23974 10.419521 10.239739 5.674848 0 10.302272-4.549258 10.419522-10.239739v-21.096991h21.05009c5.729564 0 10.208473-4.674324 10.208474-10.442971 0-5.690481-4.533625-10.333539-10.208474-10.442971h-21.05009zM774.624584 960.847148H250.005981c-5.518516 0-10.818168-2.196463-14.718649-6.120394a20.831226 20.831226 0 0 1-6.057861-14.773365c0-11.521661 9.442447-20.885942 20.77651-20.885942h94.502636a83.160756 83.160756 0 0 1-11.083932-41.662453V271.431268a83.582852 83.582852 0 0 1 24.465943-59.062193 83.192023 83.192023 0 0 1 58.97621-24.387777h62.438963v-20.987558a83.582852 83.582852 0 0 1 24.465943-59.062194 83.192023 83.192023 0 0 1 58.968394-24.387777h499.980695a83.15294 83.15294 0 0 1 58.984027 24.372144 83.543769 83.543769 0 0 1 24.45031 59.077827v605.950276c0 15.187644-4.04118 29.406031-11.099565 41.670269h115.279146a20.82341 20.82341 0 0 1 20.862493 20.885942 20.831226 20.831226 0 0 1-20.84686 20.893759H1000.289687v20.987558c0 15.187644-4.04118 29.413848-11.099565 41.670269h11.162098a20.792143 20.792143 0 0 1 20.77651 20.893759 20.925025 20.925025 0 0 1-20.77651 20.885943h-109.635564a41.732802 41.732802 0 0 1-6.393975 50.862585 41.52957 41.52957 0 0 1-58.937128 0l-50.745336-50.862585z m76.188353-41.779701h66.269094c22.926074 0 41.513937-18.587863 41.513938-41.873501V270.454194c0-22.558694-18.001619-40.685378-40.216383-40.685378H415.326969c-22.214764 0-40.224199 18.212667-40.224199 40.685378v606.724119c0 23.129305 18.759828 41.881317 41.498304 41.881317h316.337608l-10.708736-10.755635a41.756252 41.756252 0 0 1-10.841617-40.372714l-19.67437-19.74472c-61.289923 45.727082-147.397536 36.315901-197.423745-21.573802-50.018393-57.889704-47.01682-144.661727 6.894237-198.932348 54.075206-54.403503 140.917578-57.592673 198.830732-7.32415 57.913154 50.268524 67.160186 136.884215 21.16734 198.299204l19.69782 19.736903a41.467038 41.467038 0 0 1 40.278915 10.841617l69.661496 69.825645z m149.461117-104.429712h62.704727a41.740618 41.740618 0 0 0 41.490487-41.779702V167.103172c0-23.144938-18.587863-41.779701-41.490487-41.779701H562.450924a41.740618 41.740618 0 0 0-41.467038 41.779701v20.885942h395.855831a83.15294 83.15294 0 0 1 58.991844 24.372144 83.543769 83.543769 0 0 1 24.45031 59.077827v543.183017zM265.701704 46.99337h31.047516c8.754587 0 15.844238 6.95677 15.844239 15.664457a15.750439 15.750439 0 0 1-15.844239 15.664457h-31.047516v31.125682c0 8.77022-6.941137 15.867688-15.63319 15.867688a15.711356 15.711356 0 0 1-11.091749-4.689957 15.789522 15.789522 0 0 1-4.533625-11.177731V78.322284H203.387807a15.672273 15.672273 0 0 1-11.162098-4.533625 15.750439 15.750439 0 0 1-4.674324-11.130832c0-8.652971 7.089652-15.672273 15.836422-15.672273h31.055333V15.875505c0-8.77022 6.941137-15.875505 15.63319-15.875505 8.621705 0 15.625374 7.105285 15.625374 15.867688v31.133499zM20.839043 939.945572c0-11.529478 9.442447-20.893759 20.77651-20.893759h125.159322a20.792143 20.792143 0 0 1 20.77651 20.893759 20.925025 20.925025 0 0 1-20.77651 20.885943H41.615553c-5.518516 0-10.818168-2.196463-14.718649-6.120394a20.831226 20.831226 0 0 1-6.057861-14.773365z m657.188058-135.023865a104.61731 104.61731 0 0 0 26.967253-100.888794 104.328096 104.328096 0 0 0-73.687043-73.866825 104.038882 104.038882 0 0 0-100.654296 27.04542c-40.701011 40.786994-40.701011 106.923206 0 147.710199 40.693195 40.79481 106.673075 40.79481 147.374086 0z m-219.56816-491.609122a20.870309 20.870309 0 0 1 20.82341-20.893759h229.252921a20.870309 20.870309 0 0 1 20.839042 20.885943 20.870309 20.870309 0 0 1-20.839042 20.893759H479.305801a20.75306 20.75306 0 0 1-14.757732-6.096945 20.846859 20.846859 0 0 1-6.081311-14.788998z m0 104.429712c0-11.521661 9.278298-20.885942 20.698345-20.885942h333.721715a20.745244 20.745244 0 0 1 20.690527 20.893759c0 11.529478-9.270482 20.885942-20.690527 20.885942H479.157286c-5.5107 0-10.794718-2.212096-14.679566-6.136027a20.792143 20.792143 0 0 1-6.018779-14.749915z m0 104.445345a20.839043 20.839043 0 0 1 20.79996-20.885942h145.959282a20.792143 20.792143 0 0 1 20.792144 20.885942 20.839043 20.839043 0 0 1-20.792144 20.885942H479.258901a20.72961 20.72961 0 0 1-14.734282-6.10476 20.831226 20.831226 0 0 1-6.057861-14.781182zM62.517128 396.864171C27.991227 396.864171 0 368.810411 0 334.206344c0-34.611884 27.991227-62.665644 62.517128-62.665643s62.517128 28.061577 62.517129 62.665643-27.983411 62.657827-62.517129 62.657827z m0-31.328913a31.242931 31.242931 0 0 0 27.06887-15.664457 31.391446 31.391446 0 0 0 0-31.328914 31.242931 31.242931 0 0 0-27.06887-15.672273A31.297647 31.297647 0 0 0 31.266381 334.206344a31.297647 31.297647 0 0 0 31.266381 31.328914z m1292.036287-93.994557c-34.525901 0-62.517128-28.061577-62.517129-62.665644s27.983411-62.657827 62.517129-62.657827c34.525901 0 62.517128 28.05376 62.517128 62.657827 0 34.611884-27.991227 62.665644-62.517128 62.665644z m0-31.328914a31.297647 31.297647 0 0 0 31.258564-31.33673 31.297647 31.297647 0 0 0-31.266381-31.328914 31.297647 31.297647 0 0 0-31.250747 31.328914 31.297647 31.297647 0 0 0 31.258564 31.33673z" p-id="2570"></path></svg>