<?xml version="1.0" encoding="UTF-8"?>
<svg width="28px" height="23px" viewBox="0 0 28 23" version="1.1" xmlns="http://www.w3.org/2000/svg" xmlns:xlink="http://www.w3.org/1999/xlink">
    <!-- Generator: Sketch 52.4 (67378) - http://www.bohemiancoding.com/sketch -->
    <title>个人中心--代理中心--开户</title>
    <desc>Created with Sketch.</desc>
    <g id="蓝色" stroke="none" stroke-width="1" fill-rule="evenodd">
        <g id="个人中心" transform="translate(-132.000000, -549.000000)">
            <g id="个人中心--代理中心--开户" transform="translate(132.000000, 549.000000)">
                <path d="M1.41308594,6.78106576 L23.0374109,6.86911609 L23.0374109,8.79963833 L1.41308594,8.711588 L1.41308594,18 C1.58642578,18.6568604 2,18.4797363 2.17670188,18.4797363 L13.9262231,18.4797363 C14.4889923,18.4797363 14.8138428,18.6082167 14.8138428,19.1635742 C14.8138428,19.7190329 14.4889923,19.8889933 13.9262231,19.8889933 L2.15065692,19.8889933 C0.906446419,19.8889933 0,18.7697508 0,17.4860615 L0,2.40293175 C0,1.11910767 0.906548958,0 2.15079364,0 L23.663857,0 C24.9082042,0 25.8146507,1.11846727 25.8146507,2.40252729 L25.8146507,9.94442922 C25.8146507,10.4998879 25.5627692,11 25,11 C24.4372308,11 24.3128662,10.5554587 24.3128662,10 L24.3128662,2.40252729 C24.3128662,2.25112436 24,1.64147949 23.6018784,1.64147949 C9.20853305,1.51160324 2.00790691,1.45157481 2,1.46139421 C1.93604973,1.54026395 1.41308594,1.64147949 1.41308594,2.31488142 L1.41308594,6.78106576 Z M22.5821369,17.5992767 L22.5821369,15.2372965 C22.5821369,14.6765461 23.0387439,14.2320781 23.602436,14.2320781 C24.1659914,14.2320781 24.6226326,14.6765461 24.6226326,15.2372965 L24.6226326,17.5992767 L26.9822302,17.5992767 C27.5491352,17.5992767 28,18.0513958 28,18.6095171 C28,19.1675037 27.5491352,19.6196228 26.9822302,19.6196228 L24.6224959,19.6196228 L24.6224959,21.9947479 C24.6224959,22.5545882 24.1659914,23 23.6022993,23 C23.0386072,23 22.5821369,22.5545882 22.5821369,21.9947479 L22.5821369,19.6196228 L20.1397219,19.6196228 C19.5720307,19.6196228 19.1219521,19.1675037 19.1219521,18.6093823 C19.1219521,18.0512609 19.5720307,17.5992767 20.1397219,17.5992767 L22.5821369,17.5992767 Z" id="Fill-1"></path>
            </g>
        </g>
    </g>
</svg>