<?xml version="1.0" encoding="UTF-8"?>
<svg width="27px" height="26px" viewBox="0 0 27 26" version="1.1" xmlns="http://www.w3.org/2000/svg" xmlns:xlink="http://www.w3.org/1999/xlink">
    <!-- Generator: Sketch 52.4 (67378) - http://www.bohemiancoding.com/sketch -->
    <title>个人中心--代理中心--总览</title>
    <desc>Created with Sketch.</desc>
    <g id="蓝色" stroke="none" stroke-width="1" fill="none" fill-rule="evenodd">
        <g id="个人中心" transform="translate(-45.000000, -547.000000)" fill="#6B89FE">
            <path d="M54.9135371,547 L47.0864629,547 C45.935673,547 45,547.976699 45,549.181841 L45,556.818124 C45,558.023159 45.935673,559 47.0864629,559 L57,559 L57,549.181841 C57,547.976699 56.0659002,547 54.9135371,547 Z M55.5557861,557.630249 L47.7656788,557.630249 C46.7920968,557.630249 46.3774827,557.03517 46.3774827,556 L46.3774827,549.875 C46.3774827,548.83983 46.7903539,548.386841 47.7656788,548.386841 L54.2470703,548.386841 C55.2206523,548.386841 55.5557861,548.83983 55.5557861,549.875 L55.5557861,557.355591 L55.5557861,557.630249 Z M69.9151667,547 L62.0881487,547 C60.9356622,547 60,547.976563 60,549.181537 L60,559 L69.9135593,559 C71.065909,559 71.999998,558.023437 71.999998,556.818427 L71.999998,549.183206 C72.0015712,547.976563 71.065909,547 69.9151667,547 Z M70.5477295,556 C70.5477295,557.034579 70.2093396,557.685669 69.2343843,557.685669 L61.439209,557.685669 L61.439209,549.874671 C61.439209,548.838243 61.8064865,548.368774 62.779541,548.368774 L69.2343843,548.368774 C70.2093396,548.368774 70.5477295,548.840092 70.5477295,549.874671 L70.5477295,556 Z M45,563.181876 L45,570.818159 C45,572.023301 45.935673,573 47.0864629,573 L54.9119298,573 C56.064327,573 57,572.023301 57,570.818159 L57,561 L47.0864629,561 C45.935673,561 45,561.976699 45,563.181876 Z M55.5240479,562.388916 L55.5240479,570.125664 C55.5240479,571.161312 55.1231798,571.6698 54.1472168,571.6698 L47.7653333,571.6698 C46.7910741,571.6698 46.3774827,571.159475 46.3774827,570.125664 L46.3774827,563.75 C46.3774827,562.716346 46.7910741,562.388916 47.7653333,562.388916 L55.5240479,562.388916 Z M69.9135654,561 L60,561 L60,570.818605 C60,572.023437 60.9339315,573 62.088042,573 L69.9135654,573 C71.0659317,573 72,572.023437 72,570.818605 L72,563.181573 C72,561.976563 71.0643244,561 69.9135654,561 Z M70.5866699,570.124849 C70.5866699,571.160483 70.2423763,571.646118 69.2666667,571.646118 L62.7319336,571.646118 C61.7578398,571.646118 61.3925781,571.160483 61.3925781,570.124849 L61.3925781,562.364746 L69.2666667,562.364746 C70.2406102,562.364746 70.5866699,562.71619 70.5866699,563.75 L70.5866699,570.124849 Z" id="个人中心--代理中心--总览" transform="translate(58.500000, 560.000000) scale(-1, 1) translate(-58.500000, -560.000000) "></path>
        </g>
    </g>
</svg>