<?xml version="1.0" encoding="UTF-8"?>
<svg width="15px" height="19px" viewBox="0 0 15 19" version="1.1" xmlns="http://www.w3.org/2000/svg" xmlns:xlink="http://www.w3.org/1999/xlink">
    <!-- Generator: Sketch 52.4 (67378) - http://www.bohemiancoding.com/sketch -->
    <title>确认密码</title>
    <desc>Created with Sketch.</desc>
    <defs>
        <polygon id="path-1" points="0.00153583618 0.0117921897 14.9937031 0.0117921897 14.9937031 18.9735007 0.00153583618 18.9735007"></polygon>
    </defs>
    <g id="蓝色" stroke="none" stroke-width="1" fill-rule="evenodd">
        <g id="注册" transform="translate(-38.000000, -399.000000)">
            <g id="确认密码" transform="translate(38.000000, 399.000000)">
                <g id="分组">
                    <mask id="mask-2" fill="white">
                        <use xlink:href="#path-1"></use>
                    </mask>
                    <g id="Clip-2"></g>
                    <path d="M13.7442235,6.90741423 L12.4947696,6.90741423 L12.4947696,5.18299861 C12.4947696,2.33143515 10.2529096,0.0117921897 7.49690273,0.0117921897 C4.74079352,0.0117921897 2.49893345,2.33143515 2.49893345,5.18299861 L2.49893345,6.90741423 L1.24945392,6.90741423 C0.559428328,6.90741423 0,7.486159 0,8.20018271 L0,17.6807322 C0,18.3946499 0.559428328,18.9735007 1.24945392,18.9735007 L13.7442235,18.9735007 C14.4343515,18.9735007 14.9937031,18.3946499 14.9937031,17.6807322 L14.9937031,8.20018271 C14.9937031,7.486159 14.4343515,6.90741423 13.7442235,6.90741423 Z M3.74841297,5.18299861 C3.74841297,3.04431939 5.42982082,1.30458717 7.49690273,1.30458717 C9.56388225,1.30458717 11.2452901,3.04431939 11.2452901,5.18299861 L11.2452901,6.90741423 L3.74841297,6.90741423 L3.74841297,5.18299861 Z M1.24945392,17.6807322 L13.7442235,17.6807322 L13.7442235,8.20018271 L1.24945392,8.20018271 L1.24945392,17.6807322 Z" id="Fill-1" mask="url(#mask-2)"></path>
                </g>
                <path d="M7.5,15 C7.77601819,15 8,14.6946328 8,14.3181577 L8,10.6817585 C8,10.3053951 7.77601819,10 7.5,10 C7.22389986,10 7,10.3053951 7,10.6817585 L7,14.3181577 C7,14.6946328 7.22389986,15 7.5,15 Z" id="Fill-3"></path>
            </g>
        </g>
    </g>
</svg>