<?xml version="1.0" encoding="UTF-8"?>
<svg width="17px" height="20px" viewBox="0 0 17 20" version="1.1" xmlns="http://www.w3.org/2000/svg" xmlns:xlink="http://www.w3.org/1999/xlink">
    <!-- Generator: Sketch 52.4 (67378) - http://www.bohemiancoding.com/sketch -->
    <title>输入验证码</title>
    <desc>Created with Sketch.</desc>
    <g id="蓝色" stroke="none" stroke-width="1" fill-rule="evenodd">
        <g id="注册" transform="translate(-37.000000, -296.000000)"  stroke-width="0.5">
            <path d="M52.9984709,301.081466 C52.3301273,301.031326 51.6583948,300.89506 51.0821695,300.694722 C50.8956185,300.633835 50.7089228,300.566353 50.5210907,300.493352 C50.1250933,300.366711 49.5863932,300.115559 48.9749571,299.757755 C48.9683447,299.754502 48.961877,299.750486 48.9555126,299.746717 C48.8116733,299.662409 48.6645897,299.572493 48.5149439,299.476967 C48.3131638,299.35147 48.1133054,299.217672 47.9138397,299.078154 C47.9060908,299.072455 47.8985073,299.067452 47.8909237,299.061934 C47.7475803,298.961518 47.6049394,298.85767 47.4632904,298.749963 C47.3711927,298.681336 47.2788471,298.608178 47.1865014,298.535603 C47.1172577,298.480392 47.0477453,298.428435 46.9783363,298.371474 C46.4705489,297.95976 45.9693738,297.497772 45.5,297 C45.0307089,297.497772 44.5292858,297.95976 44.0215811,298.371654 C43.9522547,298.428614 43.8826803,298.480572 43.8133333,298.535783 C43.720905,298.608335 43.6287246,298.681426 43.5366269,298.750142 C43.3948953,298.857849 43.2522751,298.961607 43.1089936,299.062113 C43.1014927,299.067632 43.0936612,299.072635 43.0861603,299.078333 C42.8866119,299.217829 42.6869188,299.35165 42.4850561,299.477237 C42.3352449,299.572672 42.1882647,299.662678 42.0444254,299.746874 C42.0380403,299.750643 42.031428,299.754681 42.0250429,299.757934 C41.4136068,300.115828 40.8747414,300.36689 40.4788267,300.493531 C40.2910772,300.5666 40.1045468,300.633992 39.9177685,300.694901 C39.3415225,300.895239 38.670038,301.031505 38.0015291,301.081646 L38,301.081646 C38.0194445,301.406943 38.0396328,301.838354 38.0630447,302.305435 C38.0666815,302.305435 38.0711035,302.305435 38.0753808,302.30474 C38.1882248,304.048129 38.5100604,306.527901 38.9954898,307.984984 C39.0172693,308.048608 39.0356805,308.115035 39.0574806,308.178053 C39.0677298,308.207756 39.0796733,308.235104 39.0899225,308.264537 C40.2519196,311.521814 42.2703406,313.89168 44.6959791,314.760492 L44.6959791,314.76951 C45.016575,314.884396 45.2866689,314.955468 45.5,315 C45.7132484,314.955378 45.9835697,314.884396 46.3041035,314.76951 L46.3041035,314.760492 C48.7297421,313.89168 50.7479977,311.521814 51.9101602,308.264537 C51.9204093,308.234924 51.9323529,308.207756 51.9426847,308.178053 C51.9642368,308.115035 51.9828754,308.048697 52.0045928,307.984984 C52.4900222,306.52799 52.8119199,304.048129 52.9247638,302.30474 C52.9291238,302.305435 52.9335665,302.305435 52.9371207,302.305435 C52.9604499,301.838354 52.9805555,301.40701 53,301.081646 L52.9984709,301.081646 L52.9984709,301.081466 Z M52.2060268,301.690218 L52.1964628,301.884468 C52.1868151,301.928791 52.1803693,301.973982 52.1774185,302.019902 C52.0709794,303.670858 51.7721087,306.118054 51.2908518,307.568757 C51.2775208,307.608082 51.2649432,307.648365 51.2527422,307.688306 C51.244978,307.713275 51.2373812,307.738335 51.2256197,307.771041 C51.2158046,307.796466 51.2061568,307.821595 51.1996064,307.840584 C50.1053099,310.921313 48.2235193,313.139453 46.0367262,313.926245 C46.0013372,313.938821 45.9670783,313.953976 45.934389,313.971093 C45.7860942,314.021647 45.6405828,314.064875 45.4997175,314.1 C45.3598357,314.065057 45.2151405,314.022081 45.0670132,313.97171 C45.0336751,313.954158 44.9990814,313.938912 44.9630227,313.926245 C42.7760621,313.139453 40.8943552,310.921313 39.8021097,307.84629 C39.7935293,307.821595 39.7844466,307.797539 39.7703831,307.761432 C39.7620538,307.737353 39.7546244,307.712567 39.7469229,307.687598 C39.734429,307.647475 39.7219141,307.607191 39.7107177,307.573938 C39.2276611,306.117872 38.9288532,303.670675 38.8225815,302.019994 C38.8196516,301.973982 38.8131012,301.928609 38.8032861,301.884217 L38.7938895,301.694052 C38.7924245,301.663469 38.7909596,301.633159 38.7894737,301.602941 C39.2512049,301.525182 39.6965705,301.412845 40.1013152,301.271363 C40.2912982,301.209146 40.4841484,301.139785 40.6903924,301.05963 C41.1630688,300.904681 41.7487348,300.625619 42.3870343,300.251178 C42.3980633,300.245016 42.4086946,300.238876 42.4180075,300.233262 C42.5723504,300.142493 42.7302092,300.045402 42.8832546,299.947421 C43.0840992,299.821984 43.2955124,299.681117 43.5297159,299.516538 C43.5363501,299.511996 43.5476302,299.504076 43.554076,299.49926 C43.7079375,299.39094 43.8612131,299.278946 44.0063269,299.167955 C44.0916706,299.10421 44.1769307,299.037086 44.2623582,298.969506 L44.3082111,298.933399 L44.3839281,298.873739 C44.432397,298.836126 44.4807194,298.798147 44.5252748,298.761425 C44.8607692,298.488068 45.1867833,298.200014 45.5000523,297.9 C45.8129865,298.199649 46.138017,298.487087 46.4713977,298.758572 C46.5194689,298.798147 46.5675193,298.835852 46.6155906,298.873396 L46.6957861,298.936503 L46.7249804,298.959509 C46.8145726,299.030399 46.9042484,299.101083 46.9865786,299.162524 C47.1387869,299.278946 47.2922299,299.391009 47.4315466,299.48899 L47.4701166,299.516469 C47.7023739,299.679702 47.9137871,299.82066 48.1090021,299.942605 C48.2697908,300.045493 48.4277333,300.142584 48.5781627,300.231025 C48.5855921,300.235407 48.5959723,300.241364 48.6069385,300.247526 C49.2476028,300.62393 49.8357173,300.904134 50.3098588,301.059721 C50.5163539,301.139945 50.7086181,301.209146 50.8833238,301.266113 C51.2981138,301.410973 51.7472464,301.524657 52.2105263,301.602941 C52.2088939,301.63163 52.2075127,301.660799 52.2060268,301.690218 Z M49.1705112,304.33443 L44.8372705,309.391519 L42.6189212,306.80243 C42.4652719,306.623346 42.2163373,306.623346 42.0626673,306.80243 C41.9089355,306.981984 41.9089355,307.272404 42.0626673,307.451864 L44.5591332,310.365423 C44.6359682,310.455094 44.7365781,310.5 44.8372705,310.5 C44.9379629,310.5 45.0385728,310.455023 45.1154696,310.365423 L49.7269302,304.983841 C49.880497,304.804593 49.880497,304.51396 49.7269302,304.334618 C49.5731777,304.155159 49.3241606,304.155159 49.1705112,304.33443 Z" id="输入验证码"></path>
        </g>
    </g>
</svg>