<?xml version="1.0" encoding="UTF-8"?>
<svg width="19px" height="16px" viewBox="0 0 19 16" version="1.1" xmlns="http://www.w3.org/2000/svg" xmlns:xlink="http://www.w3.org/1999/xlink">
    <!-- Generator: Sketch 52.4 (67378) - http://www.bohemiancoding.com/sketch -->
    <title>持仓</title>
    <desc>Created with Sketch.</desc>
    <defs>
        <polygon id="path-1" points="0.00131707317 0.012745377 17.9824171 0.012745377 17.9824171 15.9772632 0.00131707317 15.9772632"></polygon>
    </defs>
    <g id="页面-1" stroke="none" stroke-width="1" fill="none" fill-rule="evenodd">
        <g id="购买页/已登录--未开启" transform="translate(-308.000000, -33.000000)">
            <g id="持仓" transform="translate(308.000000, 32.000000)">
                <g id="分组" transform="translate(0.000000, 1.000000)">
                    <mask id="mask-2" fill="white">
                        <use xlink:href="#path-1"></use>
                    </mask>
                    <g id="Clip-2"></g>
                    <path d="M12.9810512,4.44083073 L12.9810512,2.11027027 C12.9249,0.711897582 10.0588829,0.012745377 7.3053878,0.012745377 C4.6080439,0.012745377 1.74202683,0.711897582 1.68587561,2.05205121 L1.68587561,3.79989758 C0.730558537,4.1495761 0.0561731707,4.61560171 0,5.25651209 L0,7.87850925 C0.0561731707,8.46108677 0.730558537,8.92722617 1.62961463,9.2767909 L1.62961463,11.5491095 C1.7982878,12.8892632 4.6080439,13.5301735 7.3053878,13.5301735 L8.1428833,13.5301735 C9.60058594,15 10.6723866,15.3303833 12.5267944,15.3303833 C15.482605,15.3303833 17.7965698,12.3566284 17.7965698,10.0958862 C17.7965698,7.124532 15.7908073,4.73215363 12.9810512,4.44083073 Z M7.3053878,0.47886202 C10.3961415,0.47886202 12.5314902,1.35280797 12.5314902,2.16851209 C12.5314902,2.98421622 10.3961415,3.79989758 7.3053878,3.79989758 C4.21463415,3.79989758 2.07919756,2.9259744 2.07919756,2.11027027 C2.07919756,1.29456615 4.27080732,0.47886202 7.3053878,0.47886202 Z M2.07919756,2.98421622 C2.97834146,3.79989758 5.22610244,4.20779516 7.3053878,4.20779516 C9.38458537,4.20779516 11.6324341,3.74167852 12.5314902,2.9259744 L12.5314902,4.3825889 L12.3629049,4.3825889 C10.7894634,4.3825889 9.3284122,5.08174111 8.3168561,6.18876814 C7.97970732,6.18876814 7.64253659,6.247101 7.3053878,6.247101 C4.21463415,6.247101 2.07919756,5.43130583 2.07919756,4.55738265 L2.07919756,2.98421622 Z M1.68587561,4.32434708 L1.68587561,4.73215363 C1.85443902,6.07221622 4.66419512,6.7131266 7.36153902,6.7131266 L7.97970732,6.7131266 C7.92353415,6.77145946 7.86727317,6.82970128 7.86727317,6.88792034 C7.24912683,7.00447226 6.5186561,7.06280512 5.73192439,7.06280512 C2.64117073,7.06280512 0.505734146,6.18876814 0.505734146,5.37308677 C0.449560976,4.96528023 0.899143902,4.61560171 1.68587561,4.32434708 Z M0.449560976,7.76193457 L0.449560976,6.18876814 C1.34870488,7.00447226 3.5964878,7.47061166 5.67568537,7.47061166 C6.29383171,7.47061166 6.91197805,7.41236984 7.53012439,7.35405974 C7.19297561,7.99497013 6.96821707,8.69419061 6.85580488,9.39334282 C6.46239512,9.39334282 6.06907317,9.45158464 5.67568537,9.45158464 C2.58501951,9.45158464 0.449560976,8.63588051 0.449560976,7.76193457 Z M6.79965366,10.6751636 C4.66419512,10.6169445 3.03449268,10.092495 2.41634634,9.56813656 C3.37175122,9.80114936 4.55178293,9.91770128 5.67568537,9.91770128 C6.06907317,9.91770128 6.46239512,9.91770128 6.79965366,9.85948222 L6.79965366,10.6751636 Z M7.3053878,13.122276 C4.21463415,13.122276 2.07919756,12.3065718 2.07919756,11.4326486 L2.07919756,9.85948222 C2.92216829,10.6169445 4.88895366,11.0829701 6.85580488,11.141303 C6.96821707,11.8404552 7.19297561,12.5395846 7.53012439,13.122276 L7.3053878,13.122276 Z M12.192965,14.7904865 C9.42126244,14.7904865 7.33135986,12.5621997 7.33135986,9.79047587 C7.33135986,7.0186884 9.76320955,4.83282471 12.5349121,4.83282471 C15.3067208,4.83282471 17.2114868,7.03986812 17.2114868,9.8116556 C17.2114868,12.5833794 14.9647737,14.7904865 12.192965,14.7904865 Z" id="Fill-1" fill="#FFFFFF" mask="url(#mask-2)"></path>
                </g>
                <circle id="椭圆形" stroke="#FFFFFF" cx="12.5" cy="10.5" r="5.5"></circle>
                <circle id="椭圆形" fill="#6B89FE" cx="12.5" cy="10.5" r="5.5"></circle>
                <text id="s" font-family="PingFangSC-Thin, PingFang SC" font-size="12" font-weight="300" fill="#FFFFFF">
                    <tspan x="10" y="13">s</tspan>
                </text>
                <path d="M12.9417419,6 L12.9417419,6 C13.0659083,6 13.1665649,6.10065668 13.1665649,6.224823 L13.1665649,14.775177 C13.1665649,14.8993433 13.0659083,15 12.9417419,15 L12.9417419,15 C12.8175756,15 12.7169189,14.8993433 12.7169189,14.775177 L12.7169189,6.224823 C12.7169189,6.10065668 12.8175756,6 12.9417419,6 Z" id="Fill-3" fill="#FFFFFF"></path>
            </g>
        </g>
    </g>
</svg>
