<?xml version="1.0" encoding="UTF-8"?>
<svg width="27px" height="27px" viewBox="0 0 27 27" version="1.1" xmlns="http://www.w3.org/2000/svg" xmlns:xlink="http://www.w3.org/1999/xlink">
    <!-- Generator: Sketch 52.4 (67378) - http://www.bohemiancoding.com/sketch -->
    <title>个人中心--代理中心--团队盈亏</title>
    <desc>Created with Sketch.</desc>
    <g id="蓝色" stroke="none" stroke-width="1" fill="none" fill-rule="evenodd">
        <g id="个人中心" transform="translate(-131.000000, -632.000000)" fill="#6B89FE">
            <g id="个人中心--代理中心--团队盈亏" transform="translate(131.000000, 632.000000)">
                <path d="M23.8386646,4.82303134 C19.0422292,-0.889460772 10.5213812,-1.63356489 4.80379796,3.15915693 C2.84852841,4.79964247 1.42802229,6.91627784 0.650414989,9.28915386 C0.506836042,9.72705193 0.6105085,10.09029 1.04834941,10.2338492 C1.48622872,10.3772549 1.78503088,10.0807552 1.92857143,9.64285714 C2.60960182,7.5628221 4.07075419,5.62951689 5.78571429,4.19261823 C10.7945421,-0.00827677137 18.4919826,0.711582452 22.6936733,5.71657077 C24.5229512,7.89473155 25.553486,10.5990646 25.5855887,13.2355167 L23.0346378,13.356667 L21.7003789,11.0394404 C21.3327338,10.4007974 20.4817819,10.4623228 20.2080257,11.1449015 L17.9730095,16.71683 L13.8094121,5.73412202 C13.5296654,4.99735333 12.6040247,4.98563969 12.3081884,5.71657077 L8.77132318,14.4875132 L6.53346539,10.2660714 C6.20690872,9.64951148 5.40138437,9.63480222 5.04694904,10.2338492 L3.1459776,13.4504529 L1.03845063,13.4504529 C0.95638906,13.4300213 0.871332262,13.421188 0.786429065,13.4270256 C0.735279786,13.4300213 0.685512919,13.4387393 0.635707651,13.4504529 L0.594580865,13.4504529 L0.594580865,13.4621282 C0.232926272,13.5705849 -0.0218985188,13.9162333 0.00148730063,14.3103492 C0.172791308,17.1798067 1.25068942,19.927596 3.14010235,22.1774596 C7.93507854,27.8884539 16.4587297,28.6340559 22.1735097,23.8413341 C27.8895954,19.0487659 28.6351,10.5341793 23.8386646,4.82303134 Z M21.2774963,22.8537598 C16.2687837,27.0546548 8.48873493,26.2608259 4.28539309,21.2558376 C2.76815646,19.4497481 1.67078865,17.1269994 1.41158622,14.8418796 L3.26597873,14.8418796 C3.6673777,14.8418796 4.08183278,14.6045344 4.28539309,14.258886 L5.75570449,11.7718692 L8.11072179,16.2157551 C8.46081787,16.8749833 9.32782121,16.8281671 9.60607022,16.1382146 L13.0375264,7.62946563 L17.2057319,18.6180496 C17.4840193,19.3519763 18.4095064,19.3680297 18.705458,18.6327589 L21.0706898,12.7355753 L21.8892319,14.1593009 C22.0884529,14.5079449 22.5074009,14.7481321 22.9086462,14.7481321 L25.4526934,14.7481321 C25.1406905,17.686412 23.7234073,20.8059852 21.2774963,22.8537598 Z" id="Fill-1"></path>
            </g>
        </g>
    </g>
</svg>