<?xml version="1.0" standalone="no"?><!DOCTYPE svg PUBLIC "-//W3C//DTD SVG 1.1//EN" "http://www.w3.org/Graphics/SVG/1.1/DTD/svg11.dtd"><svg t="1553490239482" class="icon" style="" viewBox="0 0 1024 1024" version="1.1" xmlns="http://www.w3.org/2000/svg" p-id="7788" xmlns:xlink="http://www.w3.org/1999/xlink" width="200" height="200"><defs><style type="text/css"></style></defs><path d="M511.998 1024c-69.125 0-136.18-13.543-199.298-40.243-60.962-25.79-115.726-62.7-162.742-109.727-47.02-47.019-83.928-101.773-109.72-162.733C13.538 648.167 0.002 581.124 0.002 511.994c0-69.116 13.537-136.16 40.236-199.288 25.792-60.963 62.698-115.735 109.72-162.745 47.016-47.019 101.779-83.944 162.741-109.734C375.817 13.535 442.873 0 511.997 0c69.13 0 136.167 13.535 199.295 40.228 60.96 25.79 115.724 62.715 162.739 109.734 47.02 47.009 83.93 101.78 109.728 162.745 26.691 63.126 40.236 130.17 40.236 199.288 0 69.13-13.545 136.173-40.236 199.302-25.798 60.96-62.708 115.714-109.728 162.733-47.016 47.026-101.78 83.937-162.74 109.727-63.127 26.7-130.165 40.243-199.294 40.243z m0-975.228c-255.424 0-463.223 207.816-463.223 463.222 0 255.416 207.799 463.217 463.223 463.217 255.417 0 463.217-207.8 463.217-463.217 0-255.406-207.8-463.222-463.218-463.222z m-279.78 670.385c-35.762 0-64.855-29.1-64.855-64.872 0-35.755 29.093-64.843 64.856-64.843a64.157 64.157 0 0 1 22.172 3.917l91.437-108.982c-5.919-9.98-9.028-21.28-9.028-32.99 0-35.755 29.1-64.843 64.873-64.843 35.745 0 64.836 29.088 64.836 64.844 0 3.035-0.218 6.08-0.635 9.099l107.253 75.082a64.964 64.964 0 0 1 37.418-11.872 64.72 64.72 0 0 1 15.873 1.961l113.58-135.38c-6.69-10.399-10.183-22.38-10.183-34.9 0-35.773 29.093-64.871 64.837-64.871 35.78 0 64.872 29.098 64.872 64.871 0 35.756-29.091 64.847-64.872 64.847-4.949 0-9.874-0.554-14.69-1.675L665.815 554.595c6.288 10.211 9.6 21.848 9.6 33.947 0 35.755-29.107 64.854-64.872 64.854-35.745 0-64.853-29.099-64.853-64.854 0-3.984 0.381-7.965 1.086-11.863l-105.541-73.911a64.769 64.769 0 0 1-39.564 13.474 65.413 65.413 0 0 1-17.017-2.256L290.6 626.076a64.75 64.75 0 0 1 6.473 28.209c0 35.774-29.088 64.872-64.854 64.872z" p-id="7789"></path></svg>