<?xml version="1.0" encoding="UTF-8"?>
<svg width="17px" height="15px" viewBox="0 0 17 15" version="1.1" xmlns="http://www.w3.org/2000/svg" xmlns:xlink="http://www.w3.org/1999/xlink">
    <!-- Generator: Sketch 52.4 (67378) - http://www.bohemiancoding.com/sketch -->
    <title>qiandao</title>
    <desc>Created with Sketch.</desc>
    <defs>
        <polygon id="path-1" points="0.00141509434 0.00551724138 14.9906132 0.00551724138 14.9906132 5.99358621 0.00141509434 5.99358621"></polygon>
    </defs>
    <g id="页面-1" stroke="none" stroke-width="1" fill="none" fill-rule="evenodd">
        <g id="教程1" transform="translate(-343.000000, -34.000000)">
            <g id="qiandao" transform="translate(343.000000, 34.000000)">
                <path d="M14,8.5 L14,3.70904725 C14,3.31728596 13.7115814,3 13.3543721,3 L4.64553488,3 C4.29013953,3 4,3.31728596 4,3.70904725 L4,13.2909276 C4,13.6825885 4.28832558,14 4.64553488,14 L12.1599767,14 C12.5152558,14 14,12.7143842 14,12.322648 L14,8.5 Z" id="Fill-1" fill="#FCEE21"></path>
                <path d="M14,12.4371471 L14,4.41924156 C14,4.26103136 13.9437949,4.11428013 13.8521164,4 C12.5660668,9.85670791 5.72778177,12.6964156 4,13.6169698 C4.10300377,13.8437433 4.32759036,14 4.58781411,14 L12.1486231,14 C12.5080131,14 14,12.8031437 14,12.4371471 Z" id="Fill-2" fill="#F8B62D"></path>
                <path d="M14.7939706,8.68797649 C14.6807757,8.68797649 14.5898105,8.6046707 14.5898105,8.50089165 L14.5898105,3.87263796 C14.5898105,3.59844914 14.3452832,3.37426231 14.046192,3.37426231 L4.81071449,3.37426231 C4.69751957,3.37426231 4.60665545,3.29084072 4.60665545,3.18708483 C4.60665545,3.08330579 4.69751957,3 4.81071449,3 L14.0481624,3 C14.5736182,3 15,3.3909142 15,3.87263796 L15,8.49899255 C14.9980296,8.6046707 14.9070392,8.68797649 14.7939706,8.68797649 Z M3.20613044,4.33212832 C3.09296079,4.33212832 3.00207141,4.2487299 3.00207141,4.14495085 L3.00207141,3.87263796 C3.00207141,3.3909142 3.42845324,3 3.95390905,3 L3.99632241,3 C4.10951732,3 4.2004067,3.08330579 4.2004067,3.18708483 C4.2004067,3.29084072 4.10951732,3.37426231 3.99632241,3.37426231 L3.95390905,3.37426231 C3.65481781,3.37426231 3.41029052,3.59844914 3.41029052,3.87263796 L3.41029052,4.14495085 C3.40821911,4.2487299 3.317355,4.33212832 3.20613044,4.33212832 Z M8.75144357,14 L3.95183764,14 C3.42648288,14 3,13.6089932 3,13.1272462 L3,4.76936212 C3,4.66560623 3.09099042,4.58227728 3.20416008,4.58227728 C3.317355,4.58227728 3.40821911,4.66560623 3.40821911,4.76936212 L3.40821911,13.1291453 C3.40821911,13.4033573 3.65274641,13.6275442 3.95183764,13.6275442 L8.7494732,13.6275442 C8.86264286,13.6275442 8.95353224,13.7109426 8.95353224,13.8147216 C8.95353224,13.9183849 8.86264286,14 8.75144357,14 Z" id="Fill-3" fill="#3E3A39"></path>
                <path d="M9.8399128,9 L6.16016647,9 C6.07136346,9 6,8.77741337 6,8.50012376 C6,8.22289604 6.07136346,8 6.16016647,8 L9.8399128,8 C9.928696,8 10,8.22289604 10,8.50012376 C10,8.77741337 9.928696,9 9.8399128,9 Z" id="Fill-4" fill="#3E3A39"></path>
                <path d="M7.80665506,11 L4.19344068,11 C4.08618905,11 4,10.7771658 4,10.4998762 C4,10.2226485 4.08618905,10 4.19344068,10 L7.80665506,10 C7.91378702,10 8,10.2226485 8,10.4998762 C8,10.7771658 7.91378702,11 7.80665506,11 Z" id="Fill-5" fill="#3E3A39"></path>
                <path d="M6.79127066,12 L4.20862603,12 C4.09292355,12 4,11.7773653 4,11.5000928 C4,11.2228822 4.09292355,11 4.20862603,11 L6.79127066,11 C6.90699897,11 7,11.2228822 7,11.5000928 C7,11.7773653 6.90495868,12 6.79127066,12 Z" id="Fill-6" fill="#3E3A39"></path>
                <path d="M13.790269,6 L4.20782814,6 C4.09262521,6 4,5.77710396 4,5.49987624 C4,5.22258663 4.09262521,5 4.20782814,5 L13.7922747,5 C13.9074776,5 14,5.22258663 14,5.49987624 C14,5.77710396 13.905369,6 13.790269,6 Z" id="Fill-7" fill="#3E3A39"></path>
                <path d="M5.85015901,5 L4.15003821,5 C4.06725341,5 4,4.95896698 4,4.90824183 L4,2.09175817 C4,2.04103302 4.06725341,2 4.15003821,2 L5.85015901,2 C5.93299312,2 6,2.04103302 6,2.09175817 L6,4.9107177 C6,4.95896698 5.93299312,5 5.85015901,5 Z" id="Fill-8" fill="#F8B62D"></path>
                <path d="M6.24509395,5.40520441 C5.87647252,5.40520441 5.57596644,5.14030296 5.57596644,4.81556289 L5.57596644,3.58966235 C5.57596644,3.26481817 5.87647252,3 6.24509395,3 C6.61359724,3 6.91419782,3.26481817 6.91419782,3.58966235 L6.91419782,4.81556289 C6.91604069,5.14030296 6.61553461,5.40520441 6.24509395,5.40520441 Z M6.24509395,3.33648293 C6.08634716,3.33648293 5.95777148,3.44968495 5.95777148,3.58966235 L5.95777148,4.81556289 C5.95777148,4.95543618 6.08634716,5.0687423 6.24509395,5.0687423 C6.40381711,5.0687423 6.53239279,4.95543618 6.53239279,4.81556289 L6.53239279,3.58966235 C6.53423566,3.44968495 6.40381711,3.33648293 6.24509395,3.33648293 Z M15.8091211,14 L15.3554205,14 C15.249668,14 15.1645652,13.9250039 15.1645652,13.8317273 C15.1645652,13.7384299 15.249668,13.6635379 15.3554205,13.6635379 L15.8091211,13.6635379 C15.9149917,13.6635379 16,13.7384299 16,13.8317273 C16,13.9250039 15.9130543,14 15.8091211,14 Z M1.77117057,14 L1.19085527,14 C1.0849847,14 1,13.9250039 1,13.8317273 C1,13.7384299 1.0849847,13.6635379 1.19085527,13.6635379 L1.77117057,13.6635379 C1.87704114,13.6635379 1.96202583,13.7384299 1.96202583,13.8317273 C1.96202583,13.9250039 1.87704114,14 1.77117057,14 Z M14.6258563,14 L2.37218273,14 C2.26631216,14 2.18132747,13.9250039 2.18132747,13.8317273 C2.18132747,13.7384299 2.26631216,13.6635379 2.37218273,13.6635379 L14.6258563,13.6635379 C14.7317268,13.6635379 14.816806,13.7384299 14.816806,13.8317273 C14.816806,13.9250039 14.7317268,14 14.6258563,14 Z" id="Fill-9" fill="#3E3A39"></path>
                <path d="M9,12.9999705 C9,13.7145421 9.38117624,14.374767 10,14.732043 C10.6187451,15.089319 11.3811762,15.089319 12,14.732043 C12.6188238,14.374767 13,13.7145421 13,12.9999705 C13,11.8954126 12.1045633,11 11,11 C9.89543666,11 9,11.8954126 9,12.9999705 Z" id="Fill-10" fill="#FFFFFF"></path>
                <path d="M10.5008138,15 C9.12190215,15 8,13.8785464 8,12.5 C8,11.121537 9.12190215,10 10.5008138,10 C11.879809,10 13,11.1231642 13,12.5017106 C13,13.8785464 11.879809,15 10.5008138,15 Z M10.5008138,10.3388476 C9.30718859,10.3388476 8.33724677,11.3084738 8.33724677,12.5017106 C8.33724677,13.6949683 9.30718859,14.6645945 10.5008138,14.6645945 C11.6945226,14.6645945 12.6644853,13.6933203 12.6644853,12.5017106 C12.6644853,11.3084738 11.6928114,10.3388476 10.5008138,10.3388476 Z" id="Fill-11" fill="#3E3A39"></path>
                <path d="M11.7723512,13 C11.713149,13 11.6563741,12.9792989 11.6136892,12.940088 L10.079197,11.5977473 C9.98204619,11.512377 9.97257383,11.3647304 10.0602227,11.2701052 C10.1478716,11.1756241 10.2993405,11.166398 10.3964618,11.2517683 L11.7391684,12.4257326 L13.5721286,10.091499 C13.6525844,9.99004071 13.8017445,9.9693108 13.9060588,10.0477039 C14.0102251,10.1260969 14.0315083,10.2714946 13.9510229,10.3729529 L11.9617392,12.9077678 C11.9215112,12.958569 11.8600001,12.9931381 11.7936344,12.9977511 C11.7888686,13 11.7793963,13 11.7723512,13 Z" id="Fill-12" fill="#3E3A39"></path>
                <path d="M12.9999084,2 C12.4469371,2 12,1.54945055 12,1 C12,0.446978022 12.4505082,0 12.9999084,0 C13.5530629,0 14,0.450549451 14,1 C14,1.55320513 13.5530629,2 12.9999084,2 Z M12.9999084,0.490796703 C12.7180661,0.490796703 12.4909349,0.717948718 12.4909349,1 C12.4909349,1.28205128 12.7180661,1.5092033 12.9999084,1.5092033 C13.2819339,1.5092033 13.5090651,1.28205128 13.5090651,1 C13.5090651,0.717948718 13.2819339,0.490796703 12.9999084,0.490796703 Z" id="Fill-13" fill="#47B7F8"></path>
                <g id="分组" transform="translate(0.000000, 2.000000)">
                    <mask id="mask-2" fill="white">
                        <use xlink:href="#path-1"></use>
                    </mask>
                    <g id="Clip-15"></g>
                    <path d="M3.48117925,0.332850575 L3.25471698,0.332850575 L3.25471698,0.112206897 C3.25471698,0.0532873563 3.20570755,0.00551724138 3.14525943,0.00551724138 C3.08492925,0.00551724138 3.03582547,0.0532873563 3.03582547,0.112206897 L3.03582547,0.332850575 L2.80945755,0.332850575 C2.74903302,0.332850575 2.7,0.380712644 2.7,0.439517241 C2.7,0.498436782 2.74903302,0.546206897 2.80945755,0.546206897 L3.03582547,0.546206897 L3.03582547,0.76691954 C3.03582547,0.825747126 3.08492925,0.873517241 3.14525943,0.873517241 C3.20570755,0.873517241 3.25471698,0.825747126 3.25471698,0.76691954 L3.25471698,0.546206897 L3.48117925,0.546206897 C3.54150943,0.546206897 3.59051887,0.498436782 3.59051887,0.439517241 C3.59051887,0.380712644 3.54150943,0.332850575 3.48117925,0.332850575 Z M14.8811557,2.47177011 L14.6546934,2.47177011 L14.6546934,2.25103448 C14.6546934,2.1922069 14.605684,2.14434483 14.5452594,2.14434483 C14.4849057,2.14434483 14.4358019,2.1922069 14.4358019,2.25103448 L14.4358019,2.47177011 L14.209434,2.47177011 C14.1491038,2.47177011 14.1,2.51954023 14.1,2.57834483 C14.1,2.63726437 14.1491038,2.68503448 14.209434,2.68503448 L14.4358019,2.68503448 L14.4358019,2.90574713 C14.4358019,2.96457471 14.4849057,3.01243678 14.5452594,3.01243678 C14.605684,3.01243678 14.6546934,2.96457471 14.6546934,2.90574713 L14.6546934,2.68503448 L14.8811557,2.68503448 C14.9415094,2.68503448 14.9906132,2.63726437 14.9906132,2.57834483 C14.9906132,2.51954023 14.9415094,2.47177011 14.8811557,2.47177011 Z" id="Fill-14" fill="#F7E42F" mask="url(#mask-2)"></path>
                    <path d="M0.905613208,5.36832184 L0.643419811,5.36832184 L0.643419811,5.11264368 C0.643419811,5.0445977 0.586768868,4.98944828 0.517028302,4.98944828 C0.447193396,4.98944828 0.390542453,5.0445977 0.390542453,5.11264368 L0.390542453,5.36832184 L0.126391509,5.36832184 C0.0565566038,5.36832184 0,5.42344828 0,5.49151724 C0,5.55958621 0.0565566038,5.61471264 0.126391509,5.61471264 L0.388679245,5.61471264 L0.388679245,5.87036782 C0.388679245,5.93834483 0.445259434,5.99358621 0.51509434,5.99358621 C0.584929245,5.99358621 0.641485849,5.93834483 0.641485849,5.87036782 L0.641485849,5.61471264 L0.903773585,5.61471264 C0.973608491,5.61471264 1.03018868,5.55958621 1.03018868,5.49151724 C1.03018868,5.42344828 0.975448113,5.36832184 0.905613208,5.36832184 Z" id="Fill-16" fill="#F8B62D" mask="url(#mask-2)"></path>
                </g>
                <path d="M4,1.50014698 C4,1.67881732 4.09547677,1.84368666 4.25017016,1.93311466 C4.40486356,2.02229511 4.59538395,2.02229511 4.75007735,1.93311466 C4.90477074,1.84368666 5,1.67881732 5,1.50014698 C5,1.32147665 4.90477074,1.15635975 4.75007735,1.06693175 C4.59538395,0.977689416 4.40486356,0.977689416 4.25017016,1.06693175 C4.09547677,1.15635975 4,1.32147665 4,1.50014698 Z" id="Fill-17" fill="#F8B62D"></path>
                <path d="M12,1.49997668 C12,1.67855144 12.0952803,1.84360134 12.2499767,1.93305195 C12.4046264,2.02231602 12.595187,2.02231602 12.7498368,1.93305195 C12.9045332,1.84360134 13,1.67855144 13,1.49997668 C13,1.32126201 12.9045332,1.15621211 12.7498368,1.06694805 C12.595187,0.977683985 12.4046264,0.977683985 12.2499767,1.06694805 C12.0952803,1.15621211 12,1.32126201 12,1.49997668 Z" id="Fill-18" fill="#F8B62D"></path>
                <path d="M9,1.49997668 C9,1.67870802 9.09530251,1.84377332 9.24998834,1.93304571 C9.40472081,2.0223181 9.59532584,2.0223181 9.75001166,1.93304571 C9.90469749,1.84377332 10,1.67870802 10,1.49997668 C10,1.3214319 9.90469749,1.1563666 9.75001166,1.06709422 C9.59532584,0.977635261 9.40472081,0.977635261 9.24998834,1.06709422 C9.09530251,1.1563666 9,1.3214319 9,1.49997668 Z" id="Fill-19" fill="#F7E42F"></path>
                <path d="M2,5 C1.44679487,5 1,4.54945055 1,4 C1,3.44679487 1.45054945,3 2,3 C2.54945055,3 3,3.45054945 3,4 C3,4.55302198 2.54945055,5 2,5 Z M2,3.4907967 C1.71794872,3.4907967 1.4907967,3.71794872 1.4907967,4 C1.4907967,4.28205128 1.71794872,4.5092033 2,4.5092033 C2.28205128,4.5092033 2.5092033,4.28205128 2.5092033,4 C2.5092033,3.71794872 2.2782967,3.4907967 2,3.4907967 Z" id="Fill-20" fill="#F8B62D"></path>
                <path d="M7.44407757,2.2931219 C7.400537,2.2524448 7.33381107,2.2524448 7.2902705,2.2931219 C7.27002413,2.31336974 7.25837703,2.33960484 7.25837703,2.36867028 C7.25837703,2.39759058 7.27002413,2.42378939 7.2902705,2.44407352 L7.63569239,2.78948419 C7.65593875,2.80991346 7.68217195,2.82137997 7.71123528,2.82137997 C7.74015348,2.82137997 7.76635039,2.80991346 7.78663304,2.78948419 C7.8273072,2.74597674 7.8273072,2.67920968 7.78663304,2.63570223 L7.44407757,2.2931219 Z M8.36136863,3.21047953 C8.34108597,3.19005026 8.31488906,3.17843859 8.28597086,3.17843859 C8.25690753,3.17843859 8.23067433,3.19005026 8.21042797,3.21047953 C8.16975381,3.25398697 8.16975381,3.32075403 8.21042797,3.36426148 L8.55581357,3.70970844 C8.57624136,3.73010142 8.60229314,3.74174937 8.63135647,3.74174937 C8.66027467,3.74174937 8.68650786,3.73010142 8.70675423,3.70970844 C8.72718202,3.68942432 8.7386477,3.66333436 8.7386477,3.63430521 C8.7386477,3.60523976 8.72718202,3.57914981 8.70675423,3.55875683 L8.36136863,3.21047953 Z M8.28299559,2.82435546 C8.31202264,2.82435546 8.3381107,2.8127438 8.35853849,2.79245968 L8.70392409,2.447049 C8.72420675,2.42661974 8.73581756,2.40056607 8.73581756,2.37150063 C8.73581756,2.34243518 8.72420675,2.31634523 8.70392409,2.29609739 C8.66027467,2.2524448 8.59351245,2.2524448 8.55000816,2.29609739 L8.20759783,2.64150806 C8.16688739,2.68501551 8.16688739,2.75178257 8.20759783,2.79532631 C8.2278442,2.81557414 8.25393226,2.82435546 8.28299559,2.82435546 Z M7.63866766,3.21047953 L7.29310063,3.5558902 C7.27285427,3.57617432 7.26124345,3.60240942 7.26124345,3.63132972 C7.26124345,3.66035887 7.27285427,3.68644883 7.29310063,3.7068781 C7.31352842,3.72712593 7.33961648,3.73877388 7.36864353,3.73877388 C7.39770686,3.73877388 7.42379492,3.72712593 7.44407757,3.7068781 L7.78946318,3.36143114 C7.83013733,3.31792369 7.83013733,3.25101148 7.78946318,3.20750404 C7.7517643,3.16980242 7.67919668,3.16980242 7.63866766,3.21047953 Z M7.70542987,3.00139703 C7.70542987,2.94047209 7.65593875,2.89395286 7.59799351,2.89395286 L7.10743637,2.89395286 C7.04651585,2.89395286 7,2.94344758 7,3.00139703 C7,3.06235826 7.04934598,3.10884119 7.10743637,3.10884119 L7.59799351,3.10884119 C7.65593875,3.10884119 7.70542987,3.06235826 7.70542987,3.00139703 Z M8.89256363,2.89395286 L8.40204278,2.89395286 C8.34108597,2.89395286 8.29460641,2.94344758 8.29460641,3.00139703 C8.29460641,3.06235826 8.34391611,3.10884119 8.40204278,3.10884119 L8.89256363,3.10884119 C8.95352044,3.10884119 9,3.05952791 9,3.00139703 C9,2.94344758 8.95054516,2.89395286 8.89256363,2.89395286 Z M7.99853051,2 C7.9375737,2 7.89109414,2.04931328 7.89109414,2.10729902 L7.89109414,2.59785547 C7.89109414,2.65896184 7.94040384,2.70529964 7.99853051,2.70529964 C8.05948731,2.70529964 8.10596687,2.65598636 8.10596687,2.59785547 L8.10596687,2.11027451 C8.10596687,2.04931328 8.05948731,2 7.99853051,2 Z M7.99853051,3.29466408 C7.9375737,3.29466408 7.89109414,3.34401364 7.89109414,3.4019631 L7.89109414,3.89270098 C7.89109414,3.95362592 7.94040384,4 7.99853051,4 C8.05948731,4 8.10596687,3.95065043 8.10596687,3.89270098 L8.10596687,3.4019631 C8.10596687,3.34401364 8.05948731,3.29466408 7.99853051,3.29466408 Z" id="Fill-21" fill="#FAEE00"></path>
                <path d="M15.4441864,5.29310063 C15.4006821,5.25257162 15.3337748,5.25257162 15.2902705,5.29310063 C15.2699878,5.31352842 15.258377,5.33961648 15.258377,5.36864353 C15.258377,5.39770686 15.2699878,5.42379492 15.2902705,5.44404129 L15.6356561,5.78960832 C15.6560839,5.80985468 15.6821719,5.82150179 15.711199,5.82150179 C15.7402623,5.82150179 15.7663504,5.80985468 15.786633,5.78960832 C15.8273072,5.74595889 15.8273072,5.67919668 15.786633,5.63569239 L15.4441864,5.29310063 Z M16.3613323,6.20756155 C16.341086,6.18717004 16.3149979,6.17555922 16.2859346,6.17555922 C16.2569075,6.17555922 16.2308195,6.18717004 16.2103917,6.20756155 C16.1698627,6.25110212 16.1698627,6.31782805 16.2103917,6.36136863 L16.5559587,6.70675423 C16.5762051,6.72718202 16.6022931,6.7386477 16.6313565,6.7386477 C16.6604198,6.7386477 16.6864716,6.72718202 16.7068994,6.70675423 C16.7271457,6.68650786 16.7387928,6.6604198 16.7387928,6.63135647 C16.7387928,6.60229314 16.7271457,6.57624136 16.7068994,6.55581357 L16.3613323,6.20756155 Z M16.2829593,5.82433192 C16.3120226,5.82433192 16.3382558,5.8127211 16.3585022,5.79243845 L16.7039241,5.44701656 C16.7241705,5.4267702 16.7358176,5.400537 16.7358176,5.37147367 C16.7358176,5.34259175 16.7241705,5.31635856 16.7039241,5.29607591 C16.6604198,5.25257162 16.5936576,5.25257162 16.5501533,5.29607591 L16.2045863,5.6414978 C16.1640573,5.68500209 16.1640573,5.7517643 16.2045863,5.79526859 C16.2278442,5.8127211 16.2540411,5.82433192 16.2829593,5.82433192 Z M15.6386314,6.20756155 L15.2932458,6.55298344 C15.272818,6.57326609 15.2612072,6.59931786 15.2612072,6.6283812 C15.2612072,6.65744453 15.272818,6.68353259 15.2932458,6.70392409 C15.3135284,6.72420675 15.3395802,6.73581756 15.3686435,6.73581756 C15.3977069,6.73581756 15.4237949,6.72420675 15.4441864,6.70392409 L15.7896083,6.35853849 C15.8302825,6.31485278 15.8302825,6.24812685 15.7896083,6.20458627 C15.7519094,6.16688739 15.6793418,6.16688739 15.6386314,6.20756155 Z M15.7053936,6.00150578 C15.7053936,5.94040384 15.6560839,5.89406941 15.5979572,5.89406941 L15.1074364,5.89406941 C15.0464796,5.89406941 15,5.94337911 15,6.00150578 C15,6.05945103 15.0493097,6.10879701 15.1074364,6.10879701 L15.5979572,6.10879701 C15.6560839,6.10879701 15.7053936,6.05945103 15.7053936,6.00150578 Z M16.8925636,5.89109414 L16.4020428,5.89109414 C16.341086,5.89109414 16.2946064,5.94040384 16.2946064,5.99853051 C16.2946064,6.05662089 16.3440612,6.10596687 16.4020428,6.10596687 L16.8925636,6.10596687 C16.9535204,6.10596687 17,6.05662089 17,5.99853051 C17,5.94040384 16.9506903,5.89109414 16.8925636,5.89109414 Z M15.9984942,5 C15.9375737,5 15.891203,5.04934598 15.891203,5.10743637 L15.891203,5.59799351 C15.891203,5.65891403 15.940549,5.70542987 15.9984942,5.70542987 C16.0566209,5.70542987 16.1059306,5.65593875 16.1059306,5.59799351 L16.1059306,5.10743637 C16.1089059,5.04934598 16.059451,5 15.9984942,5 Z M15.9984942,6.29460641 C15.9375737,6.29460641 15.891203,6.34391611 15.891203,6.40204278 L15.891203,6.89256363 C15.891203,6.95352044 15.940549,7 15.9984942,7 C16.0566209,7 16.1059306,6.9506903 16.1059306,6.89256363 L16.1059306,6.40204278 C16.1089059,6.34108597 16.059451,6.29460641 15.9984942,6.29460641 Z" id="Fill-22" fill="#F8B62D"></path>
                <path d="M11.8501405,5 L10.1498595,5 C10.0670151,5 10,4.95896698 10,4.90824183 L10,2.09175817 C10,2.04103302 10.0670151,2 10.1498595,2 L11.8501405,2 C11.9329849,2 12,2.04103302 12,2.09175817 L12,4.9107177 C12,4.95896698 11.9329849,5 11.8501405,5 Z" id="Fill-23" fill="#F8B62D"></path>
                <path d="M11.0000813,5 C10.4491379,5 10,4.66958968 10,4.26454294 L10,2.73548303 C10,2.33030644 10.4491379,2 11.0000813,2 C11.5508482,2 11.9999861,2.33030644 11.9999861,2.73548303 L11.9999861,4.26454294 C12.0028817,4.66958968 11.5537438,5 11.0000813,5 Z M11.0000813,2.41969356 C10.7626763,2.41969356 10.570683,2.56088989 10.570683,2.73548303 L10.570683,4.26454294 C10.570683,4.43900623 10.7626763,4.58033241 11.0000813,4.58033241 C11.2373097,4.58033241 11.4294796,4.43900623 11.4294796,4.26454294 L11.4294796,2.73548303 C11.432234,2.56088989 11.2373097,2.41969356 11.0000813,2.41969356 Z" id="Fill-24" fill="#3E3A39"></path>
                <path d="M3.33675,5 C3.15008333,5 3,4.87667386 3,4.7232097 L3,3.87944793 C3,3.39449981 3.48,3 4.07,3 L4.66341667,3 C4.850125,3 5,3.12318915 5,3.27665331 C5,3.43008322 4.850125,3.55344361 4.66341667,3.55344361 L4.07,3.55344361 C3.850125,3.55344361 3.67008333,3.70125689 3.67008333,3.8821535 L3.67008333,4.72601801 C3.673375,4.87667386 3.52345833,5 3.33675,5 Z" id="Fill-25" fill="#FFFFFF"></path>
                <path d="M4.50009282,10 C4.22288225,10 4,9.8968135 4,9.76847493 L4,7.23152507 C4,7.1031865 4.22288225,7 4.50009282,7 C4.77736526,7 5,7.1031865 5,7.23152507 L5,9.76847493 C5,9.8968135 4.77736526,10 4.50009282,10 Z" id="Fill-26" fill="#FFFFFF"></path>
            </g>
        </g>
    </g>
</svg>