<?xml version="1.0" encoding="UTF-8"?>
<svg width="23px" height="22px" viewBox="0 0 23 22" version="1.1" xmlns="http://www.w3.org/2000/svg" xmlns:xlink="http://www.w3.org/1999/xlink">
    <!-- Generator: Sketch 52.4 (67378) - http://www.bohemiancoding.com/sketch -->
    <title>代理开户二维码</title>
    <desc>Created with Sketch.</desc>
    <defs>
        <polygon id="path-1" points="8.28005676e-17 0 23 0 23 22 8.28005676e-17 22"></polygon>
    </defs>
    <g id="页面-1" stroke="none" stroke-width="1" fill-rule="evenodd">
        <g id="开户--链接管理" transform="translate(-271.000000, -139.000000)">
            <g id="代理开户二维码" transform="translate(282.500000, 150.000000) scale(-1, 1) translate(-282.500000, -150.000000) translate(271.000000, 139.000000)">
                <mask id="mask-2" fill="white">
                    <use xlink:href="#path-1"></use>
                </mask>
                <g id="Clip-2"></g>
                <path d="M0,10.3528736 L10.8234588,10.3528736 L10.8234588,0 L0,0 L0,10.3528736 Z M2.70583742,7.76468132 L8.11762138,7.76468132 L8.11762138,2.58819231 L2.70583742,2.58819231 L2.70583742,7.76468132 Z M12.1765048,10.3528736 L23,10.3528736 L23,0 L12.1765048,0 L12.1765048,10.3528736 Z M14.8823422,7.76468132 L20.2940171,7.76468132 L20.2940171,2.58819231 L14.8823422,2.58819231 L14.8823422,7.76468132 Z M4.05888344,6.47060256 L6.76472086,6.47060256 L6.76472086,3.88227107 L4.05888344,3.88227107 L4.05888344,6.47060256 Z M0,22 L10.8234588,22 L10.8234588,11.6469524 L0,11.6469524 L0,22 Z M2.70583742,19.4116685 L8.11762138,19.4116685 L8.11762138,14.2352839 L2.70583742,14.2352839 L2.70583742,19.4116685 Z M16.2352791,6.47060256 L18.9411166,6.47060256 L18.9411166,3.88227107 L16.2352791,3.88227107 L16.2352791,6.47060256 Z M12.1765048,22 L14.8823422,22 L14.8823422,19.4116685 L12.1765048,19.4116685 L12.1765048,22 Z M14.8823422,19.4116685 L17.5881797,19.4116685 L17.5881797,14.2352839 L14.8823422,14.2352839 L14.8823422,19.4116685 Z M20.2940171,19.4116685 L17.5881797,19.4116685 L17.5881797,22 L23,22 L23,16.8234762 L20.2940171,16.8234762 L20.2940171,19.4116685 Z M20.2940171,14.2352839 L23,14.2352839 L23,11.6469524 L20.2940171,11.6469524 L20.2940171,14.2352839 Z M12.1765048,14.2352839 L14.8823422,14.2352839 L14.8823422,11.6469524 L12.1765048,11.6469524 L12.1765048,14.2352839 Z M4.05888344,18.117555 L6.76472086,18.117555 L6.76472086,15.5293974 L4.05888344,15.5293974 L4.05888344,18.117555 Z" id="Fill-1" mask="url(#mask-2)"></path>
            </g>
        </g>
    </g>
</svg>