<?xml version="1.0" encoding="UTF-8"?>
<svg width="147px" height="166px" viewBox="0 0 147 166" version="1.1" xmlns="http://www.w3.org/2000/svg" xmlns:xlink="http://www.w3.org/1999/xlink">
    <!-- Generator: Sketch 52.4 (67378) - http://www.bohemiancoding.com/sketch -->
    <title>实名认证</title>
    <desc>Created with Sketch.</desc>
    <defs>
        <polygon id="path-1" points="3.22303095e-16 0 116 0 116 88 3.22303095e-16 88"></polygon>
    </defs>
    <g id="页面-1" stroke="none" stroke-width="1" fill="none" fill-rule="evenodd">
        <g id="实名认证">
            <polygon id="路径-47" fill="#6B89FE" points="0 42.3965095 0 124.187525 71.7180707 166.000025 147 124.187525 147 42.3965095 73.5 1.42108547e-14"></polygon>
            <g id="shimingrenzheng-(1)" transform="translate(17.000000, 41.000000)">
                <mask id="mask-2" fill="white">
                    <use xlink:href="#path-1"></use>
                </mask>
                <g id="Clip-2"></g>
                <path d="M113.88093,51.7934811 C109.511808,46.3057877 102.829906,42.8018767 95.3417228,42.8018767 C82.1798415,42.8018767 71.5077435,53.641365 71.5077435,67.0146812 C71.4906097,74.3084651 74.7413608,81.2238648 80.3595512,85.8470806 L10.5946418,85.8470806 C4.74309173,85.8470806 0,81.0304653 0,75.0848681 L0,10.7616516 C0,4.81928003 4.74309173,0 10.5946418,0 L103.286288,0 C109.138405,0 113.88093,4.81928003 113.88093,10.7616516 L113.88093,51.7934811 Z M66.2309549,16.7741463 C64.7561728,16.7741463 63.5631782,17.9728305 63.5631782,19.4531291 L63.5631782,19.4766904 C63.5631782,20.9568488 64.7561728,22.155533 66.2309549,22.155533 L92.6711141,22.155533 C94.1457546,22.155533 95.3394572,20.9568488 95.3394572,19.4766904 L95.3394572,19.4531291 C95.3394572,17.9728305 94.1457546,16.7741463 92.6711141,16.7741463 L66.2309549,16.7741463 Z M95.3421476,88 C83.9327294,88 74.6861361,78.6051878 74.6861361,67.0146812 C74.6861361,55.4251563 83.9327294,46.0292222 95.3421476,46.0292222 C106.751141,46.0292222 116,55.4251563 116,67.0146812 C116,78.6051878 106.751141,88 95.3421476,88 Z M91.6195796,71.0264237 L88.0541895,67.4058279 C87.4617279,66.800946 86.6524739,66.4612697 85.8078196,66.4612697 C84.9627404,66.4612697 84.1540529,66.800946 83.5615913,67.4058279 C82.3204521,68.6729522 82.3204521,70.7042781 83.5615913,71.9714025 L89.3716521,77.8754869 C89.9641137,78.4807895 90.7733676,78.8227097 91.6195796,78.8227097 C92.4648004,78.8227097 93.2746207,78.4807895 93.8675072,77.8754869 L108.666021,62.840113 C109.906736,61.5735496 109.906736,59.5415224 108.666021,58.2743981 C108.073701,57.6696565 107.263881,57.3282972 106.418094,57.3282972 C105.573439,57.3282972 104.763761,57.6696565 104.170733,58.2743981 L91.6163228,71.0269846 L91.6195796,71.0269846 L91.6195796,71.0264237 Z M51.2206045,64.571873 L57.2883805,64.571873 C56.126255,55.2208176 49.6668087,47.3971836 40.731456,44.515545 C45.5105145,41.8382451 48.470982,36.7712903 48.4648931,31.2758834 C48.4648931,22.9165089 41.7443332,16.1424774 33.4517108,16.1424774 C25.1619204,16.1424774 18.43867,22.9187528 18.43867,31.2758834 C18.4331475,36.7712903 21.392907,41.8382451 26.1719655,44.515545 C17.2371792,47.3977446 10.7794321,55.2219396 9.61730666,64.571873 L15.685649,64.571873 C17.1132777,55.9817935 24.5269782,49.4356621 33.4517108,49.4356621 C42.378709,49.4356621 49.7895774,55.9838972 51.2206045,64.571873 Z M33.4517108,40.3168544 C31.0577918,40.3125068 28.7645517,39.3532228 27.075243,37.650073 C25.3865007,35.9473439 24.4407427,33.6409952 24.4451324,31.2375962 C24.4396099,28.8336361 25.3853679,26.5261655 27.0746766,24.8230157 C28.7639853,23.1197256 31.0577918,22.1598807 33.4517108,22.154972 C38.4271709,22.154972 42.4611212,26.2215507 42.4611212,31.2375962 C42.4660772,33.6409952 41.5191864,35.9484659 39.8293113,37.6510547 C38.1395778,39.3537838 35.8457713,40.3130678 33.4517108,40.3168544 Z M66.2309549,31.2579319 C64.7561728,31.2579319 63.5631782,32.4538112 63.5631782,33.9345305 L63.5631782,33.9576711 C63.5631782,35.4383905 64.7561728,36.6365137 66.2309549,36.6365137 L92.6711141,36.6365137 C94.1457546,36.6365137 95.3394572,35.4383905 95.3394572,33.9576711 L95.3394572,33.9345305 C95.3394572,32.4543722 94.1457546,31.2556879 92.6711141,31.2556879 L66.2309549,31.2556879 L66.2309549,31.2579319 Z M66.2309549,45.7366686 C64.7561728,45.7366686 63.5631782,46.9374566 63.5631782,48.4155112 L63.5631782,48.4418775 C63.5631782,49.9171272 64.7561728,51.1180554 66.2309549,51.1180554 L71.4900433,51.1180554 C72.9591613,51.1180554 74.1555544,49.9193712 74.1555544,48.4390726 L74.1555544,48.4160722 C74.1555544,46.9374566 72.961427,45.7372296 71.4867865,45.7372296 L66.2286892,45.7372296 L66.2309549,45.7372296 L66.2309549,45.7366686 Z" id="Fill-1" fill="#FFFFFF" mask="url(#mask-2)"></path>
            </g>
        </g>
    </g>
</svg>