<?xml version="1.0" standalone="no"?><!DOCTYPE svg PUBLIC "-//W3C//DTD SVG 1.1//EN" "http://www.w3.org/Graphics/SVG/1.1/DTD/svg11.dtd"><svg t="1551882091103" class="icon" style="" viewBox="0 0 2733 1024" version="1.1" xmlns="http://www.w3.org/2000/svg" p-id="16619" xmlns:xlink="http://www.w3.org/1999/xlink" width="533.7890625" height="200"><defs><style type="text/css"></style></defs><path d="M2108.708565 804.184864H38.034323a38.087892 38.087892 0 0 1-38.034323-38.034323V38.087892A38.087892 38.087892 0 0 1 38.087892 0h2070.620673a38.087892 38.087892 0 0 1 37.820044 38.087892v728.062649a38.087892 38.087892 0 0 1-38.087892 38.087892zM38.034323 28.070402a10.017491 10.017491 0 0 0-10.017491 10.01749v728.062649a10.017491 10.017491 0 0 0 10.017491 10.017491h2070.674242a10.017491 10.017491 0 0 0 10.01749-10.017491V38.087892a10.017491 10.017491 0 0 0-10.01749-10.01749z m0 0"  p-id="16620"></path><path d="M572.336203 277.489848q2.571334 1.446376 5.03553 3.107029l5.03553 3.428446v5.99978a114.638663 114.638663 0 0 1-6.428336 43.873395 44.248381 44.248381 0 0 1-18.910022 22.981302 224.081087 224.081087 0 0 1-22.017052 55.230122 88.871749 88.871749 0 0 1-45.801896 40.069963c-9.160379 3.321307-32.516667 4.928391-54.962275 4.553405s-43.444839-2.464196-52.069523-6.428336a91.068097 91.068097 0 0 1-41.569908-40.980644 243.526805 243.526805 0 0 1-19.820703-51.908815 43.3377 43.3377 0 0 1-19.552856-23.088441 112.495884 112.495884 0 0 1-6.696184-44.516229v-5.99978l5.03553-3.374877 3.857002-2.410626c-5.678364-70.336712-3.535585-96.425044 22.552746-126.048959 50.944565-41.730616 167.672437-40.230671 219.313405-2.410626 35.141571 33.213071 37.498628 70.336712 26.784734 127.763182z m-107.138937 203.563981l0.749972 16.07084-9.535365 15.749424 13.392367 87.211095 54.640858-117.156428 83.032677-2.839182c42.855575 40.552088 70.390282 136.12002 63.640528 198.207034h-462.840209c1.124959-54.747997 11.196019-148.280289 65.729738-195.742838l74.997256 0.696403 70.283143 115.92433 13.017381-86.407553-9.535365-15.749424 0.749972-16.07084a289.971534 289.971534 0 0 1 41.730616 0z m62.087014-228.366645c-32.998793 6.481906-82.121995 11.999561-120.95986-9.749644-14.945882-8.410407-36.802225 8.838962-54.694428 7.07117a134.352227 134.352227 0 0 0-11.999561 35.730836l-1.98207 10.713894-10.713894-1.01782a15.053021 15.053021 0 0 0-6.160489 0.803542 23.409858 23.409858 0 0 0-2.892751 1.124959 83.086246 83.086246 0 0 0 4.928391 28.659665 19.017161 19.017161 0 0 0 11.196019 11.999561l6.214059 1.982071 1.714223 6.214058a236.562774 236.562774 0 0 0 19.231439 52.230232 68.51535 68.51535 0 0 0 30.802444 30.856014c5.624794 2.571334 23.677705 4.01771 42.534158 4.339127 20.034981 0.321417 40.069963-0.803542 46.605438-3.214168a65.890446 65.890446 0 0 0 33.802335-29.945333 219.634822 219.634822 0 0 0 20.838523-54.587289l1.607084-5.99978 5.892642-1.982071a19.820703 19.820703 0 0 0 10.713893-12.374547 82.496982 82.496982 0 0 0 4.767683-28.23111 19.767134 19.767134 0 0 0-2.624904-1.01782 16.070841 16.070841 0 0 0-5.99978-0.910681l-10.338908 0.642834-1.98207-10.178199a133.227269 133.227269 0 0 0-10.713894-32.998793z m0 0M1131.869303 418.591828H895.681516v113.94226q0 23.624136 23.24915 23.624136h195.046435a31.123861 31.123861 0 0 0 20.945662-6.856892q10.713894-10.713894 13.338798-73.122325l26.784734 8.356837q-5.731933 70.497421-18.267189 85.336164a53.569469 53.569469 0 0 1-35.034432 12.963811h-210.474443q-42.855575 0-42.855574-44.944784V337.434083h27.427568v54.855136h208.331663V292.864285h-256.651324v-26.784734h284.346739z m283.918184-88.014637h27.802555v42.266311a276.632736 276.632736 0 0 1-16.392258 87.586081h124.227598v25.499067H1415.305362a164.29756 164.29756 0 0 1-12.160269 18.642175 807.934726 807.934726 0 0 1 146.244649 69.318893l-15.213729 23.677705a792.828136 792.828136 0 0 0-147.423178-73.925867q-46.069743 44.944784-144.637565 71.62238l-14.892312-23.24915q105.531853-28.177541 146.673205-73.925866l8.731823-12.16027h-163.386879v-25.606206h177.529219a234.205717 234.205717 0 0 0 18.695745-87.586081z m125.406127-44.944784v76.122215h-27.802555V311.238613H1258.346819v52.551649h-27.856124V285.685976h144.637566a326.773759 326.773759 0 0 0-16.392258-38.891434l28.981083-4.606974a392.342789 392.342789 0 0 1 14.463756 43.444839h139.280619z m-263.990342 98.674961A395.878373 395.878373 0 0 1 1355.307557 424.698748l-14.035201 21.695634a323.184604 323.184604 0 0 0-77.836437-41.891324z m22.927733-57.908595a386.503716 386.503716 0 0 1 76.122215 39.212851l-13.660215 21.749204a336.309124 336.309124 0 0 0-75.800798-41.516338z m411.413519 245.294597v22.499176h-27.427568v-134.459366q-34.28446 11.035311-74.997256 20.945662l-14.463757-26.302609q100.174906-20.945662 164.565408-53.569468a443.394492 443.394492 0 0 0-68.51535-45.748327l23.624135-14.838742a556.747488 556.747488 0 0 1 68.140364 48.212521q58.283582-34.659446 84.961178-81.532731h-140.941272a395.18197 395.18197 0 0 1-99.049948 64.283362l-18.267189-23.624135q97.282155-41.569908 131.834463-102.531963l30.052472 3.428446a266.13312 266.13312 0 0 1-20.517107 32.141681h148.601706v24.374108q-41.141352 78.479272-148.280289 127.977461h158.833475v160.708406h-27.748985v-22.499177z m170.297341-26.784735V458.876069h-170.136633v86.139705z m0 0" p-id="16621"></path></svg>