<?xml version="1.0" encoding="UTF-8"?>
<svg width="27px" height="27px" viewBox="0 0 27 27" version="1.1" xmlns="http://www.w3.org/2000/svg" xmlns:xlink="http://www.w3.org/1999/xlink">
    <!-- Generator: Sketch 52.4 (67378) - http://www.bohemiancoding.com/sketch -->
    <title>个人中心--代理中心--返点收入</title>
    <desc>Created with Sketch.</desc>
    <g id="蓝色" stroke="none" stroke-width="1" fill="none" fill-rule="evenodd">
        <g id="个人中心" transform="translate(-219.000000, -632.000000)" fill="#6B89FE">
            <g id="个人中心--代理中心--返点收入" transform="translate(219.000000, 632.000000)">
                <path d="M7.11374404,10.5481733 C7.11374404,8.91785512 8.25623566,7.59639599 9.66717855,7.59639599 C11.0782203,7.59639599 12.219031,8.91617421 12.219031,10.5481733 C12.219031,12.1803042 11.0764076,13.4982697 9.66717855,13.4982697 C8.25804841,13.4982697 7.11374404,12.1784914 7.11374404,10.5481733 Z M10.9431542,10.5481733 C10.9431542,9.64193194 10.3726994,8.90770374 9.66717855,8.90770374 C8.96343746,8.90770374 8.39130175,9.64193194 8.39130175,10.5481733 C8.39130175,11.4528655 8.96343746,12.1869949 9.66717855,12.1869949 C10.3726994,12.1869949 10.9431542,11.4528655 10.9431542,10.5481733 Z M19.8778844,15.793668 C19.8778844,17.4239861 18.7352609,18.7454452 17.3260319,18.7454452 C15.915089,18.7454452 14.7709165,17.4239861 14.7709165,15.793668 C14.7709165,14.1632509 15.9167699,12.8434727 17.3276798,12.8434727 C18.7369418,12.8434727 19.8778844,14.1648989 19.8778844,15.7935361 L19.8778844,15.793668 Z M16.0501551,15.793668 C16.0501551,16.6999093 16.6222908,17.4340386 17.3276798,17.4340386 C18.0332337,17.4340386 18.6036885,16.6999093 18.6036885,15.793668 C18.6036885,14.8889757 18.0332337,14.1531984 17.3276798,14.1531984 C16.6222908,14.1531984 16.0501551,14.8889757 16.0501551,15.793668 Z M9.75161957,18.851804 L16.1344643,7.49007018 L17.2400088,8.14654803 L10.8570323,19.506601 L9.75161957,18.851804 Z M13.5000824,27 C10.2613309,27 7.29940222,25.847357 4.97539548,23.9435778 C4.57705271,23.5470478 4.25131867,23.09808 4.63951006,22.6760726 C5.27242221,21.9858447 6.00150879,22.8566881 6.00150879,22.8566881 C8.05719611,24.5072101 10.6613546,25.4979254 13.5017303,25.4979254 C20.1310097,25.4979254 25.5013861,20.124319 25.5013861,13.4982697 C25.5013861,6.87067123 20.1293288,1.49874573 13.5017303,1.49874573 C6.87400009,1.49874573 1.50207459,6.87067123 1.50207459,13.4982697 C1.50207459,15.6873421 2.097776,17.7328451 3.12056045,19.4980975 C3.12056045,19.4980975 3.27246859,20.0702332 2.7425534,20.2845987 C1.97793698,20.5934578 1.42277517,19.4980975 1.42277517,19.4980975 C0.519763818,17.6906246 0,15.6586348 0,13.5000824 C0,6.0437293 6.04541021,0 13.5000824,0 C20.9562707,0 27,6.0437293 27,13.5000824 C27,20.9562707 20.9562707,27 13.5000824,27 Z" id="Fill-1"></path>
            </g>
        </g>
    </g>
</svg>