<?xml version="1.0" encoding="UTF-8"?>
<svg width="46px" height="45px" viewBox="0 0 46 45" version="1.1" xmlns="http://www.w3.org/2000/svg" xmlns:xlink="http://www.w3.org/1999/xlink">
    <!-- Generator: Sketch 52.4 (67378) - http://www.bohemiancoding.com/sketch -->
    <title>已领取</title>
    <desc>Created with Sketch.</desc>
    <defs>
        <polygon id="path-1" points="0.00339066339 0.0514355112 45.9472553 0.0514355112 45.9472553 44.9999531 0.00339066339 44.9999531"></polygon>
    </defs>
    <g id="页面-1" stroke="none" stroke-width="1" fill="none" fill-rule="evenodd">
        <g id="领红包" transform="translate(-301.000000, -571.000000)">
            <g id="已领取" transform="translate(301.000000, 571.000000)">
                <path d="M15.7005225,13.2990342 L16.5803545,13.5197206 C19.1469928,11.6277117 22.5204376,10.852429 25.8646161,11.6904722 C29.2087387,12.5285153 31.8029645,14.7994134 33.1511672,17.6724906 L34.0309992,17.8930108 C32.6733395,14.5884209 29.8024561,11.9438405 26.0407728,11.0012705 C22.2790895,10.0585342 18.4831038,11.0322352 15.7005225,13.2990342 Z M14.6036284,9.37132664 L15.8253095,9.73354253 L16.0498141,10.9417782 L16.6666422,9.84671076 L17.891401,10.0349367 L17.1023333,9.1042762 L17.5831828,7.9036294 L16.4839384,8.35369885 L15.5512258,7.49377539 L15.632757,8.77302509 L14.6036284,9.37132664 Z M21.2810177,8.51749643 L21.0816943,9.75819249 L22.0664481,8.92818134 L23.2020094,9.54808622 L22.7512655,8.37186781 L23.6402746,7.3916304 L22.405891,7.42907618 L21.7903499,6.26908796 L21.4257258,7.52623578 L20.2093048,7.73157824 L21.2810177,8.51749643 Z M12.308052,31.9076471 L11.1366214,31.4952451 L11.1196101,30.2417532 L10.3396636,31.1981715 L9.08737332,30.940261 L9.70705528,31.9517955 L9.01960784,33.0384986 L10.2563977,32.7221482 L11.0100997,33.6365231 L11.1637612,32.3540606 L12.308052,31.9076471 Z M33.6559109,14.5010105 L34.8445766,14.9166808 L34.8672957,16.1641348 L35.6527261,15.2163578 L36.9220277,15.4790322 L36.2896432,14.4696579 L36.9803922,13.3923163 L35.7294449,13.7008562 L34.9619771,12.7877 L34.8126804,14.0628506 L33.6559109,14.5010105 Z M26.0497261,8.06980889 L25.4481746,9.14150041 L26.6285585,8.70378364 L27.4563493,9.64480269 L27.4423598,8.41878582 L28.5853635,7.81228608 L27.4449898,7.44165043 L27.2749326,6.17647059 L26.5168658,7.20905453 L25.3360342,6.99806198 L26.0497261,8.06980889 Z M29.5862333,11.1802458 L30.8466375,11.1687794 L31.29934,12.3330883 L31.7096261,11.1763682 L32.9926934,10.9935154 L32.0499643,10.2591129 L32.3269018,9.01298827 L31.2579868,9.72639682 L30.2212478,9.12809526 L30.5215759,10.3770449 L29.5862333,11.1802458 Z M16.7602044,34.8413244 L15.4596221,34.8508521 L14.9901322,33.6564647 L14.5688783,34.8413244 L13.2446816,35.0267807 L14.219139,35.7810694 L13.9356544,37.0588235 L15.0375289,36.3291848 L16.1086262,36.9443259 L15.7962671,35.6631374 L16.7602044,34.8413244 Z" id="Fill-1" fill="#FFFFFF"></path>
                <g id="分组">
                    <mask id="mask-2" fill="white">
                        <use xlink:href="#path-1"></use>
                    </mask>
                    <g id="Clip-3"></g>
                    <path d="M41.9579337,27.2275983 C44.612371,16.9707494 38.2645971,6.55059582 27.7798182,3.95408477 C17.2950393,1.35707617 6.64355283,7.56685504 3.98911548,17.8237039 C1.33484767,28.0805528 7.68239558,38.5009275 18.1671744,41.0974386 C28.6517838,43.694226 39.3036658,37.4844472 41.9579337,27.2275983 Z M18.2857346,40.6388145 C8.05988943,38.1061548 1.86904668,27.9434521 4.45776167,17.9396867 C7.04687224,7.93636364 17.4354128,1.87988329 27.661258,4.41232187 C37.8873292,6.94514742 44.078172,17.1078501 41.4892875,27.1113943 C38.9005725,37.1151597 28.5120319,43.17164 18.2857346,40.6388145 Z" id="Fill-2" fill="#FFFFFF" mask="url(#mask-2)"></path>
                    <path d="M45.2393047,28.0401966 C48.3524988,16.010602 40.9076192,3.78972973 28.6107002,0.743992629 C16.3138378,-2.30152334 3.82110811,4.98156634 0.707914005,17.0111057 C-2.40522359,29.0409214 5.03965602,41.2617936 17.3365184,44.3073096 C29.6334373,47.3530467 42.1258845,40.069957 45.2393047,28.0401966 Z M17.7519877,42.7024017 C6.36082801,39.8812224 -0.535329238,28.5608477 2.348543,17.417543 C5.23235872,6.27418305 16.8042973,-0.472223587 28.1955135,2.34890049 C39.5862211,5.17007985 46.4825479,16.4904545 43.5987322,27.6339803 C40.7146904,38.7771192 29.1429214,45.5237469 17.7519877,42.7024017 Z" id="Fill-4" fill="#FFFFFF" mask="url(#mask-2)"></path>
                </g>
                <path d="M31.5686275,36.155346 L30.3178831,35.7956368 L30.0803332,34.6174903 L29.4572349,35.6802502 L28.2043009,35.4890955 L29.0168889,36.4002648 L28.532862,37.5661627 L29.6535743,37.1349127 L30.6121957,37.977739 L30.5207353,36.7320081 L31.5686275,36.155346 Z M20.3689718,36.8059335 L19.1816153,37.2331187 L18.3479729,36.3117602 L18.3629075,37.5115316 L17.2132243,38.1041277 L18.3607178,38.4678475 L18.5333079,39.7058824 L19.2949723,38.696236 L20.4834517,38.9033249 L19.7643453,37.8540601 L20.3689718,36.8059335 Z M30.174657,32.7442601 L29.2890242,32.5279034 C26.7076972,34.3771783 23.3135576,35.1336137 19.9481082,34.3111115 C16.5820411,33.4884467 13.9697782,31.2642331 12.611123,28.4518676 L11.7254902,28.2352941 C13.0942515,31.4701838 15.9852749,34.0600142 19.7711388,34.9854375 C23.5567782,35.9105899 27.3763853,34.9604525 30.174657,32.7442601 Z M24.8748405,37.4512097 L25.0705061,36.266451 L24.1068317,37.0593071 L22.9966185,36.4675782 L23.4365715,37.5904974 L22.5674454,38.5262725 L23.7743404,38.4900685 L24.3763282,39.5974872 L24.7331864,38.3975533 L25.9229572,38.2008703 L24.8748405,37.4512097 Z" id="Fill-5" fill="#FFFFFF"></path>
                <path d="M14.5021732,19.4982057 L15.1630444,16.9286865 L12.2342811,16.1554426 C10.6744006,15.7437041 9.24885867,15.41607 8.49081714,15.2887365 L8.79179005,14.1176471 C9.41396317,14.3546895 10.8580892,14.7966826 12.6085142,15.2586541 C14.5274431,15.7652325 15.8520186,16.066401 16.5345903,16.1615279 C16.3960589,16.5135609 16.2074975,17.1074012 16.0058479,17.89184 L15.5554651,19.6428193 C15.4151773,20.1886656 15.302709,20.7659147 15.2155107,21.337997 L14.1047099,21.0446362 L14.2799564,20.3624432 L9.20789418,19.0234319 L8.459598,21.9342485 C8.24027079,22.7868894 8.26814704,22.8185218 9.55804715,23.2075837 C10.4694081,23.4845255 11.3894945,23.7276532 12.2705995,23.9359911 C13.9431183,24.328842 14.0504872,24.284235 14.9514795,22.7373453 C15.0989064,23.1889831 15.3742128,23.5168468 15.7825546,23.7460242 C14.6635382,25.4418333 14.4123119,25.5333435 11.9996559,24.8964463 C11.1582123,24.6742155 10.0892258,24.4042202 9.26766948,24.1508162 C7.05796623,23.4704028 7.00572658,23.3473176 7.41208534,21.7669582 L8.25109267,18.5036494 C8.46158107,17.6851096 8.55478522,17.0903507 8.56294412,16.8255223 C8.92148264,16.9685859 9.3869368,17.1157256 9.76009335,17.2022986 C9.96502916,17.2442073 9.96060976,17.4009343 9.79131249,17.453234 C9.63612333,17.4973817 9.58212725,17.5680523 9.52371176,17.79545 L9.430111,18.1593667 L14.5021732,19.4982057 Z M20.9292368,23.2105115 L19.9978752,22.9645133 C19.271506,22.7606534 18.6424772,22.6431368 17.993561,22.5567934 L18.2567423,21.5335326 C18.6993629,21.7232699 19.1198864,21.8584684 20.2756745,22.1636555 C21.431406,22.4689 21.9311389,22.5763126 22.3974996,22.6267752 L19.8460856,25.8385306 C19.9797443,26.2502691 20.0945922,26.5960445 20.1262646,26.7988136 L19.1473661,27.1109472 C18.9426002,25.9035752 18.6925071,25.0119535 18.2706805,24.1355453 L19.0838512,23.8160059 C19.1830046,24.0364571 19.3503188,24.4571514 19.5174064,24.9260694 L20.9292368,23.2105115 Z M23.3011549,20.2306317 L22.3979529,20.8542674 C22.168427,20.1622 21.7153812,19.3140945 21.2523634,18.6453352 C20.2842867,19.5677282 19.634464,20.1368826 18.5893877,20.8928464 C18.4441705,20.47818 18.2558358,20.1855081 18.0245535,19.9666644 C19.4118505,19.3252893 20.2028676,18.6720305 21.4234171,16.9544632 C21.6907912,17.2192917 22.1208334,17.5512315 22.4121176,17.6767853 C22.5409037,17.735113 22.5145572,17.8373587 22.3682635,17.8472331 C22.2472398,17.851711 22.0493297,17.9694572 21.8625248,18.0900738 C22.3510392,18.7534367 22.8330378,19.4876424 23.3011549,20.2306317 Z M20.3369796,21.6456527 C20.35885,21.1415429 20.3050806,20.6051117 20.1492682,20.1391215 L21.1067496,20.003234 C21.133266,20.4595795 21.197914,21.0473344 21.3229606,21.493174 L20.3369796,21.6456527 Z M25.5008862,23.652275 C25.2373082,24.4448085 24.8849455,25.3960782 24.6921914,25.8185522 C24.1432785,27.0215037 23.1112904,27.5868117 21.0580228,27.8826411 C20.9832328,27.4742324 20.8318398,27.1309256 20.6020874,26.7664923 C22.1675205,26.8763734 23.4279579,26.5413335 24.0233312,25.2050205 C24.4259505,24.2914112 24.6744571,23.3248706 24.7756502,22.4652832 C25.1957205,22.6491648 25.6193036,22.7729963 25.89444,22.8213923 C25.9645839,22.8277073 25.9951231,22.8965408 25.8877542,22.9409181 C25.8056552,22.9799564 25.5619646,23.4621359 25.5008862,23.652275 Z M23.2706157,19.0447307 L23.5103401,18.1122912 C24.1884357,18.3641451 25.0131083,18.6061248 26.326012,18.9528187 C27.6052602,19.2905567 28.4637583,19.4928092 29.1770958,19.6083164 L28.937428,20.540756 C27.987029,20.2290243 27.5215748,20.081942 26.5227323,19.8182043 C26.3335477,20.1810302 26.1210762,20.6349644 25.9422036,21.0975674 C26.9295443,21.3583772 27.1907426,21.4150975 28.0941712,21.6292911 C28.001647,21.8961288 27.9113325,22.2004548 27.7125725,22.9734691 L27.1484182,25.1678194 C27.013853,25.6907594 26.9193457,26.1515828 26.8503349,26.6068374 L25.8853179,26.3520555 L26.947052,22.1764578 L24.0744944,21.4180254 L22.9346275,25.8037981 L22.0256462,25.5638278 C22.1876911,25.1209161 22.3323983,24.6977532 22.4698532,24.1633314 L23.08959,21.7528356 C23.3029113,20.9228714 23.3560575,20.6699266 23.392546,20.3880476 C23.7121597,20.4967806 24.2367093,20.64725 24.9549195,20.8369873 C25.2001399,20.4887433 25.4185605,20.0121899 25.5467233,19.5603224 C24.7049964,19.3383212 23.7759011,19.1295241 23.2706157,19.0447307 Z M26.0396005,28.9668705 C25.6403241,28.0965477 25.2021229,27.4711323 24.6541165,26.8528356 L25.4123847,26.3731821 C25.9942166,27.000205 26.5276049,27.6751644 27.0322672,28.4154555 L26.0396005,28.9668705 Z M32.5348249,30.8759547 L31.4463477,30.5884496 C31.6920214,29.9128012 31.8748035,29.3418671 32.0556592,28.6854508 C29.7675965,28.5426168 29.0161841,28.5751104 28.3856254,28.6513498 C28.4600188,28.2219293 28.4750901,27.8373453 28.4427378,27.4038487 C28.8105684,27.464358 29.1589649,27.5078741 29.5044718,27.5625851 L31.1619193,21.1159384 C30.7859298,21.0408472 30.5302841,21.0099037 30.282854,20.9930828 L30.5342502,20.0153474 C30.8421355,20.1693762 31.2934249,20.3250124 32.9429401,20.7605183 C34.603787,21.198952 35.1400084,21.303896 35.5054593,21.3276633 L35.2540064,22.3053987 C35.0831227,22.2239926 34.8981309,22.1509107 34.6796535,22.0688156 L33.1797749,27.9014713 C33.5369536,27.9108864 33.8379832,27.9052603 34.0604267,27.8790244 C33.8946423,28.151029 33.8045544,28.4548956 33.7532213,28.7935523 C33.4692461,28.7794296 33.2107675,28.7596809 32.9635073,28.74286 C32.7705266,29.4931977 32.6605513,30.1078776 32.5348249,30.8759547 Z M32.6227031,26.4796761 L30.8272909,26.0055913 L30.3974753,27.6770015 C31.0831632,27.7608763 31.7152516,27.8184577 32.2689806,27.8554866 L32.6227031,26.4796761 Z M33.2133738,24.1828505 L31.4177916,23.7087656 L31.0231612,25.2438291 L32.8185735,25.717914 L33.2133738,24.1828505 Z M33.8213821,21.8178802 L32.0259699,21.344025 L31.6138886,22.9470035 L33.4092441,23.4210883 L33.8213821,21.8178802 Z M35.3593356,22.7339581 L35.5904479,21.8356196 C36.2070117,22.0470575 36.9000087,22.2421913 37.7527842,22.4672926 C38.5944545,22.6893512 39.0685208,22.8023324 39.6862745,22.9169785 C38.4519003,26.039233 37.5128331,27.7339514 36.5346144,28.8356906 C37.053838,29.7984422 37.6228649,30.288659 38.5968908,30.7885205 C38.0495643,31.2390102 37.8676321,31.4339143 37.602921,31.7647059 C36.8143402,31.0100625 36.1997027,30.2772346 35.7991232,29.5522143 C35.0758703,30.1747018 34.3432687,30.600563 33.552025,30.9744114 C33.3835776,30.650796 33.0668534,30.2514004 32.7882609,29.9836441 C33.8262548,29.6748403 34.6681517,29.2900267 35.405626,28.6589852 C35.1183646,26.9804562 35.1185346,26.3734118 35.7579887,22.8146754 C35.6205338,22.7906784 35.4859686,22.7550273 35.3593356,22.7339581 Z M36.1102947,27.9223109 C37.2060809,26.5967334 37.8373195,25.027167 38.3224343,23.4674749 C37.5706253,23.2690115 36.9982555,23.1179106 36.5352377,23.0077998 C35.9266061,25.4212234 35.8588985,27.1759918 36.1102947,27.9223109 Z" id="Fill-6" fill="#FFFFFF"></path>
            </g>
        </g>
    </g>
</svg>