<?xml version="1.0" encoding="UTF-8"?>
<svg width="113px" height="133px" viewBox="0 0 113 133" version="1.1" xmlns="http://www.w3.org/2000/svg" xmlns:xlink="http://www.w3.org/1999/xlink">
    <!-- Generator: Sketch 52.4 (67378) - http://www.bohemiancoding.com/sketch -->
    <title>分组 5</title>
    <desc>Created with Sketch.</desc>
    <defs>
        <rect id="path-1" x="0" y="0" width="105" height="98" rx="6"></rect>
        <path d="M-1.13686838e-13,-8.64019967e-12 L105,-8.64019967e-12 L105,22.3643762 C87.5036119,44.128721 70.0036119,55.007261 52.5,54.9999964 C34.9963881,54.9927317 17.4963881,44.0996653 -1.13686838e-13,22.3207971 L-1.13686838e-13,-8.64019967e-12 Z" id="path-3"></path>
        <path d="M28.0218368,3.72431135 L45.2644671,3.68489726 C45.0009172,6.19240681 45.4367012,8.34377805 46.5718191,10.139011 C48.2744958,12.8318604 53.7513941,13.8811307 55.6443743,10.1097767 C56.9063611,7.59554064 57.1292753,5.47465428 56.3131167,3.74711761 L77.0446952,3.74711761 C82.5675427,3.74711761 87.0446952,8.22427011 87.0446952,13.7471176 L87.0446952,84.7471176 C87.0446952,90.2699651 82.5675427,94.7471176 77.0446952,94.7471176 L28.0446952,94.7471176 C22.5218477,94.7471176 18.0446952,90.2699651 18.0446952,84.7471176 L18.0446952,13.7242852 C18.0446952,8.2103624 22.5079284,3.73691532 28.0218368,3.72431135 Z" id="path-5"></path>
        <filter x="-10.1%" y="-5.5%" width="120.3%" height="115.4%" filterUnits="objectBoundingBox" id="filter-6">
            <feOffset dx="0" dy="2" in="SourceAlpha" result="shadowOffsetOuter1"></feOffset>
            <feGaussianBlur stdDeviation="2" in="shadowOffsetOuter1" result="shadowBlurOuter1"></feGaussianBlur>
            <feColorMatrix values="0 0 0 0 0   0 0 0 0 0   0 0 0 0 0  0 0 0 0.14 0" type="matrix" in="shadowBlurOuter1"></feColorMatrix>
        </filter>
        <path d="M0,49 C37.3202614,73.0131041 72.3202614,73.026415 105,49.0399326 L105,125.798179 L0,125.021817 L0,49 Z" id="path-7"></path>
        <filter x="-6.7%" y="-11.7%" width="113.3%" height="118.2%" filterUnits="objectBoundingBox" id="filter-8">
            <feOffset dx="0" dy="-2" in="SourceAlpha" result="shadowOffsetOuter1"></feOffset>
            <feGaussianBlur stdDeviation="2" in="shadowOffsetOuter1" result="shadowBlurOuter1"></feGaussianBlur>
            <feColorMatrix values="0 0 0 0 0   0 0 0 0 0   0 0 0 0 0  0 0 0 0.170714447 0" type="matrix" in="shadowBlurOuter1"></feColorMatrix>
        </filter>
        <polygon id="path-9" points="1.11840649e-16 0 39.9511867 0 39.9511867 38.9553819 1.11840649e-16 38.9553819"></polygon>
    </defs>
    <g id="页面-1" stroke="none" stroke-width="1" fill="none" fill-rule="evenodd">
        <g id="领红包-3-copy-6" transform="translate(-131.000000, -413.000000)">
            <g id="分组-5" transform="translate(135.000000, 414.000000)">
                <g id="矩形-copy-16" transform="translate(0.000000, 34.000000)">
                    <mask id="mask-2" fill="white">
                        <use xlink:href="#path-1"></use>
                    </mask>
                    <use id="Mask" fill="#E54215" xlink:href="#path-1"></use>
                </g>
                <g id="矩形-copy" transform="translate(0.000000, 6.000000)">
                    <mask id="mask-4" fill="white">
                        <use xlink:href="#path-3"></use>
                    </mask>
                    <use id="Mask" fill="#D63205" transform="translate(52.500000, 27.500000) rotate(-180.000000) translate(-52.500000, -27.500000) " xlink:href="#path-3"></use>
                    <rect fill="#BB1516" opacity="0.50483631" mask="url(#mask-4)" transform="translate(56.763835, 43.246947) rotate(-11.000000) translate(-56.763835, -43.246947) " x="22.2638349" y="-2.25305281" width="69" height="91" rx="10"></rect>
                </g>
                <g id="矩形" transform="translate(52.544695, 49.216007) rotate(-6.000000) translate(-52.544695, -49.216007) ">
                    <use fill="black" fill-opacity="1" filter="url(#filter-6)" xlink:href="#path-5"></use>
                    <use fill="#FFFFFF" fill-rule="evenodd" xlink:href="#path-5"></use>
                </g>
                <path d="M74.9781274,6.49485819 L29.9781274,6.49485819 C24.7314223,6.49485819 20.4781274,10.7481531 20.4781274,15.9948582 L20.4781274,82.9948582 C20.4781274,88.2415633 24.7314223,92.4948582 29.9781274,92.4948582 L74.9781274,92.4948582 C80.2248326,92.4948582 84.4781274,88.2415633 84.4781274,82.9948582 L84.4781274,15.9948582 C84.4781274,10.7481531 80.2248326,6.49485819 74.9781274,6.49485819 Z" id="路径" stroke="#F5A623" transform="translate(52.478127, 49.494858) rotate(-6.000000) translate(-52.478127, -49.494858) "></path>
                <g id="路径-2">
                    <use fill="black" fill-opacity="1" filter="url(#filter-8)" xlink:href="#path-7"></use>
                    <use fill="#E54215" fill-rule="evenodd" xlink:href="#path-7"></use>
                </g>
                <text id="红包福利-copy-5" font-family="PingFang-SC-Bold, PingFang SC" font-size="14" font-weight="bold" letter-spacing="-0.409999907" fill="#FFFFFF">
                    <tspan x="24" y="118">红包福利</tspan>
                </text>
                <g id="已领取-copy" transform="translate(33.000000, 60.615116)">
                    <path d="M13.7345299,10.6120398 L14.4897293,10.8049827 C16.6927905,9.15082641 19.58837,8.47300781 22.458829,9.20569697 C25.32924,9.93838613 27.5559807,11.9237999 28.7132039,14.4356902 L29.4684033,14.6284879 C28.3030628,11.7393321 25.8388543,9.42721328 22.6100322,8.60313775 C19.3812101,7.77891692 16.1229447,8.63020981 13.7345299,10.6120398 Z M12.7930162,7.17810115 L13.8416401,7.49478133 L14.0343425,8.55112452 L14.5637938,7.5937227 L15.6150595,7.75828598 L14.9377672,6.94462277 L15.3505019,5.89491442 L14.406971,6.28840371 L13.6063818,5.53658492 L13.6763637,6.65501466 L12.7930162,7.17810115 Z M18.5245201,6.4316096 L18.3534319,7.51633244 L19.1986903,6.79066555 L20.1733937,7.33263953 L19.7864999,6.30428857 L20.5495765,5.44728101 L19.4900495,5.48001932 L18.9617029,4.46585819 L18.6487296,5.56496458 L17.6046206,5.74449255 L18.5245201,6.4316096 Z M10.8226196,26.8812842 L9.81712804,26.520727 L9.80252646,25.4248169 L9.13306329,26.2609998 L8.05816616,26.0355123 L8.59006708,26.9198825 L8,27.8699715 L9.0615924,27.5933909 L9.70852879,28.3928158 L9.84042332,27.2715772 L10.8226196,26.8812842 Z M29.1464481,11.6629104 L30.1667334,12.026325 L30.1862342,13.1169563 L30.8604044,12.2883284 L31.9499031,12.5179808 L31.4070991,11.6354994 L32,10.693595 L30.9262556,10.963347 L30.2675035,10.1649875 L30.1393554,11.2798335 L29.1464481,11.6629104 Z M22.6177172,6.04020278 L22.1013785,6.97716736 L23.1145551,6.59447784 L23.8250853,7.41719735 L23.8130774,6.34530832 L24.794169,5.81505426 L23.8153349,5.4910128 L23.6693671,4.38488415 L23.0186843,5.28765754 L22.0051234,5.10318976 L22.6177172,6.04020278 Z M25.6532605,8.7596133 L26.7351222,8.7495884 L27.1236971,9.76752703 L27.4758642,8.75622324 L28.5771786,8.59635762 L27.7679918,7.95427996 L28.0056997,6.86481104 L27.0882019,7.48853393 L26.1983221,6.96544744 L26.4561072,8.05738626 L25.6532605,8.7596133 Z M14.6441025,29.4461564 L13.5277542,29.4544862 L13.1247698,28.4102504 L12.7631887,29.4461564 L11.626571,29.6082982 L12.4629917,30.267762 L12.2196641,31.3848841 L13.1654525,30.7469714 L14.0848236,31.2847805 L13.8167118,30.1646557 L14.6441025,29.4461564 Z" id="Fill-1" fill="#FFBAB3"></path>
                    <g id="分组" transform="translate(0.000000, 0.384884)">
                        <mask id="mask-10" fill="white">
                            <use xlink:href="#path-9"></use>
                        </mask>
                        <g id="Clip-3"></g>
                        <path d="M36.1499098,23.2822465 C38.4581162,14.3929774 32.9383127,5.36217768 23.8211137,3.11186809 C14.7039147,0.861127307 5.44175253,6.24293566 3.13354615,15.1322047 C0.825487179,24.0214737 6.34509406,33.0524651 15.4622931,35.3027747 C24.5793447,37.5533239 33.8418508,32.1715155 36.1499098,23.2822465 Z M15.5653889,34.9053005 C6.67334959,32.7103288 1.29000806,23.9026531 3.54106457,15.2327231 C5.79246507,6.56317645 14.8259786,1.31422682 23.7180179,3.50900691 C32.6102538,5.70412239 37.9935953,14.5117981 35.7423914,23.1815364 C33.4913348,31.8514664 24.4578213,37.100416 15.5653889,34.9053005 Z" id="Fill-2" fill="#FFBAB3" mask="url(#mask-10)"></path>
                        <path d="M39.3385385,24.2569262 C42.0456638,13.8312776 35.5718554,3.23985499 24.8788825,0.600216169 C14.1859586,-2.03923101 3.3227154,4.27278005 0.61559009,14.6983808 C-2.09148608,25.1242211 4.38232228,35.7156437 15.0752461,38.3550909 C25.7682191,40.9947297 36.6312166,34.6827186 39.3385385,24.2569262 Z M15.4365238,36.9641707 C5.53116749,34.5191486 -0.465490991,24.7081572 2.042224,15.0506265 C4.54988984,5.39304786 14.6124451,-0.453837885 24.5178505,1.99113632 C34.4228137,4.43615843 40.4196196,14.2471498 37.9119537,23.9048722 C35.4040913,33.5622592 25.3416835,39.4093366 15.4365238,36.9641707 Z" id="Fill-4" fill="#FFBAB3" mask="url(#mask-10)"></path>
                    </g>
                    <path d="M28,31.2895448 L26.8654315,30.9759522 L26.6499465,29.9488501 L26.0847249,30.8753587 L24.9481702,30.708711 L25.6852807,31.5030637 L25.2462128,32.5194875 L26.2628273,32.143526 L27.1324068,32.8782976 L27.0494418,31.7922758 L28,31.2895448 Z M17.8406286,31.8567237 L16.7635601,32.2291415 L16.0073509,31.4259059 L16.0208983,32.4718604 L14.9780039,32.9884826 L16.018912,33.3055717 L16.175471,34.3848841 L16.8663879,33.5046797 L17.9444749,33.6852187 L17.292163,32.770475 L17.8406286,31.8567237 Z M26.735509,28.3157775 L25.9321386,28.1271589 C23.5905791,29.7393473 20.5117054,30.3988037 17.458857,29.6817506 C14.4054484,28.9645557 12.0358265,27.0254976 10.8033704,24.5736918 L10,24.3848841 C11.2416234,27.2050444 13.864113,29.4628453 17.2983255,30.2696246 C20.7323344,31.0761676 24.1971558,30.2478427 26.735509,28.3157775 Z M21.9279679,32.4192721 L22.1054591,31.3864056 L21.2312959,32.0776134 L20.2242053,31.5617472 L20.6232931,32.5407024 L19.8348961,33.3565063 L20.9296883,33.3249439 L21.4757601,34.2903858 L21.7994715,33.2442896 L22.8787299,33.0728224 L21.9279679,32.4192721 Z" id="Fill-5" fill="#FFBAB3"></path>
                    <path d="M11.283275,16.5681556 L11.8531567,14.0928522 L9.32762886,13.3479605 C7.9825145,12.9513191 6.75324287,12.6356983 6.09956937,12.5130336 L6.35910398,11.3848841 C6.89561558,11.613235 8.1409127,12.0390217 9.6503371,12.4840543 C11.3050657,12.9720581 12.4472721,13.2621837 13.0358665,13.3538227 C12.9164082,13.6929478 12.7538082,14.265014 12.579922,15.02069 L12.1915484,16.7074668 C12.0705756,17.2332987 11.9735921,17.789382 11.8983994,18.3404879 L10.9405349,18.0578837 L11.0916532,17.4007044 L6.71791841,16.1107902 L6.07264852,18.9148769 C5.88351853,19.7362542 5.90755675,19.7667268 7.01986192,20.1415231 C7.80574563,20.4083103 8.5991535,20.6425234 9.35894695,20.8432222 C10.8011914,21.2216686 10.8937776,21.1786972 11.6707203,19.6885267 C11.7978492,20.1236045 12.0352511,20.4394466 12.3873719,20.6602208 C11.422423,22.2938503 11.2057859,22.3820051 9.12530717,21.7684608 C8.39971444,21.5543784 7.47790729,21.2942829 6.76946378,21.0501704 C4.86399503,20.3947055 4.8189478,20.2761334 5.16935861,18.7537206 L5.89285044,15.6100664 C6.07435855,14.8215397 6.15473025,14.2485887 6.16176582,13.9934706 C6.47094034,14.1312886 6.87231023,14.2730331 7.19409016,14.3564318 C7.37081017,14.3968038 7.36699924,14.5477842 7.22101102,14.5981663 C7.08718848,14.6406952 7.04062664,14.7087746 6.99025386,14.9278343 L6.90954016,15.2784074 L11.283275,16.5681556 Z M16.825453,20.1443436 L16.0223223,19.9073653 C15.3959605,19.7109802 14.8535371,19.5977726 14.2939644,19.5145952 L14.5209106,18.5288539 C14.9025907,18.7116341 15.2652161,18.8418754 16.2618739,19.1358723 C17.2584829,19.4299245 17.689412,19.5333986 18.0915637,19.5820109 L15.8914313,22.676002 C16.0066877,23.0726434 16.1057232,23.4057403 16.1330349,23.6010746 L15.2889123,23.9017633 C15.1123388,22.7386616 14.8966789,21.8797327 14.5329298,21.0354595 L15.2341423,20.7276365 C15.3196441,20.9400045 15.4639222,21.3452734 15.608005,21.7969977 L16.825453,20.1443436 Z M18.8708027,17.273726 L18.0919545,17.8744951 C17.8940301,17.2078035 17.5033601,16.3907952 17.1040911,15.7465571 C16.2693004,16.6351289 15.708946,17.1834144 14.807757,17.9116595 C14.6825335,17.5121976 14.5201289,17.230257 14.3206899,17.0194375 C15.5169822,16.4015795 16.1990912,15.7722735 17.2515939,14.1176837 C17.4821557,14.3728018 17.8529892,14.6925704 18.1041691,14.8135206 C18.2152237,14.8697097 18.1925046,14.9682064 18.0663528,14.9777187 C17.9619918,14.9820324 17.7913302,15.0954612 17.6302448,15.2116553 C18.0515,15.8506948 18.4671364,16.5579797 18.8708027,17.273726 Z M16.3147385,18.6368629 C16.3335977,18.1512371 16.2872313,17.6344751 16.1528713,17.1855712 L16.9785256,17.0546663 C17.0013912,17.494279 17.0571384,18.060483 17.1649684,18.4899751 L16.3147385,18.6368629 Z M20.7676724,20.5699091 C20.5403841,21.333383 20.2365352,22.2497728 20.0703197,22.6567561 C19.5969817,23.8155994 18.7070789,24.3601795 16.9365076,24.6451618 C16.8720148,24.251728 16.7414658,23.9210091 16.5433459,23.5699384 C17.8932483,23.6757905 18.9801472,23.3530355 19.4935489,22.0657206 C19.8407351,21.1856103 20.0550271,20.2545095 20.1422877,19.4264403 C20.5045222,19.6035796 20.8697859,19.7228706 21.1070412,19.769492 C21.1675277,19.7755755 21.1938622,19.8418852 21.101276,19.8846353 C21.0304805,19.9222421 20.8203415,20.3867417 20.7676724,20.5699091 Z M18.8444681,16.1313081 L19.051187,15.233058 C19.6359216,15.4756773 20.3470524,15.7087843 21.4791939,16.0427661 C22.5823138,16.3681205 23.3226128,16.562957 23.9377372,16.674229 L23.7310671,17.5724791 C22.9115201,17.2721775 22.5101502,17.1304883 21.6488295,16.876421 C21.4856921,17.2259433 21.3024739,17.6632332 21.1482287,18.1088741 C21.9996312,18.3601209 22.2248674,18.4147614 23.0039109,18.6211012 C22.9241255,18.8781549 22.8462456,19.1713223 22.6748511,19.9159927 L22.1883703,22.0298835 C22.0723322,22.5336491 21.9908367,22.9775755 21.9313275,23.4161375 L21.0991751,23.1706977 L22.0147284,19.1482051 L19.5376679,18.4175819 L18.5547391,22.642543 L17.7709075,22.4113716 C17.9106418,21.9847 18.0354256,21.5770531 18.1539555,21.0622267 L18.6883662,18.7401158 C18.8723173,17.9405836 18.9181462,17.6969135 18.9496109,17.42537 C19.2252198,17.5301161 19.6775488,17.6750683 20.296875,17.8578485 C20.5083332,17.5223735 20.6966814,17.0632937 20.8071986,16.6279947 C20.0813616,16.4141335 19.2801853,16.2129923 18.8444681,16.1313081 Z M21.2322159,25.6896361 C20.8879123,24.8512251 20.5100432,24.2487416 20.037487,23.6531158 L20.6913559,23.1910496 C21.1930805,23.7950816 21.6530313,24.4452926 22.0882111,25.1584397 L21.2322159,25.6896361 Z M26.8331703,27.5287205 L25.8945559,27.2517573 C26.1064049,26.6008827 26.2640214,26.0508828 26.4199767,25.4185351 C24.4469371,25.2809384 23.79898,25.3122405 23.2552374,25.3856844 C23.3193882,24.9720093 23.3323844,24.6015268 23.3044864,24.1839251 C23.6216737,24.2422157 23.9221026,24.2841362 24.2200397,24.3368411 L25.6492879,18.1265714 C25.325065,18.0542336 25.104617,18.0244247 24.8912533,18.0082205 L25.108037,17.0663355 C25.3735323,17.2147165 25.7626877,17.3646461 27.1850957,17.7841834 C28.6172753,18.2065413 29.0796691,18.3076373 29.3948043,18.3305332 L29.1779717,19.2724183 C29.0306154,19.193997 28.8710935,19.1235948 28.6826964,19.0445098 L27.3893228,24.6633015 C27.6973248,24.6723714 27.9569082,24.6669516 28.1487254,24.6416776 C28.0057664,24.9037087 27.9280819,25.1964336 27.8838164,25.5226728 C27.6389392,25.509068 27.4160483,25.4900434 27.2028312,25.4738393 C27.0364203,26.1966646 26.9415865,26.7888062 26.8331703,27.5287205 Z M26.9089493,23.2936388 L25.3607315,22.8369371 L24.9900934,24.4470623 C25.581375,24.5278617 26.1264368,24.5833317 26.6039277,24.6190029 L26.9089493,23.2936388 Z M27.4182957,21.0810301 L25.8699314,20.6243284 L25.5296342,22.1031062 L27.077852,22.5598079 L27.4182957,21.0810301 Z M27.9425928,18.8027754 L26.394375,18.3462949 L26.0390295,19.8904975 L27.5871984,20.3471992 L27.9425928,18.8027754 Z M29.268799,19.6852638 L29.4680915,18.8198644 C29.9997662,19.0235496 30.5973505,19.2115284 31.3327148,19.428376 C32.058503,19.6422925 32.4672993,19.751131 33,19.8615734 C31.9355758,22.8693453 31.1258005,24.501924 30.2822641,25.5632661 C30.7300004,26.4907168 31.2206831,26.962959 32.0606039,27.4444923 C31.588634,27.878464 31.4317504,28.0662216 31.203485,28.3848841 C30.5234769,27.657911 29.9934635,26.9519535 29.6480362,26.2535173 C29.0243616,26.8531802 28.3926254,27.2634265 27.710321,27.6235671 C27.5650657,27.3118176 27.2919485,26.9270666 27.0517129,26.669128 C27.9467946,26.3716469 28.6727782,26.0009432 29.3087162,25.3930399 C29.0610052,23.776057 29.0611518,23.1912708 29.6125651,19.7630214 C29.4940352,19.7399043 29.3779971,19.7055604 29.268799,19.6852638 Z M29.9163653,24.6833769 C30.8612823,23.406404 31.4056112,21.8943883 31.8239349,20.391885 C31.1756358,20.2006985 30.6820706,20.055138 30.2828016,19.9490646 C29.7579671,22.2739961 29.6995816,23.9644229 29.9163653,24.6833769 Z" id="Fill-6" fill="#FFBAB3"></path>
                </g>
                <path d="M39.049355,7.30288625 C39.049355,11.7211642 42.631077,15.3028862 47.049355,15.3028862 C51.467633,15.3028862 55.049355,11.7211642 55.049355,7.30288625" id="路径" stroke="#F5A623" transform="translate(47.049355, 11.302886) rotate(-6.000000) translate(-47.049355, -11.302886) "></path>
                <circle id="椭圆形" fill="#F5A623" transform="translate(67.121474, 25.742228) rotate(-6.000000) translate(-67.121474, -25.742228) " cx="67.1214743" cy="25.7422282" r="5.5"></circle>
                <text id="元" transform="translate(67.121474, 25.742228) rotate(-6.000000) translate(-67.121474, -25.742228) " font-family="PingFang-SC-Bold, PingFang SC" font-size="7" font-weight="bold" letter-spacing="-0.128124937" fill="#FFFFFF">
                    <tspan x="63.6214743" y="28.2422282">元</tspan>
                </text>
            </g>
        </g>
    </g>
</svg>