<?xml version="1.0" encoding="UTF-8"?>
<svg width="26px" height="25px" viewBox="0 0 26 25" version="1.1" xmlns="http://www.w3.org/2000/svg" xmlns:xlink="http://www.w3.org/1999/xlink">
    <!-- Generator: Sketch 52.4 (67378) - http://www.bohemiancoding.com/sketch -->
    <title>hongbao</title>
    <desc>Created with Sketch.</desc>
    <g id="页面-1" stroke="none" stroke-width="1" fill-rule="evenodd">
        <g id="个人中心" transform="translate(-306.000000, -670.000000)">
            <g id="hongbao" transform="translate(306.000000, 670.000000)">
                <g id="分组">
                    <path d="M0,1.2749191 C0,1.73046188 0.242899518,2.15137985 0.637510094,2.37923213 C1.03195884,2.60692262 1.51804107,2.60692262 1.91265165,2.37923213 C2.3071004,2.15137985 2.55016174,1.73046188 2.54999992,1.2749191 C2.55016174,0.819538122 2.3071004,0.398620155 1.91265165,0.170767867 C1.51804107,-0.0569226224 1.03195884,-0.0569226224 0.637510094,0.170767867 C0.242899518,0.398620155 0,0.819538122 0,1.2749191 Z" id="Fill-1"></path>
                </g>
                <path d="M17.5,24.7669678 L4.07228369,24.7669678 C1.78591052,24.7642273 0.60507761,23.2493913 0.602172852,21.0923038 L0.602172852,5.30575206 C0.572328797,4.88618944 0.723266602,4.17700195 1.43688965,4.17700195 C2.1505127,4.17700195 2.25451017,4.88618944 2.22485352,5.30575206 L2.22485352,21.087309 C2.22775827,22.0027706 3.17426438,23.2056504 4.14459439,23.2084351 L17.5723107,23.2084351 C20.9084262,23.2029098 23.9941436,20.1913404 24,17.0438693 L24,3.91269102 C24,2.99532876 22.8304396,2.00274051 21.858095,2 L5.59969117,2 C4.97273177,1.96043947 4.5,1.59292172 4.5,1 C4.5,0.407078285 4.97273177,0.390494636 5.59969117,0.350978309 L21.858095,0.350978309 C23.3881836,0.350978309 25.6346685,1.75560345 25.6375732,3.91269102 L25.6375732,17.0488641 C25.6317169,21.4386684 22.1529083,24.7587021 17.5,24.7669678 Z" id="Fill-3"></path>
                <path d="M15.2377988,14.5499589 L10.1200505,14.5499589 C9.76830338,14.5766837 9,14.2820113 9,13.7756637 C9,13.269316 9.53978192,12.9751138 9.89152903,13.001655 L15.0092773,13.001655 C15.5009274,13.038987 16.0073242,13.2396313 16.0073242,13.7457956 C16.0073242,14.2521895 15.7294489,14.5128105 15.2377988,14.5499589 Z M15.1279426,17.5679391 L10.0101943,17.5679391 C9.65844716,17.5944803 9,17.4912408 9,16.784929 C9,15.9237065 9.65844716,15.9923257 10.0101943,16.0188669 L15.1279426,16.0188669 C15.6195927,16.0560153 16,16.2730467 16,16.779211 C16,17.2854212 15.6195927,17.5307907 15.1279426,17.5679391 Z" id="Fill-4"></path>
                <path d="M12.2603769,20.7504272 C11.7065945,20.7504272 11.5,20.1117516 11.5,19.5978587 L11.5,13.4527444 C11.5384909,12.9667896 11.8308656,12.6489864 12.3560181,12.6489864 C12.8811229,12.6489864 13.0658316,13.0836253 13.1043701,13.5695801 L13.1043701,19.7146944 C13.1043701,20.2265539 12.811968,20.7476865 12.2603769,20.7504272 Z" id="Fill-5"></path>
                <path d="M12.3817552,14.4415808 C12.1215779,14.4427034 11.8716885,14.3390953 11.6878559,14.1541911 L8.26630765,10.7161792 C7.92843558,10.325883 7.83705742,10.0551763 8.26630765,9.59301806 C8.69555789,9.13085985 9.26027906,9.53195437 9.6486597,9.87145219 L12.3817552,12.6123662 L15.1146645,9.86611976 C15.5030917,9.52666872 16.0602433,9.05023241 16.5184645,9.49823046 C16.9766858,9.94622851 16.8351214,10.3205974 16.4970631,10.7108936 L13.0755148,14.1489054 C12.8925667,14.335821 12.6427239,14.4412534 12.3817552,14.4415808 Z M12.3817552,7.66130693 C10.6393725,7.66205534 8.90569493,7.41302166 7.2334656,6.92150291 C5.94417036,6.54070217 4.70072852,6.01779694 3.5258573,5.36218913 C2.99670439,5.02343972 2.86106179,4.55844501 3.16564941,4.00738083 C3.47005083,3.45612954 4.16401528,3.73528675 4.73013022,4.00738083 C5.75552401,4.57874565 6.8407367,5.03387293 7.96617004,5.36438983 C11.0900669,6.27066846 14.4135773,6.20583738 17.5,5.17822266 C18.7812418,4.74517349 20.0023388,4.1497192 21.1334049,3.4060328 C21.4869184,3.13964535 22.1403211,2.91942104 22.5583509,3.31732226 C22.9763806,3.71522347 22.7604515,4.45099906 22.376214,4.67023663 C21.0787722,5.52496847 19.6780323,6.20999818 18.2078372,6.70862683 C16.3299426,7.34122101 14.3622032,7.66299085 12.3817552,7.66130693 Z" id="Fill-6"></path>
            </g>
        </g>
    </g>
</svg>