<?xml version="1.0" encoding="UTF-8"?>
<svg width="19px" height="19px" viewBox="0 0 19 19" version="1.1" xmlns="http://www.w3.org/2000/svg" xmlns:xlink="http://www.w3.org/1999/xlink">
    <!-- Generator: Sketch 52.4 (67378) - http://www.bohemiancoding.com/sketch -->
    <title>搜索</title>
    <desc>Created with Sketch.</desc>
    <g id="页面-1" stroke="none" stroke-width="1" fill-rule="evenodd">
        <g id="佣金设置" transform="translate(-330.000000, -80.000000)">
            <path d="M348.787216,97.8921622 L344.027938,93.1333373 C345.260308,91.6942462 345.936457,89.8615148 345.934175,87.9669605 C345.934175,83.5737303 342.360188,80 337.967533,80 C333.573987,80 330,83.5737303 330,87.9659589 C330,92.3583265 333.573987,95.9348948 337.967533,95.9348948 C339.862028,95.936286 341.694558,95.2601861 343.134281,94.0289053 L347.892585,98.7868399 C348.048878,98.9631267 348.290177,99.0380263 348.518871,98.9814064 C348.747565,98.9246752 348.925923,98.7457731 348.981907,98.5168729 C349.037752,98.2880006 348.962124,98.0470531 348.785379,97.8912997 L348.787216,97.8921622 Z M331.368652,88.1057129 C331.368652,84.5230519 334.584214,81.5 338.167847,81.5 C341.750616,81.5 344.584717,84.3287481 344.584717,87.9123535 C344.584717,91.4960938 341.751452,94.4615479 338.167847,94.4615479 C334.584214,94.4615479 331.368652,91.6894532 331.368652,88.1057129 Z" id="搜索"></path>
        </g>
    </g>
</svg>