<?xml version="1.0" encoding="UTF-8"?>
<svg width="21px" height="21px" viewBox="0 0 21 21" version="1.1" xmlns="http://www.w3.org/2000/svg" xmlns:xlink="http://www.w3.org/1999/xlink">
    <!-- Generator: Sketch 52.4 (67378) - http://www.bohemiancoding.com/sketch -->
    <title>登录密码</title>
    <desc>Created with Sketch.</desc>
    <defs>
        <polygon id="path-1" points="0.00175732218 0.0124858929 20.9812259 0.0124858929 20.9812259 19.8550447 0.00175732218 19.8550447"></polygon>
    </defs>
    <g id="页面-1" stroke="none" stroke-width="1" fill="none" fill-rule="evenodd">
        <g id="安全中心" transform="translate(-21.000000, -448.000000)">
            <g id="登录密码" transform="translate(21.000000, 448.500000)">
                <g id="分组">
                    <mask id="mask-2" fill="white">
                        <use xlink:href="#path-1"></use>
                    </mask>
                    <g id="Clip-2"></g>
                    <path d="M10.4906276,0.0124858929 C6.36926778,0.0124858929 2.9972887,3.214019 2.9972887,7.12702553 C2.9972887,7.12702553 2.96284519,8.24511083 3.76359833,9.10140949 C4.56435146,9.95759692 5.9790251,9.89472253 5.9790251,9.89472253 L5.9790251,8.47183128 C5.9790251,8.47183128 5.15504603,8.52199732 4.77578661,8.02753928 C4.39649791,7.53319247 4.49593305,7.12702553 4.49593305,7.12702553 C4.49593305,3.98361162 7.17986192,1.43537714 10.4906276,1.43537714 C13.2839205,1.43537714 15.6310293,3.24941887 16.29641,5.70435676 C16.361636,5.94475886 16.8975314,6.09325478 17.2699372,5.95941379 C17.6018368,5.84003309 17.7840711,5.46832055 17.6956485,5.17588925 C16.7967197,2.20357934 13.9001255,0.0124858929 10.4906276,0.0124858929 Z" id="Fill-1" fill="#6B89FE" mask="url(#mask-2)"></path>
                    <path d="M17.9839372,8.47183128 L5.9790251,8.47183128 L5.9790251,9.89472253 L17.9770837,9.89472253 C18.804841,9.89472253 19.4758452,10.531809 19.4758452,11.3176138 L19.4758452,17.0092622 C19.4758452,17.795067 18.804841,18.4321534 17.9770837,18.4321534 L3.00414226,18.4321534 C2.17641423,18.4321534 1.50549791,17.795067 1.50549791,17.0092622 L1.50549791,12.7290758 C1.50549791,12.4502428 1.58993724,12.1902081 1.73582427,11.9706621 C1.86853138,11.7709991 1.7831841,11.3019577 1.48022176,11.0804652 C1.17714226,10.8589727 0.656476987,10.8849456 0.397916318,11.3110788 C0.327096234,11.428068 0.264623431,11.550174 0.211552301,11.6768404 C0.0750376569,12.0022801 0,12.3573633 0,12.7290758 L0,17.0092622 C0,18.580983 1.34189121,19.8550447 2.9972887,19.8550447 L17.9839372,19.8550447 C19.6393347,19.8550447 20.9812259,18.580983 20.9812259,17.0092622 L20.9812259,11.3176138 C20.9812259,9.74589291 19.6393347,8.47183128 17.9839372,8.47183128 Z" id="Fill-3" fill="#6B89FE" mask="url(#mask-2)"></path>
                </g>
                <path d="M12.2500586,13 L7.74994137,13 C7.33574695,13 7,12.5521811 7,11.9999218 C7,11.4476626 7.33574695,11 7.74994137,11 L12.2500586,11 C12.6642237,11 13,11.4476626 13,11.9999218 C13,12.5521811 12.6642237,13 12.2500586,13 Z" id="Fill-4" fill="#6B89FE"></path>
                <path d="M11,11.7499414 L11,16.2500293 C11,16.6642237 10.5521811,17 9.99992183,17 C9.4476626,17 9,16.6642237 9,16.2500293 L9,11.7499414 C9,11.335747 9.4476626,11 9.99992183,11 C10.5521811,11 11,11.335747 11,11.7499414 Z" id="Fill-5" fill="#6B89FE"></path>
            </g>
        </g>
    </g>
</svg>