<?xml version="1.0" encoding="UTF-8"?>
<svg width="23px" height="21px" viewBox="0 0 23 21" version="1.1" xmlns="http://www.w3.org/2000/svg" xmlns:xlink="http://www.w3.org/1999/xlink">
    <!-- Generator: Sketch 52.4 (67378) - http://www.bohemiancoding.com/sketch -->
    <title>实名认证</title>
    <desc>Created with Sketch.</desc>
    <g id="页面-1" stroke="none" stroke-width="1"  fill-rule="evenodd">
        <g id="安全中心" transform="translate(-20.000000, -286.000000)">
            <path d="M20.7494047,307 C20.5411947,306.990446 20.3453014,306.899416 20.2048196,306.746917 C20.064468,306.594522 19.9910112,306.393148 20.0008801,306.187138 C20.1909174,301.828661 22.2033691,298.109619 26.7101142,296.175181 C26.7101142,296.175181 26.7784424,296.344269 27.354126,296.745911 C27.8493652,297.157745 28.1978149,297.303741 28.1978149,297.303741 C23.3706055,299.261475 21.7441377,302.204012 21.5672978,306.25574 C21.5499036,306.671183 21.204597,306.999305 20.784089,307 L20.7494047,307 Z M38.4954873,299.74196 C37.2774194,298.527969 35.8907232,297.651599 34.1604614,297.099304 C34.1477641,297.095251 34.5378418,296.859619 34.8907256,296.54726 C35.2436093,296.234902 35.5053748,295.957709 35.5115356,295.960205 C37.1154211,296.60997 38.6130198,297.580688 39.7860204,298.750516 C40.0991682,299.062987 40.0646213,299.537429 39.7085679,299.812642 C39.5520082,299.933499 39.3502037,300.000174 39.1411532,300 C38.8933051,299.997063 38.6581804,299.904131 38.4954873,299.74196 Z M31.0232405,297.999955 C28.5944621,298.009307 26.3996032,296.553423 25.4635265,294.312173 C24.5275826,292.070924 25.0352451,289.486458 26.7493269,287.765758 C28.4634884,286.044924 31.045955,285.527404 33.2908389,286.454636 C35.5356165,287.382001 36.9999981,289.57126 36.9999981,292.000044 C37.0026016,295.305822 34.3289051,297.989807 31.0232405,297.999955 M26.6092529,292.517944 C26.8813962,295.315088 28.7003606,296.556885 31.0233981,296.556885 C33.3464355,296.556885 35.2886963,294.422974 35.4498291,292.517944 C35.7010612,289.547695 33.2037908,287.456965 31,287.450073 C29.3807655,287.443834 26.2385562,288.707848 26.6092529,292.517944 Z M36.0605619,307 C35.8460593,306.99967 35.6406202,306.910631 35.4904443,306.75293 L32.2195669,303.373884 C31.9208727,303.047785 31.9277706,302.536705 32.2351272,302.219185 C32.5424838,301.901775 33.0393984,301.892536 33.3577167,302.198342 L36.0591984,304.987361 L41.6422283,299.223408 C41.9605467,298.917602 42.4574612,298.926841 42.7648178,299.244361 C43.0721744,299.561881 43.0791792,300.072933 42.7804851,300.39906 L36.628701,306.750785 C36.4780974,306.906974 36.273086,306.99472 36.0591984,306.99439" id="实名认证"></path>
        </g>
    </g>
</svg>
