<?xml version="1.0" encoding="UTF-8"?>
<svg width="21px" height="24px" viewBox="0 0 21 24" version="1.1" xmlns="http://www.w3.org/2000/svg" xmlns:xlink="http://www.w3.org/1999/xlink">
    <!-- Generator: Sketch 52.4 (67378) - http://www.bohemiancoding.com/sketch -->
    <title>资金密码</title>
    <desc>Created with Sketch.</desc>
    <defs>
        <polygon id="path-1" points="0.00211055276 0.0292503817 20.9778744 0.0292503817 20.9778744 22.9649206 0.00211055276 22.9649206"></polygon>
    </defs>
    <g id="页面-1" stroke="none" stroke-width="1" fill-rule="evenodd">
        <g id="安全中心" transform="translate(-21.000000, -498.000000)">
            <g id="资金密码" transform="translate(21.000000, 498.500000)">
                <g id="分组">
                    <mask id="mask-2" fill="white">
                        <use xlink:href="#path-1"></use>
                    </mask>
                    <g id="Clip-2"></g>
                    <path d="M18.5573518,9.03984275 L16.9436583,9.03984275 L16.9436583,6.53147328 C16.9436583,2.69960305 13.5201658,0.0292503817 10.4468141,0.0292503817 C7.29459799,0.0292503817 4.03411055,2.45724275 4.03411055,6.52009618 L4.03411055,9.03984275 L2.42052261,9.03984275 C1.08605528,9.03984275 0,10.1422275 0,11.4970153 L0,20.5074672 C0,21.8623954 1.08605528,22.9649206 2.42052261,22.9649206 L18.5573518,22.9649206 C19.8916784,22.9649206 20.9778744,21.8623954 20.9778744,20.5074672 L20.9778744,11.4970153 C20.9778744,10.1422275 19.8916784,9.03984275 18.5573518,9.03984275 Z M5.64780402,6.52009618 C5.64780402,3.4826916 8.08770854,1.66744733 10.4468141,1.66744733 C12.7520653,1.66744733 15.3298241,3.74727939 15.3298241,6.53147328 L15.3298241,9.03984275 L5.64780402,9.03984275 L5.64780402,6.52009618 Z M19.3640402,20.5074672 C19.3640402,20.9597069 19.0025377,21.3267588 18.5573518,21.3267588 L2.42052261,21.3267588 C1.9760402,21.3267588 1.61369347,20.9598473 1.61369347,20.5074672 L1.61369347,11.4970153 C1.61369347,11.0457588 1.9760402,10.6780046 2.42052261,10.6780046 L18.5573518,10.6780046 C19.0026784,10.6780046 19.3640402,11.0456183 19.3640402,11.4970153 L19.3640402,20.5074672 Z" id="Fill-1" mask="url(#mask-2)"></path>
                </g>
                <path d="M11.8829951,12.855182 C12.0390016,12.6602247 12.0390016,12.3433215 11.8829951,12.1483642 C11.7269886,11.9534069 11.4734356,11.9534069 11.3174574,12.1483642 L10.002206,13.7920384 L8.68551227,12.146218 C8.52953405,11.9512607 8.27598105,11.9512607 8.11997455,12.146218 C7.96396804,12.3413314 7.96396804,12.6582735 8.11997455,12.8532308 L9.60062222,14.7037642 L9.60062222,15.0008439 L8.39994343,15.0008439 C8.17919819,15.0008439 8,15.224756 8,15.5006463 C8,15.7767318 8.17919819,16.0006439 8.39994343,16.0006439 L9.60062222,16.0006439 L9.60062222,17.0004439 L8.39994343,17.0004439 C8.17919819,17.0004439 8,17.224356 8,17.5004024 C8,17.7761757 8.17919819,18.0002439 8.39994343,18.0002439 L9.60062222,18.0002439 L9.60062222,19.5000415 C9.60062222,19.7760879 9.77982041,20 10.0005374,20 C10.2212826,20 10.3997172,19.7760879 10.4004808,19.5000415 L10.4004808,18.0002439 L11.5997172,18.0002439 C11.8205755,18.0002439 11.9997737,17.7761757 11.9997737,17.5004024 C11.9997737,17.224356 11.8205755,17.0004439 11.5997172,17.0004439 L10.4004808,17.0004439 L10.4004808,16.0006439 L11.5997172,16.0006439 C11.8205755,16.0006439 11.9997737,15.7767318 11.9997737,15.5006463 C11.9997737,15.224756 11.8205755,15.0008439 11.5997172,15.0008439 L10.4004808,15.0008439 L10.4004808,14.7080177 L11.8829951,12.855182 Z" id="Fill-3" ></path>
            </g>
        </g>
    </g>
</svg>