<?xml version="1.0" encoding="UTF-8"?>
<svg width="22px" height="21px" viewBox="0 0 22 21" version="1.1" xmlns="http://www.w3.org/2000/svg" xmlns:xlink="http://www.w3.org/1999/xlink">
    <!-- Generator: Sketch 52.4 (67378) - http://www.bohemiancoding.com/sketch -->
    <title>手机号绑定</title>
    <desc>Created with Sketch.</desc>
    <g id="页面-1" stroke="none" stroke-width="1" fill-rule="evenodd">
        <g id="安全中心" transform="translate(-21.000000, -394.000000)">
            <g id="手机号绑定" transform="translate(21.000000, 394.000000)">
                <path d="M15.3298241,19 L15.3298241,19.7294154 C15.3298241,20.0888014 15.176205,20.4032794 14.8944299,20.6278189 C14.638286,20.8749351 14.1816416,21 13.7718506,21 L1.4598018,21 C1.05001076,21 0.691566152,20.8652763 0.435394228,20.6181601 C0.153619118,20.3936206 0,20.0791426 0,19.7197566 L0,1.28024341 C0,0.920857447 0.153619118,0.606477639 0.435394228,0.381839913 C0.691566152,0.134723675 1.05001076,0 1.4598018,0 L14.2490651,0 C14.6588561,0 15.0174408,0.134723675 15.2734726,0.381839913 C15.5552477,0.606477639 15.7088669,0.920857447 15.7088669,1.28024341 L15.7088669,10.6178131 C16.2374623,10.4433289 16.2374623,10.4433289 17.0314412,10.4433289 C18.3888302,10.4433289 19.6438066,10.9375614 20.5401982,11.7236952 C21.4365898,12.509829 22,13.610318 22,14.8007456 C22,16.0137255 21.4365898,17.114239 20.5401982,17.9003728 C19.6438066,18.6865066 18.3888302,19.1807391 17.0314412,19.1807391 C16.2374623,19.1807391 15.9957871,19.2920241 15.3298241,19 Z M14.2142503,14.8906842 C14.0862064,14.7783899 14.0862064,14.5986601 14.2142503,14.4863904 C14.3422663,14.3740961 14.5472038,14.3740961 14.6752477,14.4863904 L16.2631775,15.8564496 L19.2084123,13.2734842 C19.3364283,13.1611162 19.566997,13.1611162 19.6950129,13.2734842 C19.7564998,13.3269413 19.7910949,13.3996833 19.7910949,13.4755943 C19.7910949,13.5515053 19.7564998,13.6243455 19.6950129,13.6778026 L16.4936342,16.4854057 C16.4326796,16.5392313 16.3496233,16.5695466 16.2630655,16.5695466 C16.1765077,16.5695466 16.0935914,16.5392313 16.0326368,16.4854057 L14.2142503,14.8906842 Z M7.42730506,17.2490855 C8.04192159,17.2490855 8.55412538,17.6982873 8.55412538,18.2373048 C8.55412538,18.7988991 8.04192159,19.2481009 7.42730506,19.2481009 C6.78694528,19.2481009 6.27474149,18.7988991 6.27474149,18.2373048 C6.27474149,17.6982873 6.78694528,17.2490855 7.42730506,17.2490855 Z M14.7008509,11.6337566 L14.6752477,11.6337566 C14.4190758,11.791057 14.1886471,11.9482346 13.9836816,12.127989 C13.1897027,12.8241842 12.7031021,13.7676184 12.7031021,14.8007456 C12.7031021,15.1152237 12.7543085,15.4297018 12.831146,15.6992719 L12.831146,15.7217259 C13.0360836,16.3954917 13.4202714,17.0019693 13.9836816,17.473625 C14.7520573,18.169943 15.8276713,18.5966908 17.0314412,18.5966908 C18.2096079,18.5966908 19.2852219,18.169943 20.0792008,17.473625 C20.8475485,16.7998592 21.3341771,15.8564496 21.3341771,14.8007456 C21.3341771,13.7676184 20.8475485,12.8241842 20.0792008,12.127989 C19.2852219,11.454125 18.2096079,11.0273772 17.0314412,11.0273772 C16.1606527,11.0273772 15.3666738,11.2519167 14.7008509,11.6337566 Z M14.163044,18.3946053 C13.9324752,18.2373048 13.7020465,18.0801272 13.497081,17.9004711 C12.9336708,17.4062632 12.4982766,16.7774053 12.2677079,16.0811119 L1.54585092,16.0811119 L1.54585092,19 C1.54585092,19.1796316 1.62277252,19.359386 1.77639164,19.4941096 C1.93001076,19.6064039 2.13497631,19.696318 2.3398018,19.696318 L13.3690651,19.696318 C13.5994937,19.696318 13.7788561,19.6064776 13.9324752,19.4941096 C14.0860943,19.359386 14.163044,19.1796316 14.163044,19 L14.163044,18.3946053 Z M12.0628824,14.8007456 C12.0372792,14.7333838 12.0372792,14.9355921 12.0372792,14.8007456 C12.0372792,14.6884759 12.0372792,14.5986601 12.0628824,14.4863904 L12.0628824,14.3290899 C12.0884856,14.306636 12.0884856,14.306636 12.0884856,14.284182 C12.2165015,13.2959627 12.7287053,12.3974364 13.497081,11.7236952 C13.7019345,11.5439408 14.2367856,11.1569953 14.4673544,10.9996948 L14.4673544,1.83838327 C14.4673544,1.6587517 14.3905168,1.4789973 14.2367856,1.34427362 C14.0831665,1.20954995 13.9038042,1.14208984 13.6733755,1.14208984 L2.07080635,1.14208984 C1.86598086,1.14208984 1.66101531,1.20954995 1.50739619,1.34427362 C1.35377708,1.4789973 1.27685547,1.6587517 1.27685547,1.83838327 L1.27685547,14.8007456 L12.0628824,14.8007456 Z" id="Fill-1"></path>
                <path d="M7.51694092,17 C7.92131103,17 8.29216797,17.112325 8.56174804,17.2921434 C8.83151246,17.471888 9,17.7191014 9,17.9887061 C9,18.280874 8.83151246,18.5280874 8.56174804,18.707832 C8.29216797,18.8876504 7.92131103,19 7.51694092,19 C7.07868897,19 6.70783203,18.8876504 6.43825196,18.707832 C6.16848754,18.5280874 6,18.280874 6,17.9887061 C6,17.7190277 6.16848754,17.471888 6.43825196,17.2920451 C6.70783203,17.112325 7.07868897,17 7.51694092,17 Z M8.56174804,17.2920451 C8.29216797,17.112325 7.92131103,17 7.51694092,17 C7.07868897,17 6.70783203,17.112325 6.43825196,17.2920451 C6.16848754,17.471888 6,17.7190277 6,17.9887061 C6,18.280874 6.16848754,18.5280137 6.43825196,18.707832 C6.70783203,18.8875521 7.07868897,19 7.51694092,19 C7.92131103,19 8.29216797,18.8876504 8.56174804,18.707832 C8.83151246,18.5280137 9,18.280874 9,17.9887061 C9,17.7190277 8.83151246,17.471888 8.56174804,17.2920451 Z" id="Fill-2"></path>
            </g>
        </g>
    </g>
</svg>
