<?xml version="1.0" encoding="UTF-8"?>
<svg width="23px" height="28px" viewBox="0 0 23 28" version="1.1" xmlns="http://www.w3.org/2000/svg" xmlns:xlink="http://www.w3.org/1999/xlink">
    <!-- Generator: Sketch 52.4 (67378) - http://www.bohemiancoding.com/sketch -->
    <title>个人中心--安全中心</title>
    <desc>Created with Sketch.</desc>
    <g id="蓝色" stroke="none" stroke-width="1" fill-rule="evenodd">
        <g id="个人中心" transform="translate(-133.000000, -421.000000)">
            <path d="M143.160119,438.355085 L139.18145,434.754906 L138,436.071605 L143.160119,441 L152,431.316556 L150.81855,430 L143.160119,438.355085 Z M155.152095,425.242012 C155.152095,425.242012 151.792732,425.127202 144.916733,421.240865 L144.500071,421 L144.08341,421.240865 C137.207268,425.1244 133.865404,425.242012 133.865404,425.242012 L133,425.242012 L133,435.246419 C133,440.41248 135.910762,443.016428 139.156489,445.443975 L144.500071,449 L149.843511,445.443975 C153.092297,443.016428 156,440.41248 156,435.246419 L156,425.242012 L155.152095,425.242012 Z M148.844727,444.127686 L144.490681,447 L140.49152,444.521484 C136.649443,441.80083 134.755249,439.937846 134.755249,435.82187 L134.755249,427.069233 C136.288329,426.817586 139.021571,425.954696 144.490681,423 C149.959638,425.954696 152.748456,426.817586 154.284668,427.069233 L154.284668,435.82187 C154.284668,439.934918 152.592964,441.395319 148.844727,444.127686 Z" id="个人中心--安全中心"></path>
        </g>
    </g>
</svg>