<?xml version="1.0" encoding="UTF-8"?>
<svg width="27px" height="26px" viewBox="0 0 27 26" version="1.1" xmlns="http://www.w3.org/2000/svg" xmlns:xlink="http://www.w3.org/1999/xlink">
    <!-- Generator: Sketch 52.4 (67378) - http://www.bohemiancoding.com/sketch -->
    <title>个人中心--设置</title>
    <desc>Created with Sketch.</desc>
    <g id="蓝色" stroke="none" stroke-width="1" fill-rule="evenodd">
        <g id="个人中心" transform="translate(-218.000000, -336.000000)">
            <g id="个人中心--设置" transform="translate(218.000000, 336.000000)">
                <path d="M26.7399428,10.3585054 C26.6115795,9.70102656 26.0145435,9.24768921 25.3468454,9.2995443 C24.2040144,9.39017938 23.0966548,8.80082868 22.525139,7.79688015 C21.9505335,6.78977417 22.0083551,5.52351418 22.6696732,4.57146122 C23.0516334,4.02101196 22.9680908,3.26957869 22.4737375,2.82587562 C21.1384617,1.62446485 19.6072503,0.717749669 17.9283749,0.131596904 C17.2863576,-0.0918535975 16.5897687,0.209399778 16.3071607,0.834292059 C15.8225179,1.90308981 14.7568493,2.59598877 13.5947577,2.59598877 C12.4102357,2.59598877 11.3379865,1.89009568 10.8628936,0.795390622 C10.5901566,0.167178968 9.89986758,-0.146866139 9.25785022,0.0667476825 C7.76849032,0.562305842 6.38490278,1.31689657 5.14255906,2.30457207 C4.60322435,2.73528101 4.48457152,3.49634856 4.86653172,4.0760245 C5.52142956,5.07017683 5.53097957,6.3623846 4.89225254,7.36617121 C4.24694484,8.3830734 3.06884299,8.91089425 1.89078125,8.71339153 C1.21975273,8.60000659 0.564895026,9.03075601 0.401260851,9.69454973 C0.13478352,10.7698243 0,11.8804785 0,12.997812 C0,13.8818988 0.0866723438,14.7692644 0.253596858,15.6339207 C0.385290669,16.3107086 1.00158721,16.7640459 1.68529557,16.686405 C2.8633573,16.5569089 4.00947867,17.1428998 4.59680418,18.1792729 C5.18425007,19.2156056 5.11370841,20.5011746 4.41386936,21.4630643 C4.00618833,22.0233097 4.0864405,22.7875347 4.60322435,23.2408721 C5.97722176,24.455277 7.54683383,25.3621136 9.27711074,25.9353127 C9.41193439,25.980529 9.54687841,26 9.68166193,26 C10.1824756,26 10.6542781,25.7054259 10.8726041,25.2196639 C11.3541172,24.1443893 12.4231162,23.4514904 13.5947577,23.4514904 C14.7439688,23.4514904 15.8065477,24.1314357 16.2943204,25.1807625 C16.5800582,25.7960205 17.2734771,26.093914 17.9026541,25.8738233 C19.3953044,25.3523174 20.7757621,24.5784581 22.0083551,23.5711902 C22.5187188,23.1534349 22.6375322,22.4117978 22.2843825,21.8450756 C21.6712158,20.8607599 21.6776359,19.5944999 22.297263,18.6196566 C22.9104297,17.6514521 24.0403802,17.1171139 25.1767509,17.2562847 C25.8347786,17.337245 26.4510752,16.909815 26.6115795,16.2621324 C26.8716367,15.1998519 27,14.1021514 27,13.0042888 L27,13.0011314 C26.9935798,12.104091 26.9069075,11.2166848 26.7399428,10.3585054 Z M25.3628156,15.9512852 C25.3596858,15.9673963 25.3437156,15.9707157 25.3308351,15.9707157 C24.5443237,15.8734823 23.7482222,15.9998209 23.0259527,16.3332965 C22.2843825,16.6766088 21.6585359,17.2271795 21.2154236,17.9202404 C20.7693419,18.6196566 20.5350056,19.4292599 20.5414257,20.2582936 C20.5445556,21.0647394 20.7724717,21.8515524 21.1961229,22.534979 C21.2025431,22.5479731 21.2025431,22.5609268 21.1961229,22.5672417 C20.0823031,23.4805956 18.8304093,24.1801333 17.4821327,24.6529416 C17.4757126,24.6560991 17.4628321,24.6496222 17.4564119,24.6334706 C16.7567334,23.1308065 15.2414922,22.1592826 13.5947577,22.1592826 C11.9223025,22.1592826 10.394221,23.1534349 9.70409241,24.6884832 C9.69767224,24.7014773 9.68479177,24.7111116 9.67837159,24.7079541 C8.11501919,24.1897676 6.69307112,23.3672107 5.4507274,22.2693481 C5.43788705,22.2596734 5.44117739,22.2434004 5.4507274,22.2306086 C6.45231461,20.8574405 6.55495713,19.0147835 5.71387426,17.5349097 C4.94678389,16.1876489 3.53109549,15.3715688 2.01585426,15.3715688 C1.8617701,15.3715688 1.70455609,15.3812436 1.54722171,15.3975166 C1.53121141,15.400674 1.51837106,15.3910398 1.51524122,15.3845629 C1.36115706,14.600867 1.28403472,13.7977405 1.28403472,12.997812 C1.28403472,11.9873867 1.40597789,10.9802807 1.64673441,10.0087568 C1.65002474,9.99260517 1.66603505,9.9892858 1.6788754,9.99260517 C1.91321174,10.0313447 2.14754807,10.0508156 2.38184428,10.0508156 C3.81996317,10.0508156 5.17782989,9.31569588 5.97080159,8.06902829 C6.88571645,6.63433034 6.86954564,4.78839441 5.93553076,3.36353314 C5.92911058,3.35053901 5.92582024,3.33442791 5.93866059,3.32463171 C7.06219097,2.43091066 8.3140847,1.75080344 9.66240141,1.30062354 C9.66882159,1.29746609 9.68166193,1.30394291 9.68808211,1.32005402 C10.3685001,2.88424801 11.903042,3.89783082 13.5947577,3.89783082 C15.2574623,3.89783082 16.7822536,2.91015532 17.4757126,1.38158387 C17.4821327,1.36858974 17.4918433,1.35895546 17.5109433,1.36543228 C19.0293143,1.89657251 20.4129019,2.7191699 21.6231046,3.80391684 C21.6295248,3.81039367 21.6295248,3.82666669 21.6231046,3.83962035 C21.1641424,4.50029709 20.8977052,5.27415637 20.8560142,6.08060219 C20.8110329,6.90963593 21.0036381,7.72891396 21.4177794,8.45435897 C21.8285903,9.17320571 22.4289166,9.7562415 23.1576063,10.1350953 C23.8670355,10.504153 24.6631371,10.6660736 25.4559081,10.6045843 C25.4720789,10.6045843 25.4849193,10.6110611 25.4849193,10.6208573 C25.6357131,11.398036 25.7159653,12.2043199 25.7192556,13.0172425 C25.7159653,13.9984007 25.5973124,14.9893956 25.3628156,15.9512852 Z" id="Fill-1"></path>
                <path d="M13,8 C10.242666,8 8,10.2426612 8,12.9999415 C8,15.7573388 10.242666,18 13,18 C15.757334,18 18,15.7573388 18,12.9999415 C18,10.2426612 15.757334,8 13,8 Z M13,16.7523442 C10.9320092,16.7523442 9.24768009,15.0680479 9.24768009,12.9999415 C9.24768009,10.9319911 10.9320092,9.24765577 13,9.24765577 C15.0679908,9.24765577 16.7523199,10.9319911 16.7523199,12.9999415 C16.7523199,15.0680479 15.0679908,16.7523442 13,16.7523442 Z" id="Fill-3"></path>
            </g>
        </g>
    </g>
</svg>