<?xml version="1.0" encoding="UTF-8"?>
<svg width="7px" height="7px" viewBox="0 0 7 7" version="1.1" xmlns="http://www.w3.org/2000/svg" xmlns:xlink="http://www.w3.org/1999/xlink">
    <!-- Generator: Sketch 52.4 (67378) - http://www.bohemiancoding.com/sketch -->
    <title>筛选</title>
    <desc>Created with Sketch.</desc>
    <defs>
        <polygon id="path-1" points="0 0 7 0 7 7 0 7"></polygon>
    </defs>
    <g id="页面-1" stroke="none" stroke-width="1" fill="none" fill-rule="evenodd">
        <g id="交易明细-钱包" transform="translate(-348.000000, -85.000000)">
            <g id="筛选" transform="translate(348.000000, 85.000000)">
                <mask id="mask-2" fill="white">
                    <use xlink:href="#path-1"></use>
                </mask>
                <g id="Clip-2"></g>
                <path d="M2.72949924,3.528806 C2.72949924,3.2646228 2.59315461,2.91607877 2.41416763,2.72197592 L0.492512744,0.640319443 C0.318741505,0.44737909 0.344243189,0.389014889 0.602959702,0.389014889 L6.39765748,0.389014889 C6.65579698,0.389014889 6.68147969,0.44737909 6.50713144,0.641698483 L4.592808,2.69766605 C4.41400204,2.88963766 4.27770267,3.23760044 4.27770267,3.50097445 L4.27770267,6.22527536 C4.27770267,6.33269239 4.36414138,6.41977711 4.47078685,6.41977711 C4.57743231,6.41977711 4.66388235,6.33269239 4.66388235,6.22527536 L4.66388235,3.5011568 C4.66388235,3.33661785 4.76292483,3.08396845 4.87433347,2.96411726 L6.79116861,0.905437198 C7.19202251,0.458867298 6.99141453,0 6.39765748,0 L0.602959702,0 C0.00804862092,0 -0.191224303,0.459038253 0.207898557,0.903305953 L2.13127317,2.98686573 C2.24406212,3.10903052 2.34331956,3.36305896 2.34331956,3.528806 L2.34331956,6.80549825 C2.34331956,6.91291528 2.42976959,7 2.53641506,7 C2.64304921,7 2.72949924,6.91291528 2.72949924,6.80549825 L2.72949924,3.528806 Z" id="Fill-1" fill="#6B6B6B" mask="url(#mask-2)"></path>
            </g>
        </g>
    </g>
</svg>