<?xml version="1.0" encoding="UTF-8"?>
<svg width="27px" height="27px" viewBox="0 0 27 27" version="1.1" xmlns="http://www.w3.org/2000/svg" xmlns:xlink="http://www.w3.org/1999/xlink">
    <!-- Generator: Sketch 52.4 (67378) - http://www.bohemiancoding.com/sketch -->
    <title>个人中心--分享</title>
    <desc>Created with Sketch.</desc>
    <g id="蓝色" stroke="none" stroke-width="1" fill-rule="evenodd">
        <g id="个人中心" transform="translate(-304.000000, -336.000000)">
            <g id="个人中心--分享" transform="translate(317.500000, 349.500000) scale(1, -1) translate(-317.500000, -349.500000) translate(304.000000, 336.000000)">
                <path d="M13.5000183,27 C11.6849695,27 9.9150012,26.6399419 8.25002543,25.9349868 C6.64499831,25.2599511 5.20505886,24.2849158 3.95994336,23.0399468 C2.71497434,21.7949411 1.73993905,20.3550017 1.0650132,18.7499746 C0.360058105,17.0849988 0,15.3150305 0,13.5000183 C0,11.6849695 0.360058105,9.9150012 1.0650132,8.25002543 C1.73993905,6.64499831 2.71497434,5.20505886 3.95994336,3.95994336 C5.20505886,2.71497434 6.64499831,1.73993905 8.25002543,1.0650132 C9.9150012,0.360058105 11.6849695,0 13.5000183,0 C15.3150305,0 17.0849988,0.360058105 18.7499746,1.0650132 C20.3550017,1.73993905 21.7949411,2.71497434 23.0399468,3.95994336 C24.2849158,5.20505886 25.2599511,6.64499831 25.9349868,8.25002543 C26.6399419,9.9150012 27,11.6849695 27,13.5000183 C27,15.3150305 26.6399419,17.0849988 25.9349868,18.7499746 C25.2599511,20.3550017 24.2849158,21.7949411 23.0399468,23.0399468 C21.7949411,24.2849158 20.3550017,25.2599511 18.7499746,25.9349868 C17.0849988,26.6399419 15.3150305,27 13.5000183,27 Z M13.5000183,1.34996155 C6.79492487,1.34996155 1.34996155,6.79492487 1.34996155,13.5000183 C1.34996155,20.2049286 6.79492487,25.649892 13.5000183,25.649892 C20.2049286,25.649892 25.649892,20.2049286 25.649892,13.5000183 C25.649892,6.79492487 20.2049286,1.34996155 13.5000183,1.34996155 Z" id="Fill-2"></path>
                <g id="分组-2" transform="translate(4.821429, 5.785714)">
                    <circle id="椭圆形"  cx="13.5" cy="2.89285714" r="2.89285714"></circle>
                    <circle id="椭圆形-copy"  cx="11.5714286" cy="12.5357143" r="2.89285714"></circle>
                    <circle id="椭圆形-copy-3"  cx="2.89285714" cy="7.71428571" r="2.89285714"></circle>
                    <polygon id="路径-43" points="3.7262486 5.29745047 10.9114838 2.37487139 10.9114838 3.79505048 5.16885158 6.11465672"></polygon>
                    <polygon id="路径-44" points="5.42716762 7.83205523 9.63956124 10.9027732 8.74590193 11.8681319 5.00017221 9.16406904"></polygon>
                </g>
            </g>
        </g>
    </g>
</svg>