<?xml version="1.0" encoding="UTF-8"?>
<svg width="35px" height="35px" viewBox="0 0 35 35" version="1.1" xmlns="http://www.w3.org/2000/svg" xmlns:xlink="http://www.w3.org/1999/xlink">
    <!-- Generator: Sketch 52.4 (67378) - http://www.bohemiancoding.com/sketch -->
    <title>模拟钱包</title>
    <desc>Created with Sketch.</desc>
    <g id="页面-1" stroke="none" stroke-width="1" fill="none" fill-rule="evenodd">
        <g id="我的钱包" transform="translate(-44.000000, -251.000000)">
            <g id="模拟钱包" transform="translate(44.000000, 251.000000)">
                <g id="xianjin-copy" fill="#FFFFFF">
                    <path d="M17.4999168,0 C7.83740715,0 0,7.83723495 0,17.5026348 C0,27.1625432 7.83740715,35 17.4999168,35 C27.1625929,35 35,27.162765 35,17.5026348 C34.9997781,7.83723495 27.1625929,0 17.4999168,0 Z" id="Fill-2"></path>
                </g>
                <path d="M21.9362614,22.8123244 L21.9362614,24 L23.7912791,22.1616091 L22.5807891,22.1453243 C22.2349019,22.1616091 21.9362614,22.4543773 21.9362614,22.8123244 Z M26.8412041,12.2376344 C26.6053929,11.9447072 26.1965229,11.9285416 25.9293546,12.1563297 L17.2986405,19.7538075 L17,20.8276089 L18.1632817,20.7300195 L26.7782213,13.1486676 C27.0455432,12.9209192 27.0769002,12.5141179 26.8412041,12.2376344 Z" id="Fill-1" fill="#6B89FE"></path>
                <path d="M26,22.4134248 L26,22.5289838 C26,22.6445428 25.9808119,22.7601018 25.9233881,22.8563775 C25.9233881,23.0684003 25.846589,23.2609516 25.6932249,23.4150774 L25.6740368,23.4343607 L21.2651334,27.6919367 C21.1693334,27.7882124 21.0351573,27.8458743 20.9009812,27.884441 C20.7859932,27.9616214 20.6517703,28 20.4984062,28 L10.3385576,28 C9.03512613,28 8,26.9404974 8,25.6498768 L8,8.35031138 C8,7.04021926 9.0543142,6 10.3385576,6 L23.6422543,6 C24.9456858,6 25.9808119,7.05950261 25.9808119,8.35031138 C25.9808119,8.79326408 25.6358011,9.14012925 25.1948967,9.14012925 C24.7539455,9.14012925 24.4089815,8.79326408 24.4089815,8.35031138 C24.4089815,7.90721757 24.0638302,7.5603524 23.6230662,7.5603524 L10.3577457,7.5603524 C9.9169817,7.5603524 9.57183046,7.90721757 9.57183046,8.35031138 L9.57183046,25.6498768 C9.57183046,26.0928295 9.9169817,26.4396946 10.3577457,26.4396946 L19.731679,26.4396946 L19.7506799,24.0893362 C19.7506799,22.7793852 20.8051813,21.7391659 22.0894247,21.7391659 L24.4281695,21.7583082 L24.4281695,18.8301547 C24.4281695,17.7899355 26,17.7899355 26,18.8301547 L26,22.4134248 Z M12.7798728,12 C12.3423118,12 12,11.5610671 12,11 C12,10.4391711 12.3423118,10 12.7798728,10 L18.2201272,10 C18.6576882,10 19,10.4391711 19,11 C19,11.5610671 18.6576882,12 18.2201272,12 L12.7798728,12 Z M17,15 C17,15.5610671 16.6325434,16 16.1632952,16 L12.8367048,16 C12.3672573,16 12,15.5610671 12,15 C12,14.4391711 12.3672573,14 12.8367048,14 L16.1632952,14 C16.6121154,14.0244149 17,14.4633478 17,15 Z M29.1834154,14.2253844 L18.2035034,23.5831107 C18.0660178,23.7014783 17.9088228,23.7604938 17.7516757,23.7802137 L14.8642847,23.9968442 C14.4321184,24.0362841 14.0393227,23.7014783 14,23.248305 C14,23.1498497 14,23.0512501 14.0393227,22.9527948 L14.8054445,20.2931551 C14.8446234,20.13554 14.9429781,20.0173167 15.0608024,19.8991415 L26.0210051,10.5806626 C27.0228235,9.71399621 28.5352618,9.83217143 29.3995465,10.8369253 L29.4192559,10.8565009 C30.2833488,11.8415349 30.1655245,13.3584775 29.1834154,14.2253844 Z" id="Fill-3" fill="#F5A623"></path>
            </g>
        </g>
    </g>
</svg>