<?xml version="1.0" encoding="UTF-8"?>
<svg width="55px" height="31px" viewBox="0 0 55 31" version="1.1" xmlns="http://www.w3.org/2000/svg" xmlns:xlink="http://www.w3.org/1999/xlink">
    <!-- Generator: Sketch 52.4 (67378) - http://www.bohemiancoding.com/sketch -->
    <title>平安银行</title>
    <desc>Created with Sketch.</desc>
    <defs>
        <polygon id="path-1" points="1.36728766e-16 0 55 0 55 31 1.36728766e-16 31"></polygon>
    </defs>
    <g id="页面-1" stroke="none" stroke-width="1" fill="none" fill-rule="evenodd">
        <g id="弹窗/银行icon" transform="translate(-300.000000, -403.000000)">
            <g id="平安银行" transform="translate(300.000000, 403.000000)">
                <mask id="mask-2" fill="white">
                    <use xlink:href="#path-1"></use>
                </mask>
                <g id="Clip-2"></g>
                <path d="M53.335363,19.6060534 C53.335363,20.8638658 52.3946458,21.8997294 51.1643847,21.8997294 L3.90794121,21.8997294 C2.67762004,21.8997294 1.73690281,20.8638658 1.73690281,19.6060534 L1.73690281,3.99526323 C1.73690281,2.73745082 2.67762004,1.70158724 3.90794121,1.70158724 L51.1643847,1.70158724 C52.3946458,1.70158724 53.335363,2.73745082 53.335363,3.99526323 L53.335363,19.6060534 Z M25.4012875,12.3556839 L24.3880041,12.3556839 L24.3880041,12.7994588 L23.375021,12.7994588 L23.375021,11.8377214 L25.1116835,11.8377214 L25.1116835,11.0237453 L23.375021,11.0237453 L23.375021,10.2838954 L25.4012875,10.2838954 L25.4012875,9.32215804 L19.9737215,9.32215804 L19.9737215,10.2838954 L21.9999279,10.2838954 L21.9999279,10.9498647 L20.2630251,10.9498647 L20.2630251,11.8377214 L21.9999279,11.8377214 L21.9999279,12.7994588 L19.9737215,12.7994588 L19.9737215,13.7611961 L25.4012875,13.7611961 L25.4012875,12.3556839 Z M15.4869328,8.50842753 L12.447443,8.50842753 L12.447443,7.54644455 C12.447443,7.47256396 12.3749369,7.39843772 12.3026711,7.39843772 L11.0723499,7.39843772 C11.0000841,7.39843772 10.927578,7.47256396 10.927578,7.54644455 L10.927578,8.50842753 L7.88808818,8.50842753 C7.30924072,8.50842753 6.87486484,8.95226379 6.87486484,9.54404545 L6.87486484,13.0214076 C6.87486484,13.6131893 7.30924072,14.0572712 7.88808818,14.0572712 L10.927578,14.0572712 L10.927578,15.536971 C10.927578,15.6108516 11.0000841,15.6849778 11.0723499,15.6849778 L12.3026711,15.6849778 C12.3749369,15.6849778 12.447443,15.6108516 12.447443,15.536971 L12.447443,14.0572712 L15.4869328,14.0572712 C16.0657803,14.0572712 16.4999159,13.6131893 16.4999159,13.0214076 L16.4999159,9.54404545 C16.4999159,8.95226379 16.0657803,8.50842753 15.4869328,8.50842753 Z M8.24995795,13.0214076 L10.8553122,13.0214076 L10.8553122,9.76599429 L8.24995795,9.76599429 L8.24995795,13.0214076 Z M12.447443,13.0214076 L15.052557,13.0214076 L15.052557,9.76599429 L12.447443,9.76599429 L12.447443,13.0214076 Z M39.0789916,9.6921137 L39.8749369,9.6921137 C39.9472028,9.6921137 40.0197089,9.61823311 40.0197089,9.54404545 L40.0197089,9.02614437 L47.1841776,9.02614437 L47.1841776,9.54404545 C47.1841776,9.61823311 47.2564435,9.6921137 47.3289496,9.6921137 L48.1248949,9.6921137 C48.197401,9.6921137 48.2696668,9.61823311 48.2696668,9.54404545 L48.2696668,8.95226379 C48.2696668,8.43430129 47.9078571,7.99052645 47.3289496,7.99052645 L44.2169537,7.99052645 L44.2169537,7.54644455 C44.2169537,7.47256396 44.1446878,7.39843772 44.0721817,7.39843772 L42.9144267,7.39843772 C42.8421609,7.39843772 42.7695947,7.47256396 42.7695947,7.54644455 L42.7695947,7.99052645 L39.8026711,7.99052645 C39.2960294,7.99052645 38.8617136,8.43430129 38.8617136,8.95226379 L38.8617136,9.54404545 C38.9342197,9.61823311 39.0064855,9.6921137 39.0789916,9.6921137 Z M35.9669957,9.61823311 C35.8222238,9.61823311 35.6776921,9.6921137 35.6776921,9.76599429 L34.5196968,12.1335509 C34.5196968,12.2076771 34.5196968,12.2815577 34.5919627,12.2815577 L35.749958,12.2815577 C35.8947299,12.2815577 36.0395018,12.2076771 36.0395018,12.1335509 L37.1973169,9.76599429 C37.1973169,9.6921137 37.1973169,9.61823311 37.1250511,9.61823311 L35.9669957,9.61823311 Z M26.4145108,7.62057079 L18.8882324,7.62057079 C18.3090845,7.62057079 17.8749489,8.06440704 17.8749489,8.65618871 L17.8749489,14.4271654 C17.8749489,15.0190085 18.3090845,15.463029 18.8882324,15.463029 L26.4145108,15.463029 C26.9933583,15.463029 27.4274939,15.0190085 27.4274939,14.4271654 L27.4274939,8.65618871 C27.4274939,8.13853328 26.9933583,7.62057079 26.4145108,7.62057079 Z M19.1775359,14.501046 L26.0526411,14.501046 L26.0526411,8.73031495 L19.1775359,8.73031495 L19.1775359,14.501046 Z M48.2696668,10.5058442 L46.7498018,10.5058442 L46.7498018,9.84012053 C46.7498018,9.76599429 46.6775359,9.6921137 46.6052701,9.6921137 L45.5920468,9.6921137 C45.5197809,9.6921137 45.375009,9.76599429 45.375009,9.84012053 L45.375009,10.5058442 L41.9736494,10.5058442 L41.9736494,9.84012053 C41.9736494,9.76599429 41.9011433,9.6921137 41.8288775,9.6921137 L40.8156542,9.6921137 C40.7433883,9.6921137 40.6708822,9.76599429 40.6708822,9.84012053 L40.6708822,10.5058442 L39.0789916,10.5058442 C39.0064855,10.5058442 38.9342197,10.5799704 38.9342197,10.653851 L38.9342197,11.4678272 C38.9342197,11.5417078 39.0064855,11.615834 39.0789916,11.615834 L40.5263506,11.615834 L40.5263506,12.0596089 C40.5263506,12.6514519 40.8156542,13.1694144 41.4670678,13.5393087 C41.7566117,13.6873155 42.0459753,13.8353223 42.407785,13.9831449 C41.8288775,14.205278 41.25003,14.3532848 40.7433883,14.3532848 L39.2960294,14.3532848 C39.2235233,14.3532848 39.0789916,14.4271654 39.0789916,14.501046 L39.0789916,15.3150222 C39.0789916,15.3889028 39.1512575,15.463029 39.2960294,15.463029 L40.6708822,15.463029 C41.25003,15.463029 41.9011433,15.3150222 42.4802911,15.0931347 C42.6973289,15.0190085 43.1314645,14.7971211 43.6381062,14.5751723 C44.1446878,14.7971211 44.5788234,15.0190085 44.8683673,15.0931347 C45.4472748,15.3150222 46.0986284,15.463029 46.6775359,15.463029 L48.052629,15.463029 C48.1248949,15.463029 48.197401,15.3889028 48.197401,15.3150222 L48.197401,14.501046 C48.197401,14.4271654 48.1248949,14.3532848 48.052629,14.3532848 L46.6052701,14.3532848 C46.0261223,14.3532848 45.5197809,14.2791586 44.9406331,13.9831449 C45.230177,13.8353223 45.5920468,13.6131893 45.8815906,13.5393087 C46.532764,13.1694144 46.8223079,12.6514519 46.8223079,12.0596089 L46.8223079,11.615834 L48.3419326,11.615834 C48.4144387,11.615834 48.4867046,11.5417078 48.4867046,11.4678272 L48.4867046,10.653851 C48.4144387,10.5799704 48.4144387,10.5058442 48.2696668,10.5058442 Z M45.375009,11.9857283 C45.375009,12.2815577 45.3025029,12.5775713 44.9406331,12.7994588 L43.6381062,13.4654281 C43.2039706,13.243295 42.6973289,13.0214076 42.3355192,12.7994588 C41.9736494,12.5775713 41.9011433,12.3556839 41.9011433,11.9857283 L41.9011433,11.615834 L45.375009,11.615834 L45.375009,11.9857283 Z M30.7565276,12.3556839 L31.9142826,12.3556839 C31.9867887,12.3556839 32.0591146,12.2815577 31.9867887,12.2076771 L30.8287934,9.84012053 C30.8287934,9.76599429 30.6842617,9.6921137 30.5394898,9.6921137 L29.3814345,9.6921137 C29.3091686,9.6921137 29.2369028,9.76599429 29.3091686,9.84012053 L30.4669837,12.2076771 C30.4669837,12.2076771 30.6117556,12.3556839 30.7565276,12.3556839 Z M37.8486705,12.9474656 L34.0130551,12.9474656 L34.0130551,8.95226379 L37.4868608,8.95226379 C37.5591266,8.95226379 37.6313924,8.8783832 37.6313924,8.80425695 L37.6313924,7.99052645 C37.6313924,7.91640021 37.5591266,7.84245821 37.4868608,7.84245821 L29.0196248,7.84245821 C28.9473589,7.84245821 28.8748528,7.91640021 28.8748528,7.99052645 L28.8748528,8.80425695 C28.8748528,8.8783832 28.9473589,8.95226379 29.0196248,8.95226379 L32.5656962,8.95226379 L32.5656962,12.9474656 L28.802587,12.9474656 C28.7303212,12.9474656 28.657755,13.0214076 28.657755,13.0955338 L28.657755,13.9092643 C28.657755,13.9831449 28.7303212,14.0572712 28.802587,14.0572712 L32.5656962,14.0572712 L32.5656962,15.6108516 C32.5656962,15.6849778 32.6382023,15.7588584 32.7104681,15.7588584 L33.8682832,15.7588584 C33.9407893,15.7588584 34.0130551,15.6849778 34.0130551,15.6108516 L34.0130551,14.0572712 L37.7761643,14.0572712 C37.8486705,14.0572712 37.9209964,13.9831449 37.9209964,13.9092643 L37.9209964,13.0955338 C37.9932622,13.0214076 37.9209964,12.9474656 37.8486705,12.9474656 Z M55,3.62530756 L55,27.448573 L54.9274939,27.8925935 L54.8552281,28.2624878 L54.5656842,29.0023377 L54.3485864,29.3722933 L54.0590425,29.5200545 L53.7697389,29.8160682 L53.5524008,30.038017 L53.2630972,30.2601501 L52.9735533,30.4820375 L52.6841897,30.6300443 L52.32238,30.7778055 L51.9605102,30.8519932 L51.5261944,31 L3.47356533,31 L3.11175563,30.9258738 L2.74988586,30.8519932 L2.38807617,30.7039249 L2.09877258,30.5559181 L1.73690281,30.2601501 L1.44735894,30.038017 L1.15775499,29.7421876 L0.94071723,29.5200545 L0.723679468,29.2242865 L0.506641706,28.8543308 L0.217037762,28.1144809 L0.144771936,27.7445867 L0,27.3005048 L0,3.47730073 L0.0722658255,3.03352589 L0.144771936,2.66357023 L0.289543873,2.29367598 L0.434135595,1.92372032 L0.651413643,1.55358041 L0.94071723,1.40581924 L1.44735894,0.887856744 L1.73690281,0.665969325 L2.0262064,0.443836251 L2.31581034,0.296075075 L2.67762004,0.148006831 L3.03948981,0.0738805881 L3.40129951,0 L51.4539286,0 L51.8157383,0.0738805881 L52.177608,0.148006831 L52.5394177,0.296075075 L52.8287814,0.443836251 L53.1183253,0.665969325 L53.4078691,0.887856744 L53.9867767,1.47969983 L54.2038144,1.77571349 L54.4209123,2.14566915 L54.7104561,2.88551906 L54.782722,3.25541331 L55,3.62530756 Z M54.4209123,26.9306105 L54.4209123,3.99526323 C54.4209123,2.07154291 52.9012875,0.517962494 51.1643847,0.517962494 L3.90794121,0.517962494 C2.09877258,0.517962494 0.651413643,2.07154291 0.651413643,3.99526323 L0.651413643,26.8567299 C0.651413643,28.7802046 2.09877258,30.3340307 3.90794121,30.3340307 L51.1643847,30.3340307 C52.9735533,30.3340307 54.4209123,28.7802046 54.4209123,26.9306105 Z M41.8288775,25.7469858 L43.710372,25.7469858 L43.3485023,25.5250369 L43.2039706,25.4509107 L43.0591987,25.3029039 L42.9144267,25.1551427 L42.8421609,25.0810165 L42.6973289,25.3029039 L42.552557,25.3770301 L42.407785,25.4509107 L42.2630131,25.5250369 L41.8288775,25.7469858 Z M43.4932742,25.0071359 L43.2039706,25.0071359 L43.2039706,24.9330096 C43.2039706,24.9330096 43.2762364,24.8590676 43.2762364,24.785187 C43.2762364,24.7110608 43.3485023,24.6371802 43.4210084,24.563054 L42.6973289,24.563054 L42.6973289,24.7110608 L42.7695947,24.8590676 L43.0591987,25.1551427 L43.3485023,25.3770301 L43.5657803,25.4509107 L43.7828781,25.5250369 L44.0721817,25.5989175 L44.0721817,25.8208664 L43.9999159,25.9688732 L43.855144,25.9688732 L43.5657803,25.8208664 L43.6381062,25.9688732 L43.6381062,27.1527436 L43.5657803,27.2266242 L43.9999159,27.448573 L44.1446878,27.5965799 L44.1446878,27.6704604 L43.9999159,27.7445867 L43.855144,27.7445867 L43.710372,27.6704604 L43.5657803,27.5965799 L43.4210084,27.5226993 L43.2762364,27.448573 L43.1314645,27.374631 L42.9866926,27.3005048 L42.6973289,27.374631 L42.4802911,27.3005048 L42.4802911,27.0786174 L42.552557,27.0047368 L42.9144267,27.0047368 C42.9866926,27.0786174 43.1314645,27.0786174 43.2039706,27.1527436 L43.4210084,27.2266242 L43.4210084,26.2648869 L42.4802911,26.2648869 L42.4802911,26.4867743 L42.407785,26.8567299 L42.3355192,27.1527436 L42.1184814,27.3005048 L41.9011433,27.5226993 L41.6118397,27.6704604 L41.3222959,27.8184673 L40.9604261,27.8925935 L40.4538445,27.8925935 L40.4538445,27.7445867 L40.9604261,27.7445867 L40.7433883,27.3005048 L40.7433883,25.8208664 L41.3222959,25.8208664 L41.25003,25.7469858 L41.25003,25.5250369 L41.105198,25.5989175 C41.0326919,25.6727981 40.8881603,25.6727981 40.8156542,25.7469858 L40.5263506,25.8949926 L40.3815786,25.8949926 L40.3815786,25.8208664 C40.4538445,25.8208664 40.5263506,25.7469858 40.6708822,25.6727981 L40.8881603,25.5250369 L41.3222959,25.2290233 L41.5393336,25.1551427 L41.5393336,25.0071359 L41.3945617,25.0071359 C41.3222959,25.0071359 41.25003,24.9330096 41.1775239,24.9330096 L40.9604261,24.8590676 C40.8881603,24.8590676 40.8156542,24.8590676 40.7433883,24.785187 L40.6708822,24.785187 L40.5263506,24.3411665 L40.5263506,24.1931597 L40.6708822,24.1931597 L41.3222959,24.4152928 L41.4670678,24.563054 L41.4670678,24.7110608 L41.6118397,24.563054 L41.7566117,24.4152928 L41.8288775,24.267286 L41.8288775,24.1931597 L41.9011433,24.0453371 L42.0459753,24.0453371 L42.1184814,24.1931597 L42.1184814,24.4152928 L43.9276501,24.4152928 L43.9276501,24.7110608 L44.1446878,24.563054 L44.0721817,24.7110608 L43.9276501,25.0071359 L43.710372,25.0810165 L43.4932742,25.0071359 Z M41.7566117,25.0810165 L41.5393336,25.3770301 L41.7566117,25.3029039 L41.9736494,25.2290233 L42.1184814,25.1551427 L42.2630131,25.0810165 L42.3355192,24.9330096 L42.407785,24.785187 L42.4802911,24.6371802 L42.4802911,24.563054 L42.0459753,24.563054 C41.9736494,24.6371802 41.9736494,24.7110608 41.9011433,24.785187 L41.7566117,24.9330096 L41.6841056,24.9330096 L41.7566117,25.0810165 Z M42.407785,27.1527436 L42.5078311,27.0786174 L42.5078311,27.0047368 L42.407785,27.0786174 L42.407785,27.1527436 Z M42.1907473,26.1907606 L41.25003,26.3387674 L41.25003,27.374631 L41.105198,27.5226993 L41.5393336,27.374631 L41.7566117,27.2266242 L41.9011433,27.0786174 L42.0459753,26.8567299 L42.1184814,26.6348425 L42.1184814,26.3387674 L42.1907473,26.1907606 Z M38.9342197,25.5989175 L38.6446158,25.4509107 L38.6446158,24.3411665 L37.6313924,24.3411665 L37.6313924,25.0810165 L37.5591266,25.2290233 L37.2695827,25.5250369 L38.9342197,25.5250369 L38.9342197,25.5989175 Z M38.3550719,26.5607163 L38.4998438,26.4867743 L38.6446158,26.3387674 L38.7171819,26.2648869 L38.7894478,26.11688 L37.4868608,26.11688 L37.6313924,26.3387674 L37.7761643,26.5607163 L37.8486705,26.6348425 L37.9932622,26.7828494 L38.0657683,26.8567299 L38.1380341,26.9306105 L38.3550719,26.7828494 L38.3550719,26.5607163 Z M36.8354471,25.6727981 L36.7631813,25.5250369 L36.7631813,25.4509107 L36.7631813,25.5989175 L36.9802191,25.4509107 L37.1250511,25.2290233 L37.1250511,24.1931597 L38.6446158,24.1931597 L38.6446158,25.1551427 L39.0789916,25.1551427 L39.0789916,25.3029039 L38.4998438,25.3029039 L38.7894478,25.4509107 L38.7894478,25.6727981 L39.0789916,26.3387674 L39.0064855,26.4867743 L38.9342197,26.6348425 L38.8617136,26.7828494 L38.7894478,26.9306105 L38.7171819,27.0786174 L38.5723499,27.2266242 L38.7894478,27.3005048 L38.9342197,27.374631 L39.0789916,27.448573 L39.6578992,27.448573 L39.6578992,27.5965799 L39.1512575,27.5965799 L38.9342197,27.5226993 L38.7894478,27.448573 L38.6446158,27.374631 L38.4998438,27.3005048 L38.3550719,27.2266242 L38.2828061,27.1527436 L37.9932622,27.3005048 L37.8486705,27.374631 L37.7038985,27.448573 L37.5591266,27.5226993 L37.4143546,27.5965799 L37.0525449,28.0403547 L36.7631813,28.0403547 L36.6906752,27.8925935 L36.6184094,28.0403547 L35.8947299,28.0403547 L35.8947299,27.8925935 L35.9669957,27.7445867 L36.1840935,27.7445867 L36.3288655,27.8184673 L36.3288655,26.9306105 L36.1840935,27.0047368 C36.1117676,27.0047368 36.1117676,27.0047368 36.0395018,27.0786174 L35.8947299,27.0786174 L35.8947299,26.9306105 C35.9669957,26.9306105 35.9669957,26.8567299 36.0395018,26.8567299 L36.1840935,26.7828494 L36.3288655,26.7087231 L36.3288655,25.7469858 L35.9669957,25.7469858 L35.9669957,25.5250369 L36.3288655,25.5250369 L36.3288655,24.7110608 L36.5459032,24.7110608 L36.5459032,25.4509107 L36.9077129,25.4509107 L36.9077129,25.8208664 L36.4013716,25.8208664 L36.4013716,26.5607163 C36.4736374,26.5607163 36.5459032,26.4867743 36.6184094,26.412648 L36.8354471,25.6727981 Z M36.5459032,27.6704604 L36.6906752,27.5965799 L36.9802191,27.5226993 L37.2695827,27.448573 L37.4143546,27.374631 L37.7038985,27.2266242 L37.5591266,27.0786174 C37.4868608,27.0786174 37.4868608,27.0047368 37.4143546,26.9306105 L37.2695827,26.5607163 L37.1250511,26.3387674 L37.1250511,26.2648869 L37.1973169,25.9688732 L36.9077129,26.11688 C36.8354471,26.1907606 36.6906752,26.2648869 36.5459032,26.3387674 L36.5459032,27.6704604 Z M25.1116835,25.6727981 L26.3420047,25.6727981 L26.3420047,25.2290233 L25.1116835,25.2290233 L25.1116835,25.6727981 Z M25.1116835,24.785187 L26.3420047,24.785187 L26.3420047,24.4152928 L25.1116835,24.4152928 L25.1116835,24.785187 Z M25.835363,27.1527436 L25.6908314,26.9306105 L25.5460594,26.6348425 L25.4735533,26.3387674 L25.4012875,26.11688 L25.1116835,26.11688 L25.1116835,27.5226993 L25.4012875,27.2266242 L25.5460594,27.1527436 L25.835363,27.1527436 Z M24.677608,26.1907606 L24.5328361,26.2648869 L23.9539286,26.2648869 L23.9539286,27.374631 L24.3157383,27.0047368 L24.4605102,26.9306105 L24.677608,27.0047368 L24.677608,26.1907606 Z M24.677608,25.3029039 L24.677608,25.1551427 L24.7498739,25.0071359 L24.7498739,24.4891734 L23.9539286,24.4891734 L23.8091566,24.8590676 L24.6053422,24.8590676 L24.677608,25.0071359 L24.6053422,25.3029039 L24.0987005,25.3029039 L24.0987005,25.7469858 L24.677608,25.7469858 L24.82238,25.8208664 L24.82238,25.3029039 L24.677608,25.3029039 Z M26.5592828,26.11688 L25.7630972,26.11688 L25.835363,26.2648869 L25.9078691,26.4867743 L25.980135,26.7087231 L26.1249069,26.5607163 C26.3420047,26.412648 26.4145108,26.2648869 26.5592828,26.11688 Z M26.8485864,26.3387674 L26.3420047,26.8567299 L26.4145108,26.9306105 L26.5592828,27.0786174 L26.9933583,27.374631 L27.1381903,27.5226993 L27.1381903,27.7445867 L26.9933583,27.8184673 L26.7763205,27.8184673 L26.4867767,27.6704604 L26.2697389,27.5226993 L25.980135,27.3005048 L25.835363,27.1527436 L25.835363,27.374631 L25.5460594,27.6704604 L25.4012875,27.7445867 L25.2564555,27.8184673 L24.8946458,27.8184673 L24.82238,27.7445867 L24.82238,27.3005048 L24.3157383,27.8184673 L24.1709663,27.8925935 L23.9539286,27.8925935 L23.9539286,26.412648 L23.1579833,26.412648 L23.1579833,26.1907606 L23.5920588,26.1907606 L23.5920588,25.7469858 L23.519793,25.7469858 L23.4472869,25.8208664 L23.3025149,25.8949926 L23.1579833,25.8949926 L23.1579833,25.8208664 L23.2302491,25.6727981 L23.3025149,25.5250369 L23.375021,25.3770301 L23.4472869,25.2290233 L23.519793,25.0810165 L23.5920588,24.9330096 L23.6643847,24.785187 L23.6643847,24.563054 L23.8816627,24.563054 L23.8816627,24.8590676 L24.677608,24.8590676 L24.7498739,24.7110608 L26.6315486,24.7110608 L26.6315486,25.9688732 L26.4867767,26.0427538 L26.7038144,26.11688 L26.8485864,26.3387674 Z M29.3814345,23.9712109 L31.480207,23.9712109 L31.480207,24.1192791 L29.3091686,24.1192791 L29.3091686,23.9712109 L29.3814345,23.9712109 Z M28.4407172,23.9712109 L28.5854892,23.823204 L28.7303212,23.823204 L28.8748528,23.9712109 L28.8748528,24.1192791 L28.657755,24.3411665 L28.5129831,24.6371802 L28.3684514,24.8590676 L28.2236795,25.0810165 L28.0789075,25.1551427 L27.9341356,25.0810165 L27.9341356,25.0071359 L28.0789075,24.785187 L28.2236795,24.563054 L28.3684514,24.3411665 L28.4407172,23.9712109 Z M28.0789075,26.412648 L28.0066417,26.4867743 L27.8618097,26.412648 L27.7893036,26.2648869 L27.8618097,26.11688 L28.0789075,25.8949926 L28.2236795,25.6727981 L28.2959453,25.5250369 L28.3684514,25.3770301 L28.5129831,25.0810165 L28.657755,24.9330096 L28.802587,24.9330096 L28.9473589,25.0810165 C28.9473589,25.2290233 28.9473589,25.3029039 28.8748528,25.4509107 L28.7303212,25.6727981 L28.7303212,27.8925935 L28.5854892,27.8925935 L28.5854892,26.2648869 L28.0789075,26.412648 Z M28.9473589,25.2290233 L28.9473589,25.1551427 L31.480207,25.1551427 L31.480207,25.3029039 L31.1183373,25.3029039 L31.1183373,27.5226993 L31.0460714,27.5965799 L29.9605823,27.5965799 L29.7433042,27.5226993 L29.5987726,27.448573 L29.5987726,27.2266242 L29.6710384,27.0786174 L29.8880762,27.0786174 L30.2498859,27.1527436 L30.7565276,27.1527436 L30.7565276,25.2290233 L28.9473589,25.2290233 Z M15.7039706,24.4152928 L15.7039706,26.4867743 L16.0657803,26.4867743 L16.0657803,26.2648869 L15.9932742,26.0427538 L15.9932742,25.9688732 C15.9932742,25.8949926 15.9210084,25.8208664 15.9210084,25.6727981 L15.9210084,25.3029039 L16.0657803,24.4891734 L15.7039706,24.4891734 L15.7039706,24.4152928 Z M18.5263626,25.3029039 L18.4538565,25.3770301 L17.6579112,25.3770301 L17.8026831,25.5989175 L17.9472748,26.1907606 C17.9472748,26.2648869 18.0197809,26.412648 18.0197809,26.5607163 C18.0197809,26.7087231 18.0197809,26.9306105 18.0920468,27.0786174 L18.2368187,26.4867743 L18.2368187,26.2648869 L18.3090845,25.8208664 L18.3090845,25.4509107 L18.3815906,25.3770301 L18.5263626,25.3029039 L18.5986284,25.3770301 L18.5986284,26.412648 L18.5263626,26.6348425 L18.4538565,26.8567299 L18.3090845,27.2266242 C18.3090845,27.2266242 18.3090845,27.3005048 18.2368187,27.374631 L18.8882324,27.374631 L18.8882324,27.5965799 L16.572422,27.5965799 L16.572422,27.448573 L17.2961015,27.448573 L17.1513295,27.3005048 L17.0790036,27.0047368 L16.9342317,26.5607163 L16.7894598,26.1907606 C16.7169537,26.11688 16.6446878,25.9688732 16.6446878,25.8208664 L16.6446878,25.7469858 L16.8617256,25.7469858 L16.7894598,25.6727981 L16.8617256,25.8208664 L17.0064975,26.1907606 L17.0790036,26.3387674 L17.1513295,26.4867743 L17.1513295,26.6348425 C17.1513295,26.7087231 17.1513295,26.7828494 17.2235954,26.8567299 L17.2235954,27.0786174 L17.0790036,27.2266242 L17.8026831,27.2266242 L17.8026831,26.9306105 L17.6579112,27.0047368 L17.5854051,27.0047368 L17.5854051,26.6348425 C17.5854051,26.4867743 17.5854051,26.3387674 17.5131392,26.1907606 L17.3683673,25.7469858 L17.3683673,25.5989175 L17.5131392,25.4509107 L17.0064975,25.4509107 L17.0064975,25.3029039 L16.8617256,25.3770301 L16.7894598,25.3770301 L16.6446878,25.3029039 L16.6446878,25.5989175 L16.7894598,25.8949926 L16.8617256,26.11688 C16.8617256,26.1907606 16.9342317,26.2648869 16.9342317,26.3387674 L16.9342317,27.0786174 L15.7762364,27.0786174 L15.7762364,27.9664741 L15.6314645,27.9664741 L15.6314645,24.1931597 L16.572422,24.1931597 L16.7169537,24.0453371 L16.7169537,24.4891734 L16.6446878,24.9330096 L16.9342317,24.7110608 L17.0790036,24.6371802 L17.2235954,24.563054 L17.2961015,24.4891734 L17.3683673,24.4152928 C17.4408734,24.3411665 17.5131392,24.267286 17.5854051,24.1192791 L17.6579112,24.0453371 L18.0197809,24.0453371 L18.1645529,24.267286 L18.3090845,24.4152928 L18.5986284,24.563054 L18.7434604,24.6371802 L18.8882324,24.7110608 L19.032764,24.785187 L19.1775359,24.8590676 L19.3223079,25.0071359 L19.3223079,25.0810165 L19.1775359,25.2290233 L18.8157262,25.2290233 L18.5263626,25.0810165 L18.5263626,25.3029039 Z M17.0790036,24.9330096 L18.3090845,24.9330096 C18.2368187,24.9330096 18.1645529,24.8590676 18.0197809,24.785187 C17.9472748,24.785187 17.9472748,24.7110608 17.8749489,24.6371802 L17.8026831,24.563054 L17.730177,24.4891734 L17.6579112,24.3411665 L17.4408734,24.563054 L17.3683673,24.7110608 L17.2961015,24.785187 L17.0790036,24.9330096 Z M11.7960294,25.0071359 L11.7960294,25.0810165 L13.6775239,25.0810165 L13.6775239,24.3411665 L11.7960294,24.3411665 L11.7960294,25.0071359 Z M11.1446158,26.11688 L11.1446158,27.3005048 L11.4342197,27.1527436 L11.8682952,26.8567299 L12.3026711,26.412648 L12.447443,26.2648869 L11.2894478,26.2648869 L11.1446158,26.11688 Z M11.3619539,24.1931597 L11.2171219,24.7110608 C11.2171219,24.785187 11.1446158,24.9330096 11.1446158,25.0071359 L11.1446158,26.0427538 L11.2171219,25.9688732 L12.5197089,25.9688732 L12.5197089,25.5989175 L11.5064855,25.5989175 L11.5064855,24.1931597 L11.3619539,24.1931597 Z M13.2433883,26.4867743 L13.4604261,26.7087231 L13.6775239,26.8567299 L13.894802,27.0047368 L14.1118397,27.1527436 L14.4013836,27.3005048 L14.4736494,27.448573 L14.4736494,27.6704604 L14.3288775,27.8184673 L14.1841056,27.8184673 L13.9670678,27.6704604 L13.75003,27.5226993 L13.5329322,27.3005048 L13.3881603,27.1527436 L13.2433883,27.0047368 L13.0263506,26.9306105 L12.8815786,26.7828494 L12.8815786,27.8184673 L12.7367466,27.8184673 L12.7367466,26.7087231 L12.230165,27.2266242 L11.7960294,27.3005048 L11.3619539,27.5965799 L11.2171219,27.5965799 L11.0723499,27.5226993 L11.0723499,27.8184673 L10.8553122,27.8184673 L10.8553122,25.7469858 L10.4935025,25.8208664 L10.3486705,25.7469858 L10.3486705,25.5250369 L10.4209964,25.3770301 L10.4935025,25.2290233 L10.6380341,24.9330096 L10.7105402,24.785187 L10.7828061,24.563054 L10.8553122,24.3411665 L10.8553122,23.9712109 L10.927578,23.9712109 L11.0723499,24.0453371 L11.1446158,24.1931597 L11.2171219,24.1192791 L13.6775239,24.1192791 L13.6775239,25.4509107 L12.5919747,25.4509107 L12.5919747,25.8208664 L13.9670678,25.8208664 L13.9670678,26.0427538 L12.7367466,26.0427538 L13.2433883,26.4867743 Z M34.0130551,25.8949926 L34.0130551,26.11688 L33.5064134,26.11688 L33.5064134,25.6727981 L34.0130551,25.6727981 L34.0130551,25.8949926 Z M21.3485743,25.8949926 L21.3485743,26.11688 L20.8421729,26.11688 L20.8421729,25.6727981 L21.3485743,25.6727981 L21.3485743,25.8949926 Z" id="Fill-1" fill="#EC681B" mask="url(#mask-2)"></path>
            </g>
        </g>
    </g>
</svg>