<?xml version="1.0" encoding="UTF-8"?>
<svg width="42px" height="42px" viewBox="0 0 42 42" version="1.1" xmlns="http://www.w3.org/2000/svg" xmlns:xlink="http://www.w3.org/1999/xlink">
    <!-- Generator: Sketch 52.4 (67378) - http://www.bohemiancoding.com/sketch -->
    <title>上海银行</title>
    <desc>Created with Sketch.</desc>
    <defs>
        <polygon id="path-1" points="0.00376681614 0.0604320988 41.975704 0.0604320988 41.975704 20.7338889 0.00376681614 20.7338889"></polygon>
    </defs>
    <g id="页面-1" stroke="none" stroke-width="1" fill="none" fill-rule="evenodd">
        <g id="弹窗/银行icon" transform="translate(-89.000000, -566.000000)">
            <g id="上海银行" transform="translate(89.000000, 566.000000)">
                <g id="分组">
                    <mask id="mask-2" fill="white">
                        <use xlink:href="#path-1"></use>
                    </mask>
                    <g id="Clip-2"></g>
                    <path d="M21.6307534,17.833642 C27.0761883,17.833642 31.8408969,18.2796914 35.9250045,19.0978395 C38.4210224,19.6182099 40.3873004,20.0645062 41.975704,20.7338889 L20.8744395,0.0604320988 L0,20.6593827 C1.8152287,20.0645062 4.15969507,19.3951235 6.95806278,19.0233333 C11.4203587,18.1309259 16.3363677,17.833642 21.6307534,17.833642 Z" id="Fill-1" fill="#FCCF00" mask="url(#mask-2)"></path>
                </g>
                <path d="M20.6497181,42 L41.4814815,21.4113811 C38.5484555,21.1884683 34.5626764,21.1884683 29.5237073,21.560072 C24.2594425,21.9317373 20.5743698,22.4520318 18.4686764,23.0466099 C16.5885908,23.6411881 15.6860972,24.3847039 15.836544,25.3508857 C15.836544,25.6480205 15.9870532,25.9454639 16.2876971,26.3170675 L16.8141985,26.7629549 C17.5661828,27.2832493 17.9422374,27.506409 18.0926842,27.6549147 C18.7696324,28.249678 18.9951778,28.9184781 18.844731,29.8104379 C18.5438374,30.9253106 16.2125986,32.1889357 11.9259259,33.3780304 L20.6497181,42 Z" id="Fill-3" fill="#293C8F"></path>
            </g>
        </g>
    </g>
</svg>