<?xml version="1.0" encoding="UTF-8"?>
<svg width="21px" height="28px" viewBox="0 0 21 28" version="1.1" xmlns="http://www.w3.org/2000/svg" xmlns:xlink="http://www.w3.org/1999/xlink">
    <!-- Generator: Sketch 52.4 (67378) - http://www.bohemiancoding.com/sketch -->
    <title>wodejifenjilu</title>
    <desc>Created with Sketch.</desc>
    <defs>
        <polygon id="path-1" points="1.04098691e-16 0 24 0 24 29 1.04098691e-16 29"></polygon>
    </defs>
    <g id="蓝色" stroke="none" stroke-width="1" fill="none" fill-rule="evenodd">
        <g id="个人中心" transform="translate(-135.000000, -249.000000)">
            <g id="wodejifenjilu" transform="translate(133.000000, 249.000000)">
                <mask id="mask-2" fill="white">
                    <use xlink:href="#path-1"></use>
                </mask>
                <g id="Clip-2"></g>
                <path d="M6.46567686,16.182703 C5.89405466,16.182703 5.42511962,16.6668345 5.42511962,17.2917342 C5.42511962,17.8853626 5.89405466,18.3695418 6.46567686,18.3695418 C7.02978536,18.3695418 7.49151978,17.8853626 7.49151978,17.2917342 C7.49151978,16.6668345 7.02978536,16.182703 6.46567686,16.182703 Z M6.46567686,20.8140821 C5.89405466,20.8140821 5.42511962,21.3062221 5.42511962,21.9153431 C5.42511962,22.532425 5.89405466,23.0165565 6.46567686,23.0165565 C7.02978536,23.0165565 7.49151978,22.532425 7.49151978,21.9153431 C7.49151978,21.3140399 7.02978536,20.8140821 6.46567686,20.8140821 Z M6.46567686,11.5356406 C5.89405466,11.5356406 5.42511962,12.012002 5.42511962,12.6369016 C5.42511962,13.2381572 5.89405466,13.7459805 6.46567686,13.7459805 C7.02978536,13.7459805 7.49151978,13.2381572 7.49151978,12.6369016 C7.49151978,12.012002 7.02978536,11.5356406 6.46567686,11.5356406 Z M18.5122312,11.973056 L9.55058514,11.973056 C9.2134081,11.973056 8.92779826,12.2775212 8.92779826,12.6369016 C8.92779826,12.9960914 9.2134081,13.2929295 9.55058514,13.2929295 L18.5122312,13.2929295 C18.8492293,13.2929295 19.127728,12.9960914 19.127728,12.6369016 C19.127728,12.2775212 18.8492293,11.973056 18.5122312,11.973056 Z M22.0884648,4.36880678 L19.5447733,4.36880678 L19.5447733,3.78723656 C19.5447733,3.4443281 19.2955902,3.15356574 18.9939055,3.15356574 L16.0370431,3.15356574 C15.8730953,2.41555719 15.5321544,1.74457414 15.0732046,1.21524104 C14.4176136,0.46958803 13.5063169,0 12.5032622,0 C11.5000074,0 10.5887107,0.46958803 9.92655695,1.21524104 C9.46760721,1.74457414 9.13326899,2.41555719 8.9692812,3.15356574 L6.01245881,3.15356574 C5.69776871,3.15356574 5.46175114,3.4443281 5.46175114,3.78723656 L5.46175114,4.36880678 L2.91789947,4.36880678 C2.40640801,4.36880678 2,4.83093236 2,5.42747297 L2,26.9205444 C2,27.4871897 2.40640801,27.9642857 2.91789947,27.9642857 L22.0820622,27.9642857 C22.5933536,27.9642857 22.9999217,27.4871897 22.9999217,26.9205444 L22.9999217,5.42747297 C23.0064844,4.83093236 22.5999163,4.36880678 22.0884648,4.36880678 Z M10.5030801,2.21029227 C11.0233587,1.6636183 11.7342526,1.31205565 12.5109808,1.31205565 C13.2877089,1.31205565 13.9910444,1.6636183 14.5039882,2.21029227 C14.7971565,2.51494812 15.0316017,2.90540909 15.1634938,3.30373554 L9.8582441,3.30373554 C9.99751579,2.90540909 10.2246262,2.51494812 10.5030801,2.21029227 Z M5.87200555,6.70891179 L19.1423976,6.70891179 L19.1423976,4.63137912 L5.87200555,4.63137912 L5.87200555,6.70891179 Z M21.6697998,26.6719971 L3.34899902,26.6719971 L3.34899902,6.76368406 L4.64105665,6.76368406 L4.64105665,7.37275742 C4.64105665,7.74763046 4.904841,8.03660305 5.25655346,8.03660305 L19.7578944,8.03660305 C20.0950714,8.03660305 20.3735701,7.74763046 20.3735701,7.37275742 L20.3735701,6.76368406 L21.6697998,6.76368406 L21.6697998,26.6719971 Z M18.5122312,21.2749509 L9.55058514,21.2749509 C9.2134081,21.2749509 8.92779826,21.5561057 8.92779826,21.9231609 C8.92779826,22.2901685 9.2134081,22.5869589 9.55058514,22.5869589 L18.5122312,22.5869589 C18.8492293,22.5869589 19.127728,22.2901685 19.127728,21.9231609 C19.127728,21.5482879 18.8492293,21.2749509 18.5122312,21.2749509 Z M18.5122312,16.6122529 L9.55058514,16.6122529 C9.2134081,16.6122529 8.92779826,16.9169088 8.92779826,17.2917342 C8.92779826,17.6352883 9.2134081,17.9399442 9.55058514,17.9399442 L18.5122312,17.9399442 C18.8492293,17.9399442 19.127728,17.6352883 19.127728,17.2917342 C19.127728,16.9169088 18.8492293,16.6122529 18.5122312,16.6122529 Z" id="Fill-1" fill="#6B89FE" mask="url(#mask-2)"></path>
            </g>
        </g>
    </g>
</svg>