<?xml version="1.0" encoding="UTF-8"?>
<svg width="29px" height="26px" viewBox="0 0 29 26" version="1.1" xmlns="http://www.w3.org/2000/svg" xmlns:xlink="http://www.w3.org/1999/xlink">
    <!-- Generator: Sketch 52.4 (67378) - http://www.bohemiancoding.com/sketch -->
    <title>个人中心--代理中心--团队管理</title>
    <desc>Created with Sketch.</desc>
    <g id="蓝色" stroke="none" stroke-width="1" fill="none" fill-rule="evenodd">
        <g id="个人中心" transform="translate(-44.000000, -632.000000)" fill="#6B89FE">
            <g id="个人中心--代理中心--团队管理" transform="translate(44.000000, 632.000000)">
                <g id="分组" transform="translate(0.000000, 2.000000)">
                    <path d="M26.9492341,19.631269 C26.6950237,19.6426396 26.4523699,19.5175635 26.3193238,19.3014518 C26.1894197,19.0882538 26.1894197,18.8183096 26.3193238,18.5994264 C26.4494085,18.3862284 26.6920623,18.2582386 26.9492341,18.2696091 C27.1631046,18.2725228 27.3652379,18.1701168 27.4895442,17.9967513 C27.6194483,17.8119797 27.6483761,17.5760406 27.57333,17.3657563 C26.6459078,14.8499848 24.6003786,12.8941421 22.0202814,12.0499492 C21.6591357,11.9333655 21.4598194,11.5495736 21.5783113,11.1942437 C21.6966588,10.8389137 22.0867323,10.6428071 22.447878,10.7593909 C25.4324222,11.7344518 27.7986127,13.9999645 28.8704932,16.9079848 C29.0987372,17.5362081 29.0033948,18.2326904 28.6134658,18.7813909 C28.237802,19.3157716 27.6138144,19.6341827 26.9492341,19.631269 Z" id="Fill-1"></path>
                    <path d="M21.8181482,12.1608477 C21.5031208,12.157934 21.2315753,11.9504569 21.1535318,11.6520152 C21.0755243,11.353467 21.2113873,11.0408832 21.4857858,10.8873807 C23.144203,9.98903553 24.1785604,8.27208122 24.1785604,6.40730964 C24.1785604,3.92568528 22.3786102,1.80784772 19.8967447,1.37590863 C19.5471557,1.28775127 19.3246899,0.94951269 19.3882877,0.596954315 C19.4519215,0.247309645 19.7783611,-3.55329949e-05 20.1365455,0.0368832487 C23.2771046,0.582812183 25.5624707,3.269 25.5566924,6.40730964 C25.553731,8.76677157 24.2450112,10.9384416 22.1445878,12.0754975 C22.0492092,12.1324213 21.9336787,12.1608477 21.8181482,12.1608477 Z M20.4023487,15.4980355 C20.1076177,15.1285635 19.7869925,14.7760051 19.4461432,14.4491371 C18.3077036,13.357599 16.9181233,12.5189848 15.3723836,12.0130305 C15.0112379,11.8936751 14.8119215,11.5126548 14.930269,11.1545533 C15.0515778,10.7992234 15.4388344,10.6058883 15.7999801,10.7224721 C18.2066912,11.5069695 20.2694471,13.0107259 21.7343263,14.9778325 C21.803594,15.0716396 21.8730062,15.1682538 21.939457,15.2650102 L20.4023487,15.4980355 Z M2.2959477,20.9901218 C1.54191158,20.9901218 0.857143213,20.6432487 0.423768369,20.037802 C-0.0124234122,19.4237563 -0.119358655,18.6392589 0.1378132,17.9342843 C1.39463636,14.5231168 4.16812702,11.8652132 7.66983188,10.7224721 C8.03097758,10.6058883 8.42105106,10.7992234 8.53954296,11.1573249 C8.65789041,11.5126548 8.46153549,11.8964467 8.09742839,12.0130305 C5.003132,13.022132 2.55030262,15.3729949 1.43793773,18.3919137 C1.3280411,18.6789492 1.37152304,19.0030457 1.55350436,19.2560761 C1.7238929,19.4948223 2.0012528,19.6341827 2.2959477,19.6341827 C2.6774259,19.6341827 2.9864944,19.9382741 2.9864944,20.313467 C2.9864944,20.6858528 2.6774259,20.9901218 2.2959477,20.9901218 Z" id="Fill-3"></path>
                </g>
                <path d="M11.9999435,15 C7.58231346,14.9943117 4.00294006,11.639407 4,7.49853377 C4.00603089,3.35780186 7.58231346,0.00565292456 11.9999435,0 C16.4145957,0.00565292456 19.9969092,3.36069898 20,7.49853377 C19.9969092,11.639407 16.4176865,14.9943117 11.9999435,15 Z M11.9999435,1.35097831 C8.38140694,1.35097831 5.44134602,4.10967616 5.44134602,7.49853377 C5.44134602,10.8875327 8.38140694,13.6489864 11.9999435,13.6489864 C15.61848,13.6489864 18.5585409,10.8902885 18.5585409,7.49853377 C18.5585409,4.10967616 15.61848,1.35097831 11.9999435,1.35097831 Z" id="Fill-4"></path>
                <path d="M22.5001977,26 C22.3168921,26 22.1425283,25.929621 22.0272095,25.8086746 C21.8706183,25.6453601 21.3768646,25.2230859 20.9748929,25.2230859 C20.5729213,25.2230859 20.0733666,25.6481048 19.9284513,25.7973788 C19.8161624,25.9156155 19.6388057,25.9859946 19.4585299,25.9859946 C19.3727706,25.9859946 19.290078,25.9690684 19.2161794,25.9409168 L19.2043556,25.9352513 L17.9775274,25.2822043 L17.9658145,25.2736884 C17.7441186,25.1245201 17.6583962,24.8317433 17.7676553,24.5953049 C17.7676553,24.5924194 17.8800921,24.3474652 17.8800921,24.1195779 C17.8800921,23.4354233 17.2948149,22.8808014 16.5793653,22.8808014 L16.5291142,22.8808014 C16.3251909,22.8808014 16.156739,22.706367 16.103495,22.4388563 C16.100613,22.4162998 16,21.9067556 16,21.5042579 C16,21.1016547 16.100613,20.5921105 16.103495,20.569554 C16.156739,20.2965538 16.3282208,20.1219786 16.5380929,20.1276089 L16.5793653,20.1276089 C17.2976969,20.1276089 17.8800921,19.570207 17.8800921,18.8889732 C17.8800921,18.6636899 17.7676553,18.4159909 17.7676553,18.4132461 C17.6583962,18.176667 17.7441186,17.8838902 17.9658145,17.7374667 L17.9775274,17.7290916 L19.2752244,17.0506025 L19.2870482,17.0449722 C19.3609468,17.0140406 19.4407573,17 19.5264797,17 C19.7067554,17 19.8812671,17.070379 19.9964381,17.1829855 C20.1501472,17.3350042 20.6349592,17.7347219 21.0281369,17.7347219 C21.4154027,17.7347219 21.8971848,17.3462648 22.050894,17.1942461 C22.1662128,17.0816749 22.3405766,17.0140406 22.5179334,17.0140406 C22.6036927,17.0140406 22.6863853,17.0309316 22.7602839,17.0591184 L22.7721077,17.0647487 L24.0224726,17.726206 L24.0342964,17.7347219 C24.2559923,17.8838902 24.3417516,18.176667 24.2323447,18.4132461 C24.2294626,18.4159909 24.1200557,18.6636899 24.1200557,18.8889732 C24.1200557,19.572987 24.7053329,20.1276089 25.4206347,20.1276089 L25.4620549,20.1276089 C25.6688972,20.1219786 25.840342,20.2965538 25.896505,20.569554 C25.8995348,20.5921105 26,21.1016547 26,21.5042579 C26,21.9067556 25.8995348,22.4162998 25.896505,22.4388563 C25.8433718,22.7119973 25.671927,22.8864317 25.4620549,22.8808014 L25.4206347,22.8808014 C24.7023031,22.8808014 24.1200557,23.4381681 24.1200557,24.1195779 C24.1200557,24.3447204 24.2323447,24.5924194 24.2323447,24.5953049 C24.3417516,24.8317433 24.2589113,25.1216345 24.0342964,25.2709084 L24.0224726,25.2793187 L22.75149,25.9494327 L22.7396293,25.955063 C22.6657306,25.9859946 22.5859201,26 22.5001977,26 Z M22.4618073,25.4313374 C22.4677192,25.434223 22.4853441,25.4398533 22.5001977,25.4398533 L22.5030797,25.4398533 L23.6943996,24.8148523 C23.6677222,24.7501036 23.5347785,24.4432862 23.5347785,24.1223227 C23.5347785,23.1595375 24.3298909,22.371222 25.3260814,22.3233995 C25.3408242,22.2473901 25.4177527,21.8251159 25.4177527,21.5042579 C25.4177527,21.1860391 25.3408242,20.7610202 25.3260814,20.6850108 C24.3298909,20.6343027 23.5347785,19.8460928 23.5347785,18.8860876 C23.5347785,18.5623793 23.6677222,18.2555619 23.6943996,18.1908132 L22.5238822,17.5714425 L22.5179334,17.5714425 C22.4971678,17.5714425 22.4793952,17.5799584 22.4736311,17.5827032 C22.4528656,17.6023741 22.2844137,17.7656535 22.0390333,17.928968 C21.678371,18.1710367 21.3384742,18.2948686 21.0251071,18.2948686 C20.7117769,18.2948686 20.3659313,18.1682919 20.0053798,17.9233377 C19.7600364,17.7572784 19.5915844,17.5910783 19.5708189,17.5714425 C19.564907,17.5686978 19.5471344,17.5601467 19.5264797,17.5601467 L19.5234499,17.5601467 L18.3116601,18.193558 C18.3410718,18.2583067 18.4712811,18.5652648 18.4712811,18.8860876 C18.4712811,19.8488376 17.6759841,20.6371883 16.6799413,20.6850108 C16.6650877,20.7610202 16.588307,21.1832944 16.588307,21.5042579 C16.588307,21.822336 16.6650877,22.2473901 16.6799413,22.3233995 C17.6759841,22.3741076 18.4712811,23.1623175 18.4712811,24.1223227 C18.4712811,24.446031 18.3381897,24.7557339 18.3116601,24.8177379 L19.4585299,25.4285927 C19.4732358,25.4285927 19.4850595,25.4257071 19.4999501,25.4200768 C19.5234499,25.3975203 19.6920496,25.2258307 19.93743,25.054141 C20.3069232,24.7979262 20.6556139,24.6684287 20.9779228,24.6684287 C21.3029659,24.6684287 21.6548343,24.8008117 22.0243274,25.0625513 C22.26956,25.231461 22.4410049,25.4060362 22.4618073,25.4313374 Z" id="Fill-5"></path>
                <path d="M21.500064,23 C20.6732898,23 20,22.1024509 20,21.0000853 C20,19.8977198 20.6732898,19 21.500064,19 C22.3268382,19 23,19.8977198 23,21.0000853 C23,22.1024509 22.3293338,23 21.500064,23 Z M21.500064,19.6757535 C20.9547578,19.6757535 20.5094388,20.2696828 20.5094388,20.9965871 C20.5094388,21.7234914 20.9547578,22.3174207 21.500064,22.3174207 C22.0452422,22.3174207 22.4905612,21.7234914 22.4905612,20.9965871 C22.4905612,20.2696828 22.0477379,19.6757535 21.500064,19.6757535 Z" id="Fill-6"></path>
            </g>
        </g>
    </g>
</svg>