<?xml version="1.0" encoding="UTF-8"?>
<svg width="29px" height="30px" viewBox="0 0 29 30" version="1.1" xmlns="http://www.w3.org/2000/svg" xmlns:xlink="http://www.w3.org/1999/xlink">
    <!-- Generator: Sketch 52.4 (67378) - http://www.bohemiancoding.com/sketch -->
    <title>tixian</title>
    <desc>Created with Sketch.</desc>
    <g id="页面-1" stroke="none" stroke-width="1" fill="none" fill-rule="evenodd">
        <g id="个人中心" transform="translate(-244.000000, -149.000000)">
            <g id="tixian" transform="translate(244.000000, 149.000000)">
                <g id="分组" fill="#FD5E5E">
                    <path d="M14.5,29.0282927 C22.5081289,29.0282927 29,22.5364216 29,14.5282927 C29,6.52016381 22.5081289,0.0282926829 14.5,0.0282926829 C6.49187113,0.0282926829 0,6.52016381 0,14.5282927 C0,22.5364216 6.49187113,29.0282927 14.5,29.0282927 Z M9.21765,6.43669146 C9.89953902,5.7404439 11.2942622,5.98662561 12.601172,6.94327195 C12.9586854,5.70369878 13.668478,4.85516585 14.4859244,4.85516585 C15.3033354,4.85516585 16.0135524,5.70104634 16.370111,6.94327195 C17.6774098,5.98662561 19.0721329,5.7404439 19.7534915,6.43626707 C20.5859683,7.28518902 16.6162927,10.0721951 16.6302268,10.0721951 L12.3414451,10.0721951 C12.3553793,10.0721951 8.38570366,7.28518902 9.21765,6.43669146 Z M14.4859244,22.2408073 C10.4851622,22.2408073 7.2429622,21.1574451 7.2429622,17.6777988 C7.2429622,14.8427305 9.39614146,12.1601598 12.3553793,10.9407451 L16.6162927,10.9407451 C19.5755659,12.1601598 21.7287098,14.8421646 21.7287098,17.6772329 C21.7287098,21.1574451 18.4865451,22.2408073 14.4859244,22.2408073 Z" id="Fill-1"></path>
                </g>
                <path d="M16.62146,10.8974609 C19.3679199,12.2027181 21.0384928,14.0973918 21.6331787,16.5814819 C21.9947103,19.012146 21.161967,20.6458944 19.1349487,21.4827271 C17.0259806,22.2654826 14.4767863,22.4364217 11.4873657,21.9955444 C7.9200236,21.2175496 6.61460368,19.1512451 7.57110596,15.7966309 C8.19610406,13.6046575 10.6139221,11.5418701 12.3762512,10.9379272 L16.62146,10.8974609 Z" id="路径-39" fill="#FFFFFF"></path>
                <path d="M12.3687744,10.1000366 L16.6227417,10.1000366 C18.4089966,8.7296346 19.4489339,7.75874837 19.7425537,7.18737793 C20.033488,6.61999512 19.7741292,6.23893229 18.9644775,6.04418945 C18.0414632,6.0111084 17.1801961,6.29866536 16.3806763,6.90686035 C16.0151164,5.66650391 15.4140015,4.97743734 14.5773315,4.83966064 C13.6924438,4.86216227 13.0414632,5.55122884 12.6243896,6.90686035 C11.3376465,6.03169759 10.2790527,5.8129069 9.4486084,6.25048828 C8.8819987,6.59195964 9.01200358,7.17095947 9.83862305,7.98748779 C10.6652425,8.80401611 11.5086263,9.50819906 12.3687744,10.1000366 Z" id="路径-42" fill="#FFFFFF"></path>
                <path d="M15.8128159,13.073872 L15.1169573,14.465978 C14.8453829,15.0289317 14.7460402,15.2554854 14.522528,15.6714585 L14.483272,15.6714585 C14.2737293,15.2524793 14.1743866,15.0517427 13.8888427,14.465978 L13.1841427,13.0744378 L11.8463232,13.0744378 L13.6622537,15.9404512 L12.417411,15.9404512 L12.417411,16.5116805 L13.9255878,16.5116805 L13.9255878,17.015078 L12.417411,17.015078 L12.417411,17.5867317 L13.9255878,17.5867317 L13.9255878,18.7775707 L15.0549256,18.7775707 L15.0549256,17.5871561 L16.5548268,17.5871561 L16.5548268,17.0155024 L15.0549256,17.0155024 L15.0549256,16.5121049 L16.5548268,16.5121049 L16.5548268,15.9404512 L15.3012488,15.9404512 L17.1259146,13.0744378 L15.8133817,13.0744378 L15.8128159,13.073872 Z" id="Fill-3" fill="#FD5E5E"></path>
            </g>
        </g>
    </g>
</svg>