<?xml version="1.0" encoding="UTF-8"?>
<svg width="27px" height="27px" viewBox="0 0 27 27" version="1.1" xmlns="http://www.w3.org/2000/svg" xmlns:xlink="http://www.w3.org/1999/xlink">
    <!-- Generator: Sketch 52.4 (67378) - http://www.bohemiancoding.com/sketch -->
    <title>交易明细</title>
    <desc>Created with Sketch.</desc>
    <g id="页面-1" stroke="none" stroke-width="1" fill-rule="evenodd">
        <g id="个人中心" transform="translate(-132.000000, -457.000000)">
            <g id="交易明细" transform="translate(132.000000, 457.000000)">
                <path d="M6,19.9794993 C6,20.5408248 6.47847641,20.7905273 7.0704443,20.7905273 L10.9917603,20.7905273 C10.919214,20.3459776 10.8797856,20.0998289 10.8797856,19.633136 C10.8797856,19.4071022 10.8607899,19.4203567 10.8797856,19.1980591 L7.04256604,19.1980591 C6.45451183,19.194323 6,19.4144377 6,19.9794993 Z M14.163147,13.100708 L7.05356633,13.100708 C6.46551212,13.100708 6,13.2982224 6,13.8631473 C6,14.4244728 6.47377014,14.6650391 7.06573803,14.6650391 L12.3157959,14.6650391 C12.8273424,13.8958136 13.4414072,13.6839489 14.163147,13.100708 Z M20.6582093,2.71966553 L21.7274552,2.71966553 C22.9032772,2.71966553 24.236145,3.87146091 24.236145,4.99771131 L24.236145,11.3582764 C25.0074262,11.6716527 25.1847239,12.0600049 25.8299561,12.5483398 L25.8299561,4.97062793 C25.8299561,2.71794489 24.0869744,1.22735596 21.7274552,1.22735596 L20.6582093,1.22735596 C20.0664801,1.22735596 19.5892021,1.45562134 19.5892021,2.02072849 C19.5929248,2.58560783 20.0702028,2.71966553 20.6582093,2.71966553 Z" id="Fill-1"></path>
                <path d="M10.2201086,2.71966553 L15.4346427,2.71966553 C16.2993211,2.71966553 17,2.36495123 17,1.52352552 C17,0.681873113 16.2993211,0.312055651 15.4346427,0.312055651 L10.2201086,0.312055651 C9.35547675,0.312055651 8.65479789,0.681873113 8.65479789,1.52352552 C8.65479789,2.36495123 9.35547675,2.71966553 10.2201086,2.71966553 Z M12.2183838,24.232666 L4.15636049,24.232666 C3.00468281,24.232666 1.80865479,23.0619471 1.80865479,21.9411797 L1.80865479,5.07104305 C1.80865479,3.95009426 3.02276371,2.76202393 4.17080731,2.76202393 L5.21453413,2.76202393 C5.78834627,2.76202393 6.25807459,2.58988457 6.25807459,2.02757389 C6.25807459,1.46893578 5.79216672,1.22735596 5.21453413,1.22735596 L4.17080731,1.22735596 C1.86726559,1.22735596 0.25201416,2.82932682 0.25201416,5.07104305 L0.25201416,21.941361 C0.25201416,24.1828505 1.82485765,25.7528076 4.12839937,25.7528076 L13.8380127,25.7528076 C13.1930098,25.1651517 12.6657019,24.9834111 12.2183838,24.232666 Z" id="Fill-2"></path>
                <path d="M6.99110443,8.68823242 L18.1219521,8.68823242 C18.6935309,8.68823242 19.209548,8.58938431 19.209548,8.0229769 C19.209548,7.46026882 18.7882738,7.35681152 18.2128906,7.35681152 L7.082043,7.35681152 C6.5104178,7.35681152 6,7.45670651 6,8.0229769 C6.00380434,8.58938431 6.41947923,8.68823242 6.99110443,8.68823242 Z M19.8108656,12.8494056 C15.8394136,12.8494056 12.6215456,16.0173046 12.6215456,19.9265753 C12.6215456,23.8360743 15.8394136,27 19.8108656,27 C23.782132,27 27,23.8323293 27,19.923013 C27,16.0135596 23.7784668,12.8494056 19.8108656,12.8494056 Z M24.520777,19.4772218 C24.520777,19.678264 24.3462877,19.842587 24.1383944,19.842587 L20.4194207,19.842587 L20.4194207,21.3771665 L24.1383944,21.3771665 C24.3462877,21.3771665 24.520777,21.5452345 24.520777,21.746094 L24.520777,22.414758 C24.520777,22.6156175 24.3462877,22.7838682 24.1383944,22.7838682 L20.3822588,22.7838682 L20.3822588,24.1868249 C20.3822588,24.3876845 20.2079087,24.5557524 20.0000619,24.5557524 L19.3059555,24.5557524 C19.0981087,24.5557524 18.9237586,24.3876845 18.9237586,24.1868249 L18.9237586,22.7838682 L15.4793468,22.7838682 C15.2714535,22.7838682 15.0971034,22.6156175 15.0971034,22.414758 L15.0971034,21.746094 C15.0971034,21.5452345 15.2714535,21.3771665 15.4793468,21.3771665 L18.9199542,21.3771665 L18.9199542,19.842587 L15.4793468,19.842587 C15.2714535,19.842587 15.0971034,19.674519 15.0971034,19.4736138 L15.0971034,18.8049955 C15.0971034,18.6039076 15.2714535,18.4358853 15.4793468,18.4358853 L17.8102934,18.4358853 L16.5222925,16.3935394 C16.3923418,16.1707123 16.3849187,15.7359734 16.77092,15.5202709 C17.2609839,15.2389397 17.7100815,15.5860823 17.7100815,15.5860823 L19.6178649,18.4358853 L19.7216956,18.4358853 L21.5366902,15.5860823 C21.7222678,15.2792669 22.1972535,15.1695203 22.6129935,15.4582045 C23.1140993,15.8273147 22.8134637,16.2986358 22.8134637,16.2986358 L21.4921052,18.4396303 L24.1347757,18.4396303 C24.3426689,18.4396303 24.5169726,18.6076526 24.5169726,18.8085578 L24.5169726,19.4772218 L24.520777,19.4772218 Z" id="Fill-3"></path>
            </g>
        </g>
    </g>
</svg>