<?xml version="1.0" encoding="UTF-8"?>
<svg width="23px" height="22px" viewBox="0 0 23 22" version="1.1" xmlns="http://www.w3.org/2000/svg" xmlns:xlink="http://www.w3.org/1999/xlink">
    <!-- Generator: Sketch 52.4 (67378) - http://www.bohemiancoding.com/sketch -->
    <title>垃圾桶</title>
    <desc>Created with Sketch.</desc>
    <g id="页面-1" stroke="none" stroke-width="1" fill-rule="evenodd">
        <g id="开户--链接管理" transform="translate(-321.000000, -139.000000)">
            <path d="M339,157.630097 C339,158.397231 338.38095,159 337.593033,159 L327.406995,159 C326.619078,159 326,158.397231 326,157.630097 L326,143 L339,143 L339,157.630097 Z M329,141.5 C329,141.2 329.122143,141 329.305357,141 L336.694643,141 C336.877857,141 337,141.2 337,141.5 L337,143 L329,143 L329,141.5 Z M343.211341,141.743155 L337.896297,141.743155 L337.896297,140.920168 C337.896297,139.877826 337.001109,139 335.938149,139 L329.168407,139 C328.105448,139 327.210259,139.877826 327.210259,140.920168 L327.210259,141.743155 L321.839265,141.743155 C321.391657,141.743155 321,142.127189 321,142.566115 C321,143.005042 321.391657,143.388995 321.839265,143.388995 L324.356896,143.388995 L324.356896,157.982543 C324.356896,159.683355 325.755561,161 327.434063,161 L337.560591,161 C339.295045,161 340.637759,159.62849 340.637759,157.982543 L340.637759,143.388995 L343.15539,143.388995 C343.602998,143.388995 343.994655,143.005042 343.994655,142.566115 C344.050606,142.127189 343.658949,141.743155 343.211341,141.743155 Z M333.000016,157 C333.533358,157 334,156.633517 334,156.214649 L334,147.785377 C334,147.366509 333.533358,147 333.000016,147 C332.466674,147 332,147.366509 332,147.785377 L332,156.214649 C332,156.685875 332.466674,157 333.000016,157 Z M328.999935,157 C329.533303,157 330,156.633517 330,156.214649 L330,147.785377 C330,147.366509 329.533303,147 328.999935,147 C328.466697,147 328,147.366509 328,147.785377 L328,156.214649 C328,156.685875 328.400026,157 328.999935,157 Z M336.000082,157 C336.533328,157 337,156.633517 337,156.214649 L337,147.785377 C337,147.366509 336.533328,147 336.000082,147 C335.466705,147 335,147.366509 335,147.785377 L335,156.214649 C335,156.685875 335.466705,157 336.000082,157 Z" id="垃圾桶"></path>
        </g>
    </g>
</svg>