<?xml version="1.0" encoding="UTF-8"?>
<svg width="15px" height="18px" viewBox="0 0 15 18" version="1.1" xmlns="http://www.w3.org/2000/svg" xmlns:xlink="http://www.w3.org/1999/xlink">
    <!-- Generator: Sketch 52.4 (67378) - http://www.bohemiancoding.com/sketch -->
    <title>weibiaoti2fuzhi12 copy 2</title>
    <desc>Created with Sketch.</desc>
    <defs>
        <polygon id="path-1" points="5.20973754e-17 0 15 0 15 18 5.20973754e-17 18"></polygon>
    </defs>
    <g id="蓝色" stroke="none" stroke-width="1"  fill-rule="evenodd">
        <g id="登录" transform="translate(-38.000000, -233.000000)">
            <g id="weibiaoti2fuzhi12-copy-2" transform="translate(38.000000, 233.000000)">
                <mask id="mask-2" fill="white">
                    <use xlink:href="#path-1"></use>
                </mask>
                <g id="Clip-2"></g>
                <path d="M12.1875186,12.0857225 C12.070308,11.9571262 11.9530975,11.8285298 11.8359784,11.8285298 C11.4844383,11.8285298 11.2500172,12.0857225 11.2500172,12.4714363 C11.2500172,12.7285286 11.3672277,12.8571249 11.4844383,12.9857213 C12.8906218,14.1428123 13.8281461,15.9428098 13.9453567,18 L15,18 C14.8827894,15.5571212 13.8281461,13.5000314 12.1875186,12.0857225 Z M7.73443258,9.89993597 C5.62505436,9.89993597 3.86721629,7.97144256 3.86721629,5.65716008 C3.75000572,3.21428123 5.50784379,1.28568738 7.73443258,1.28568738 C9.84371924,1.28568738 11.6015573,3.21428123 11.6015573,5.52856372 C11.6015573,7.97144256 9.84371924,9.89993597 7.73443258,9.89993597 Z M12.7734112,5.65716008 C12.7734112,2.57137476 10.546914,0 7.61722201,0 C4.92185962,0 2.57815182,2.44287885 2.57815182,5.65716008 C2.57815182,7.71424984 3.63279516,9.51424733 5.15628076,10.5428424 C2.22658879,11.4428412 0.117210567,14.400005 0,18 L1.05464333,18 C1.1718539,14.2714087 3.9843353,11.3142448 7.38280088,11.1857238 L7.73443258,11.1857238 C10.546914,11.1857238 12.7734112,8.74284495 12.7734112,5.65716008 Z" id="Fill-1"  mask="url(#mask-2)"></path>
            </g>
        </g>
    </g>
</svg>