<?xml version="1.0" encoding="UTF-8"?>
<svg width="26px" height="26px" viewBox="0 0 26 26" version="1.1" xmlns="http://www.w3.org/2000/svg" xmlns:xlink="http://www.w3.org/1999/xlink">
    <!-- Generator: Sketch 52.4 (67378) - http://www.bohemiancoding.com/sketch -->
    <title>提现记录</title>
    <desc>Created with Sketch.</desc>
    <g id="页面-1" stroke="none" stroke-width="1" fill-rule="evenodd">
        <g id="个人中心" transform="translate(-306.000000, -456.000000)">
            <path d="M323.065305,471.73798 L317,474 L319.281848,467.948811 L327.589296,459.627765 C328.425407,458.790745 329.780805,458.790745 330.616778,459.627765 L331.373304,460.385661 C332.208899,461.222682 332.208899,462.580087 331.373304,463.417107 L323.065305,471.73798 Z M318.10437,472.88031 L321.787928,471.479449 L322,471.266541 L319.752075,469.063904 L319.537887,469.278936 L318.10437,472.88031 Z M320.541779,468.234237 L322.90487,470.475935 L328.614868,464.765991 L326.251221,462.524536 L320.541779,468.234237 Z M330.62648,461.277185 L329.722927,460.373505 C329.2249,459.875663 328.497985,459.978104 328,460.476275 L327.084509,461.391852 L329.615861,463.811346 L330.531311,462.896057 C331.029338,462.397763 331.124507,461.775521 330.62648,461.277185 Z M309.964348,475.839414 L310,474 L316,474 L315.503662,475.839414 L309.964348,475.839414 Z M316.5,471.829712 L309.937332,471.829712 L310,470 L317,470 L316.5,471.829712 Z M310,465.688232 L316,465.688232 L316,464 L310,464 L310,465.688232 Z M310,468.775146 L316,468.775146 L316,467 L310,467 L310,468.775146 Z M322,474 L322,475.839414 L316,475.839414 L319.316193,474 L322,474 Z M319.358574,458.350108 L319.358574,461.869573 C319.358574,462.493826 319.663873,463.245483 320.277421,463.245483 L322,463.245483 L321.055936,464.478293 L320.444464,464.478293 C319.21719,464.478293 318.222286,463.466053 318.222286,462.217439 L318.222286,457.485107 L308.582543,457.451646 C307.968959,457.451646 307.471436,457.60314 307.471436,458.227356 L307.471436,479.705685 C307.471436,480.329901 307.968959,480.462022 308.582543,480.462022 L323.41768,480.701482 C324.031228,480.701482 324.528931,480.195271 324.528931,479.571055 L324.528931,471.976012 L326,470.639296 L326,479.739146 C326,480.987615 325.00506,482 323.777786,482 L308.222214,482 C306.995083,482 306,480.987615 306,479.739146 L306,458.260817 C306,457.012349 306.995083,456 308.222214,456 L318.980238,456 L323.992084,461.491529 L323,462.217439 L319.358574,458.350108 Z" id="提现记录"></path>
        </g>
    </g>
</svg>