<?xml version="1.0" encoding="UTF-8"?>
<svg width="53px" height="53px" viewBox="0 0 53 53" version="1.1" xmlns="http://www.w3.org/2000/svg" xmlns:xlink="http://www.w3.org/1999/xlink">
    <!-- Generator: Sketch 52.4 (67378) - http://www.bohemiancoding.com/sketch -->
    <title>QQ</title>
    <desc>Created with Sketch.</desc>
    <defs>
        <polygon id="path-1" points="1.47259173e-16 0 53 0 53 53 1.47259173e-16 53"></polygon>
    </defs>
    <g id="页面-1" stroke="none" stroke-width="1" fill="none" fill-rule="evenodd">
        <g id="分享---分享朋友圈" transform="translate(-26.000000, -546.000000)">
            <g id="QQ" transform="translate(26.000000, 546.000000)">
                <mask id="mask-2" fill="white">
                    <use xlink:href="#path-1"></use>
                </mask>
                <g id="Clip-2"></g>
                <path d="M26.5001617,0 C11.8527476,0 0,11.8527476 0,26.5001617 C0,41.1472524 11.8527476,53 26.5001617,53 C41.1472524,53 53,41.1472524 53,26.5001617 C53,11.8527476 41.1472524,0 26.5001617,0 Z M37.3892424,33.1973074 C37.0035815,33.6789791 35.9919092,33.1010377 35.2209109,31.5109064 C35.0283069,32.2337051 34.5463764,33.3901702 33.4381756,34.8354441 C35.2691751,35.2691751 35.7508469,37.0518458 35.1728408,38.0155127 C34.7391745,38.6900472 33.7755722,39.2682474 32.0891066,39.2682474 C29.0536365,39.2682474 27.7528964,38.449179 27.1263673,37.8709141 C27.0300977,37.7263803 26.8372349,37.6781161 26.5964314,37.6781161 C26.3555632,37.6781161 26.2110293,37.7263803 26.0664307,37.8709141 C25.4882306,38.449179 24.1391615,39.2682474 21.1036915,39.2682474 C19.4172905,39.2682474 18.4053594,38.6900472 18.0199573,38.0155127 C17.3937517,37.0518458 17.9236877,35.2691751 19.7546872,34.8354441 C18.6944918,33.3901702 18.2128201,32.2337051 17.9719519,31.5109064 C17.2491531,33.1010377 16.1890224,33.727308 15.8036204,33.1973074 C15.5144879,32.7636411 15.3698894,31.848303 15.4181536,31.221774 C15.6110164,28.812833 17.2008889,26.7892295 18.1645559,25.7290988 C18.0199573,25.4399664 17.7308896,23.657231 18.9356188,22.4527606 L18.9356188,22.3564909 C18.9356188,17.586291 22.3082267,14.1654189 26.5964314,14.1654189 C30.8363719,14.1654189 34.257244,17.586291 34.257244,22.3564909 L34.257244,22.4527606 C35.4619732,23.657231 35.1728408,25.4399664 35.0283069,25.7290988 C35.943645,26.7892295 37.5818464,28.812833 37.7746445,31.221774 C37.8226499,31.848303 37.7263803,32.7636411 37.3892424,33.1973074 Z" id="Fill-1" fill="#30A5DD" mask="url(#mask-2)"></path>
            </g>
        </g>
    </g>
</svg>